<svg width="126" height="26" viewBox="0 0 126 26" fill="none" xmlns="http://www.w3.org/2000/svg">
<g clip-path="url(#clip0_229_9875)">
<path d="M115.885 24.436V6.13576H118.92C119.722 6.12239 119.829 6.6972 119.829 6.6972V0.548096H115.404H113.346H104.804V6.71057C104.804 6.71057 104.911 6.13576 105.713 6.14913H108.867V24.436C108.881 24.9306 108.466 25.3049 108.466 25.3049H116.3C116.286 25.3049 115.872 24.9306 115.885 24.436Z" fill="#0057A1"/>
<path d="M85.0197 19.8108H80.8623V1.41699C80.849 0.922389 81.2634 0.548096 81.2634 0.548096H73.4299C73.4299 0.548096 73.8443 0.922389 73.831 1.41699V24.436C73.8443 24.9306 73.4299 25.3049 73.4299 25.3049H85.9286V19.2494C85.9286 19.2494 85.8217 19.8242 85.0197 19.8108Z" fill="#0057A1"/>
<path d="M121.941 25.8529C124.067 25.8529 125.791 24.0934 125.791 21.9229C125.791 19.7524 124.067 17.9928 121.941 17.9928C119.815 17.9928 118.091 19.7524 118.091 21.9229C118.091 24.0934 119.815 25.8529 121.941 25.8529Z" fill="#0057A1"/>
<path d="M122.917 2.60673H123.519L124.334 3.82318H124.748L123.879 2.60673C123.973 2.59336 124.067 2.56663 124.16 2.52653C124.254 2.48642 124.321 2.44632 124.387 2.37948C124.454 2.31264 124.508 2.24581 124.548 2.15223C124.588 2.05866 124.601 1.96509 124.601 1.84478C124.601 1.60416 124.521 1.41701 124.374 1.28334C124.227 1.14966 123.986 1.09619 123.652 1.09619H122.529V3.82318H122.89V2.60673H122.917ZM122.917 1.37691H123.572C123.666 1.37691 123.746 1.37691 123.826 1.39028C123.906 1.40365 123.986 1.43038 124.04 1.45712C124.107 1.49722 124.16 1.53732 124.2 1.60416C124.24 1.65763 124.254 1.73784 124.254 1.84478C124.254 1.96509 124.227 2.04529 124.174 2.11213C124.12 2.17897 124.053 2.23244 123.973 2.25917C123.879 2.28591 123.786 2.31264 123.692 2.31264C123.585 2.31264 123.478 2.32601 123.371 2.32601H122.904V1.37691H122.917Z" fill="#0057A1"/>
<path d="M123.425 4.90597C124.722 4.90597 125.778 3.80983 125.778 2.47307C125.778 1.12294 124.735 0.0401611 123.425 0.0401611C122.128 0.0401611 121.072 1.13631 121.072 2.47307C121.086 3.80983 122.128 4.90597 123.425 4.90597ZM123.425 0.240675C124.601 0.240675 125.564 1.22988 125.564 2.4597C125.564 3.68952 124.601 4.67872 123.425 4.67872C122.249 4.67872 121.286 3.68952 121.286 2.4597C121.286 1.22988 122.249 0.240675 123.425 0.240675Z" fill="#0057A1"/>
<path d="M96.8501 1.41699V17.9795V18.073C96.8501 19.5568 96.0881 20.3322 95.1524 20.3322C94.2167 20.3322 93.4547 19.5435 93.4547 18.073V17.926V1.41699C93.4414 0.922389 93.8558 0.548096 93.8558 0.548096H85.9956C85.9956 0.548096 86.41 0.922389 86.3966 1.41699V18.1265V18.2067C86.3966 23.7409 90.3133 25.9733 95.1257 25.9733C99.938 25.9733 103.828 23.4201 103.828 18.1933V18.1399V1.41699C103.815 0.922389 104.229 0.548096 104.229 0.548096H96.4357C96.4357 0.548096 96.8501 0.922389 96.8501 1.41699Z" fill="#0057A1"/>
<path d="M15.2275 1.80459C15.2275 1.80459 14.9869 0.828755 15.5884 0.534668H6.6321C7.23364 0.842123 6.99303 1.80459 6.99303 1.80459L2.03364 23.1794C1.65935 24.8503 0.9375 25.2781 0.9375 25.2781H8.93133C8.4501 24.984 8.50357 24.5295 8.50357 24.5295L8.9848 21.3213H13.0887L13.5164 24.3557C13.5164 24.3557 13.61 24.9573 13.1288 25.2781H20.8018C20.8018 25.2781 20.5478 24.9172 20.1735 23.2596L15.2275 1.80459ZM9.67992 16.7228L11.0835 6.91102L12.447 16.7228H9.67992Z" fill="#0057A1"/>
<path d="M46.8018 8.78251C45.5051 7.79331 45.5185 6.97788 45.5185 6.97788C45.5185 5.46734 47.1226 5.49408 47.1226 5.49408C49.3015 5.49408 51.9216 7.33881 51.9216 7.33881V0.855518C51.3735 1.43033 50.7452 1.05603 50.7452 1.05603C49.4753 0.441122 47.9781 0.133667 46.5344 0.133667C41.8157 0.133667 38.9951 3.5023 38.9951 7.47248C38.9951 9.67814 39.9041 11.6565 41.3344 12.9666L41.4146 13.0334L45.7458 16.6694C45.7458 16.6694 46.7751 17.4581 46.7751 18.6478C46.7751 18.6478 46.8954 20.3054 45.0506 20.3054C42.5242 20.3054 39.0352 17.2308 39.0352 17.2308V24.5296C39.5967 24.0082 40.4388 24.5429 40.4388 24.5429C43.0188 26.0134 45.9596 25.9866 45.9596 25.9866C53.5123 25.9866 53.7396 18.8216 53.7396 18.8216C53.8866 16.4422 52.6568 14.437 52.6568 14.437C51.1864 11.9907 46.8018 8.78251 46.8018 8.78251Z" fill="#0057A1"/>
<path d="M63.3508 0C56.3729 0 54.0068 5.82828 54.0068 12.9799C54.0068 20.2787 56.5333 25.9465 63.3107 25.9465C70.1015 25.9465 72.6814 20.3856 72.6814 12.9799C72.6948 5.62776 70.1014 0 63.3508 0ZM65.4495 14.2766C65.4495 19.1023 64.5138 20.4391 63.3508 20.4391C62.1878 20.4391 61.2521 19.1424 61.2521 14.2766V11.3758C61.2521 6.83085 62.1878 5.50745 63.3508 5.50745C64.5138 5.50745 65.4495 6.96452 65.4495 11.3758V14.2766Z" fill="#0057A1"/>
<path d="M33.1936 12.4853H33.2203C35.6399 11.9239 37.2039 9.90536 37.2039 7.04469C37.2039 2.99431 34.263 0.534668 28.7422 0.534668H20.8152C20.8152 0.534668 21.2296 0.908961 21.2162 1.40356V24.3825C21.2296 24.8771 20.8152 25.2514 20.8152 25.2514H29.7314H30.0656C35.6666 25.2514 38.1931 22.2971 38.1931 18.5141C38.2064 15.1588 36.2548 13.0735 33.1936 12.4853ZM28.1807 5.61436H28.8224C30.1057 5.61436 31.1617 6.42978 31.1617 8.04726C31.1617 9.39739 30.119 10.4802 28.8224 10.4802H28.1807V5.61436ZM28.9026 20.2252H28.1807V14.8514H28.7956C30.2661 14.8514 31.5761 15.6267 31.5761 17.5383C31.5761 19.2761 30.373 20.2252 28.9026 20.2252Z" fill="#0057A1"/>
</g>
<defs>
<clipPath id="clip0_229_9875">
<rect width="124.853" height="26" fill="white" transform="translate(0.9375)"/>
</clipPath>
</defs>
</svg>
