<svg width="80" height="32" viewBox="0 0 80 32" fill="none" xmlns="http://www.w3.org/2000/svg">
<g clip-path="url(#clip0_229_9904)">
<path d="M79.0815 12.7174C78.8813 12.9879 78.6789 13.2563 78.4828 13.5288C77.5063 14.8934 76.5319 16.2581 75.5595 17.6248C74.6263 18.9357 73.6931 20.2446 72.76 21.5556C71.7835 22.9285 70.8049 24.2994 69.8304 25.6723C69.4629 26.1884 69.1017 26.7066 68.7362 27.2227C68.7094 27.2619 68.6764 27.295 68.6371 27.3425C68.5979 27.3197 68.5608 27.3032 68.5319 27.2785C67.7948 26.6674 67.0227 26.1079 66.2361 25.5628C65.2451 24.8774 64.2191 24.2498 63.1662 23.6656C62.0121 23.0235 60.8312 22.4351 59.6255 21.8963C58.6201 21.4483 57.6023 21.0333 56.57 20.6575C55.5048 20.2694 54.4271 19.9164 53.337 19.6046C51.8506 19.1773 50.3455 18.8243 48.826 18.5476C47.9693 18.3907 47.1042 18.273 46.2413 18.1533C45.5951 18.0645 44.9468 17.9943 44.2986 17.9241C44.0054 17.8932 43.7102 17.8787 43.4149 17.8663C42.7295 17.8354 42.042 17.8003 41.3566 17.7837C40.5659 17.7652 39.7752 17.7569 38.9866 17.7548C38.5613 17.7548 38.1339 17.7714 37.7086 17.7961C37.2359 17.823 36.7651 17.8643 36.2924 17.9014C35.7659 17.9427 35.2374 17.9778 34.713 18.0335C34.1597 18.0914 33.6085 18.1657 33.0573 18.2462C32.5081 18.3267 31.9589 18.4196 31.4118 18.5208C30.7842 18.6364 30.1546 18.752 29.5331 18.8965C28.6702 19.0968 27.8093 19.3074 26.9546 19.5427C25.4227 19.9639 23.9218 20.4759 22.4436 21.056C21.2854 21.5123 20.1479 22.0139 19.0289 22.5548C17.3546 23.3641 15.7442 24.287 14.1958 25.311C13.306 25.8994 12.4431 26.5249 11.6173 27.2C11.5595 27.2475 11.4975 27.2908 11.4253 27.3466C11.2746 27.136 11.1321 26.9378 10.9897 26.7375C10.2609 25.7115 9.53211 24.6854 8.80333 23.6594C7.79172 22.2348 6.78217 20.8103 5.77056 19.3879C4.78578 18.0046 3.79688 16.6235 2.81004 15.2403C2.22991 14.4413 1.65804 13.6423 1.08617 12.8413C1.04488 12.7835 1.01804 12.6988 0.918945 12.7174C0.918945 12.703 0.918945 12.6906 0.918945 12.6761C0.999461 12.7092 1.04488 12.6534 1.09856 12.6101C2.38269 11.5716 3.72875 10.6178 5.11404 9.71974C6.31353 8.94142 7.54604 8.21677 8.8054 7.53755C9.9863 6.90168 11.1858 6.30297 12.408 5.75381C13.9502 5.05806 15.5171 4.42632 17.1109 3.86271C18.905 3.22684 20.7238 2.66942 22.5675 2.19252C23.7979 1.87458 25.0346 1.58555 26.2815 1.34813C27.097 1.19329 27.9166 1.04877 28.7362 0.910452C29.3246 0.811355 29.9151 0.724645 30.5076 0.642065C31.0712 0.563613 31.6369 0.493419 32.2026 0.431484C32.729 0.375742 33.2555 0.334452 33.7819 0.291097C34.4384 0.237419 35.0949 0.181677 35.7535 0.142452C36.2263 0.113548 36.7011 0.109419 37.1739 0.0949677C37.304 0.0908387 37.4361 0.0908387 37.5662 0.0846452C37.6281 0.0825806 37.6942 0.0846452 37.7086 0C39.2508 0 40.7909 0 42.3331 0C42.3806 0.109419 42.4818 0.0825806 42.5664 0.0846452C42.9587 0.0990968 43.3489 0.10529 43.7411 0.125935C44.4121 0.163097 45.0851 0.200258 45.7561 0.249806C46.4539 0.301419 47.1538 0.357161 47.8495 0.431484C48.5659 0.509935 49.2823 0.602839 49.9946 0.708129C50.9855 0.85471 51.9786 0.999226 52.9633 1.18297C53.9894 1.37497 55.0093 1.6 56.0271 1.83123C57.9099 2.26065 59.7659 2.79123 61.6013 3.39613C62.7306 3.76774 63.8516 4.16413 64.9499 4.61832C65.9409 5.02916 66.936 5.42968 67.9104 5.87148C69.1884 6.44955 70.4415 7.07923 71.6678 7.76052C72.8818 8.43561 74.0751 9.14581 75.2374 9.90761C76.3935 10.6653 77.5187 11.4684 78.6067 12.321C78.7615 12.4428 78.9226 12.5543 79.0815 12.672C79.0815 12.6906 79.0815 12.703 79.0815 12.7174ZM77.2152 12.8846C77.1574 12.8351 77.1202 12.8021 77.0831 12.7732C76.2697 12.1352 75.4211 11.551 74.5561 10.9894C73.4888 10.2978 72.3987 9.64336 71.2859 9.02606C70.136 8.39019 68.9633 7.79974 67.7783 7.23613C66.6057 6.67871 65.4144 6.15639 64.2005 5.69394C63.129 5.28516 62.0472 4.90116 60.9613 4.52748C59.5244 4.03406 58.0689 3.60671 56.5928 3.24748C55.6121 3.008 54.6273 2.78297 53.6384 2.58271C52.602 2.37419 51.5615 2.17806 50.5169 2.02116C49.4784 1.86426 48.4338 1.75071 47.3912 1.6351C46.553 1.54219 45.7107 1.46787 44.8684 1.40387C44.28 1.35845 43.6895 1.34194 43.0991 1.31716C42.6469 1.29858 42.1928 1.27587 41.7386 1.27794C40.4524 1.28 39.1662 1.29239 37.88 1.30477C37.4258 1.3089 36.9737 1.32955 36.5195 1.34606C36.121 1.36052 35.7226 1.36877 35.3262 1.39561C34.8389 1.42658 34.3538 1.46994 33.8686 1.51123C33.3422 1.55458 32.8137 1.59174 32.2893 1.64955C31.5667 1.73213 30.8441 1.81677 30.1257 1.92826C29.0191 2.09961 27.9146 2.2751 26.8142 2.48568C25.2617 2.7809 23.7257 3.15252 22.202 3.57161C20.984 3.90606 19.7721 4.26942 18.5809 4.69058C17.4227 5.10142 16.2666 5.52671 15.1269 5.9871C14.0761 6.41239 13.0377 6.87277 12.0137 7.35587C11.0949 7.78942 10.1948 8.26839 9.29469 8.74323C7.9672 9.44103 6.67895 10.2111 5.43198 11.039C4.63095 11.5716 3.85675 12.1455 3.06811 12.6988C2.77082 12.9074 2.79559 12.8785 3.00204 13.1695C3.58836 14.0015 4.17882 14.8315 4.76514 15.6635C5.90062 17.2779 7.03611 18.8924 8.16953 20.5089C8.87972 21.5226 9.58991 22.5363 10.3001 23.5499C10.7192 24.1466 11.1362 24.7432 11.5553 25.3399C11.6544 25.4803 11.6833 25.4844 11.8175 25.3812C11.9435 25.2862 12.0653 25.185 12.1912 25.0901C13.8573 23.8286 15.6431 22.7592 17.4991 21.8054C18.4529 21.3161 19.4294 20.8702 20.4162 20.4532C21.6508 19.9308 22.906 19.4622 24.1819 19.0514C25.0449 18.7726 25.9182 18.5311 26.7894 18.2834C27.8795 17.9716 28.9881 17.7301 30.1009 17.5112C31.1992 17.2965 32.3017 17.1107 33.4144 16.9724C34.362 16.8547 35.3097 16.7515 36.2614 16.6875C36.8704 16.6462 37.4815 16.6049 38.0906 16.5739C38.4415 16.5574 38.7925 16.5595 39.1435 16.5595C40.0457 16.5615 40.9458 16.5636 41.848 16.5719C42.1907 16.576 42.5355 16.5905 42.8782 16.6152C43.5017 16.6586 44.1231 16.7102 44.7466 16.7659C45.3349 16.8196 45.9233 16.8733 46.5076 16.9497C47.2075 17.0426 47.9053 17.1644 48.6031 17.2697C49.656 17.4286 50.6965 17.6516 51.7329 17.8932C53.0728 18.2028 54.3961 18.5724 55.7029 18.9956C57.1089 19.4498 58.4942 19.9618 59.8547 20.544C61.3597 21.1881 62.8297 21.9066 64.25 22.72C65.0986 23.2052 65.9306 23.7151 66.7316 24.2746C67.2436 24.6338 67.7432 25.0116 68.2469 25.3832C68.377 25.4803 68.4018 25.4803 68.4947 25.3564C68.5071 25.3399 68.5153 25.3213 68.5277 25.3048C69.1863 24.3634 69.8449 23.424 70.5035 22.4826C71.3602 21.2604 72.215 20.0382 73.0738 18.8181C73.9471 17.5752 74.8245 16.3345 75.6999 15.0916C76.1272 14.4846 76.5587 13.8797 76.984 13.2707C77.0707 13.1468 77.1388 13.0147 77.2152 12.8846Z" fill="black"/>
<path d="M36.6765 32C36.6228 31.905 36.5278 31.9257 36.4432 31.9133C35.6793 31.7997 34.9898 31.5293 34.4881 30.9182C33.815 30.0986 33.6726 29.1695 33.9947 28.1662C34.2197 27.4622 34.6739 26.9171 35.2251 26.4444C35.2767 26.401 35.3283 26.3577 35.4006 26.2978C35.3387 26.2255 35.287 26.1657 35.2334 26.1079C34.8556 25.6949 34.5252 25.249 34.3064 24.7288C34.1371 24.3241 34.0463 23.9029 34.0814 23.4611C34.1392 22.7448 34.4695 22.1791 35.0599 21.7744C35.6814 21.3491 36.3689 21.2769 37.0914 21.4276C37.428 21.4978 37.7624 21.5783 38.101 21.632C38.454 21.6877 38.8112 21.6753 39.1663 21.634C39.2592 21.6237 39.3583 21.6258 39.4491 21.6423C39.6597 21.6815 39.7733 21.8178 39.765 22.0346C39.7567 22.239 39.7258 22.4433 39.7072 22.6498C39.668 23.1143 39.6267 23.5788 39.5936 24.0454C39.5751 24.2911 39.5689 24.5388 39.5565 24.7866C39.5524 24.865 39.5524 24.9517 39.6597 24.9517C39.9405 24.9559 40.2192 24.9538 40.5165 24.9538C40.5227 24.865 40.5351 24.7989 40.5309 24.7329C40.4938 24.1239 40.4587 23.5128 40.4133 22.9037C40.3947 22.6436 40.3555 22.3855 40.3286 22.1275C40.2935 21.7951 40.5062 21.5886 40.8613 21.6217C41.0657 21.6402 41.27 21.6836 41.4744 21.6774C41.7346 21.6691 41.9947 21.6361 42.2507 21.5907C42.5955 21.5308 42.9341 21.4338 43.2788 21.3863C44.563 21.2088 45.7067 21.9747 45.9751 23.1515C46.1114 23.7522 45.9875 24.3117 45.7377 24.8526C45.5003 25.3605 45.1782 25.8126 44.7715 26.2028C44.757 26.2173 44.7446 26.2338 44.7343 26.2524C44.7281 26.2627 44.7261 26.2792 44.7199 26.3081C44.8726 26.4506 45.0378 26.593 45.1906 26.7479C45.8285 27.3961 46.2517 28.1414 46.2579 29.0828C46.2621 29.8095 46.0412 30.4475 45.5622 30.9925C45.3124 31.2753 45.0006 31.4756 44.66 31.6325C44.3214 31.7894 43.9663 31.8926 43.5926 31.9257C43.5162 31.9319 43.4419 31.9793 43.3676 32.0062C43.0786 32.0062 42.7895 32.0062 42.5005 32.0062C42.4262 31.9773 42.3539 31.9339 42.2755 31.9236C41.7469 31.8472 41.2164 31.7791 40.6858 31.7068C40.469 31.6779 40.3575 31.5479 40.3575 31.3311C40.3575 31.2547 40.3637 31.1804 40.372 31.104C40.4071 30.8046 40.4587 30.5073 40.4731 30.2059C40.5041 29.6031 40.5144 28.9982 40.5309 28.3953C40.533 28.3231 40.5227 28.2488 40.5186 28.1641C40.1944 28.1641 39.8889 28.1641 39.5668 28.1641C39.5668 28.3891 39.5606 28.5997 39.5689 28.8124C39.5854 29.2377 39.6267 29.6609 39.6308 30.0862C39.6349 30.4784 39.6783 30.8666 39.7423 31.2526C39.7836 31.4962 39.6597 31.6697 39.414 31.7048C39.3253 31.7171 39.2365 31.7192 39.1477 31.7316C38.6935 31.7956 38.2373 31.8575 37.7831 31.9257C37.7149 31.936 37.6509 31.9793 37.5849 32.0062C37.2814 32 36.98 32 36.6765 32ZM44.9077 29.1117C44.8933 28.9486 44.8892 28.7835 44.8644 28.6204C44.7818 28.0733 44.5774 27.5778 44.2079 27.1566C44.0654 26.9956 44.0613 26.9915 43.8755 27.1174C43.3635 27.4601 42.8102 27.7161 42.2156 27.8751C41.9369 27.9494 41.654 27.999 41.3733 28.063C41.2122 28.1001 41.204 28.1104 41.2102 28.2673C41.2205 28.5956 41.2246 28.9259 41.2473 29.2542C41.2783 29.696 41.3774 30.1233 41.5859 30.5177C41.7862 30.8975 42.0938 31.1411 42.5088 31.2506C42.581 31.2691 42.6553 31.2815 42.7297 31.2919C43.3882 31.3951 44.2347 31.1081 44.6104 30.3835C44.8231 29.985 44.8995 29.5577 44.9077 29.1117ZM36.0427 27.0039C35.9849 27.0575 35.9353 27.0947 35.8961 27.1401C35.6793 27.4002 35.5018 27.6831 35.3861 28.0051C35.1797 28.5749 35.1529 29.1551 35.2581 29.7476C35.4873 31.0276 36.6641 31.5334 37.6633 31.2299C38.2001 31.0668 38.4891 30.6684 38.6646 30.1646C38.8917 29.5102 38.8855 28.8309 38.8711 28.1517C38.8711 28.1393 38.8587 28.129 38.838 28.0898C37.8409 27.9391 36.8871 27.6191 36.0427 27.0039ZM41.3279 25.024C41.4022 25.0446 41.46 25.0632 41.5199 25.0756C41.7614 25.1272 42.005 25.1706 42.2445 25.2284C42.7999 25.3667 43.3408 25.5401 43.8507 25.8023C44.0633 25.9117 44.0819 25.9014 44.2079 25.697C44.5114 25.2057 44.7219 24.6833 44.7921 24.1053C44.8603 23.5499 44.7653 23.04 44.4288 22.5837C44.0551 22.0779 43.347 21.857 42.7544 22.0593C42.292 22.2162 41.9761 22.5404 41.7511 22.9574C41.4538 23.5086 41.365 24.1115 41.3299 24.7267C41.3237 24.8237 41.3279 24.9187 41.3279 25.024ZM35.2912 23.7915C35.2994 23.936 35.2953 24.0805 35.318 24.223C35.4027 24.7659 35.6091 25.2655 35.9043 25.728C36.0158 25.9014 36.0261 25.9097 36.2161 25.8147C36.9717 25.4389 37.7748 25.2139 38.6047 25.0756C38.7596 25.0508 38.7967 25.0033 38.7782 24.834C38.7451 24.5285 38.7204 24.2188 38.6667 23.9153C38.5758 23.4095 38.4004 22.9368 38.0535 22.5404C37.7335 22.175 37.3247 21.9602 36.8437 21.9747C36.3647 21.9891 35.956 22.2059 35.6628 22.5961C35.4006 22.9491 35.2705 23.3476 35.2912 23.7915ZM41.2453 27.2784C41.8006 27.2722 43.124 26.8531 43.3841 26.4898C43.3717 26.4753 43.3593 26.4568 43.3428 26.4485C42.7462 26.1058 42.1041 25.8952 41.4249 25.7858C41.2907 25.7631 41.2639 25.7899 41.2597 25.9448C41.2515 26.2813 41.2494 26.6178 41.2453 26.9564C41.2432 27.0617 41.2453 27.169 41.2453 27.2784ZM36.6827 26.5146C37.3413 26.9832 38.0597 27.1814 38.8401 27.2991C38.8504 27.1938 38.869 27.1091 38.8669 27.0245C38.8607 26.6735 38.8484 26.3246 38.8401 25.9737C38.836 25.7734 38.8236 25.7589 38.6213 25.794C37.9792 25.9014 37.3681 26.1037 36.7962 26.4175C36.7632 26.4361 36.7363 26.4671 36.6827 26.5146ZM39.5544 25.6908C39.5524 26.2441 39.5503 26.7933 39.5565 27.3548C39.8703 27.3982 40.1573 27.3796 40.4422 27.3713C40.5144 27.3693 40.5557 27.3177 40.5557 27.2475C40.5578 26.7602 40.5557 26.273 40.5537 25.7879C40.5537 25.7197 40.5124 25.6805 40.438 25.6702C40.1511 25.6227 39.8662 25.6413 39.5544 25.6908Z" fill="black"/>
<path d="M47.2612 21.6464C47.4387 21.6072 47.4594 21.6134 47.5048 21.7311C47.5585 21.8714 47.6039 22.0139 47.6658 22.1935C47.7092 22.1274 47.7402 22.0965 47.7546 22.0572C47.7938 21.9478 47.8227 21.8343 47.8599 21.7249C47.8847 21.6526 47.9384 21.6072 48.0168 21.6196C48.0973 21.6299 48.1015 21.698 48.0994 21.762C48.0994 21.9478 48.0994 22.1336 48.0973 22.3194C48.0973 22.3421 48.0808 22.3669 48.0581 22.4309C47.9384 22.2472 48.0457 22.0531 47.9487 21.888C47.7959 22.0387 47.8455 22.2781 47.6803 22.4185C47.5296 22.2781 47.5626 22.0511 47.4016 21.8756C47.3871 21.9953 47.3768 22.08 47.3685 22.1625C47.3603 22.2389 47.3562 22.3153 47.3293 22.3917C47.2199 22.2823 47.2736 22.1501 47.2653 22.0304C47.255 21.8983 47.2612 21.7682 47.2612 21.6464Z" fill="black"/>
<path d="M49.5155 22.3959C49.4268 22.237 49.5424 22.0532 49.4474 21.8819C49.2781 22.0326 49.3318 22.2762 49.1501 22.4248C49.0717 22.239 49.0015 22.0697 48.9189 21.8736C48.793 22.0532 48.9065 22.2411 48.8075 22.4104C48.7042 22.2824 48.7579 22.1503 48.7496 22.0305C48.7393 21.9025 48.7476 21.7724 48.7476 21.6486C48.9272 21.6052 48.952 21.6135 49.0015 21.7435C49.0531 21.8757 49.0944 22.0119 49.1543 22.1895C49.2018 22.1131 49.2307 22.0801 49.243 22.0408C49.2864 21.9252 49.3153 21.8055 49.3648 21.6919C49.3793 21.6589 49.4392 21.6217 49.4743 21.6259C49.5114 21.6279 49.5733 21.6775 49.5733 21.7064C49.5754 21.9314 49.563 22.1544 49.5548 22.3794C49.5589 22.3794 49.5465 22.3815 49.5155 22.3959Z" fill="black"/>
<path d="M50.4695 22.1564C50.4158 22.3463 50.2981 22.4289 50.1143 22.4145C49.9388 22.4 49.8025 22.2617 49.7798 22.08C49.7529 21.8612 49.8583 21.6775 50.042 21.6217C50.2134 21.5701 50.358 21.6341 50.4633 21.8302C50.4014 21.8116 50.358 21.8096 50.327 21.7889C50.1597 21.6795 50.0606 21.6795 49.9718 21.7972C49.8686 21.9335 49.8851 22.1709 50.0049 22.2658C50.1123 22.3525 50.232 22.3422 50.3311 22.2287C50.3683 22.1832 50.389 22.1193 50.4695 22.1564Z" fill="black"/>
<path d="M47.096 21.6816C47.0134 21.7064 46.9515 21.7249 46.8648 21.7518C46.8627 21.8901 46.8607 22.0305 46.8607 22.173C46.8607 22.2205 46.8669 22.27 46.8565 22.3175C46.8503 22.3464 46.8214 22.3691 46.8049 22.396C46.7801 22.3712 46.7347 22.3464 46.7306 22.3196C46.7203 22.2163 46.7265 22.1131 46.7244 22.0099C46.7244 21.9273 46.7244 21.8468 46.7244 21.76C46.648 21.7353 46.584 21.7146 46.52 21.694C46.6274 21.6238 46.8772 21.6176 47.096 21.6816Z" fill="black"/>
<path d="M48.283 22.3876C48.3449 22.1233 48.4357 21.8715 48.5679 21.634C48.5121 21.9004 48.411 22.1481 48.283 22.3876Z" fill="black"/>
<path d="M14.7243 13.5308C14.78 13.5164 14.8378 13.504 14.8915 13.4875C15.3168 13.3512 15.7483 13.2913 16.1921 13.376C16.9952 13.5267 17.5217 14.0098 17.786 14.7675C18.1782 15.8885 17.9387 16.8919 17.1728 17.7796C16.731 18.2937 16.1694 18.6488 15.5852 18.977C14.6334 19.5138 13.6879 20.0588 12.7382 20.6018C12.6969 20.6245 12.6556 20.6452 12.5999 20.6741C12.5483 20.5543 12.5607 20.4573 12.6309 20.3603C12.9405 19.9329 12.9343 19.4973 12.6701 19.0513C11.9847 17.8993 11.2972 16.7494 10.6159 15.5953C10.2835 15.0338 9.96144 14.4661 9.62698 13.9045C9.54647 13.7683 9.45357 13.6403 9.3524 13.5205C9.14802 13.279 8.84866 13.2026 8.55137 13.3017C8.49976 13.3182 8.44815 13.3368 8.38621 13.3574C8.34698 13.2005 8.3986 13.0952 8.5204 13.0168C8.75163 12.8681 8.97873 12.7112 9.21408 12.5729C10.0729 12.065 10.9297 11.5592 11.7947 11.0637C12.1085 10.8821 12.4265 10.6983 12.7795 10.5972C13.2853 10.4526 13.7891 10.4361 14.2639 10.6901C14.8358 10.9956 15.1372 11.4808 15.164 12.1373C15.1826 12.6039 15.0587 13.0188 14.7738 13.3884C14.7491 13.4193 14.7263 13.4524 14.7036 13.4854C14.7098 13.4978 14.716 13.5143 14.7243 13.5308ZM16.3367 16.5595C16.3346 16.0681 16.2396 15.7048 16.0476 15.3724C15.802 14.9471 15.4572 14.6477 14.9534 14.5817C14.619 14.5383 14.2969 14.6064 13.9852 14.7241C13.5681 14.879 13.211 15.137 12.8373 15.3683C12.6763 15.4673 12.6783 15.4735 12.7712 15.6428C13.0768 16.2044 13.3823 16.7659 13.6879 17.3254C13.8159 17.5608 13.9418 17.7982 14.0801 18.0273C14.2577 18.3267 14.4807 18.4196 14.811 18.3184C15.0133 18.2565 15.2115 18.1698 15.3932 18.0624C16.0001 17.7053 16.3181 17.1664 16.3367 16.5595ZM12.54 11.8937C12.3728 11.9288 12.1952 11.9391 12.0425 12.0052C11.7472 12.1332 11.4665 12.2942 11.1816 12.4428C11.0866 12.4924 11.0866 12.5584 11.1341 12.6472C11.4458 13.2129 11.7514 13.7827 12.0631 14.3463C12.1725 14.5445 12.3212 14.5961 12.5338 14.5073C12.6845 14.4454 12.8332 14.367 12.9715 14.2782C13.4835 13.952 13.7601 13.3946 13.6012 12.7525C13.469 12.2178 13.0066 11.8751 12.54 11.8937ZM15.4138 13.6031C15.5047 13.696 15.5831 13.6712 15.6533 13.6795C16.2912 13.7497 16.8032 14.0222 17.1542 14.5755C17.3772 14.9264 17.4845 15.3084 17.5114 15.7213C17.5465 16.2374 17.4205 16.7164 17.2182 17.1809C17.1914 17.2428 17.1439 17.3027 17.1749 17.3832C17.2017 17.3708 17.2161 17.3667 17.2244 17.3584C17.7178 16.6524 17.916 15.8844 17.6827 15.0359C17.4329 14.1275 16.5741 13.5164 15.6347 13.5701C15.5707 13.5742 15.5088 13.5886 15.4138 13.6031ZM14.1689 18.5022C14.0574 18.3535 13.9377 18.2276 13.8551 18.081C13.4463 17.3564 13.0479 16.6255 12.6474 15.8988C12.5978 15.8101 12.5462 15.7233 12.4967 15.6408C12.2592 15.7337 12.253 15.7502 12.3563 15.9339C12.7816 16.704 13.2048 17.4761 13.6321 18.2441C13.6817 18.3329 13.7395 18.4217 13.8097 18.496C13.9377 18.6281 14.0141 18.624 14.1689 18.5022ZM13.3101 10.7685C13.8881 10.8944 14.2618 11.233 14.491 11.7347C14.716 12.2302 14.7305 12.7381 14.4972 13.2728C14.8688 13.0539 15.0195 12.0093 14.7119 11.5035C14.4063 11.0039 13.69 10.6013 13.3101 10.7685ZM10.7356 12.8144C10.7625 12.8743 10.779 12.9177 10.8038 12.959C11.0949 13.4751 11.3839 13.9892 11.677 14.5032C11.7101 14.561 11.7555 14.6168 11.8071 14.6622C11.898 14.7406 11.9743 14.7324 12.0776 14.6539C11.7018 13.9912 11.3281 13.3285 10.9421 12.6472C10.8595 12.7133 10.7996 12.7628 10.7356 12.8144Z" fill="black"/>
<path d="M61.7417 17.3461C61.7789 17.2573 61.7995 17.1933 61.8305 17.1335C62.169 16.4666 62.5097 15.7977 62.8524 15.1329C62.9556 14.9306 63.0258 14.8997 63.2963 14.9389C63.2818 15.0091 63.2736 15.0793 63.2529 15.1474C63.1456 15.4942 63.1063 15.8473 63.158 16.2065C63.2529 16.8527 63.5874 17.3564 64.1014 17.7466C64.5226 18.0666 64.9933 18.2648 65.5301 18.2504C65.8501 18.2421 66.1536 18.1472 66.4054 17.9324C66.7481 17.6413 66.8576 17.2697 66.7626 16.8382C66.678 16.4563 66.4405 16.1611 66.1887 15.8762C65.7303 15.3559 65.27 14.8356 64.8199 14.3092C64.4958 13.9293 64.3285 13.4751 64.3265 12.9817C64.3223 11.8421 65.0325 10.9461 66.1536 10.7438C66.8534 10.6178 67.5182 10.7582 68.1603 11.039C68.7342 11.2909 69.2256 11.6625 69.6694 12.1001C69.8449 12.2736 70.0266 12.4408 70.2103 12.608C70.3755 12.7587 70.5634 12.8682 70.7884 12.9094C70.8338 12.9177 70.8772 12.9404 70.9205 12.9549C70.9639 13.0725 70.8854 13.1448 70.8359 13.2212C70.584 13.6155 70.326 14.0057 70.07 14.3959C70.0018 14.4991 69.9378 14.6044 69.8676 14.7076C69.7293 14.9162 69.7272 14.9162 69.4444 14.8625C69.465 14.7964 69.4795 14.7324 69.5063 14.6705C69.6901 14.2452 69.6612 13.8199 69.4795 13.4091C69.176 12.7195 68.6599 12.2281 67.9662 11.935C67.6338 11.7946 67.2808 11.776 66.936 11.8875C66.3291 12.0857 66.0792 12.6823 66.3456 13.2645C66.4694 13.5391 66.6697 13.758 66.8617 13.9809C67.287 14.4764 67.7143 14.9698 68.1376 15.4653C68.3936 15.7668 68.598 16.095 68.6764 16.4935C68.7672 16.9539 68.7053 17.3957 68.5216 17.823C68.1396 18.7128 67.448 19.1856 66.5025 19.3136C65.6891 19.423 64.9355 19.2372 64.2171 18.8594C63.7732 18.6261 63.4057 18.2958 63.0465 17.9552C62.774 17.6971 62.4725 17.4844 62.1009 17.3936C61.9956 17.373 61.8862 17.3647 61.7417 17.3461ZM68.3172 16.0826C68.2986 16.0868 68.2821 16.0909 68.2635 16.095C68.2676 16.1466 68.2697 16.2003 68.2759 16.2519C68.3378 16.7742 68.3151 17.2801 68.0467 17.7528C67.7412 18.2896 67.3262 18.6798 66.711 18.8388C66.2609 18.9544 65.8088 19.0101 65.3463 18.9503C65.3174 18.9461 65.2865 18.9585 65.2555 18.9626C65.2534 18.975 65.2514 18.9895 65.2493 19.0019C65.3443 19.0308 65.4372 19.07 65.5342 19.0865C65.9368 19.1608 66.3414 19.1629 66.742 19.0762C67.2911 18.9565 67.7556 18.6901 68.0798 18.2174C68.4927 17.6166 68.6289 16.9683 68.3915 16.2622C68.3709 16.2044 68.342 16.1446 68.3172 16.0826ZM67.0805 11.6501C66.7192 11.489 66.2444 11.615 66.0235 11.8875C65.8336 12.1208 65.8212 12.736 66.0834 12.9817C66.0772 12.8909 66.071 12.8289 66.0669 12.7649C66.0442 12.3851 66.137 12.0527 66.486 11.8503C66.6078 11.7801 66.7523 11.7492 66.8865 11.7038C66.9401 11.6852 66.9938 11.6728 67.0805 11.6501ZM63.3458 17.3688C63.352 17.3585 63.3582 17.3482 63.3644 17.3358C63.2756 17.1582 63.1745 16.9848 63.1043 16.8011C63.0362 16.6153 62.9907 16.4191 62.9536 16.2251C62.9185 16.0372 62.9639 15.839 62.9247 15.6222C62.7781 15.7502 62.7285 15.8927 62.7244 16.0434C62.7141 16.5244 62.8648 16.9477 63.2158 17.2883C63.2529 17.3213 63.3025 17.342 63.3458 17.3688ZM70.6893 13.0829C70.5118 13.0127 70.5014 13.0127 70.425 13.1303C70.295 13.3306 70.1649 13.5329 70.0431 13.7394C69.9481 13.8984 69.9172 14.078 69.9089 14.2762C70.0534 14.1709 70.6377 13.2707 70.6893 13.0829Z" fill="black"/>
<path d="M45.147 13.3203C45.147 13.1758 45.2234 13.1221 45.3328 13.0891C45.4174 13.0643 45.5062 13.0396 45.5867 13.0024C45.8943 12.8599 46.0512 12.5998 46.0987 12.2757C46.1503 11.9226 46.1854 11.5676 46.2267 11.2125C46.2948 10.6117 46.363 10.013 46.427 9.41219C46.4848 8.87334 46.5405 8.3345 46.5983 7.7936C46.6623 7.18663 46.7305 6.57966 46.7924 5.97269C46.8068 5.82198 46.811 5.67127 46.8089 5.51849C46.8089 5.18197 46.6644 4.99617 46.3423 4.9012C46.3114 4.89294 46.2804 4.88468 46.2308 4.87229C46.3052 4.71952 46.4125 4.66378 46.5632 4.67823C46.8832 4.71126 47.2053 4.73603 47.5253 4.7732C48.0228 4.831 48.5204 4.89294 49.0159 4.96107C49.6208 5.04571 50.2257 5.13242 50.8285 5.22739C51.2621 5.29552 51.6936 5.38223 52.1271 5.46068C52.1539 5.46481 52.1808 5.47101 52.2076 5.4772C52.4657 5.53914 52.4863 5.56185 52.4863 5.82198C52.4863 6.17295 52.4843 6.52391 52.4863 6.87488C52.4863 6.9843 52.4739 7.08134 52.3294 7.11643C52.3088 7.07927 52.2819 7.04005 52.2696 6.99876C52.156 6.61475 51.8794 6.39591 51.5222 6.25966C51.1527 6.11927 50.7604 6.07798 50.3764 6.01604C49.8334 5.92933 49.2905 5.85294 48.7475 5.77656C48.6876 5.7683 48.6277 5.77449 48.5452 5.77449C48.5328 5.87359 48.5183 5.96649 48.508 6.0594C48.4399 6.63953 48.3738 7.2176 48.3077 7.79773C48.2892 7.95463 48.285 8.1136 48.2541 8.26844C48.2169 8.44805 48.2892 8.48728 48.4213 8.50379C48.7206 8.54302 49.02 8.5905 49.3194 8.62767C49.6806 8.67102 50.0419 8.71438 50.4032 8.74534C50.6179 8.76393 50.8265 8.71851 51.0185 8.61115C51.0886 8.57192 51.1588 8.53889 51.2662 8.48315C51.2662 8.59463 51.2745 8.66689 51.2641 8.73709C51.2043 9.18715 51.1423 9.63516 51.0804 10.0832C51.0721 10.1451 51.0577 10.205 51.0536 10.2669C51.0432 10.4197 50.9545 10.4981 50.7976 10.5353C50.7893 10.4878 50.779 10.4444 50.7728 10.4011C50.7604 10.3061 50.7604 10.2091 50.7418 10.1162C50.6613 9.72393 50.4941 9.54638 50.108 9.48651C49.5114 9.39567 48.9106 9.32548 48.3119 9.24909C48.1901 9.23257 48.1488 9.26354 48.1261 9.38741C48.1013 9.52161 48.0889 9.65993 48.0745 9.79619C48.0187 10.3288 47.9609 10.8615 47.9114 11.3941C47.8886 11.6398 47.8742 11.8876 47.868 12.1332C47.8597 12.4161 47.9836 12.6328 48.2479 12.7381C48.4626 12.8248 48.6856 12.9033 48.9147 12.9446C49.3462 13.021 49.7818 13.085 50.2195 13.1263C50.8554 13.1861 51.3405 12.9178 51.6729 12.3768C51.7493 12.255 51.8195 12.127 51.8773 11.9949C51.9413 11.8463 52.0445 11.7678 52.2159 11.7492C52.22 11.7926 52.2345 11.8318 52.2262 11.8669C52.0817 12.5441 51.9351 13.2233 51.7865 13.9005C51.7101 14.2473 51.6502 14.2762 51.3034 14.2143C50.2216 14.0223 49.1418 13.82 48.0559 13.6548C47.1888 13.5227 46.3134 13.438 45.4401 13.3348C45.341 13.3265 45.2481 13.3265 45.147 13.3203ZM47.6781 12.5688C47.6492 11.4643 47.8907 10.3804 47.9568 9.25735C47.8639 9.25115 47.7813 9.24702 47.6843 9.24083C47.6409 9.64135 47.6017 10.0171 47.5604 10.3908C47.5253 10.7108 47.4881 11.0308 47.4572 11.3508C47.4324 11.6026 47.4056 11.8566 47.3973 12.1085C47.3911 12.3459 47.4985 12.5007 47.6781 12.5688ZM47.771 8.36547C48.0187 8.44392 48.0228 8.44392 48.0497 8.23541C48.1302 7.60366 48.2066 6.97192 48.285 6.34017C48.3036 6.19772 48.3222 6.05527 48.3325 5.91075C48.3428 5.7683 48.3222 5.74559 48.1756 5.73114C48.1446 5.72701 48.1096 5.73939 48.0579 5.74559C47.963 6.61888 47.868 7.48805 47.771 8.36547ZM51.2105 13.9521C51.4066 14.0491 51.4892 14.0285 51.5676 13.8695C51.5924 13.8199 51.613 13.7683 51.6254 13.7167C51.6915 13.4236 51.7555 13.1304 51.8195 12.8352C51.8236 12.8104 51.8174 12.7856 51.8133 12.7154C51.6502 12.8971 51.4933 13.0251 51.4458 13.2481C51.3963 13.4896 51.3921 13.7498 51.2105 13.9521ZM50.9194 9.89941C51.0102 9.54019 51.0639 9.17683 51.0845 8.80109C50.8905 8.83412 50.8677 8.84651 50.8409 8.99309C50.8161 9.12728 50.8182 9.26973 50.779 9.3998C50.7191 9.59593 50.781 9.7487 50.9194 9.89941ZM51.9929 5.63204C52.0032 5.82817 52.0094 6.01191 52.0218 6.19359C52.0321 6.35049 52.125 6.44753 52.284 6.53217C52.284 6.31746 52.2902 6.12753 52.2819 5.93759C52.2778 5.73527 52.22 5.68159 51.9929 5.63204Z" fill="black"/>
<path d="M28.819 14.0181C28.7921 14.2369 28.7715 14.2617 28.5691 14.3112C27.8817 14.4784 27.1942 14.6415 26.5067 14.8129C26.1268 14.9079 25.7511 15.0152 25.3712 15.1164C25.2989 15.135 25.2267 15.1515 25.1441 15.1721C25.1173 15.0111 25.1462 14.8955 25.2845 14.8088C25.3836 14.7468 25.4703 14.6684 25.557 14.5899C25.7015 14.4557 25.7366 14.2885 25.6933 14.1006C25.6231 13.791 25.4538 13.5329 25.268 13.2831C24.9769 12.8908 24.6858 12.4986 24.3947 12.1063C24.2935 11.968 24.2832 11.9597 24.1222 12.0134C23.5358 12.2075 22.9495 12.4036 22.3632 12.6018C22.2331 12.6452 22.1051 12.6988 21.973 12.736C21.8801 12.7628 21.8367 12.8124 21.8347 12.9115C21.8305 13.089 21.8099 13.2666 21.8078 13.4462C21.8037 13.8322 21.7975 14.2162 21.8099 14.6023C21.8161 14.8067 21.8429 15.0152 21.8966 15.2113C21.9957 15.5644 22.2207 15.7109 22.5882 15.6944C22.6708 15.6903 22.7513 15.6779 22.8318 15.6697C22.8814 15.8348 22.8463 15.9091 22.6914 15.9649C22.3673 16.0805 22.0411 16.1858 21.7191 16.3076C21.2628 16.4789 20.8086 16.6586 20.3544 16.834C20.3193 16.8485 20.2801 16.8547 20.2285 16.8691C20.2223 16.7164 20.2574 16.6007 20.3606 16.5058C20.6723 16.2188 20.8024 15.8472 20.8313 15.4384C20.8809 14.7613 20.9201 14.0821 20.9572 13.4049C20.9903 12.8144 21.0151 12.2261 21.0398 11.6356C21.0687 10.9626 21.0956 10.2916 21.1224 9.6186C21.1492 8.96002 21.1761 8.30144 21.205 7.64287C21.2091 7.55409 21.236 7.46532 21.2298 7.37655C21.2215 7.22171 21.2855 7.13087 21.43 7.08545C21.6654 7.01113 21.9007 6.93474 22.134 6.8501C22.2744 6.80055 22.3714 6.84597 22.4582 6.95332C22.6027 7.13706 22.7513 7.31668 22.9 7.49835C24.0788 8.96002 25.2556 10.4196 26.4344 11.8813C26.8928 12.449 27.3593 13.0064 27.8135 13.5762C28.053 13.8777 28.3359 14.0573 28.7364 14.0036C28.7653 14.0015 28.7921 14.0139 28.819 14.0181ZM22.0205 8.96415C21.9998 8.97034 21.9812 8.97654 21.9606 8.98273C21.9007 9.30686 21.9296 9.63511 21.9193 9.9613C21.909 10.2834 21.8739 10.6054 21.8842 10.9275C21.8945 11.2516 21.8037 11.5778 21.8739 11.9019C22.0742 11.8834 23.6184 11.3466 23.7485 11.2475C23.1725 10.4878 22.5965 9.72595 22.0205 8.96415ZM28.0262 14.1006C27.9684 14.049 27.9374 14.0242 27.9106 13.9974C27.7351 13.824 27.541 13.665 27.3882 13.4751C25.8667 11.584 24.3534 9.68879 22.838 7.79564C22.6873 7.60777 22.5387 7.41784 22.3838 7.23409C22.262 7.09164 22.1485 7.08751 22.006 7.21139C22.5098 7.84519 23.0135 8.47899 23.5214 9.11073C24.6878 10.5621 25.8543 12.0134 27.0269 13.4627C27.1611 13.6279 27.316 13.7765 27.4688 13.9231C27.6091 14.0614 27.7908 14.1006 28.0262 14.1006ZM21.6612 8.58428C21.5869 8.86505 21.4403 11.8152 21.4837 12.0134C21.6902 11.9928 21.7025 11.9928 21.717 11.809C21.7459 11.4808 21.7603 11.1505 21.7769 10.8222C21.8078 10.2194 21.8305 9.61447 21.8636 9.01163C21.8739 8.83615 21.8016 8.71434 21.6612 8.58428ZM21.4527 12.9734C21.4445 13.3698 21.4321 13.7476 21.428 14.1233C21.4238 14.4661 21.4197 14.8088 21.4259 15.1535C21.43 15.4075 21.494 15.6449 21.7108 15.808C21.8471 15.9091 21.9957 15.9525 22.1898 15.8617C22.1175 15.8038 22.0638 15.7646 22.0143 15.7192C21.9585 15.6697 21.9028 15.618 21.8553 15.5602C21.7335 15.4095 21.6902 15.232 21.6922 15.042C21.6984 14.4248 21.7005 13.8075 21.7046 13.1881C21.7046 13.1014 21.7046 13.0147 21.7046 12.897C21.6076 12.928 21.5456 12.9466 21.4527 12.9734Z" fill="black"/>
<path d="M58.6615 15.8741C58.5273 15.9773 58.422 16.062 58.3126 16.1404C58.2383 16.1941 58.1598 16.1735 58.0773 16.1466C57.5116 15.9567 56.9438 15.7667 56.374 15.5851C56.0004 15.4674 55.6226 15.3662 55.2468 15.2547C55.2014 15.2424 55.1601 15.2176 55.0858 15.1866C55.2282 15.0215 55.3149 14.8377 55.5606 14.8191C55.862 14.7964 56.0726 14.6292 56.1862 14.3505C56.2832 14.1151 56.3782 13.8798 56.4525 13.6382C56.566 13.2707 56.6589 12.8971 56.7642 12.5275C56.8613 12.1807 56.853 11.8359 56.7725 11.4891C56.5103 10.3721 56.2502 9.25524 55.9921 8.13833C55.9137 7.79562 55.8373 7.45498 55.6845 7.13704C55.5482 6.8542 55.3562 6.63123 55.0672 6.4991C55.0486 6.49084 55.0342 6.47433 55.0197 6.46194C55.0156 6.45781 55.0135 6.44955 55.0073 6.43097C55.1167 6.29059 55.2468 6.2142 55.4429 6.26581C56.2605 6.47639 57.0822 6.67665 57.8997 6.8893C58.2053 6.96775 58.5026 7.06891 58.806 7.15975C58.7276 7.35794 58.6884 7.38891 58.5211 7.38685C58.4386 7.38685 58.356 7.37859 58.2734 7.38478C57.8027 7.41781 57.5487 7.71511 57.6272 8.21472C57.685 8.5884 57.7717 8.95588 57.8502 9.32543C58.0009 10.0232 58.1536 10.7211 58.3064 11.4189C58.3147 11.4581 58.3333 11.4932 58.356 11.5531C58.4117 11.5138 58.4571 11.4891 58.4922 11.454C59.124 10.8305 59.7557 10.207 60.3833 9.58143C60.5795 9.3853 60.7446 9.16647 60.8375 8.90014C60.98 8.49756 60.8685 8.20853 60.4969 7.99795C60.4494 7.97111 60.404 7.9422 60.3586 7.91536C60.4721 7.73575 60.5361 7.69859 60.693 7.75433C61.5911 8.08053 62.485 8.41085 63.381 8.74117C63.4058 8.74943 63.4244 8.77421 63.4533 8.79485C63.4016 8.91046 63.3149 8.95795 63.1952 8.96001C63.0713 8.96208 62.9475 8.96827 62.8236 8.9724C62.4871 8.98685 62.2228 9.14995 61.9875 9.37085C61.4651 9.86014 60.949 10.3536 60.4287 10.8429C59.8982 11.3425 59.3655 11.84 58.8287 12.3314C58.6409 12.5027 58.5046 12.7009 58.4282 12.9445C58.2837 13.4111 58.133 13.8736 57.9967 14.3422C57.9431 14.526 57.9121 14.718 57.8976 14.9079C57.8708 15.2775 58.0504 15.5376 58.3663 15.7131C58.4571 15.7605 58.5438 15.808 58.6615 15.8741ZM57.7222 15.3848C57.7139 15.3249 57.7139 15.2981 57.7036 15.2754C57.588 15.0297 57.6148 14.7861 57.6974 14.5342C57.8667 14.0119 58.0339 13.4875 58.1826 12.959C58.2734 12.6349 58.4406 12.3809 58.6925 12.158C59.0992 11.8008 59.4935 11.4271 59.8837 11.0493C60.4866 10.4651 61.077 9.87047 61.6778 9.28621C61.9296 9.04053 62.2146 8.85885 62.582 8.84233C62.6089 8.84027 62.6357 8.81756 62.6605 8.80517C62.6068 8.75975 62.5573 8.74324 62.5077 8.74117C62.0391 8.71021 61.6427 8.87537 61.3144 9.1995C60.9676 9.54221 60.6435 9.90763 60.2925 10.2483C59.6566 10.8656 59.0084 11.4705 58.3642 12.0795C58.1826 12.2509 58.0195 12.4346 57.9451 12.6803C57.7593 13.2976 57.5673 13.9128 57.3857 14.5322C57.2969 14.8398 57.4228 15.1598 57.7222 15.3848ZM57.9018 11.8792C58.1413 11.7368 58.1557 11.7038 58.1041 11.4767C57.8564 10.3721 57.6127 9.26763 57.3609 8.16311C57.301 7.89885 57.3671 7.67588 57.5405 7.47769C57.5653 7.45085 57.5818 7.41781 57.6169 7.36414C57.3299 7.39511 57.1647 7.53756 57.0677 7.77085C56.9955 7.9422 57.0491 8.10943 57.0842 8.27459C57.3278 9.38737 57.5715 10.5001 57.8171 11.6109C57.8378 11.6996 57.8729 11.7863 57.9018 11.8792ZM58.3828 15.8762C58.2424 15.7378 58.1743 15.7564 57.9844 15.9711C58.1351 16.0744 58.1846 16.064 58.3828 15.8762Z" fill="black"/>
<path d="M43.1899 10.7581C43.1899 10.849 43.1941 10.9171 43.1899 10.9832C43.1528 11.4353 43.1135 11.8854 43.0784 12.3375C43.0681 12.4738 43.0702 12.6121 43.0599 12.7504C43.0557 12.8247 43.0454 12.9011 43.0268 12.9734C42.9917 13.1117 42.9381 13.1571 42.7935 13.155C42.5747 13.1509 42.3559 13.1282 42.135 13.1261C40.919 13.1117 39.703 13.091 38.485 13.091C37.9915 13.091 37.4981 13.1385 37.0047 13.1633C36.9325 13.1674 36.8602 13.1592 36.7797 13.1571C36.7879 12.9672 36.8974 12.9011 37.0316 12.8474C37.3392 12.7277 37.5229 12.5047 37.5601 12.1723C37.5704 12.0918 37.5848 12.0092 37.5828 11.9267C37.5766 11.6583 37.5621 11.392 37.5539 11.1236C37.5353 10.5744 37.5188 10.0252 37.5023 9.47609C37.4878 9.00331 37.4754 8.52848 37.4589 8.0557C37.4465 7.71299 37.4341 7.37028 37.4176 7.02757C37.3949 6.52796 37.3743 6.02629 37.3433 5.52667C37.3144 5.06835 37.0728 4.81442 36.6187 4.7401C36.5732 4.73184 36.5258 4.72977 36.4783 4.72358C36.5216 4.53364 36.5918 4.45932 36.7528 4.43868C36.821 4.43042 36.8891 4.43248 36.9593 4.43042C37.3639 4.41803 37.7686 4.40151 38.1732 4.39532C38.7224 4.38706 39.2736 4.38706 39.8227 4.38293C39.8971 4.38293 39.9714 4.38293 40.054 4.38293C40.0684 4.53777 39.99 4.60177 39.8785 4.641C39.3562 4.82268 39.1745 5.06422 39.1745 5.61338C39.1745 6.72822 39.1766 7.84099 39.1869 8.95583C39.1931 9.80022 39.2117 10.6467 39.2282 11.4911C39.2302 11.5922 39.2426 11.6975 39.2695 11.7966C39.3458 12.0753 39.5564 12.2136 39.8186 12.2673C40.44 12.3953 41.0676 12.4077 41.6725 12.2198C42.2547 12.0402 42.6635 11.6438 42.8782 11.0637C42.9339 10.9233 42.9814 10.785 43.1899 10.7581ZM39.0857 4.88048C38.8483 5.03738 38.6893 5.22113 38.6501 5.48745C38.6253 5.65054 38.6109 5.81571 38.6109 5.9788C38.613 6.28848 38.6336 6.59609 38.6398 6.90577C38.6563 7.86164 38.6708 8.81751 38.6811 9.77338C38.6873 10.3163 38.6831 10.8593 38.6955 11.4043C38.6997 11.5819 38.7306 11.7594 38.7699 11.9329C38.807 12.096 38.8979 12.1476 39.1126 12.1496C38.966 11.8565 38.9639 11.5489 38.9618 11.2392C38.9515 9.7548 38.9371 8.26835 38.9226 6.78396C38.9206 6.60435 38.9164 6.4268 38.9164 6.24719C38.9164 5.81364 38.9144 5.38009 39.0898 4.97132C39.096 4.9548 39.0878 4.93209 39.0857 4.88048ZM42.4818 12.9445C42.7089 13.0043 42.7956 12.961 42.8452 12.7649C42.8637 12.6926 42.872 12.6162 42.8782 12.5419C42.9009 12.2611 42.9195 11.9803 42.9381 11.6996C42.9401 11.6665 42.9277 11.6314 42.9174 11.5633C42.7977 11.714 42.6779 11.8193 42.6552 11.9865C42.6366 12.129 42.6201 12.2735 42.6139 12.416C42.6057 12.6018 42.6119 12.7876 42.4818 12.9445Z" fill="black"/>
<path d="M29.3369 5.46892C29.372 5.2955 29.436 5.19434 29.5991 5.16957C30.1008 5.09318 30.6025 5.00647 31.1041 4.92802C31.4572 4.87434 31.8102 4.82479 32.1653 4.77937C32.3738 4.75254 32.5844 4.74221 32.8032 4.72363C32.795 4.89292 32.7392 4.99821 32.5865 5.05396C32.252 5.17989 32.1075 5.44208 32.1302 5.78273C32.157 6.16467 32.2107 6.5466 32.2603 6.92854C32.3325 7.48596 32.413 8.04337 32.4894 8.60079C32.5638 9.13757 32.6401 9.67434 32.7145 10.2111C32.8074 10.8841 32.8982 11.5572 32.9911 12.2302C33.0056 12.3396 33.0138 12.4491 33.0386 12.5564C33.1274 12.9177 33.3669 13.1056 33.7694 13.1365C33.8293 13.1407 33.8892 13.1427 33.9656 13.1469C33.9263 13.3161 33.8438 13.3946 33.6827 13.4132C33.2471 13.4607 32.8094 13.5081 32.3759 13.5742C31.8391 13.6527 31.3065 13.7497 30.7697 13.8364C30.7263 13.8447 30.6789 13.8426 30.6252 13.8447C30.6252 13.7001 30.6768 13.6072 30.7986 13.5556C30.8543 13.5309 30.908 13.4978 30.9596 13.4648C31.2879 13.2521 31.3539 12.9383 31.3023 12.5791C31.2507 12.2199 31.1929 11.8586 31.1372 11.4994C31.0195 10.7458 30.8998 9.99434 30.7779 9.24079C30.6128 8.2106 30.4476 7.18041 30.2783 6.15021C30.2102 5.73112 29.9418 5.50196 29.5145 5.48131C29.469 5.48544 29.4154 5.47718 29.3369 5.46892ZM31.9568 5.30996C31.7937 5.42144 31.6946 5.54531 31.6389 5.70428C31.5687 5.90454 31.5666 6.11099 31.5934 6.31537C31.7132 7.19279 31.8412 8.06815 31.965 8.94557C32.1158 10.0047 32.2623 11.0658 32.4192 12.1249C32.4543 12.3685 32.5059 12.6121 32.5741 12.8475C32.6257 13.0251 32.733 13.0725 32.9354 13.0663C32.8776 12.9074 32.8074 12.7525 32.7661 12.5894C32.7227 12.4181 32.7083 12.2385 32.6835 12.0609C32.6071 11.518 32.5307 10.9729 32.4564 10.43C32.38 9.87254 32.3078 9.31512 32.2334 8.7577C32.155 8.17344 32.0745 7.58918 31.9981 7.00286C31.9465 6.61473 31.8721 6.22867 31.899 5.83434C31.9072 5.67331 31.932 5.51228 31.9568 5.30996Z" fill="black"/>
<path d="M72.0746 15.232C71.6576 15.265 71.1827 14.8727 71.2054 14.336C71.224 13.8942 71.5337 13.5102 72.0664 13.4854C72.5702 13.4627 72.9728 13.8756 72.9687 14.3793C72.9625 14.8583 72.5557 15.2609 72.0746 15.232ZM72.0519 15.0854C72.3823 15.0978 72.7828 14.848 72.8014 14.3422C72.8159 13.9767 72.4669 13.6175 72.1159 13.632C71.7133 13.6506 71.3809 13.9375 71.3644 14.4062C71.352 14.7613 71.6885 15.0854 72.0519 15.0854Z" fill="black"/>
<path d="M72.0312 13.7269C72.1839 13.8281 72.3223 13.9127 72.4544 14.0098C72.5452 14.0779 72.6175 14.1687 72.5803 14.2926C72.5432 14.4185 72.4627 14.5073 72.3243 14.53C72.2789 14.5362 72.2335 14.5548 72.1778 14.5713C72.1778 14.6973 72.1778 14.8191 72.1778 14.9533C72.058 14.9512 71.9961 14.912 71.9961 14.8005C71.9961 14.7117 71.9981 14.6209 71.994 14.5321C71.9919 14.4887 71.9775 14.4454 71.9651 14.3896C71.7875 14.4289 71.7896 14.6023 71.6823 14.7034C71.6389 14.6787 71.5914 14.6498 71.5171 14.6064C71.6864 14.3133 71.8515 14.0325 72.0312 13.7269ZM72.0043 14.2183C72.0745 14.2596 72.1344 14.3091 72.2025 14.3318C72.3016 14.3649 72.4069 14.2761 72.3636 14.1956C72.3264 14.1233 72.2541 14.0573 72.1819 14.0222C72.1034 13.985 72.0683 14.0717 72.0353 14.1316C72.027 14.146 72.0229 14.1667 72.0043 14.2183Z" fill="black"/>
</g>
<defs>
<clipPath id="clip0_229_9904">
<rect width="78.1626" height="32" fill="white" transform="translate(0.918945)"/>
</clipPath>
</defs>
</svg>
