<svg width="55" height="44" viewBox="0 0 55 44" fill="none" xmlns="http://www.w3.org/2000/svg">
<g clip-path="url(#clip0_229_9784)">
<path d="M29.2374 0.0326986C32.1417 0.185552 35.0131 0.938902 37.6335 2.19448C38.9873 2.84957 40.2757 3.62476 41.4767 4.53096C42.0662 4.96769 42.6121 5.44808 43.1581 5.92848C43.6057 6.33245 43.9442 6.95478 44.4464 7.27141C45.3308 7.81731 46.9357 7.10764 47.8856 6.97662C49.8181 6.70367 51.838 6.57265 53.7595 6.97662C54.3273 7.09672 54.895 7.33692 54.895 7.98108C54.895 10.7434 54.895 13.5056 54.895 16.2788C54.895 16.9558 54.895 17.6436 54.895 18.3205C54.895 18.921 55.0916 19.9364 54.895 20.4932C54.4255 21.8034 51.6633 21.9781 50.5278 22.12C50.2002 22.1637 50.0911 22.2511 50.0801 22.6004C50.0365 25.5265 49.3705 28.3215 48.1585 30.9855C47.2305 33.0382 46.0077 34.9051 44.501 36.5975C42.9724 38.3225 41.2146 39.7637 39.2384 40.921C32.7203 44.7205 24.4444 44.9498 17.7734 41.4233C15.2186 40.0694 12.9367 38.1915 11.1243 35.9424C10.9168 35.6803 10.6766 35.4074 10.3491 35.3637C9.79228 35.2873 9.06076 35.855 8.55853 36.0516C7.88161 36.3136 7.16101 36.4992 6.4295 36.5429C5.01014 36.6302 3.63446 36.1826 2.47714 35.3637C1.35257 34.5776 0.697484 33.4421 0.468204 32.0774C0.391777 31.6406 0.249842 31.2476 0.304432 30.7781C0.337186 30.527 0.402695 30.2759 0.468204 30.0357C0.544631 29.7736 0.610139 29.5007 0.719321 29.2386C1.01411 28.5181 1.28706 27.9721 1.27614 27.1751C1.25431 25.0679 1.28706 22.9607 1.24339 20.8535C1.19972 18.8883 4.12577 18.7136 5.51238 18.6808C5.78533 18.6699 6.08012 18.6153 6.25481 18.4079C6.70245 17.8838 6.77888 16.4863 6.96449 15.8312C7.24836 14.8595 7.5759 13.8878 8.00171 12.9707C8.75506 11.322 9.81411 9.96818 10.7531 8.43965C11.7029 6.88927 13.3734 5.52451 14.8255 4.45453C17.1402 2.74039 19.7714 1.47389 22.5556 0.731458C24.7719 0.130962 27.0211 -0.0874006 29.2374 0.0326986Z" fill="#161958"/>
<path d="M28.3857 43.9126C28.3857 43.9454 28.3748 43.9672 28.3639 44C27.9272 44 27.4904 44 27.0537 44C27.4795 43.7489 27.9381 43.9345 28.3857 43.9126Z" fill="#6E6F8D"/>
<path d="M49.4469 20.0893C49.6762 22.2511 49.5561 24.391 49.0975 26.4982C48.5735 28.9002 47.6454 31.1603 46.3462 33.2456C44.4901 36.2372 42.0335 38.6282 38.9983 40.4297C36.4762 41.9255 33.7576 42.8645 30.8534 43.2248C28.9864 43.4541 27.1084 43.4977 25.2305 43.2357C22.6648 42.8863 20.2409 42.0784 17.9481 40.8992C17.7734 40.8119 17.6097 40.6809 17.4459 40.5826C17.4022 40.4625 17.2494 40.4625 17.2166 40.3861C17.0419 40.0039 16.7253 39.862 16.3323 39.862C16.2995 39.862 16.2777 39.8511 16.2558 39.8292C16.2122 39.589 16.4087 39.5454 16.5615 39.4908C16.4087 39.3488 16.2667 39.2287 16.0484 39.3379C15.9064 39.4034 15.7427 39.3598 15.699 39.196C15.6444 38.9885 15.8628 39.0104 15.972 38.923C15.5571 39.196 15.2623 38.8575 15.1531 38.6173C15.0002 38.2789 14.7382 38.1588 14.4653 38.0168C14.3124 37.6565 13.9412 37.5692 13.6682 37.3508C13.4499 37.1761 13.4499 37.1871 13.6246 36.9578C13.4499 36.9578 13.2861 37.1761 13.1114 36.9796C12.9476 36.8049 13.1878 36.7503 13.2206 36.6412C13.3734 36.1389 12.9149 36.4228 12.762 36.3027C12.6638 36.2372 12.6856 36.128 12.6856 36.0297C12.7184 35.7786 12.4236 35.7677 12.3581 35.593C12.1288 35.462 11.9868 35.2218 11.6811 35.1781C11.4846 35.1563 11.4409 34.9707 11.6265 34.8287C11.7248 34.7523 11.7903 34.665 11.7139 34.5558C11.6484 34.4575 11.5501 34.534 11.4737 34.5449C11.2117 34.5558 10.9715 34.5558 11.1789 34.1846C11.2881 33.999 10.9715 33.9335 11.0697 33.7588C11.2007 33.5841 11.4191 33.5622 11.6047 33.5186C14.5963 32.8744 17.5332 32.0119 20.3938 30.9528C21.9769 30.3742 23.5382 29.7082 25.0668 28.9876C28.9427 27.1533 32.7422 25.1335 36.7491 23.5831C40.6032 22.0873 44.4792 20.668 48.5735 20.002C48.8901 19.9583 49.1849 19.86 49.4469 20.0893Z" fill="#5AADE2"/>
<path d="M49.4469 20.0893C47.9511 20.1548 46.499 20.537 45.0687 20.9191C40.9744 22.0327 37.022 23.5067 33.1789 25.2863C30.1109 26.7057 27.0975 28.2124 24.0295 29.6208C20.0335 31.4551 15.8627 32.7434 11.5828 33.6824C11.43 33.7151 11.2553 33.6933 11.1243 33.8243C11.026 34.0754 10.8732 34.2719 10.5784 34.2829C9.5084 35.058 8.37292 35.6585 7.04091 35.8769C3.71088 36.4337 0.915845 34.1518 0.981353 30.9201C0.992271 30.1449 1.19972 29.4025 1.60369 28.7474C1.80021 28.4417 1.8548 28.125 1.8548 27.7757C1.84388 25.4501 1.8548 23.1245 1.8548 20.799C1.8548 20.7772 1.86572 20.7662 1.86572 20.7335C3.3615 21.2685 4.82453 20.799 6.29847 20.5806C6.50592 20.5479 6.74612 20.5915 6.90989 20.4059C7.89252 19.9801 8.87515 20.0675 9.80319 20.5479C10.2727 20.7881 10.7094 20.799 11.2116 20.6898C15.0002 19.8273 18.7014 18.7136 22.2935 17.2506C24.7173 16.2571 27.0756 15.1216 29.4121 13.9424C29.9471 13.6695 30.5039 13.4511 31.028 13.1563C31.8359 12.8178 32.6111 12.3811 33.43 12.0536C33.4737 12.0317 33.5282 12.0099 33.5719 11.999C33.823 11.9335 34.0523 11.8025 34.2816 11.6824C35.4498 11.1037 36.6945 10.6997 37.8955 10.1866C39.0856 9.68435 40.3412 9.38956 41.5312 8.92008C42.0116 8.77815 42.492 8.63621 42.9724 8.51611C43.5183 8.42877 44.0096 8.10123 44.5992 8.23224C46.3024 7.88286 48.0057 7.51165 49.7526 7.39155C51.03 7.3042 52.2965 7.28237 53.5521 7.5444C54.0543 7.65358 54.2945 7.85011 54.2945 8.4506C54.2617 12.1955 54.2727 15.9404 54.2727 19.6853C54.2727 19.8819 54.2727 20.0784 54.2727 20.2968C52.7223 19.8164 51.1828 19.8491 49.6434 20.0129C49.567 20.002 49.5014 20.0566 49.4469 20.0893Z" fill="#FBF0DB"/>
<path d="M31.1153 13.2218C30.0016 13.7896 28.8989 14.3682 27.7743 14.9142C25.1103 16.2134 22.4135 17.4362 19.6294 18.4189C16.7361 19.4452 13.7773 20.2422 10.7857 20.9191C10.5674 20.9737 10.3381 21.0174 10.1088 20.8536C9.22444 20.264 8.25273 20.1767 7.23734 20.395C7.13908 20.4169 7.01898 20.395 6.9098 20.395C6.69143 20.264 6.73511 20.0566 6.74603 19.8601C6.85521 18.4298 7.15 17.0323 7.5758 15.6566C8.0562 14.0953 8.73312 12.6213 9.55198 11.202C10.7857 9.08388 12.3361 7.24964 14.1813 5.64467C16.5177 3.62482 19.1927 2.24914 22.1187 1.36477C23.156 1.05907 24.215 0.807951 25.3068 0.764278C25.3832 0.797032 25.2741 0.971722 25.3396 0.917132C25.4924 0.786114 25.689 0.829787 25.8527 0.731524C26.1694 0.829787 26.1694 0.829787 26.0602 1.05907C26.1366 1.03723 26.2021 1.00448 26.2676 0.960804C26.4641 0.829787 26.7043 0.633261 26.8572 0.906214C26.9882 1.13549 26.6388 1.16825 26.5187 1.29927C26.4423 1.37569 26.355 1.4412 26.2676 1.50671C26.3877 1.48487 26.4423 1.37569 26.5187 1.31018C26.5406 1.16825 26.6497 1.41936 26.7698 1.23376C27.01 0.884377 27.414 0.655097 27.9053 0.764278C28.1019 0.807951 28.2984 0.764278 28.4949 0.720606C28.6587 0.676933 28.877 0.644179 28.9535 0.775196C29.3138 1.37569 29.4885 0.92805 29.6959 0.655097C30.22 0.491325 30.6895 0.895295 31.2026 0.786114C31.2463 0.906214 31.1699 0.993558 31.0934 1.06999C30.9733 1.201 30.9842 1.201 31.0279 1.40845C31.0607 1.53946 30.9406 1.59405 30.8641 1.67048C31.0388 1.52855 31.2463 1.39753 31.2572 1.14641C31.29 0.611424 31.5083 0.840705 31.7158 1.02631C31.8359 1.13549 31.9014 1.24468 32.1088 1.12458C32.3927 0.971722 32.3599 1.26651 32.4145 1.41936C32.5237 1.75783 32.6766 2.00894 33.0696 1.71415C33.3753 1.72507 33.6701 1.73599 33.9212 1.51763C33.9976 1.4412 34.1723 1.4412 34.2597 1.5613C34.347 1.67048 34.2706 1.76874 34.1723 1.83425C33.9431 1.96527 34.1833 1.95435 34.216 2.00894C34.347 2.17271 34.62 2.0417 34.7292 2.26006C34.7401 2.33649 34.7292 2.402 34.7073 2.4675C34.9584 2.7077 35.2641 2.86056 35.5917 2.96974C35.7555 3.02433 35.9411 3.16626 35.7882 3.3082C35.4607 3.60299 35.8646 3.63574 35.9192 3.64666C36.2904 3.75584 36.618 3.95237 36.8364 4.25807C36.9565 4.42185 37.0547 4.26899 37.153 4.30175C37.3167 4.44368 37.6661 4.41093 37.5897 4.77123C37.5679 4.8149 37.5351 4.85857 37.4914 4.88041C37.4259 4.91316 37.3058 4.935 37.3058 4.95683C37.3167 5.04418 37.4041 4.94592 37.4587 4.97867C37.9609 5.2407 37.9828 5.30621 37.7098 5.7211C37.6552 5.77569 37.5897 5.81937 37.5242 5.86304C37.0984 6.36527 36.5416 5.87396 36.0612 6.02681C35.952 6.05956 35.8974 5.85212 35.9411 5.7211C36.0066 5.51366 36.1158 5.32805 36.3669 5.10969C35.9411 5.16428 35.821 5.45907 35.5917 5.59008C35.1331 5.49182 34.6746 5.45907 34.2051 5.57917C33.9103 5.21887 33.4845 5.18611 33.1242 5.30621C32.7311 5.43723 32.3053 5.50274 31.956 5.74294C31.8904 5.78661 31.814 5.8412 31.7594 5.81936C31.1699 5.55733 31.1589 6.01589 31.0607 6.37619C31.0498 6.40894 31.0498 6.41986 31.0934 6.43078C31.2026 6.43078 31.3118 6.4417 31.3991 6.51812C31.4756 6.71465 31.3336 6.81291 31.2244 6.93301C30.9406 7.11862 30.6567 7.32606 30.3182 7.41341C30.0234 7.47892 29.7942 7.02036 29.5103 7.29331C29.6522 7.2278 29.8269 7.27147 30.0016 7.35882C30.482 7.57718 30.482 7.56626 30.9515 7.35882C31.1153 7.3479 31.29 7.40249 31.2026 7.57718C31.1043 7.76279 31.2026 7.81738 31.2572 7.95932C31.3555 8.2541 30.9515 8.16676 30.8532 8.34145C30.7222 8.48338 30.5694 8.54889 30.3728 8.45063C30.2746 8.19951 29.9252 8.47247 29.8488 8.15584C29.8924 8.4943 30.1763 8.24319 30.3073 8.38512C30.5148 8.74542 30.6785 8.48338 30.8532 8.35237C31.1043 8.11217 31.3118 8.26502 31.5083 8.43971C31.7048 8.6144 31.6612 8.77817 31.4646 8.93103C31.4537 8.94195 31.4537 8.95286 31.4974 8.95286C31.7594 8.99654 32.0651 9.08388 32.0324 9.36775C31.9996 9.64071 31.7158 9.78264 31.41 9.7608C31.2572 9.71713 31.1589 9.53152 30.9842 9.59703C30.9078 9.55336 30.9078 9.6953 30.9297 9.61887C30.9297 9.60795 30.9515 9.61887 30.9733 9.61887C31.3664 9.72805 31.279 9.92458 31.0279 10.0883C30.8641 10.1975 30.6676 10.2412 30.4929 10.3395C30.5803 10.3067 30.6567 10.263 30.7331 10.2303C30.886 10.1648 31.0825 10.0774 31.1589 10.274C31.2463 10.4923 30.9733 10.4814 30.8751 10.5906C30.7986 10.6343 30.7113 10.6452 30.613 10.7653C30.7659 10.667 30.8751 10.6015 30.9733 10.536C31.1262 10.4923 31.2354 10.3504 31.41 10.3722C31.6175 10.405 31.6393 10.5251 31.5629 10.6888C31.7267 10.5906 31.8904 10.4268 32.0651 10.667C31.956 11.202 32.3927 11.3439 32.7202 11.5514C32.7857 11.6933 32.7093 11.7916 32.6001 11.8789C32.5237 11.9335 32.3927 11.9881 32.3927 12.0427C32.3708 12.9271 31.5411 12.7742 31.0716 13.0799C31.0498 13.1345 31.1153 13.1782 31.1153 13.2218Z" fill="#5FADE0"/>
<path d="M37.5351 4.80401C37.6443 4.4983 37.1748 4.59657 37.2076 4.34545C37.1421 4.29086 36.9892 4.32361 36.9892 4.22535C37.0001 3.86505 36.7927 3.79954 36.5088 3.72312C36.1267 3.61394 36.1048 3.41741 36.356 3.08987C36.4215 3.01344 36.5197 2.94793 36.5416 2.83875C36.0066 2.47845 35.9847 2.43478 36.3341 2.19458C38.4522 3.01344 40.3192 4.2581 42.0552 5.6993C42.35 5.93949 42.7649 6.09235 42.885 6.52907C43.0815 6.70376 43.2234 6.93304 43.4418 7.09682H43.4309C43.5182 7.30426 43.6274 7.50079 43.8894 7.53354C44.1187 7.76282 44.3589 8.00302 44.5882 8.2323C44.0532 8.36332 43.5182 8.50525 42.9832 8.63627C42.5247 8.69086 42.0443 8.55984 41.6075 8.81096C41.28 8.75637 41.2909 8.3524 41.0289 8.24322C40.9525 8.07945 40.7669 8.16679 40.6577 8.06853C40.6904 7.78466 40.5267 7.45711 40.7887 7.21691C40.2319 7.3916 39.6969 7.3261 39.2056 6.9658C38.9108 6.85662 39.0636 6.70376 39.1728 6.56183C39.3147 6.38714 39.544 6.3653 39.7187 6.23428C39.9043 6.37622 40.0899 6.35438 40.2428 6.21245C40.341 6.19061 40.21 6.13602 40.2537 6.19061C40.2646 6.21245 40.2319 6.20153 40.221 6.22337C40.0572 6.44173 39.8716 6.01592 39.7078 6.2452C39.4458 6.41989 39.1728 6.43081 38.878 6.32163C38.7798 6.27796 38.6815 6.17969 38.5723 6.22337C38.2339 6.37622 38.0592 6.21245 37.9391 5.92858C37.8845 5.79756 37.7425 5.77572 37.6552 5.67746C37.677 5.53552 37.8845 5.48093 37.819 5.30624C37.6443 5.19706 37.5788 5.41543 37.4259 5.42634C37.3058 5.29533 37.6334 5.20798 37.4478 5.07696C37.2622 5.02237 37.1639 5.38267 36.8909 5.16431C37.1093 5.01145 37.2403 4.77126 37.5351 4.80401C37.6443 4.8586 37.7644 4.8586 37.8736 4.93503C37.7753 4.81493 37.6334 4.8586 37.5351 4.80401Z" fill="#0275AB"/>
<path d="M36.3343 2.1836C36.2033 2.34738 36.0395 2.50023 36.4107 2.58758C36.5526 2.62033 36.6837 2.71859 36.8474 2.80594C36.7383 2.89328 36.64 2.92604 36.6072 3.00246C36.5308 3.17715 36.2251 3.24266 36.2906 3.45011C36.3561 3.66847 36.5963 3.61388 36.7928 3.63572C36.9894 3.65755 37.2732 3.77765 37.0876 4.09428C37.0003 4.24713 37.175 4.25805 37.1968 4.34539C36.8474 4.55284 36.6837 4.35631 36.4435 4.1052C36.1923 3.83224 35.8539 3.51562 35.3735 3.75582C35.3626 3.47194 35.6137 3.40644 35.7775 3.18807C35.3407 3.12256 35.0678 2.76227 34.6201 2.70767C34.3253 2.67492 34.369 2.50023 34.6092 2.39105C34.8603 2.50023 34.9368 2.3037 35.0241 2.13993C34.9258 2.24911 34.8822 2.44564 34.6747 2.32554C34.6092 2.07442 34.3581 2.2382 34.1943 2.1181C33.8559 1.85606 33.8122 1.91065 34.1943 1.57219C33.8122 1.61586 33.4737 2.07442 33.0479 1.73596C33.037 1.72504 33.0152 1.70321 33.0043 1.69229C32.906 1.58311 32.6767 1.60494 32.6876 1.38658C32.7422 1.2774 32.7641 1.13546 32.9497 1.19006C33.5829 1.12455 34.1397 1.40842 34.7184 1.56127C35.2752 1.70321 35.7993 1.97616 36.3343 2.1836Z" fill="#1C82B6"/>
<path d="M10.5674 34.2829C10.7857 34.1846 10.8622 33.9008 11.1133 33.8243C11.2443 33.9226 11.3753 34.0209 11.4954 34.1082C11.4736 34.2938 11.2552 34.2392 11.1897 34.3484C11.3972 34.6978 11.7247 34.0864 11.9103 34.4685C12.0632 34.7742 11.8885 34.9161 11.6155 34.9707C11.6592 35.1127 11.7356 35.1454 11.8339 35.1236C11.9321 35.0908 12.0632 34.9817 12.1287 35.0144C12.2924 35.1017 12.0195 35.1563 12.0741 35.2546C12.2051 35.462 12.3907 35.3092 12.5872 35.2764C12.5326 35.4075 12.489 35.5057 12.4562 35.5931C12.347 35.9861 12.7947 35.8114 12.882 35.997C12.8493 36.0734 12.8056 36.1499 12.7728 36.2263C12.6637 36.4337 12.5217 36.4665 12.3252 36.3355C12.2269 36.2918 12.085 36.2809 12.0413 36.2045C11.681 35.6258 11.0915 35.2218 10.7967 34.5995C10.9714 34.4357 11.0478 34.6323 11.1679 34.6978C11.0587 34.5231 10.8513 34.4903 10.6984 34.3812C10.6438 34.3593 10.6001 34.3157 10.5674 34.2829Z" fill="#1B81B5"/>
<path d="M29.6741 0.655133C29.816 1.07002 29.423 1.11369 29.2374 1.26655C29.1064 1.37573 29.0299 1.20104 28.9753 1.08094C28.9317 0.982677 29.0081 0.764315 28.8006 0.818905C28.1783 0.982677 27.4686 0.666052 26.9227 1.1792C26.89 1.21196 26.8245 1.23379 26.8135 1.26655C26.7917 1.37573 27.0647 1.52858 26.8026 1.60501C26.5843 1.67052 26.7262 1.28838 26.5078 1.2993L26.4969 1.28838C26.5188 1.11369 26.7808 1.11369 26.7808 0.895332C26.4096 0.873496 26.1475 1.21196 25.7763 1.20104C25.7436 1.03727 26.4096 0.939005 25.8309 0.73156C26.4532 0.513198 27.0974 0.535034 27.7416 0.545952C28.2875 0.55687 28.8334 0.578707 29.3793 0.535034C29.4885 0.545952 29.5977 0.55687 29.6741 0.655133Z" fill="#499FD3"/>
<path d="M12.3145 36.3573C12.4782 36.3792 12.6202 36.3246 12.7621 36.2482C13.0569 36.3137 13.3298 36.1499 13.6355 36.1499C13.581 36.3683 13.3735 36.3028 13.2752 36.401C13.2643 36.6085 13.5264 36.5102 13.5591 36.6521C13.4936 36.8487 13.2643 36.7286 13.1333 36.8705C13.439 37.0998 13.7229 36.7613 14.0068 36.8487C13.9412 37.0779 13.712 36.9578 13.57 37.0889C13.8976 37.3181 14.2142 37.5583 14.5527 37.7658C14.7492 37.8968 14.4981 37.9077 14.5199 37.9842C14.4435 38.1479 14.3234 38.2025 14.1596 38.1043C13.4827 37.5802 12.6748 37.198 12.3145 36.3573Z" fill="#2384B8"/>
<path d="M14.1487 38.1042C14.2688 38.0606 14.3889 38.0278 14.509 37.9841C14.8584 38.0387 15.0658 38.1588 15.2405 38.53C15.3715 38.803 15.7646 39.0869 16.2777 38.7375C16.1249 39.0432 15.8737 38.9558 15.7864 39.1415C15.8301 39.3052 15.9611 39.2943 16.0703 39.207C16.3651 38.9777 16.4961 39.1633 16.6271 39.4035C16.6708 39.4799 16.6708 39.4799 16.3541 39.6874C16.3105 39.7201 16.2886 39.7747 16.2559 39.8184C15.5462 39.4799 14.9894 38.9231 14.367 38.4536C14.2579 38.3663 14.1596 38.268 14.1487 38.1042Z" fill="#318CC0"/>
<path d="M32.9496 1.1901C32.8732 1.26653 32.7968 1.33204 32.7313 1.40847C32.5784 1.77968 32.9933 1.58316 33.0588 1.73601C33.037 1.96529 32.8405 2.09631 32.6876 2.01988C32.3928 1.85611 32.1745 1.58316 32.2946 1.07C31.7923 1.6705 31.6722 1.04817 31.3774 0.884396C31.4757 1.35387 31.0608 1.80152 30.4712 1.88886C30.5477 1.65958 30.8097 1.62683 30.9407 1.44122C30.7879 1.29928 30.6132 1.53948 30.4385 1.38663C30.766 1.26653 30.9516 1.01541 31.1809 0.786133C31.7159 0.86256 32.2509 0.938986 32.7859 1.0045C32.906 1.02633 32.9278 1.10276 32.9496 1.1901Z" fill="#328BBE"/>
<path d="M16.3323 39.862C16.365 39.862 16.4087 39.862 16.4415 39.8511C16.8454 39.6218 17.1402 39.873 17.2276 40.1786C17.2821 40.3533 17.7189 40.3097 17.4568 40.5935C17.042 40.397 16.6271 40.2223 16.3323 39.862Z" fill="#318CC0"/>
<path d="M10.6875 34.3921C11.015 34.3921 11.2334 34.6214 11.5391 34.7415C11.1679 35.1018 11.0369 34.5777 10.7858 34.6104C10.753 34.5449 10.7203 34.4685 10.6875 34.3921Z" fill="#4BA8DC"/>
<path d="M25.8419 0.742395C25.6127 0.895249 25.4161 1.10269 25.0449 1.08086C25.1432 0.960757 25.2196 0.862494 25.296 0.775149C25.4707 0.633214 25.6563 0.611378 25.8419 0.742395Z" fill="#499FD3"/>
<path d="M43.4418 7.08581C43.0379 7.10764 43.0051 6.76918 42.885 6.51807C43.147 6.62725 43.3654 6.79102 43.4418 7.08581Z" fill="#458EC4"/>
<path d="M43.8895 7.52254C43.5947 7.6208 43.4309 7.46795 43.4309 7.08582C43.5838 7.22775 43.7366 7.36969 43.8895 7.52254Z" fill="#449FD7"/>
<path d="M12.8712 36.0079C12.6746 36.0406 12.489 36.0297 12.3143 35.8769C12.0086 35.6149 12.2488 35.6258 12.4344 35.593C12.5545 35.7677 13.0022 35.5821 12.8712 36.0079Z" fill="#52AEE5"/>
<path d="M3.94013 21.9672C5.09745 21.8253 6.18926 21.6288 7.28107 21.4213C8.15452 21.2576 9.03888 21.2248 9.61754 22.0328C10.229 22.8844 10.0979 23.8233 9.66121 24.7295C9.45377 25.1553 9.10439 25.4829 8.73318 25.7886C8.79868 25.8323 8.82052 25.865 8.84236 25.865C10.8295 26.3017 11.5064 27.7866 11.4081 29.5663C11.2334 32.8198 7.423 35.2764 4.37685 34.1409C2.97933 33.6169 2.20415 32.5797 2.09496 31.0948C1.98578 29.5553 2.69546 28.4308 4.01655 27.6993C4.37685 27.5027 4.48603 27.3062 4.47511 26.9132C4.45328 25.2536 4.47511 23.594 3.94013 21.9672Z" fill="#171A58"/>
<path d="M31.967 17.207C32.4146 16.1916 32.8623 15.2854 33.2226 14.3355C33.4409 13.7787 33.7466 13.4184 34.3144 13.2437C34.6092 13.1564 34.8712 13.0035 35.166 12.8834C35.2752 13.1018 35.2206 13.2983 35.2315 13.4839C35.297 16.1152 35.0459 18.7574 35.5263 21.3777C35.559 21.5743 35.5263 21.6725 35.3407 21.7599C34.8057 21.9891 34.2925 22.2403 33.7139 22.5023C33.7139 20.7445 33.7139 19.0412 33.7139 17.3489C33.6702 17.338 33.6374 17.3271 33.5938 17.3162C33.1134 18.4189 32.633 19.5107 32.1307 20.6899C31.6285 19.9911 31.1481 19.3251 30.5913 18.5609C30.5367 20.2095 30.5476 21.7271 30.8315 23.2229C30.9079 23.6487 30.8097 23.8452 30.4275 23.9981C29.9799 24.1728 29.5432 24.413 29.1064 24.6204C28.9645 24.4239 29.0409 24.2383 29.03 24.0745C28.9754 21.8035 29.1283 19.5326 28.9208 17.2616C28.8881 16.8795 28.8444 16.4864 28.6806 16.1479C28.5387 15.8641 28.6479 15.7767 28.8881 15.6785C29.3794 15.4819 29.8816 15.0561 30.3293 15.1326C30.7551 15.1981 30.9625 15.8641 31.2682 16.268C31.4975 16.541 31.694 16.8358 31.967 17.207Z" fill="#171A58"/>
<path d="M47.3833 10.0775C49.0538 9.70624 49.0538 9.70624 49.8945 11.0819C50.2875 11.737 50.6806 12.3812 51.0845 13.0363C51.0955 13.0472 51.1064 13.0472 51.1828 13.069C51.2156 12.0318 51.2265 11.0055 51.019 9.99011C50.9426 9.65165 51.0518 9.59706 51.3466 9.58614C52.6131 9.50972 52.6131 9.50972 52.6131 10.7435C52.6131 12.7633 52.624 14.7832 52.6022 16.803C52.6022 16.9777 52.7768 17.3052 52.4165 17.3271C52.1218 17.338 51.7833 17.4909 51.5649 17.076C50.9754 16.006 50.353 14.9688 49.7416 13.9097C49.6215 13.6914 49.4796 13.4839 49.2721 13.1345C49.2612 14.5976 49.2175 15.8968 49.4577 17.1742C49.5123 17.4909 49.4577 17.5891 49.1411 17.6C48.7153 17.6219 48.2895 17.6874 47.8528 17.7311C47.8419 17.3162 47.82 16.9013 47.8091 16.4864C47.7654 14.7613 47.9074 13.0363 47.6999 11.3112C47.6672 10.8854 47.558 10.4814 47.3833 10.0775Z" fill="#171A57"/>
<path d="M18.1884 21.3886C18.1884 22.9062 18.1884 24.3583 18.1884 25.8104C18.1884 26.2144 18.1884 26.6074 18.3085 27.0005C18.4395 27.4154 18.7015 27.601 19.1383 27.4809C19.171 27.47 19.2038 27.459 19.2365 27.4481C20.1536 27.2079 20.1646 27.2079 20.1536 26.269C20.1318 24.7841 20.241 23.2883 20.0663 21.8035C20.0554 21.7161 20.0445 21.6179 20.0335 21.5305C19.8807 20.7662 19.8807 20.7662 20.6013 20.4933C20.9288 20.3732 21.2455 20.2531 21.573 20.1221C21.5839 20.1221 21.6058 20.133 21.6822 20.1439C21.6822 20.9737 21.6822 21.8253 21.6822 22.666C21.6931 24.2819 21.5839 25.9087 21.9005 27.5027C21.9551 27.7648 21.846 27.8521 21.6276 27.9504C20.9398 28.2452 20.2737 28.5727 19.575 28.8457C17.8608 29.5226 16.6926 28.7365 16.6489 26.8804C16.6162 25.6139 16.6708 24.3365 16.5834 23.059C16.5616 22.6769 16.234 22.2293 16.507 21.9454C16.7363 21.7052 17.2058 21.6943 17.577 21.5742C17.7735 21.5196 17.9373 21.465 18.1884 21.3886Z" fill="#171A59"/>
<path d="M41.1491 16.0824C41.16 16.9668 41.0399 17.8293 40.7015 18.6372C40.3084 19.5762 39.6533 20.2422 38.627 20.4606C37.6662 20.668 36.8364 20.3295 36.4761 19.4124C35.7228 17.5018 35.8101 15.6129 36.8474 13.8114C37.1312 13.331 37.568 13.0035 38.092 12.7851C39.3476 12.272 40.3739 12.7196 40.8543 13.9861C41.0945 14.674 41.16 15.3727 41.1491 16.0824Z" fill="#171B58"/>
<path d="M41.979 15.0997C41.968 14.2044 42.0881 13.32 42.4593 12.4903C42.8742 11.5731 43.5293 10.9399 44.5338 10.7324C45.4509 10.5468 46.2589 10.8635 46.6082 11.726C47.4162 13.6803 47.3179 15.6238 46.2261 17.4689C45.9095 17.993 45.3963 18.3205 44.7958 18.4952C43.6494 18.8337 42.7869 18.4297 42.3174 17.327C42.0226 16.6173 41.9571 15.864 41.979 15.0997Z" fill="#171A58"/>
<path d="M24.1386 25.2863C25.0339 24.9151 25.7873 24.4347 26.6061 23.8779C26.6061 24.4784 26.6061 25.0134 26.6061 25.5484C26.6061 25.7012 26.5515 25.7886 26.4205 25.8431C25.1649 26.4 23.9094 26.9568 22.5883 27.5355C22.5883 25.6903 22.5883 23.9325 22.5883 22.1747C22.5883 21.4868 22.5555 20.7881 22.359 20.1221C22.2826 19.8709 22.359 19.7727 22.5883 19.6744C23.7565 19.1831 24.9247 18.6809 26.093 18.1677C26.3769 18.0367 26.4642 18.0694 26.4751 18.397C26.5188 19.729 26.5297 19.729 25.3287 20.1657C25.3069 20.1766 25.296 20.1766 25.2741 20.1766C24.0295 20.6352 24.0295 20.6352 24.1605 22.0327C24.8483 21.7379 25.5143 21.4431 26.2349 21.1265C26.2458 21.2466 26.2458 21.323 26.2568 21.3776C26.4533 22.393 26.0602 22.9498 25.0558 23.2774C24.0295 23.6377 24.0513 23.725 24.1386 25.2863Z" fill="#151857"/>
<path d="M41.029 8.18858C41.4766 8.10123 41.3347 8.60346 41.5749 8.72356C41.6622 8.83274 41.6076 8.94193 41.564 9.05111C39.0855 9.85905 36.6508 10.7762 34.2707 11.8243C33.965 11.726 33.7794 11.9117 33.6047 12.1191C33.5828 12.1409 33.5501 12.1519 33.5173 12.1409C33.0806 12.2064 33.0151 11.726 32.7203 11.595C32.2181 11.726 32.2072 11.1037 31.8359 11.0273C31.9124 10.9181 31.9888 10.8089 32.0761 10.6997C32.098 10.4377 32.2727 10.4923 32.4364 10.5251C32.5674 10.6342 32.6985 10.7762 32.895 10.6124C32.7531 10.6561 32.6111 10.7107 32.5019 10.5578C32.7094 9.96823 33.026 9.46599 33.5173 9.08386C33.5501 9.05111 33.5937 9.01835 33.6374 8.99652C34.1833 8.95284 34.489 9.38957 34.8821 9.64069C34.9258 9.67344 34.9694 9.72803 34.9585 9.7717C34.7838 10.536 35.2642 10.1538 35.5481 10.1211C35.6682 10.2193 35.7446 10.3504 35.8101 10.4814C35.8429 10.536 35.7883 10.6015 35.8101 10.6561C35.8101 10.6561 35.832 10.6452 35.8429 10.6342C35.8756 10.5687 35.832 10.5141 35.7883 10.4595C35.7664 10.405 35.7883 10.3504 35.8101 10.3067C35.8429 10.2412 35.9193 10.2193 35.9521 10.1538C35.8865 10.1866 35.821 10.2303 35.7446 10.2303C35.69 10.2193 35.6463 10.1975 35.6027 10.1648C35.6136 9.90272 35.3516 10.0883 35.2751 9.96823C35.1332 9.74987 35.4717 9.56426 35.3079 9.35681C35.297 9.28039 35.3079 9.20396 35.3516 9.14937C35.6573 9.24763 35.9193 8.94193 36.225 9.04019C36.3233 9.11662 36.3888 9.2258 36.5307 9.29131C36.4215 9.2258 36.3451 9.14937 36.2578 9.08386C36.0722 8.92009 35.9084 8.73448 35.69 8.60346C35.3952 8.27592 34.8166 8.31959 34.6419 7.81736C34.6419 7.599 34.7838 7.54441 34.9694 7.55532C35.3406 7.70818 35.6464 7.45706 35.9739 7.36972C36.2032 7.38064 36.4325 7.12952 36.6617 7.3588C36.8037 7.51165 37.0111 7.64267 36.9347 7.90471C36.9238 7.9593 36.9238 8.04664 36.9565 8.04664C37.4042 8.03572 37.4042 8.42877 37.557 8.69081C37.6007 8.75632 37.688 8.7454 37.7535 8.72356C38.0811 8.69081 37.8081 8.28684 38.0702 8.21041C38.1466 8.17766 38.2121 8.17766 38.2885 8.16674C38.3977 8.16674 38.5178 8.18858 38.5724 8.09031C38.5833 8.06848 38.4195 8.10123 38.3759 8.00297C38.3431 7.91562 38.3213 7.80644 38.3868 7.75185C38.7143 7.48982 38.7034 6.86748 39.2821 6.86748C39.4568 6.7583 39.5223 6.92207 39.6315 6.9985C39.8171 7.12952 39.9481 7.38064 40.2319 7.04217C40.4176 6.81289 40.7014 7.46798 41.018 7.00942C40.6687 7.34788 40.9525 7.77369 40.7123 8.05756C40.7451 8.29776 40.9525 8.06848 41.029 8.18858Z" fill="#1780B3"/>
<path d="M16.2668 27.8194C16.2668 28.4527 16.2668 28.9986 16.2668 29.5554C16.2668 29.7301 16.1794 29.8065 16.0266 29.8611C14.8802 30.2105 13.7119 30.5053 12.5437 30.7564C12.1725 30.8438 12.2707 30.5599 12.2707 30.3961C12.2598 29.1624 12.2707 27.9177 12.2707 26.6839C12.2598 25.5594 12.2926 24.4239 12.0087 23.3211C11.9432 23.07 12.0524 23.0045 12.2598 22.9608C12.631 22.8844 13.0132 22.8189 13.3735 22.7097C13.7119 22.6114 13.8102 22.6879 13.8102 23.0482C13.7884 24.8497 13.8211 26.6512 13.7884 28.4527C13.7774 28.9331 13.8975 29.0095 14.3343 28.8348C14.9894 28.5728 15.6226 28.278 16.2668 27.8194Z" fill="#171B59"/>
<path d="M32.7203 11.5841C33.2007 11.4531 33.1461 12.1082 33.5173 12.13C32.7203 12.4903 31.9233 12.8615 31.1263 13.2218C30.8205 13.1563 30.897 12.9816 31.1044 12.9707C31.3555 12.9488 31.6722 12.8397 31.7267 12.7305C31.8468 12.5121 32.6657 12.7742 32.1526 12.1409C32.1526 12.1409 32.3054 12.0426 32.3272 11.9662C32.3928 11.7697 32.7312 11.857 32.7203 11.5841Z" fill="#308EC0"/>
<path d="M41.564 9.04016C41.4876 8.93098 41.5204 8.8218 41.575 8.71262C41.8042 8.72354 41.9352 8.55976 42.0772 8.43966C42.2519 8.29773 42.3392 8.17763 42.4266 8.50517C42.4811 8.69078 42.6449 8.62527 42.7541 8.52701C42.9179 8.37415 42.9615 8.4615 42.9943 8.62527C42.5139 8.75629 42.0444 8.89823 41.564 9.04016Z" fill="#4099C8"/>
<path d="M53.3666 16.7047C53.5631 16.7484 53.6941 16.8576 53.6941 17.065C53.6832 17.2725 53.5522 17.3926 53.3447 17.3816C53.1264 17.3707 53.0172 17.2506 53.0281 17.0323C53.0281 16.8248 53.1591 16.7265 53.3666 16.7047Z" fill="#5E5774"/>
<path d="M33.6047 12.1082C33.4409 11.6824 33.9213 11.7806 34.0632 11.595C34.1615 11.464 34.1724 11.7588 34.2707 11.8134C34.0741 11.9771 33.8449 12.0536 33.6047 12.1082Z" fill="#58A6D7"/>
<path d="M30.875 8.2868C30.9951 8.19946 31.1152 8.11211 31.2353 8.02477C31.1371 7.83916 30.9624 7.95926 30.8423 7.91559C30.8532 7.76273 30.9842 7.71906 31.0716 7.64263C31.2572 7.5007 31.1371 7.45702 30.9951 7.42427C30.9515 7.45702 30.9078 7.45702 30.8532 7.43519C30.8532 7.19499 31.0497 7.09673 31.1917 6.95479C31.41 6.86745 31.5956 6.61633 31.8577 6.86745C31.9341 6.94387 32.0324 6.85653 32.0542 6.76918C32.076 6.64909 31.9778 6.62725 31.8904 6.60541C31.7376 6.56174 31.5629 6.64909 31.41 6.57266C31.1808 6.5399 30.9515 6.56174 30.7331 6.62725C30.6894 6.29971 31.0279 6.37613 31.1262 6.22328C31.0825 6.02675 30.886 6.16869 30.8205 6.03767C31.0825 5.80839 31.2572 5.31708 31.7376 5.74288C32.0979 5.37167 32.6219 5.40442 33.0477 5.18606C33.5063 4.94586 34.0631 5.13147 34.2487 5.53544C34.5108 5.69921 34.8711 5.81931 34.609 6.24512C34.3688 6.41981 34.0194 6.09226 33.8229 6.44164C33.9539 6.63817 34.2924 6.63817 34.3251 6.94387C34.3251 6.99846 34.3033 7.04214 34.2815 7.08581C34.1832 7.22774 33.7574 7.16224 33.9758 7.52253C34.0413 7.59896 34.085 7.68631 34.0194 7.78457C33.7683 8.06844 34.1177 8.07936 34.216 8.19946C34.3688 8.37415 34.478 8.527 34.1395 8.59251C33.8775 8.6471 33.812 8.94189 33.5936 9.05107L33.5827 9.06199C33.3534 9.30218 33.1569 9.58606 32.7639 9.53147C32.6874 9.48779 32.6656 9.32402 32.5128 9.41137C32.5783 9.47687 32.7202 9.42228 32.742 9.56422C32.6438 9.95727 32.4145 10.1101 32.0105 9.96819C31.8249 9.90268 31.6502 9.99003 31.4755 9.97911C31.2463 9.97911 31.2353 9.93544 31.3991 9.69524C31.6611 9.69524 31.7922 9.48779 32.0651 9.35677C31.7376 9.193 31.5301 8.89821 31.148 9.18209C31.1808 8.87638 31.6939 8.89822 31.5083 8.60343C31.41 8.45057 31.1589 8.19946 30.8641 8.4069C30.8314 8.38506 30.8205 8.36323 30.8314 8.33047C30.8532 8.29772 30.8641 8.2868 30.875 8.2868Z" fill="#1780B4"/>
<path d="M34.5764 6.23426C34.7511 5.87396 34.358 5.7757 34.2598 5.5355C34.5327 5.30622 34.8821 5.34989 35.1987 5.31714C35.3734 5.30622 35.3188 5.66652 35.5699 5.54642C35.6136 6.03773 35.7883 6.19059 36.3124 6.16875C36.4434 6.16875 36.6181 6.12508 36.6618 6.23426C36.8583 6.61639 37.2513 6.49629 37.5352 6.60548C37.6444 6.76925 37.7208 6.96577 37.9392 6.69282C38.0375 6.5618 38.234 6.49629 38.365 6.64915C38.4742 6.78017 38.2886 6.85659 38.2449 6.96577C38.1139 7.31515 37.8846 7.66453 38.2667 8.00299C38.3432 8.07942 38.3868 8.17768 38.3104 8.28687C38.234 8.28687 38.1466 8.28687 38.0702 8.28687C37.5898 8.24319 37.8191 8.62533 37.7536 8.82185C37.3714 9.08389 37.2732 8.67992 37.2841 8.52706C37.3059 8.19952 37.2295 8.13401 36.9347 8.24319C36.7273 8.31962 36.5635 8.17768 36.7164 8.01391C37.0111 7.68637 36.6181 7.60994 36.5526 7.41342C36.6181 7.18414 36.4543 7.18414 36.3342 7.23873C36.225 7.29332 36.1159 7.35883 36.0067 7.41342C35.69 7.5226 35.428 7.93749 35.024 7.60994C34.9694 7.55535 34.9585 7.48984 34.9804 7.42433C34.9913 7.38066 35.0131 7.33699 35.024 7.30424C35.024 7.0422 34.7948 7.09679 34.6419 7.03128C34.5982 7.00945 34.5655 6.97669 34.5436 6.9221C34.5873 6.70374 34.5436 6.46354 34.5764 6.23426Z" fill="#0776AA"/>
<path d="M38.3104 8.28686C38.3104 8.26503 38.2995 8.25411 38.2995 8.23227C38.234 7.9484 37.5898 7.85014 38.0374 7.41342C37.6662 7.02036 38.1685 6.9221 38.2776 6.72557C38.0593 6.26701 37.7208 7.71912 37.5352 6.64915C37.4369 6.35436 37.4588 6.05957 37.5243 5.76478C37.568 5.73203 37.6116 5.69927 37.6553 5.66652C37.8191 5.66652 38.0811 5.4154 38.0374 5.87396C38.0265 5.98314 38.223 6.35436 38.5288 6.04865C38.5724 6.00498 38.6379 5.91763 38.7034 6.00498C38.9764 6.39803 39.3694 6.22334 39.7188 6.22334V6.21242C39.6206 6.4417 39.3585 6.49629 39.2057 6.6819C39.1074 6.802 39.1183 6.86751 39.2821 6.87843C39.3039 7.34791 38.9546 6.98761 38.8017 7.07495C38.8563 7.1623 38.6816 7.55535 38.4196 7.9484C38.5069 8.0685 38.5615 7.97024 38.627 7.91565C38.7034 7.85014 38.7908 7.73004 38.889 7.87198C38.9546 7.97024 38.8563 8.04667 38.7689 8.0685C38.5943 8.10126 38.5943 8.47247 38.3104 8.28686Z" fill="#4FA9DE"/>
<path d="M32.7311 9.4988C33.1024 9.50972 33.2661 9.12759 33.6046 9.073C33.6264 9.23677 33.5282 9.35687 33.4081 9.4333C33.146 9.60799 32.8731 9.74992 32.9277 10.1648C32.9604 10.4159 32.5128 10.3067 32.5237 10.6015C32.3708 10.6343 32.1962 10.5579 32.0761 10.7107C31.7703 10.5579 31.5847 10.9727 31.2899 10.8745C31.279 10.678 31.5847 10.7325 31.552 10.536C31.3445 10.4268 31.1808 10.6234 30.9842 10.6124C30.9406 10.6561 30.9078 10.6561 30.8751 10.6015C30.9296 10.4814 31.1153 10.5033 31.1262 10.3177C30.7986 10.1866 30.5803 10.5142 30.22 10.5469C30.5148 10.1976 30.9733 10.1866 31.1917 9.88094C31.0716 9.70625 30.9733 9.82635 30.8751 9.83726C30.6567 9.8591 30.7113 9.67349 30.7113 9.57523C30.6895 9.3787 30.8205 9.45513 30.9296 9.47697C31.1153 9.53156 31.3445 9.48789 31.4319 9.72808C31.3009 9.88094 31.3336 9.9792 31.5301 9.89186C31.7703 9.78267 31.9341 9.72808 32.2071 9.90277C32.5019 10.0665 32.5674 9.65166 32.7311 9.4988Z" fill="#47A5DB"/>
<path d="M37.5353 5.76472C37.6663 6.05951 37.6335 6.3543 37.5462 6.64909C37.437 6.64909 37.3278 6.63817 37.2186 6.64909C36.902 6.69276 36.9129 6.69276 36.771 6.44165C36.7273 6.3543 36.5417 6.24512 36.5199 6.26696C36.0832 6.5945 35.832 6.16869 35.5045 6.03768C35.4499 6.01584 35.3735 6.09227 35.308 6.01584C35.2534 5.77564 35.6246 5.77564 35.5809 5.54636C35.6901 5.26249 35.9849 5.16423 36.1596 4.93495C36.236 4.83668 36.367 4.80393 36.3124 5.00046C36.2688 5.17515 36.7928 5.22974 36.4544 5.33892C36.0832 5.4481 36.3124 5.81931 36.0067 5.89574C36.3779 5.8084 36.6727 5.74289 36.9784 5.98308C37.1968 6.17961 37.2514 5.63371 37.5353 5.76472Z" fill="#1981B6"/>
<path d="M31.4211 6.56184C31.7704 6.32164 32.0652 6.46358 32.3928 6.70378C32.2508 6.83479 32.1307 6.95489 31.9997 7.06407C31.9342 7.11866 31.7813 7.18417 31.7595 7.10775C31.6612 6.59459 31.3774 7.10775 31.2136 6.99856C31.1809 6.97673 31.1699 6.94397 31.1809 6.91122C31.1918 6.87847 31.2027 6.86755 31.2027 6.86755C31.2682 6.76928 31.3446 6.6601 31.4211 6.56184Z" fill="#5AB1E5"/>
<path d="M30.8751 7.42434C30.9188 7.42434 30.9515 7.42434 30.9952 7.43526C30.8423 7.53352 30.6895 7.62087 30.5475 7.71913C30.4384 7.79556 30.4165 8.03576 30.2309 7.93749C30.0235 7.82831 30.3073 7.74097 30.2746 7.6427C30.22 7.46801 30.0235 7.47893 29.8924 7.39159C29.6959 7.26057 29.5103 7.43526 29.3247 7.38067C29.6413 6.93302 29.9907 7.15139 30.3292 7.30424C30.4929 7.43526 30.7222 7.26057 30.8751 7.42434Z" fill="#2284B7"/>
<path d="M29.4449 12.4248C29.8271 12.1409 30.3184 12.119 30.7442 11.8679C30.6787 12.2719 30.6787 12.2719 31.1263 12.2937C30.8315 12.392 30.635 12.7851 30.4603 12.261C30.4276 12.1627 30.231 12.2282 30.1109 12.2719C29.8926 12.3592 29.6742 12.4466 29.4559 12.5339C29.3904 12.5121 29.3904 12.4684 29.4449 12.4248Z" fill="#2D8CBF"/>
<path d="M30.8753 7.42432C30.6787 7.43524 30.4604 7.63176 30.3293 7.31514C30.6241 7.1732 30.908 7.02035 31.2028 6.87842C31.2028 6.92209 31.2028 6.96576 31.2137 7.00943C31.2465 7.26055 30.9517 7.24963 30.8753 7.42432Z" fill="#56ADE1"/>
<path d="M34.6855 2.32553C34.7292 2.30369 34.8165 2.29278 34.8274 2.26002C34.9039 1.88881 34.8929 1.88881 35.2969 2.11809C35.1659 2.2491 35.0349 2.40196 34.8929 2.52206C34.7183 2.67491 34.5982 2.67491 34.62 2.39104C34.6527 2.3692 34.6746 2.35828 34.6855 2.32553Z" fill="#60B2E8"/>
<path d="M29.7178 7.63171C29.292 7.99201 28.9208 8.13395 28.3967 8.27588C28.8007 7.87191 29.1938 7.78457 29.7178 7.63171Z" fill="#2788BC"/>
<path d="M30.7005 11.1365C30.3511 11.3767 29.958 11.5404 29.5322 11.606C29.8816 11.3548 30.2528 11.1583 30.7005 11.1365Z" fill="#358FC4"/>
<path d="M30.4604 11.6278C30.1874 11.9663 29.7616 11.8898 29.4341 12.0755C29.707 11.7261 30.111 11.737 30.4604 11.6278Z" fill="#2986BA"/>
<path d="M33.8887 3.4501C34.38 3.49377 33.714 2.91511 34.1616 2.9697C34.249 2.98062 34.3909 3.13347 34.38 3.16623C34.3145 3.35184 34.1507 3.46102 33.8887 3.4501Z" fill="#3A93C6"/>
<path d="M30.8752 8.28687C30.8752 8.31962 30.8752 8.36329 30.8752 8.39605C30.7988 8.71267 30.4712 8.62533 30.2419 8.83277C30.2856 8.62533 30.3075 8.50523 30.3402 8.39605H30.3293C30.5149 8.39605 30.7114 8.40696 30.8752 8.28687Z" fill="#1E83B6"/>
<path d="M30.3293 8.39606C30.1109 8.37422 29.8271 8.60351 29.7179 8.21045C29.696 8.14494 29.5541 8.13402 29.7069 8.04667C29.8052 7.99208 30.2965 8.26504 30.3293 8.39606C30.3293 8.40698 30.3293 8.39606 30.3293 8.39606Z" fill="#1B7EAF"/>
<path d="M26.5079 1.31015C26.4751 1.80146 26.1804 1.61586 25.8965 1.48484C26.1039 1.41933 26.3005 1.36474 26.5079 1.31015C26.5079 1.29923 26.5079 1.31015 26.5079 1.31015Z" fill="#499FD3"/>
<path d="M29.445 12.4248C29.445 12.4685 29.445 12.5013 29.445 12.5449C29.3467 12.5668 29.2375 12.6104 29.1393 12.5995C28.9755 12.5886 28.9427 12.8943 28.7462 12.7524C28.7244 12.7305 28.7353 12.6541 28.7244 12.6104C28.9209 12.5995 28.9864 12.3156 29.2266 12.3921C29.303 12.4139 29.3795 12.4139 29.445 12.4248Z" fill="#2489BC"/>
<path d="M27.6433 1.06995C27.5997 1.43024 27.3267 1.41932 27.1848 1.55034C27.152 1.51759 27.0756 1.463 27.0865 1.44116C27.1739 1.21188 27.4141 1.21188 27.6433 1.06995Z" fill="#499FD3"/>
<path d="M35.5264 4.4873C35.8539 4.27985 36.0723 4.57464 36.3016 4.46546C36.0614 4.80392 35.843 4.55281 35.5264 4.4873Z" fill="#2E8CBE"/>
<path d="M30.8753 10.5797C30.908 10.5797 30.9517 10.5906 30.9844 10.5906C30.8534 10.8418 30.6678 10.9509 30.3293 10.8418C30.4931 10.6561 30.6896 10.6343 30.8753 10.5797Z" fill="#358FC4"/>
<path d="M27.7527 14.0189C27.9274 13.9752 28.1021 13.9425 28.4187 13.877C28.1567 14.1172 27.971 14.139 27.7527 14.0189Z" fill="#3485B6"/>
<path d="M38.7252 4.37817C39.0527 4.49827 39.3148 4.64021 39.4676 4.935C39.5004 5.00051 39.4021 5.12061 39.2929 5.06601C38.9872 4.90224 38.4741 5.30621 38.3321 4.76031C38.2994 4.59654 38.5614 4.4546 38.7252 4.37817Z" fill="#46A4D9"/>
<path d="M39.7188 6.22328C39.8061 5.91757 39.817 5.89574 40.0026 6.1141C40.1009 6.2342 40.1446 6.14685 40.1991 6.10318C40.3302 6.02676 40.4503 5.88482 40.6577 6.02676C40.4393 6.33246 39.9589 6.25603 39.8498 6.63817C39.6205 6.51807 39.9371 6.29971 39.7188 6.22328C39.7188 6.21236 39.7188 6.22328 39.7188 6.22328Z" fill="#3B9FD5"/>
<path d="M37.5352 4.80394C37.6007 4.77119 37.6662 4.72752 37.7317 4.7166C37.961 4.66201 38.0047 4.90221 38.1575 4.98955C38.1684 5.00047 38.1684 5.10965 38.1357 5.13149C37.9391 5.28434 37.8627 5.03322 37.7208 5.00047C37.6443 4.96771 37.5897 4.85853 37.5352 4.80394C37.5352 4.79303 37.5352 4.80394 37.5352 4.80394Z" fill="#4AA1D9"/>
<path d="M41.0289 8.18856C40.876 8.22131 40.7669 8.52702 40.5703 8.30865C40.4612 8.19947 40.614 8.12305 40.7014 8.06846C40.8433 8.05754 40.9088 7.83918 41.0507 7.9156C41.1817 7.98111 41.0398 8.09029 41.0289 8.18856Z" fill="#47A6DB"/>
<path d="M39.1619 5.73199C39.0636 5.78659 38.9872 5.86301 38.9545 5.85209C38.8234 5.77567 38.6597 5.71016 38.6597 5.52455C38.6597 5.45904 38.747 5.38262 38.8125 5.43721C38.9326 5.50272 39.0309 5.6119 39.1619 5.73199Z" fill="#359ED5"/>
<path d="M33.0588 1.74691C32.7858 1.88884 32.6439 1.73599 32.5238 1.51763C32.4801 1.45212 32.5129 1.43028 32.5784 1.41937C32.633 1.40845 32.6876 1.41937 32.7421 1.40845C32.7312 1.63773 33.2116 1.37569 33.0588 1.74691Z" fill="#5FADE0"/>
<path d="M4.45325 29.1623C4.45325 29.861 4.47508 30.407 4.44233 30.9529C4.42049 31.2913 4.54059 31.4769 4.85722 31.6079C5.3267 31.8045 5.77434 32.0556 6.29841 32.3067C6.16739 31.1276 6.14555 30.003 6.13464 28.8784C6.78972 29.0531 6.94257 29.3151 7.05176 30.4725C7.4994 30.1886 7.91429 29.9156 8.35101 29.6536C8.61304 29.4898 8.51478 29.2715 8.44927 29.0749C8.14357 28.136 7.48848 27.5464 6.54952 27.2844C6.2329 27.197 6.1128 27.0769 6.12372 26.7385C6.14555 25.6139 6.14555 24.4784 6.12372 23.3539C6.12372 23.0263 6.21106 22.8844 6.54952 22.8953C6.71329 22.8953 6.87707 22.8516 7.04084 22.8298C8.07806 22.7097 8.54753 23.3102 8.18724 24.3037C8.03438 24.7186 7.77235 25.0462 7.42297 25.2754C6.97533 25.5702 6.82248 26.007 6.68054 26.4874C7.019 26.5747 7.33563 26.6293 7.64133 26.7494C9.36639 27.3936 10.0761 29.206 9.25721 30.8546C8.61304 32.1648 7.18277 32.9836 5.73067 32.8635C4.86814 32.7871 4.20213 32.3831 3.90734 31.5315C3.63439 30.7127 3.76541 29.9375 4.45325 29.1623Z" fill="#FBF0DB"/>
<path d="M39.5987 16.4427C39.5769 17.0104 39.555 17.6437 39.293 18.2441C39.1183 18.6372 38.8563 18.932 38.3868 18.8883C37.9392 18.8446 37.8081 18.4843 37.7317 18.1241C37.5024 17.1196 37.5243 16.1042 37.7972 15.1107C37.8518 14.925 37.9501 14.7394 38.0702 14.5866C38.5069 14.0298 39.1183 14.1062 39.3803 14.7722C39.5659 15.2853 39.5878 15.8313 39.5987 16.4427Z" fill="#FAF0DB"/>
<path d="M45.5273 14.4883C45.5273 15.0888 45.5055 15.6893 45.2762 16.257C45.1124 16.6719 44.8504 17.0104 44.37 16.9885C43.8787 16.9667 43.7367 16.5409 43.6494 16.1478C43.4529 15.2307 43.4747 14.3027 43.6712 13.3965C43.7367 13.1126 43.8459 12.8397 44.0424 12.6213C44.4792 12.1518 45.036 12.2392 45.298 12.8287C45.5382 13.3637 45.5273 13.9205 45.5273 14.4883Z" fill="#FBF0DB"/>
<path d="M33.6047 9.06206C33.7576 8.77819 33.703 8.25412 34.3144 8.50524C34.1725 8.16678 33.7139 8.23229 33.6702 7.89382C33.6593 7.75189 33.8886 7.76281 34.0415 7.74097C34.1179 7.66454 34.2162 7.65363 34.3144 7.67546C34.4454 7.73005 34.5655 7.79556 34.6856 7.86107C35.0241 8.14494 35.4827 8.21045 35.7993 8.53799C35.8539 8.88737 35.4827 8.94196 35.3516 9.16033C35.3516 9.23675 35.3516 9.3241 35.3516 9.40052C35.4499 9.60797 35.1114 9.71715 35.2206 9.92459C35.3407 10.001 35.6792 9.72807 35.57 10.1539C35.3189 10.2849 35.1114 10.6889 34.773 10.2631C34.6747 10.132 34.4673 10.0447 34.773 9.92459C34.8931 9.88092 34.904 9.79358 34.8057 9.72807C34.4127 9.49879 34.0961 9.10574 33.6047 9.06206Z" fill="#2C91C6"/>
<path d="M35.3516 9.16029C35.2533 8.77816 35.7446 8.81092 35.7992 8.53796C35.9848 8.6799 36.225 8.77816 36.225 9.06203C36.1704 9.06203 36.0831 9.05111 36.0722 9.07295C35.8975 9.64069 35.5918 9.16029 35.3516 9.16029Z" fill="#48A6DA"/>
<path d="M37.7535 8.83279C37.819 8.6035 37.2949 8.71269 37.5133 8.4834C37.5679 8.42881 37.7426 7.87199 38.0701 8.29779C37.9391 8.45065 38.2993 8.90921 37.7535 8.83279Z" fill="#4FACE1"/>
<path d="M39.3913 8.94195C39.3476 9.11664 39.566 9.20399 39.5441 9.42235C39.162 9.3896 39.0747 9.04022 38.9 8.82185C38.8454 8.74543 38.9764 8.63624 39.0965 8.72359C39.1947 8.7891 39.293 8.87644 39.3913 8.94195C39.3913 8.95287 39.3913 8.94195 39.3913 8.94195Z" fill="#399CD5"/>
<path d="M33.5392 11.1365C33.5392 11.2456 33.4846 11.3221 33.4191 11.3111C33.2007 11.2784 33.0369 11.1474 32.895 10.9836C32.8622 10.9399 32.9387 10.8417 33.0151 10.8417C33.2444 10.8635 33.3754 11.0491 33.5392 11.1365Z" fill="#4BA8DE"/>
<path d="M36.0066 7.42428C36.1813 7.2496 36.3014 6.8893 36.6507 7.18409C36.6944 7.22776 36.8582 7.16225 36.7817 7.30419C36.749 7.35878 36.6289 7.36969 36.5525 7.40245C36.3669 7.17317 36.1922 7.63172 36.0066 7.42428Z" fill="#4AAAE0"/>
<path d="M35.57 10.1538C35.6246 10.1538 35.6792 10.132 35.7229 10.1538C35.9303 10.2194 35.9085 9.67345 36.1268 9.96824C36.2688 10.1538 35.9412 10.2521 35.832 10.394C35.8102 10.4159 35.7993 10.4596 35.7775 10.4814L35.7884 10.4705C35.6246 10.4268 35.5591 10.3176 35.57 10.1538Z" fill="#5AAFE4"/>
<path d="M36.2251 9.06204C36.509 9.01837 36.629 9.23673 36.7491 9.42234C36.7819 9.46601 36.7273 9.59703 36.6509 9.56427C36.4325 9.45509 36.2469 9.32407 36.2251 9.06204Z" fill="#47A6DB"/>
<path d="M34.6857 7.86105C34.5328 7.93747 34.3909 8.02482 34.3582 7.74095C34.4892 7.45708 34.6529 7.21688 35.0132 7.42432C35.0132 7.48983 35.0132 7.56626 35.0023 7.63177C34.8713 7.6536 34.6966 7.64269 34.6857 7.86105Z" fill="#45A6DC"/>
<path d="M40.0137 7.89382C40.0027 8.02484 39.9482 8.07943 39.8717 8.05759C39.697 8.01392 39.6534 7.83922 39.566 7.70821C39.5333 7.65361 39.5988 7.55535 39.6752 7.56627C39.8936 7.58811 39.8717 7.83922 40.0137 7.89382Z" fill="#45A3D7"/>
<path d="M39.3912 8.95291C39.4021 8.85464 39.3475 8.70179 39.4786 8.66904C39.6751 8.62536 39.7297 8.83281 39.8389 8.94199C39.9044 8.99658 39.8607 9.08393 39.7952 9.11668C39.6314 9.20403 39.6096 8.97474 39.4895 8.96383C39.4567 8.95291 39.424 8.95291 39.3912 8.95291C39.3912 8.94199 39.3912 8.95291 39.3912 8.95291Z" fill="#3DA6DB"/>
<path d="M32.5129 10.5905C32.775 10.6888 32.9169 10.3176 33.2008 10.394C32.7204 10.9181 32.6985 10.929 32.5129 10.5905C32.5129 10.5796 32.5129 10.5905 32.5129 10.5905Z" fill="#54B0E5"/>
<path d="M35.2206 9.92458C34.7839 9.62979 35.4062 9.59704 35.3516 9.40051C35.5918 9.40051 35.5809 9.50969 35.4608 9.65163C35.3844 9.74989 35.297 9.83724 35.2206 9.92458Z" fill="#55ABE3"/>
<path d="M35.7884 10.4814C35.8867 10.4923 36.0832 10.4596 36.0614 10.5578C36.0068 10.7544 35.8321 10.8963 35.5591 10.9291C35.5263 10.6998 35.7556 10.6343 35.7884 10.4814C35.7884 10.4705 35.7884 10.4814 35.7884 10.4814Z" fill="#4CA8DF"/>
<path d="M33.6375 10.6015C33.6484 10.2412 33.9432 10.2739 34.0414 10.1211C34.107 10.4268 33.8886 10.4814 33.6375 10.6015Z" fill="#52AEE8"/>
<path d="M34.5764 6.23427C35.0131 6.47447 34.6637 6.73651 34.5873 6.98763C34.4781 7.08589 34.3689 7.07497 34.2597 6.98763C34.2925 6.78018 34.0195 6.86753 34.0195 6.7911C34.0086 6.50723 33.419 6.78018 33.6265 6.4308C33.7466 6.22335 34.0523 5.89581 34.4235 6.22335C34.4563 6.23427 34.5218 6.22335 34.5764 6.23427Z" fill="#3B9CD1"/>
<path d="M34.2597 6.97668C34.3689 6.97668 34.4781 6.97668 34.5872 6.97668C34.7292 7.12954 35.0895 7.05311 35.024 7.41341C34.7183 7.33698 34.5982 7.65361 34.3689 7.73003C34.2597 7.73003 34.1505 7.73003 34.0413 7.73003C34.0086 7.65361 33.9649 7.5881 33.9322 7.51167C33.8011 7.18413 34.1178 7.19505 34.2706 7.07495C34.2597 7.05311 34.2597 7.00944 34.2597 6.97668Z" fill="#1780B3"/>
<path d="M32.7313 9.48781C32.6767 9.49872 32.6221 9.49872 32.5784 9.52056C32.4474 9.57515 32.3492 9.79351 32.1745 9.59699C32.1199 9.53148 32.1745 9.43321 32.2291 9.43321C32.4474 9.44413 32.5238 9.062 32.775 9.21485C32.8951 9.29128 32.7531 9.40046 32.7313 9.48781C32.7313 9.49872 32.7313 9.48781 32.7313 9.48781Z" fill="#4AACE1"/>
<path d="M34.2598 7.08589C34.2379 7.30425 33.9104 7.28242 33.9213 7.52262C33.8012 7.56629 33.5829 7.6318 33.692 7.41343C33.7794 7.24966 33.9322 6.94395 34.2598 7.08589Z" fill="#4FAEE3"/>
<path d="M33.6593 6.9657C33.5938 7.21682 33.5719 7.39151 33.3536 7.38059C33.3099 7.38059 33.2444 7.31508 33.2444 7.28233C33.2662 7.07488 33.4737 7.09672 33.6593 6.9657Z" fill="#51ABE3"/>
<path d="M35.0241 7.42427C34.9695 7.195 34.642 7.21683 34.5874 6.98756C34.8604 6.86746 35.0787 6.99847 35.2207 7.195C35.308 7.3151 35.1661 7.40244 35.0241 7.42427Z" fill="#3B9CD1"/>
</g>
<defs>
<clipPath id="clip0_229_9784">
<rect width="54.6779" height="44" fill="white" transform="translate(0.304443)"/>
</clipPath>
</defs>
</svg>
