<svg width="93" height="28" viewBox="0 0 93 28" fill="none" xmlns="http://www.w3.org/2000/svg">
<g clip-path="url(#clip0_229_6021)">
<path d="M1.05179 26.035H3.0167V27.8362H3.99916V24.2339C4.08103 22.9239 3.18045 22.1052 2.03425 22.1052C0.969921 22.1052 0.0693359 22.9239 0.0693359 24.3158V27.8362H1.05179V26.035ZM3.0167 25.0526H1.05179V24.3158C1.05179 23.497 1.46115 23.0877 2.03425 23.0877C2.60735 23.0877 3.0167 23.497 3.0167 24.3158V25.0526Z" fill="#112A56"/>
<path d="M11.8589 27.8363V24.4795L10.3852 27.0175H10.2214L8.74775 24.4795V27.8363H7.84717V22.1871H8.58401L10.3033 25.2164L11.9407 22.1871H12.7594V27.8363H11.8589Z" fill="#112A56"/>
<path d="M17.9174 28C17.2624 28 16.7712 27.8363 16.1981 27.4269L16.28 26.6082C16.8531 26.9357 17.3443 27.0994 17.9174 27.0994C18.3267 27.0994 18.8998 26.8538 18.8998 26.4445C18.8998 25.3802 16.1162 25.7895 16.1162 23.9065C16.1162 22.924 17.0168 22.269 18.0811 22.269C18.7361 22.269 19.2273 22.5147 19.8004 22.924L19.4729 23.6609C19.0636 23.4152 18.5724 23.1696 18.0811 23.1696C17.508 23.1696 17.0987 23.4971 17.0987 23.8246C17.0987 24.8071 19.8823 24.5614 19.8823 26.2807C20.046 27.3451 18.9817 28 17.9174 28Z" fill="#112A56"/>
<path d="M22.584 23.1696V22.1871H27.005V23.1696H25.2857V27.8363H24.3033V23.1696H22.584Z" fill="#112A56"/>
<path d="M30.0342 22.1871H33.0634V23.1696H31.0166V24.3158H33.0634V25.2164H31.0166V26.9357H33.0634V27.8363H30.0342V22.1871Z" fill="#112A56"/>
<path d="M39.6132 25.7895C40.2682 25.462 40.6775 24.8071 40.6775 24.1521C40.6775 23.0878 39.777 22.269 38.7126 22.269H36.8296V27.8363H37.812V25.9533H38.5489L39.9407 27.8363H41.1688L39.6132 25.7895ZM38.7126 25.0527H37.812V23.1696H38.7126C39.2857 23.1696 39.6951 23.579 39.6951 24.1521C39.6951 24.6433 39.2039 25.0527 38.7126 25.0527Z" fill="#112A56"/>
<path d="M44.5254 27.8363H45.9172C47.3909 27.8363 48.619 26.6082 48.619 25.0526C48.619 23.4971 47.3909 22.1871 45.9172 22.1871H44.5254V27.8363ZM45.5078 23.1696H45.9172C46.8178 23.1696 47.4728 23.9883 47.4728 25.0526C47.4728 26.117 46.7359 26.9357 45.9172 26.9357H45.5078V23.1696Z" fill="#112A56"/>
<path d="M53.2857 26.035H55.2506V27.8362H56.233V24.2339C56.233 22.8421 55.3325 22.1052 54.2681 22.1052C53.2038 22.1052 52.3032 22.8421 52.3032 24.2339V27.8362H53.2857V26.035ZM55.2506 25.0526H53.2857V24.3158C53.2857 23.497 53.695 23.0877 54.2681 23.0877C54.8412 23.0877 55.2506 23.497 55.2506 24.3158V25.0526Z" fill="#112A56"/>
<path d="M64.0928 27.8363V24.4795L62.6192 27.0175H62.4554L60.9817 24.4795V27.8363H59.9993V22.1871H60.818L62.5373 25.2164L64.1747 22.1871H64.9934V27.8363H64.0928Z" fill="#112A56"/>
<path d="M58.7712 15.1462C59.9992 15.1462 61.2273 14.9006 61.2273 13.1813C61.2273 11.7895 60.2448 11.3801 58.5256 11.2164L55.9057 10.9707C51.8121 10.5614 50.1747 9.33331 50.1747 6.63156C50.1747 3.52045 52.2215 2.04676 56.3969 2.04676C56.3969 2.04676 60.163 2.04676 64.8296 1.96489C64.8296 2.04676 64.4203 4.74852 64.4203 4.83039H57.7887C56.2332 4.83039 55.2507 5.48536 55.2507 6.54969C55.2507 7.77776 56.2332 8.10524 57.7068 8.26898L60.8998 8.59647C64.584 9.00583 66.2215 10.3976 66.2215 13.1813C66.2215 15.1462 65.0753 16.7017 63.0285 17.4386C62.2098 17.6842 61.0636 17.8479 59.7536 17.8479H51.3209C51.3209 17.7661 51.7302 14.9006 51.7302 14.9006C55.9057 15.3099 58.6893 15.1462 58.7712 15.1462ZM43.625 2.04676V11.7076C43.625 14.1637 44.6074 15.1462 47.1454 15.1462C47.1454 15.1462 48.2098 15.1462 50.0109 15.0643C50.0109 15.1462 49.6016 17.8479 49.6016 17.9298H44.7712C42.97 17.9298 41.66 17.6023 40.6776 17.0292C39.3677 16.1286 38.7127 14.7368 38.7127 12.6082V2.04676H43.625ZM27.4144 4.58477C24.0577 4.58477 23.7302 7.12279 23.7302 10.0702C23.7302 12.9357 23.9758 15.5555 27.4144 15.5555H27.6601C31.0168 15.5555 31.3443 13.0175 31.3443 10.0702C31.3443 7.20466 31.0986 4.58477 27.6601 4.58477H27.4144ZM20.7829 16.2105C19.391 14.9006 18.6542 12.8538 18.6542 9.98828C18.6542 7.20466 19.3092 5.23974 20.6191 3.9298C22.0109 2.53799 24.3033 1.80115 27.5782 1.80115C33.7185 1.80115 36.5022 4.33916 36.5022 9.98828C36.5022 15.6374 33.8004 18.1754 27.5782 18.1754C24.3852 18.1754 22.1747 17.5204 20.7829 16.2105ZM5.14543 11.3801V15.3099H9.56649C11.2039 15.3099 12.1045 14.5731 12.1045 13.2631C12.1045 11.5438 10.6308 11.2982 9.56649 11.2982H5.14543V11.3801ZM5.14543 4.66664V8.67834H8.82964C10.3852 8.67834 11.2858 7.9415 11.2858 6.63156C11.2858 5.32162 10.3852 4.66664 8.6659 4.66664H5.14543ZM8.99339 2.04676C11.777 2.04676 12.6776 2.2105 13.9057 2.7836C15.2156 3.43857 16.1162 4.91226 16.1162 6.46781C16.1162 8.10524 15.5431 9.25144 14.315 9.98828L14.2332 10.0702H14.315C15.7068 10.3976 17.0986 11.5438 17.0986 13.5088C17.0986 16.4561 15.1337 17.9298 11.2039 17.9298H0.233154V2.04676H8.99339Z" fill="#112A56"/>
<path d="M84.0693 6.63154C84.0693 6.63154 85.4612 7.12277 87.9992 7.12277C88.5723 7.12277 89.2272 6.95903 89.7185 6.71341C90.1278 6.4678 90.5372 6.14031 90.8647 5.73096C90.9465 5.8947 91.0284 6.30406 90.8647 6.79528C90.7828 7.12277 90.4553 7.20464 90.2097 7.20464C90.6191 7.12277 91.0284 7.20464 91.274 7.53213C91.5196 7.85961 91.5196 8.35084 91.3559 8.7602C91.274 8.84207 91.1922 9.00581 91.1103 8.92394C90.9465 8.7602 90.9465 8.43271 90.9465 8.26897C90.9465 8.59645 90.7009 8.92394 90.2916 9.00581C90.2916 8.84207 90.3734 8.7602 90.3734 8.59645C90.4553 8.35084 90.3734 8.10523 90.1278 7.94148C89.9641 7.85961 89.8003 7.85961 89.6366 7.85961C89.4729 7.94148 89.3091 8.02335 89.0635 8.10523C88.736 8.1871 88.3267 8.1871 87.9173 8.1871C88.4904 8.43271 88.8998 8.59645 89.1454 8.84207C89.391 9.08768 89.5547 9.41517 89.6366 9.74265C89.8003 10.3158 89.8822 10.8889 89.6366 11.5438C89.4729 12.1169 89.2272 12.3625 89.1454 12.69C89.0635 13.0175 89.0635 13.345 89.391 13.6725C89.4729 13.7543 89.5547 13.7543 89.6366 13.7543C89.7185 13.7543 89.8822 13.6725 89.8822 13.5906C89.9641 13.8362 89.9641 14.1637 89.8003 14.3274C89.7185 14.4093 89.6366 14.4912 89.5547 14.4912C89.6366 14.6549 89.7185 14.8187 89.7185 14.9824C89.7185 15.228 89.7185 15.5555 89.4729 15.8011C89.391 15.883 89.1454 15.9649 88.9816 15.883C88.9816 15.8011 89.0635 15.6374 89.0635 15.5555C89.0635 15.228 88.8179 14.9824 88.6541 14.7368C88.6541 14.9824 88.5723 15.228 88.4085 15.3918C87.9173 14.9824 87.7536 14.4912 87.8354 13.7543C87.8354 13.5087 87.9992 13.2631 88.2448 13.0175C88.2448 12.9356 88.2448 12.9356 88.1629 12.9356C87.9992 13.0994 87.8354 13.2631 87.6717 13.4269C87.5079 13.5087 87.1805 13.7543 86.853 13.8362C86.6074 13.9181 86.2799 13.9181 85.9524 14.3274C85.7068 14.5731 85.6249 14.9824 85.9524 15.228C86.1161 15.3099 86.198 15.3099 86.3617 15.228C86.5255 15.1462 86.6074 15.0643 86.6892 14.9824C86.853 15.1462 86.853 15.3918 86.7711 15.4736C86.6892 15.5555 86.6892 15.6374 86.5255 15.7193C86.7711 15.9649 87.0167 16.2924 86.9348 16.6198C86.7711 16.4561 86.5255 16.538 86.3617 16.4561C86.3617 16.4561 86.198 16.2924 86.198 16.4561C86.198 16.538 86.2799 16.7017 86.2799 16.7836C86.2799 16.9473 86.198 17.0292 86.0343 17.1111C86.0343 17.0292 85.8705 16.7017 85.7886 16.6198C85.7068 16.538 85.543 16.3742 85.3793 16.3742C85.2974 16.4561 85.2155 16.6198 85.1337 16.6198C85.2155 16.2924 85.0518 15.9649 84.9699 15.6374C84.888 15.4736 84.8881 14.9824 84.8881 14.9005C84.9699 13.9181 85.2974 13.5906 85.4612 13.4269C85.8705 12.9356 86.5255 12.8538 86.5255 12.8538C85.4612 12.6081 85.0518 11.9532 84.9699 11.6257C84.8062 11.0526 85.1337 10.2339 85.2155 9.98827C85.4612 9.49704 85.3793 8.92394 85.2155 8.43271C85.6249 8.51458 85.9524 8.92394 85.9524 9.08768C86.0343 9.25143 86.1161 9.57891 86.1161 9.82452C86.4436 9.57891 86.4436 9.41517 86.5255 8.84207C86.9348 9.16955 87.0986 9.49704 86.9348 10.152C86.7711 10.6432 86.3617 10.9707 86.5255 11.462C86.6074 11.6257 86.9348 11.6257 87.1805 11.5438C87.7536 11.2163 88.081 10.7251 88.3267 9.98827C88.4085 9.66078 88.4085 9.08768 88.1629 8.7602C87.9173 8.26897 87.6717 8.1871 87.2623 8.02335C86.5255 7.69587 85.7068 7.69587 84.8881 7.28651C84.6424 7.20464 84.0693 6.63154 84.0693 6.63154Z" fill="#112A56"/>
<path d="M88.4905 3.60229C88.4905 3.35667 88.4905 3.11106 88.4905 3.02919C88.4905 2.78357 88.5723 2.45609 88.8179 2.21047C88.8998 2.1286 89.0635 1.88299 89.4729 1.80112C89.5548 1.80112 89.6367 1.80112 89.7185 1.71925C90.5372 1.63738 90.9466 2.04673 91.6016 2.21047C91.7653 2.21047 91.9291 2.21047 92.0109 2.1286C92.0109 2.21047 92.0109 2.45609 92.0109 2.53796C92.0109 2.61983 91.8472 2.78357 91.8472 2.78357C91.929 3.02919 92.1747 3.11106 92.5022 3.19293C92.4203 3.43855 92.1747 3.43854 91.929 3.43854C91.5197 3.43854 91.1103 3.2748 91.0285 2.94732C91.0285 3.02919 90.9466 3.2748 90.6191 3.35667C90.4554 3.35667 90.2097 3.35667 90.2097 3.2748L90.2916 3.11106C90.4554 2.78357 90.4554 2.53796 90.2916 2.29235C89.9641 1.96486 89.6367 2.1286 89.5548 2.29235C89.2273 2.86545 89.7185 3.76603 89.391 4.421C88.8998 5.5672 87.9992 5.89468 87.9992 5.89468C87.9992 5.89468 88.7361 4.58474 87.6717 4.33913C86.853 4.09352 86.0343 4.66662 85.1337 4.9941C83.8238 5.40346 83.4144 4.91223 83.4144 4.91223C83.4144 6.05843 82.3501 6.22217 82.3501 6.22217C82.432 6.22217 83.0051 5.48533 82.9232 4.74849C82.9232 4.421 82.8413 4.25726 82.6776 4.09352C82.6776 4.09352 83.4144 4.74849 84.0694 4.74849C84.2331 4.74849 84.3969 4.74849 84.4788 4.66662C84.5606 4.66662 84.8062 4.58474 85.0519 4.25726C85.3793 3.8479 85.4612 3.2748 85.2975 2.86545L85.2156 2.78357C85.0519 2.94732 85.0519 3.19293 85.0519 3.43854C84.97 3.43854 84.8062 3.35667 84.7244 3.2748C84.6425 3.19293 84.6425 3.02919 84.6425 2.86545C84.6425 2.78357 84.5606 2.94732 84.5606 2.94732C84.315 3.19293 83.8238 3.35667 83.4963 3.11106C83.3326 3.02919 83.2507 2.78357 83.2507 2.61983C83.4144 2.61983 83.66 2.61983 83.7419 2.53796C83.9057 2.45609 83.9875 2.29235 83.9875 2.21047C83.7419 2.1286 83.5782 1.80112 83.66 1.5555C83.66 1.5555 83.66 1.47363 83.7419 1.47363C83.9875 1.5555 84.2331 1.5555 84.5606 1.63738C84.7244 1.71925 84.97 1.80112 85.0519 1.96486C85.2975 1.88299 85.5431 1.88299 85.7887 2.04673C86.0343 2.21047 86.2799 2.37422 86.2799 2.53796C86.4437 2.86545 86.4437 3.2748 86.3618 3.52042C86.4437 3.35667 86.5255 3.2748 86.6074 3.19293C86.6893 3.11106 86.853 2.94732 87.0168 2.94732C87.0986 3.11106 87.0986 3.19293 87.1805 3.52042C87.1805 3.60229 87.1805 3.60229 87.1805 3.68416C87.2624 3.43855 87.508 3.2748 87.5899 2.78357C87.5899 2.53796 87.8355 2.21047 88.0811 2.21047C87.9174 2.61983 87.9992 3.02919 88.4905 3.60229Z" fill="#112A56"/>
<path d="M80.8765 3.02924L80.7128 2.8655V2.45614L80.0578 1.80117L79.4028 2.45614V2.8655L79.2391 3.02924C79.3209 3.11111 79.6484 3.27485 80.0578 3.27485C80.4671 3.27485 80.7128 3.19298 80.8765 3.02924ZM80.2215 1.7193L80.8765 2.37427H81.204L81.7771 2.94737L81.2859 3.02924C81.5315 3.52047 82.1046 3.76608 82.5958 3.76608C82.5139 3.92982 82.3502 4.0117 82.1864 4.0117C81.6952 4.09357 81.2859 4.0117 80.8765 3.68421C80.7946 3.92982 80.549 4.09357 80.3034 4.17544C80.2215 4.17544 80.1397 4.17544 80.0578 4.17544C79.9759 4.17544 79.894 4.17544 79.8122 4.17544C79.4847 4.09357 79.3209 3.92982 79.2391 3.76608C78.8297 4.0117 78.4204 4.09357 77.9291 4.09357C77.7654 4.09357 77.6016 4.0117 77.5198 3.84795C77.9291 3.84795 78.5022 3.52047 78.8297 3.11111L78.3385 3.02924L78.9116 2.45614H79.2391L79.894 1.80117L78.7478 0.654971L78.5841 0.818713L78.3385 0L79.1572 0.245614L78.9935 0.409357L80.1397 1.55556L81.1221 0.409357L80.9584 0.245614L81.7771 0L81.5315 0.818713L81.3677 0.654971L80.2215 1.7193Z" fill="#112A56"/>
<path d="M82.1044 15.965L83.3325 17.4386H82.7594L83.005 17.6843C83.0869 17.848 83.0869 18.0117 83.005 18.1755C82.8413 18.2574 82.6775 18.2574 82.5138 18.1755L82.2682 17.9299L82.1863 18.503L80.9583 17.1112V16.3743L80.1395 15.3919L79.3208 16.3743V17.1112L78.0928 18.503L77.8471 17.848L77.6015 18.0936C77.5197 18.2574 77.274 18.2574 77.1103 18.0936C76.9466 18.0117 76.9466 17.7661 77.1103 17.6024L77.3559 17.3568H76.7828L78.0109 15.8831L78.7477 15.8012L79.6483 14.7369L77.3559 12.117L77.1922 13.0995L76.2097 10.3977L78.8296 11.7895H77.8471L80.0577 14.3275L82.2682 11.7895H81.2857L83.9056 10.3977L82.9232 13.1813L82.7594 12.1989L80.467 14.8188L81.3676 15.8831L82.1044 15.965Z" fill="#112A56"/>
<path d="M76.0459 6.63154C76.0459 6.63154 74.6541 7.12277 72.1161 7.12277C71.543 7.12277 70.888 6.95903 70.3968 6.71341C69.9875 6.4678 69.5781 6.14031 69.2506 5.73096C69.1687 5.8947 69.0869 6.30406 69.2506 6.79528C69.3325 7.12277 69.66 7.20464 69.9056 7.20464C69.4962 7.12277 69.0869 7.20464 68.8413 7.53213C68.5956 7.85961 68.5956 8.35084 68.7594 8.7602C68.8413 8.84207 68.9231 9.00581 69.005 8.92394C69.1687 8.7602 69.1687 8.43271 69.1687 8.26897C69.1687 8.59645 69.4143 8.92394 69.8237 9.00581C69.8237 8.84207 69.7418 8.7602 69.7418 8.59645C69.66 8.35084 69.7418 8.10523 69.9875 7.94148C70.1512 7.85961 70.3149 7.85961 70.4787 7.85961C70.6424 7.94148 70.8062 8.02335 71.0518 8.10523C71.2974 8.1871 71.7067 8.1871 72.1161 8.1871C71.543 8.43271 71.1336 8.59645 70.888 8.84207C70.6424 9.08768 70.4787 9.41517 70.3968 9.74265C70.2331 10.3158 70.1512 10.8889 70.3968 11.5438C70.5606 12.1169 70.8062 12.3625 70.888 12.69C70.9699 13.0175 70.9699 13.345 70.6424 13.6725C70.5605 13.7543 70.4787 13.7543 70.3968 13.7543C70.3149 13.7543 70.1512 13.6725 70.1512 13.5906C70.0693 13.8362 70.0693 14.1637 70.2331 14.3274C70.3149 14.4093 70.3968 14.4912 70.4787 14.4912C70.3968 14.6549 70.3149 14.8187 70.3149 14.9824C70.3149 15.228 70.3149 15.5555 70.5605 15.8011C70.6424 15.883 70.888 15.9649 71.0518 15.883C71.0518 15.8011 70.9699 15.6374 70.9699 15.5555C70.9699 15.228 71.2155 14.9824 71.3793 14.7368C71.3793 14.9824 71.4611 15.228 71.6249 15.3918C72.1161 14.9824 72.2798 14.4912 72.198 13.7543C72.198 13.5087 72.0342 13.2631 71.7886 13.0175C71.7886 12.9356 71.7886 12.9356 71.8705 12.9356C72.0342 13.0994 72.198 13.2631 72.3617 13.4269C72.5255 13.5087 72.8529 13.7543 73.1804 13.8362C73.426 13.9181 73.7535 13.9181 74.081 14.3274C74.3266 14.5731 74.4085 14.9824 74.081 15.228C73.9173 15.3099 73.8354 15.3099 73.6717 15.228C73.5079 15.1462 73.426 15.0643 73.3442 14.9824C73.1804 15.1462 73.1804 15.3918 73.2623 15.4736C73.3442 15.5555 73.3442 15.6374 73.5079 15.7193C73.2623 15.9649 73.0167 16.2924 73.0986 16.6198C73.2623 16.4561 73.5079 16.538 73.6717 16.4561C73.6717 16.4561 73.8354 16.2924 73.8354 16.4561C73.8354 16.538 73.7535 16.7017 73.7535 16.7836C73.7535 16.9473 73.8354 17.0292 73.9991 17.1111C73.9991 17.0292 74.1629 16.7017 74.2448 16.6198C74.3266 16.538 74.4904 16.3742 74.6541 16.3742C74.736 16.4561 74.8179 16.6198 74.8997 16.6198C74.8179 16.2924 74.9816 15.9649 75.0635 15.6374C75.1453 15.4736 75.1453 14.9824 75.1453 14.9005C75.0635 13.9181 74.736 13.5906 74.5722 13.4269C74.1629 12.9356 73.5079 12.8538 73.5079 12.8538C74.6541 12.6081 74.9816 11.9532 75.0635 11.6257C75.2272 11.0526 74.8997 10.2339 74.8179 9.98827C74.6541 9.49704 74.6541 8.92394 74.8179 8.43271C74.4085 8.51458 74.081 8.92394 74.081 9.08768C73.9991 9.25143 73.9173 9.57891 73.9173 9.82452C73.5898 9.57891 73.5898 9.41517 73.5079 8.84207C73.0986 9.16955 72.9348 9.49704 73.0986 10.152C73.2623 10.6432 73.6717 10.9707 73.5079 11.462C73.426 11.6257 73.0986 11.6257 72.8529 11.5438C72.2798 11.2163 71.9524 10.7251 71.7067 9.98827C71.6249 9.66078 71.7067 9.08768 71.8705 8.7602C72.1161 8.26897 72.3617 8.1871 72.7711 8.02335C73.5898 7.69587 74.3266 7.69587 75.1453 7.28651C75.391 7.20464 76.0459 6.63154 76.0459 6.63154Z" fill="#112A56"/>
<path d="M71.625 3.60229C71.625 3.35667 71.625 3.11106 71.625 3.02919C71.625 2.78357 71.5431 2.45609 71.2975 2.21047C71.2156 2.1286 71.0519 1.88299 70.6425 1.80112C70.5606 1.80112 70.4788 1.80112 70.3969 1.71925C69.5782 1.63738 69.1688 2.04673 68.5139 2.21047C68.3501 2.21047 68.1864 2.21047 68.1045 2.1286C68.1045 2.21047 68.1045 2.45609 68.1045 2.53796C68.1045 2.61983 68.2683 2.78357 68.2683 2.78357C68.1864 3.02919 67.9408 3.11106 67.6133 3.19293C67.6952 3.43855 67.9408 3.43854 68.1864 3.43854C68.5957 3.43854 69.0051 3.2748 69.1688 2.94732C69.1688 3.02919 69.2507 3.2748 69.5782 3.35667C69.7419 3.35667 69.9876 3.35667 69.9876 3.2748L69.9057 3.11106C69.7419 2.78357 69.7419 2.53796 69.9057 2.29235C70.2332 1.96486 70.5606 2.1286 70.6425 2.29235C70.97 2.86545 70.4788 3.76603 70.8063 4.421C71.2975 5.5672 72.1981 5.89468 72.1981 5.89468C72.1981 5.89468 71.4612 4.58474 72.4437 4.33913C73.1805 4.17539 73.9992 4.74849 74.9817 5.07597C76.2916 5.40346 76.701 4.91223 76.701 4.91223C76.701 6.05843 77.7653 6.22217 77.7653 6.22217C77.6835 6.22217 77.1104 5.48533 77.1922 4.74849C77.1922 4.421 77.2741 4.25726 77.4378 4.09352C77.4378 4.09352 76.701 4.74849 76.046 4.74849C75.8823 4.74849 75.7185 4.74849 75.6367 4.66662C75.5548 4.66662 75.3092 4.58474 75.0636 4.25726C74.6542 3.92977 74.5723 3.2748 74.7361 2.86545L74.818 2.78357C74.9817 2.94732 74.9817 3.19293 74.9817 3.43854C75.0636 3.43854 75.2273 3.35667 75.3092 3.2748C75.3911 3.19293 75.3911 3.02919 75.3911 2.86545C75.3911 2.78357 75.4729 2.94732 75.4729 2.94732C75.7185 3.19293 76.1279 3.35667 76.5373 3.11106C76.701 3.02919 76.7829 2.78357 76.7829 2.61983C76.6191 2.61983 76.3735 2.61983 76.2916 2.53796C76.2098 2.45609 76.2098 2.29235 76.1279 2.21047C76.3735 2.1286 76.5373 1.80112 76.4554 1.5555C76.4554 1.5555 76.4554 1.47363 76.3735 1.47363C76.2098 1.63738 75.8823 1.63738 75.6367 1.71925C75.4729 1.80112 75.2273 1.88299 75.1454 2.04673C74.8998 1.96486 74.6542 1.96486 74.4086 2.1286C74.163 2.29235 73.9174 2.45609 73.9174 2.61983C73.6718 2.94732 73.6718 3.2748 73.7536 3.60229C73.6718 3.43855 73.5899 3.35667 73.508 3.2748C73.4261 3.19293 73.2624 3.02919 73.0987 3.02919C73.0168 3.19293 73.0168 3.2748 72.9349 3.60229C72.9349 3.68416 72.9349 3.68416 72.9349 3.76603C72.853 3.52042 72.6074 3.35667 72.5256 2.86545C72.5256 2.61983 72.2799 2.29235 72.0343 2.29235C72.1981 2.61983 72.0343 3.02919 71.625 3.60229Z" fill="#112A56"/>
<path d="M75.9641 16.2924C75.9641 18.1755 77.7653 19.8129 80.0577 19.8129C82.3501 19.8129 84.1512 18.1755 84.1512 16.2924L84.2331 9.82457H81.122C80.9583 9.98832 80.7945 10.0702 80.5489 10.2339C80.5489 10.2339 80.1396 10.3977 80.0577 10.3977C79.9758 10.3977 79.6483 10.2339 79.5665 10.2339C79.4027 10.0702 79.1571 9.98832 78.9934 9.82457H75.8822L75.9641 16.2924ZM80.0577 20.2222C78.4203 20.2222 76.9466 19.4035 76.1279 18.2573C76.046 18.7485 75.0635 18.2573 74.9817 18.7485C74.8998 18.9942 74.8998 19.4035 74.5723 19.5673C73.8355 19.8947 73.0167 19.6491 72.4436 19.1579C72.0343 18.7485 71.7068 18.3392 71.2156 18.0117C72.0343 17.848 72.3618 19.1579 73.2624 18.7485C72.4436 18.4211 72.3618 17.6024 71.8705 17.0293C71.9524 17.0293 72.0343 17.0293 72.0343 17.0293C72.3618 17.193 72.5255 17.5205 72.853 17.7661C73.0986 18.0117 73.4261 18.2573 74.2448 18.0936C74.8998 18.0117 75.0635 17.6024 75.5548 17.6842C75.6366 17.6842 75.7185 17.6842 75.8004 17.7661C75.5548 17.2749 75.4729 16.7836 75.4729 16.2924L75.391 9.41522H78.5021C78.4203 9.33335 78.4203 9.33335 78.3384 9.25147C78.0928 8.92399 77.929 8.51463 77.5197 8.35089C77.3559 8.26902 77.1103 8.35089 77.0284 8.51463C76.8647 8.67837 76.9466 9.00586 76.9466 9.25147C76.5372 8.92399 76.6191 8.43276 76.9466 8.10528C77.3559 7.69592 77.7653 7.85966 78.1746 7.28656C78.2565 7.12282 78.3384 6.79533 78.3384 6.63159C78.5021 6.71346 79.239 6.95908 79.8939 6.95908C80.5489 6.95908 81.2858 6.71346 81.4495 6.63159C81.4495 6.79533 81.5314 7.12282 81.6132 7.28656C82.0226 7.85966 82.432 7.69592 82.8413 8.10528C83.2507 8.43276 83.2507 8.92399 82.8413 9.25147C82.9232 9.00586 82.9232 8.76025 82.7594 8.51463C82.6776 8.35089 82.432 8.35089 82.2682 8.35089C81.8589 8.51463 81.777 8.92399 81.4495 9.25147C81.3676 9.33335 81.3676 9.33335 81.2858 9.41522H84.3969L84.315 16.2924C84.315 16.8655 84.1513 17.3567 83.9875 17.7661C84.0694 17.6842 84.1513 17.6842 84.2331 17.6842C84.7244 17.6024 84.8881 17.9298 85.5431 18.0936C86.3618 18.2573 86.6893 17.9298 86.9349 17.7661C87.1805 17.5205 87.4261 17.193 87.7536 17.0293C87.8355 17.0293 87.9173 17.0293 87.9173 17.0293C87.3442 17.5205 87.3442 18.4211 86.5255 18.7485C87.4261 19.1579 87.7536 17.848 88.5723 18.0117C88.1629 18.3392 87.7536 18.7485 87.3442 19.1579C86.7711 19.6491 85.9524 19.8947 85.2156 19.5673C84.8881 19.4854 84.8881 19.076 84.8062 18.7485C84.7243 18.3392 83.8238 18.8304 83.66 18.2573C83.1688 19.4035 81.6951 20.2222 80.0577 20.2222Z" fill="#112A56"/>
<path d="M80.0578 22.1053C78.9116 22.1053 77.6016 21.8596 76.5373 21.5322C75.7186 21.2865 75.0636 20.9591 74.8999 20.8772C74.8999 20.8772 74.818 20.7953 74.7361 20.7134C74.5724 20.5497 74.8999 20.2222 74.9818 20.0585C75.2274 19.5672 75.3092 19.3216 75.3911 18.9941C75.473 19.1579 76.1279 19.6491 77.1104 19.8947C78.1747 20.2222 79.0753 20.386 80.1397 20.386C81.1221 20.386 82.0227 20.2222 83.1689 19.8947C84.0695 19.5672 84.7244 19.076 84.8882 18.9941C84.9701 19.3216 85.0519 19.5672 85.2975 20.0585C85.3794 20.2222 85.625 20.5497 85.5432 20.7134C85.4613 20.7953 85.4613 20.7953 85.3794 20.8772C85.2157 20.9591 84.5607 21.2865 83.742 21.5322C82.5139 21.8596 81.204 22.1053 80.0578 22.1053Z" fill="#112A56"/>
<path d="M78.1746 5.56727C78.1746 5.64914 78.0927 5.73101 78.0108 5.64914C77.8471 5.56727 77.7652 5.40352 77.7652 5.32165C77.7652 5.15791 77.6833 4.99417 77.6833 4.83042C77.6833 4.74855 77.6833 4.66668 77.7652 4.50294C77.7652 4.42107 77.8471 4.25732 78.0108 4.25732C78.1746 4.25732 78.2564 4.3392 78.2564 4.50294C78.1746 4.9123 78.2564 5.07604 78.2564 5.40352C78.1746 5.56727 78.1746 5.56727 78.1746 5.56727Z" fill="#112A56"/>
<path d="M79.1572 5.97657C79.1572 6.14031 78.9935 6.22218 78.9116 6.22218C78.8298 6.22218 78.666 6.14031 78.5841 5.97657C78.4204 5.56721 78.4204 5.40347 78.5023 5.07598C78.5023 4.99411 78.5023 4.91224 78.5841 4.83037C78.666 4.7485 78.666 4.66663 78.8298 4.66663C78.9935 4.66663 79.1572 4.66663 79.1572 4.91224C79.1572 5.40347 79.1572 5.64908 79.1572 5.97657Z" fill="#112A56"/>
<path d="M81.9408 5.56727C81.9408 5.64914 82.0226 5.73101 82.1045 5.64914C82.2682 5.56727 82.3501 5.40352 82.3501 5.32165C82.3501 5.15791 82.432 4.99417 82.432 4.83042C82.432 4.74855 82.432 4.66668 82.3501 4.50294C82.3501 4.42107 82.2682 4.25732 82.1045 4.25732C81.9408 4.25732 81.8589 4.3392 81.8589 4.50294C81.9408 4.9123 81.8589 5.07604 81.8589 5.40352C81.9408 5.56727 81.9408 5.56727 81.9408 5.56727Z" fill="#112A56"/>
<path d="M80.9583 5.97657C80.9583 6.14031 81.122 6.22218 81.2039 6.22218C81.2857 6.22218 81.4495 6.14031 81.5314 5.97657C81.6951 5.56721 81.6951 5.40347 81.6132 5.07598C81.6132 4.99411 81.6132 4.91224 81.5314 4.83037C81.4495 4.7485 81.4495 4.66663 81.2857 4.66663C81.2039 4.66663 80.9583 4.66663 80.9583 4.91224C80.9583 5.40347 80.9583 5.64908 80.9583 5.97657Z" fill="#112A56"/>
<path d="M79.5665 5.07602C79.6484 4.91228 79.8121 4.74854 80.0577 4.74854C80.3033 4.74854 80.4671 4.91228 80.549 5.07602C80.6308 5.23976 80.6308 5.48538 80.6308 5.64912C80.6308 5.81286 80.6308 6.05848 80.549 6.22222C80.4671 6.38596 80.3033 6.5497 80.0577 6.5497C79.8121 6.5497 79.6484 6.38596 79.5665 6.22222C79.4846 6.05848 79.4846 5.81286 79.4846 5.64912C79.4846 5.40351 79.4846 5.23976 79.5665 5.07602Z" fill="#112A56"/>
<path d="M75.7184 27.8363H76.2915V24.3158H75.7184L74.6541 25.2164L74.9815 25.6257L75.6365 25.0526V27.8363H75.7184ZM79.2388 24.3158H77.2739V26.1988C77.5196 26.117 77.7652 26.0351 78.0108 26.0351C78.4201 26.0351 78.8295 26.1988 78.8295 26.6901C78.8295 27.0175 78.5839 27.2632 78.2564 27.2632C77.9289 27.2632 77.7652 27.0994 77.6833 26.8538L77.0283 27.0994C77.1921 27.6725 77.6014 27.9181 78.1745 27.9181C78.9114 27.9181 79.4026 27.4269 79.4026 26.6901C79.4026 25.9532 78.9114 25.5439 78.2564 25.5439C78.0927 25.5439 78.0108 25.5439 77.847 25.6257V24.8889H79.2388V24.3158ZM80.0576 24.8889H81.7769L80.385 27.8363H81.04L82.4318 24.8889V24.3158H80.0576V24.8889ZM85.2973 24.3158H83.3324V26.1988C83.578 26.117 83.8236 26.0351 84.0693 26.0351C84.4786 26.0351 84.888 26.1988 84.888 26.6901C84.888 27.0175 84.6424 27.2632 84.3149 27.2632C83.9874 27.2632 83.8236 27.0994 83.7418 26.8538L83.0868 27.0176C83.2505 27.5907 83.6599 27.8363 84.233 27.8363C84.9698 27.8363 85.4611 27.345 85.4611 26.6082C85.4611 25.8714 84.9698 25.462 84.3149 25.462C84.1511 25.462 84.0693 25.462 83.9055 25.5439V24.807H85.2973V24.3158Z" fill="#112A56"/>
</g>
<defs>
<clipPath id="clip0_229_6021">
<rect width="92.4327" height="28" fill="white" transform="translate(0.0693359)"/>
</clipPath>
</defs>
</svg>
