<svg width="128" height="30" viewBox="0 0 128 30" fill="none" xmlns="http://www.w3.org/2000/svg">
<g clip-path="url(#clip0_229_9936)">
<path d="M100.794 19.234C99.9587 18.6932 99.3688 17.9435 98.9018 17.0955C95.9522 11.8354 92.8797 6.64895 90.0284 1.32736C89.8563 1.00782 89.6597 0.897212 89.3156 0.909503C88.0497 0.921793 86.7715 0.909503 85.5056 0.921793C85.3827 0.921793 85.223 0.848052 85.1124 1.0324C85.6408 1.89271 85.604 2.74072 85.1615 3.63789C83.0353 7.9517 80.946 12.2655 78.8321 16.5793C78.5126 17.2184 78.1562 17.8329 77.6769 18.3737C77.3573 18.7424 77.0992 18.7546 76.7183 18.4228C75.7842 17.5994 75.0591 16.6162 74.2602 15.6821C73.2156 14.4654 72.1832 13.2241 71.1386 11.9705C71.3352 11.8599 71.4827 11.7862 71.6179 11.7002C73.572 10.5203 74.4692 8.75055 74.3831 6.51376C74.2971 4.1172 73.1541 2.35973 70.8928 1.41339C69.9464 1.02011 68.9632 0.909503 67.9554 0.909503C65.3131 0.909503 62.6707 0.909503 60.0284 0.909503C59.9055 0.909503 59.7826 0.909503 59.6597 0.909503C59.4507 0.921793 59.3893 1.04469 59.5613 1.16759C60.4831 1.88042 60.5814 2.90049 60.5937 3.93285C60.6183 8.27124 60.6183 12.6096 60.6183 16.9603C60.6183 17.0832 60.5937 17.2061 60.5814 17.329C60.4954 18.1033 60.2865 18.8161 59.5491 19.2462C59.4384 19.3077 59.3278 19.3814 59.377 19.5289C59.4139 19.6641 59.5491 19.6149 59.6351 19.6149C61.6875 19.6149 63.7277 19.6149 65.7801 19.6149C65.8661 19.6149 66.0013 19.6518 66.0382 19.5166C66.0751 19.406 66.0136 19.32 65.9153 19.2585C64.969 18.7178 64.9075 17.7592 64.8706 16.8497C64.8215 15.6698 64.8584 14.4777 64.8584 13.2856C64.8584 13.0029 64.8584 12.7202 64.7477 12.4253C65.8293 12.2778 66.5052 12.7694 67.1074 13.556C68.1644 14.9324 69.3688 16.1983 70.4258 17.5871C71.5319 19.0373 72.9452 19.6395 74.7273 19.6149C77.1484 19.5781 79.5573 19.6027 81.9784 19.6027C82.1013 19.6027 82.2242 19.6149 82.3471 19.5904C82.6052 19.5535 82.5806 19.406 82.4454 19.2585C81.708 18.4843 81.6589 18.1401 82.0767 17.1692C82.3963 16.4441 82.851 15.7682 82.9862 14.9693C83.0231 14.7112 83.2074 14.7727 83.3549 14.7727C86.452 14.7727 89.5368 14.7727 92.6339 14.7727C92.7813 14.7727 92.9657 14.7112 93.0026 14.9693C93.1132 15.8173 93.6785 16.4441 94.0349 17.1692C94.4036 17.9312 94.3422 18.5457 93.7891 19.1971C93.7154 19.2831 93.5679 19.3446 93.6171 19.492C93.6785 19.6395 93.826 19.5904 93.9366 19.5904C96.1857 19.5904 98.4471 19.5904 100.696 19.5904C100.807 19.5904 100.967 19.6395 101.003 19.4798C101.028 19.3691 100.893 19.2954 100.794 19.234ZM69.9833 7.89025C69.7006 8.75055 69.0861 9.25444 68.2258 9.40192C67.218 9.58627 66.1857 9.47566 65.1656 9.50024C64.7969 9.51253 64.8584 9.25444 64.8584 9.03322C64.8584 7.60758 64.8584 6.16964 64.8584 4.744C64.8584 4.41216 64.8707 4.09262 64.674 3.69934C65.5466 3.8714 66.3209 3.78537 67.0951 3.79766C69.4671 3.84682 70.7207 5.61659 69.9833 7.89025ZM84.7068 11.7002C85.6408 9.75833 86.5749 7.84109 87.5335 5.83781C88.6396 7.81651 89.7211 9.72146 90.8272 11.7002C88.7502 11.7002 86.7592 11.7002 84.7068 11.7002Z" fill="#00AFAC"/>
<path d="M121.356 16.5547C121.368 12.4006 121.356 8.24659 121.356 4.08026C121.356 2.93729 121.602 1.88035 122.536 1.10607C122.56 1.08149 122.548 0.995462 122.548 0.909432C120.692 0.909432 118.849 0.909432 117.005 0.909432C116.907 0.909432 116.784 0.884852 116.735 0.995462C116.661 1.15523 116.796 1.21668 116.895 1.27813C117.521 1.63454 117.755 2.23676 117.927 2.88813C118.124 3.62553 118.148 4.38752 118.148 5.13721C118.148 7.53377 118.148 9.93033 118.16 12.3269C118.16 12.8554 118.234 13.3838 118.283 14.0352C118.087 13.8017 117.964 13.6665 117.853 13.5313C114.94 10.0655 112.04 6.59972 109.127 3.13393C108.255 2.10157 107.185 1.40103 105.846 1.11836C104.445 0.835691 103.031 0.934012 101.618 0.921722C101.52 0.921722 101.409 0.897141 101.372 1.03233C101.335 1.16752 101.458 1.20439 101.532 1.25355C102.355 1.76973 102.638 2.58088 102.712 3.49034C102.749 3.89591 102.786 4.30149 102.786 4.71935C102.786 8.24659 102.798 11.7615 102.786 15.2888C102.786 16.8128 102.995 18.3859 101.495 19.578C103.462 19.578 105.268 19.578 107.235 19.578C106.301 18.8652 106.018 17.9926 106.006 17.0094C105.993 16.5424 105.993 16.0631 105.993 15.596C105.944 12.5727 106.116 9.53705 105.883 6.51369C105.772 6.3785 105.661 6.12041 105.735 6.05896C105.87 5.93606 105.944 6.14499 106.006 6.26789C109.287 10.1884 112.63 14.0721 115.825 18.0663C116.784 19.2708 117.755 19.873 119.303 19.6763C120.336 19.5411 121.405 19.6518 122.462 19.6518C122.499 19.6149 122.523 19.578 122.56 19.5411C121.602 18.73 121.356 17.6976 121.356 16.5547Z" fill="#00AFAC"/>
<path d="M16.915 13.8386C16.8536 11.6878 15.7721 10.2376 13.8179 9.38961C13.5353 9.26671 13.2526 9.16839 12.8839 9.02091C14.0515 8.45557 14.8257 7.69359 15.0961 6.50145C15.7352 3.61329 13.7565 1.04467 10.6717 0.958643C7.43941 0.860322 4.20713 0.921773 0.974848 0.909483C0.851947 0.909483 0.667597 0.823452 0.606146 1.02009C0.569276 1.16757 0.716757 1.22902 0.815077 1.29047C1.60164 1.90498 1.92118 2.75299 1.92118 3.71161C1.93347 8.02542 1.93347 12.3515 1.92118 16.6653C1.92118 17.6362 1.60164 18.5211 0.839657 19.1848C0.741337 19.2708 0.544696 19.3445 0.606146 19.5043C0.679887 19.7132 0.888817 19.6026 1.0363 19.6026C4.05965 19.6026 7.09529 19.6272 10.1186 19.5903C11.4583 19.5781 12.761 19.3568 13.99 18.7669C16.0793 17.796 16.9765 16.0877 16.915 13.8386ZM6.33331 3.90825C7.23048 4.0926 8.12765 3.92054 9.02483 4.01886C10.5734 4.17863 11.4214 5.43222 10.8929 6.78412C10.5488 7.66901 9.78681 7.97626 8.95109 8.05C8.16452 8.12374 7.35338 8.07458 6.55453 8.09916C6.23499 8.11145 6.18583 7.95168 6.18583 7.6813C6.19812 7.15282 6.18583 6.61206 6.18583 5.98527C6.13667 5.43222 6.27186 4.78085 6.11209 4.12947C6.07522 3.95741 6.14896 3.87138 6.33331 3.90825ZM12.466 13.6911C12.4046 15.3134 11.4828 16.2475 9.83597 16.3089C9.12315 16.3335 8.41032 16.3212 7.6975 16.3212C7.15674 16.3212 6.60369 16.272 5.95232 16.5055C6.18583 16.0877 6.21041 15.7927 6.21041 15.4855C6.21041 14.195 6.2227 12.9169 6.19812 11.6264C6.18583 11.2208 6.27186 11.0365 6.72659 11.0611C7.83269 11.0979 8.92651 11.0365 10.0326 11.1594C11.7163 11.3314 12.5275 12.1672 12.466 13.6911Z" fill="#00AFAC"/>
<path d="M39.2091 8.28352C37.55 1.03239 28.6151 -1.9418 22.8265 2.82674C18.7954 6.14505 18.0088 11.7985 21.069 15.9156C23.3796 19.0127 26.5504 20.3032 30.3972 20.0082C35.3992 19.6149 39.4181 15.3011 39.4181 10.1885C39.4427 9.62314 39.3689 8.94719 39.2091 8.28352ZM32.8675 15.2889C30.815 17.3044 27.8286 17.3044 25.7761 15.2889C23.1583 12.7325 23.1092 8.0623 25.6532 5.43223C27.8408 3.17086 31.1837 3.26918 33.2239 5.66574C34.3546 6.99307 34.883 8.5539 34.883 10.4712C34.8462 12.2286 34.2563 13.9247 32.8675 15.2889Z" fill="#00AFAC"/>
<path d="M56.9806 2.83905C57.3738 2.10165 57.7917 1.37654 58.185 0.639136C58.2956 0.442496 58.4922 0.196695 58.2833 0.0369246C58.099 -0.0982658 57.9638 0.208985 57.804 0.319596C57.5459 0.491656 57.2755 0.626846 56.9683 0.700587C56.3415 0.860357 55.6901 0.921807 55.0387 0.921807C51.3271 0.934097 47.6278 0.921807 43.9162 0.946388C43.1788 0.946388 42.38 0.983258 41.8392 1.53631C40.8683 2.5318 40.4013 3.84684 39.7253 5.03897C39.6639 5.14958 39.7131 5.2479 39.7868 5.32164C39.8974 5.43225 39.9711 5.32164 40.0326 5.26019C40.6717 4.64569 41.4705 4.54737 42.3063 4.48592C43.8302 4.37531 45.3665 4.54737 46.9396 4.36302C46.7307 4.80546 46.7921 5.26019 46.7921 5.70263C46.7921 9.22987 46.8167 12.7448 46.7798 16.2721C46.7675 17.415 46.7184 18.5949 45.5754 19.32C45.5262 19.3569 45.4771 19.4675 45.4894 19.5289C45.5385 19.6887 45.686 19.6395 45.7966 19.6395C47.8614 19.6395 49.9384 19.6395 52.0031 19.6395C52.1137 19.6395 52.2735 19.6887 52.3226 19.5412C52.3718 19.3937 52.2489 19.3323 52.1383 19.2708C51.5238 18.9759 51.3026 18.4105 51.1674 17.796C51.0568 17.3167 51.0691 16.8251 51.0568 16.3335C51.0199 12.4499 51.1428 8.55392 50.983 4.67027C50.9707 4.39989 51.0936 4.42447 51.2657 4.43676C52.3472 4.54737 53.4287 4.5105 54.5103 4.43676C55.6164 4.31386 56.4521 3.84684 56.9806 2.83905Z" fill="#00AFAC"/>
<path d="M86.6979 29.5822C86.194 29.5576 86.1325 29.1889 86.1325 28.7956C86.1325 27.7878 86.1325 26.7923 86.1325 25.7845C86.1325 25.3421 86.1202 24.9119 86.6979 24.7768C86.9068 24.7276 86.8945 24.5064 86.7593 24.4818C86.3169 24.4203 85.8621 24.4203 85.4197 24.4449C85.1125 24.4572 85.1002 24.789 85.0018 24.998C84.5102 26.0918 84.0186 27.1979 83.4902 28.3777C83.0723 27.3822 82.6913 26.4851 82.3103 25.5879C81.7819 24.3466 81.7941 24.3466 80.4545 24.4326C80.4299 24.4326 80.4177 24.4326 80.3931 24.4326C80.2702 24.4449 80.135 24.4081 80.0981 24.5678C80.0612 24.7276 80.1841 24.7645 80.307 24.789C80.688 24.8628 80.7864 25.1332 80.7986 25.465C80.7986 26.5957 80.8109 27.7141 80.7864 28.8448C80.7864 29.1766 80.688 29.5084 80.2579 29.5576C80.1227 29.5699 80.0121 29.619 80.0244 29.7788C80.049 29.9509 80.1964 29.914 80.3193 29.914C80.7495 29.914 81.1796 29.914 81.6098 29.914C81.7081 29.914 81.831 29.9386 81.8679 29.8034C81.9047 29.6436 81.8187 29.5822 81.6712 29.5576C81.2657 29.5084 81.1919 29.2258 81.1919 28.8939C81.1919 27.837 81.1919 26.7677 81.1919 25.7108C81.2288 25.7108 81.2657 25.6985 81.2902 25.6985C81.3271 25.7845 81.3763 25.8706 81.4131 25.9689C81.8802 27.1242 82.3349 28.2794 82.8019 29.447C82.8634 29.5945 82.888 29.8034 83.0846 29.8157C83.3181 29.8403 83.355 29.6067 83.4164 29.447C83.6868 28.8079 83.9572 28.1688 84.2276 27.5297C84.4979 26.8906 84.7683 26.2516 85.0387 25.6125C85.137 26.7309 85.137 27.8124 85.137 28.9062C85.137 29.2503 85.051 29.5207 84.6577 29.5576C84.5348 29.5699 84.4119 29.5822 84.3996 29.7542C84.3996 29.9386 84.5348 29.9263 84.6577 29.9263C85.3337 29.9263 86.0096 29.9263 86.6856 29.9263C86.7839 29.9263 86.9068 29.9263 86.9191 29.7911C86.9437 29.6436 86.8331 29.5945 86.6979 29.5822Z" fill="#01B0AD"/>
<path d="M21.2287 29.5084C21.0075 29.3732 20.8723 29.1765 20.7371 28.9799C20.4176 28.4883 20.1103 27.9721 19.7785 27.4805C19.6064 27.2347 19.6187 27.1364 19.8891 26.9766C20.4667 26.6694 20.7617 26.1655 20.6142 25.5018C20.4667 24.8381 19.926 24.6415 19.336 24.5186C18.8076 24.408 18.2791 24.4449 17.7506 24.4449C17.3573 24.4449 16.9764 24.4449 16.5831 24.4449C16.4602 24.4449 16.325 24.4326 16.3004 24.6046C16.2881 24.7275 16.3619 24.7767 16.4848 24.8013C16.9026 24.875 16.9641 25.1823 16.9641 25.5387C16.9641 26.6694 16.9641 27.7878 16.9641 28.9184C16.9641 29.238 16.9149 29.5452 16.5093 29.5944C16.3619 29.6067 16.2881 29.6804 16.3127 29.8402C16.3373 29.9754 16.4602 29.9508 16.5585 29.9508C17.2099 29.9508 17.8735 29.9508 18.5249 29.9508C18.6232 29.9508 18.7461 29.9631 18.7707 29.8279C18.7953 29.6804 18.7215 29.6067 18.5741 29.5944C18.1685 29.5329 18.1316 29.238 18.1316 28.9061C18.1316 28.562 18.1193 28.2056 18.1316 27.8615C18.1439 27.7017 18.0333 27.4682 18.3037 27.4068C18.5495 27.3453 18.6724 27.5051 18.7707 27.7017C19.0288 28.1933 19.336 28.6481 19.5696 29.1519C19.8891 29.8156 20.3684 30.0983 21.0812 29.9508C21.241 29.9139 21.4868 30.0614 21.5605 29.8402C21.6711 29.5329 21.3639 29.5944 21.2287 29.5084ZM19.1763 26.7431C18.9059 26.952 18.5741 27.0995 18.2668 26.9766C17.9841 26.8537 18.1685 26.5096 18.1316 26.2638C18.1193 26.1655 18.1316 26.0549 18.1316 25.9565C18.1316 25.7968 18.1316 25.6247 18.1316 25.4649C18.1439 25.2314 18.0702 24.9365 18.3651 24.8381C18.6724 24.7275 18.9796 24.8259 19.2131 25.0348C19.6556 25.4281 19.6433 26.3744 19.1763 26.7431Z" fill="#01B0AD"/>
<path d="M36.0997 24.4572C35.6695 24.4572 35.2394 24.4572 34.8092 24.4572C34.674 24.4572 34.4897 24.4204 34.4528 24.6047C34.4159 24.8259 34.6126 24.7891 34.7478 24.8136C35.0796 24.8751 35.2517 25.0594 35.2517 25.4036C35.2517 26.2762 35.2517 27.1488 35.2517 28.0336C34.1947 27.0136 33.1255 26.0918 32.1914 25.0472C31.6261 24.4204 30.9993 24.4572 30.3111 24.4695C30.1882 24.4695 30.053 24.4941 30.053 24.6539C30.053 24.7891 30.1636 24.8014 30.2619 24.8136C30.8027 24.8997 30.9256 25.293 30.9379 25.76C30.9379 26.8046 30.9379 27.8493 30.9379 28.8939C30.9379 29.2504 30.8518 29.5576 30.4217 29.5945C30.2865 29.6068 30.1759 29.6559 30.2005 29.8157C30.225 29.9878 30.3848 29.9509 30.4954 29.9509C30.9502 29.9509 31.3926 29.9632 31.8473 29.9509C31.9702 29.9509 32.1546 30.0123 32.1546 29.7788C32.1546 29.6068 32.0071 29.6068 31.8965 29.6068C31.5769 29.5945 31.3803 29.4101 31.3803 29.1029C31.368 28.0582 31.3803 27.0013 31.3803 25.8706C31.5647 26.0427 31.6876 26.1533 31.7982 26.2639C32.8674 27.37 33.9243 28.4761 34.9936 29.5822C35.1411 29.742 35.264 30.0246 35.5221 29.9386C35.8293 29.828 35.6695 29.5084 35.6818 29.2995C35.6941 28.0951 35.6818 26.8784 35.6941 25.6739C35.6941 25.293 35.7187 24.912 36.2103 24.8259C36.3332 24.8014 36.4807 24.7768 36.4315 24.6047C36.3701 24.4449 36.2226 24.4572 36.0997 24.4572Z" fill="#02B0AD"/>
<path d="M25.7883 24.4081C24.166 24.4081 22.9001 25.6371 22.9001 27.1979C22.9001 28.7833 24.1292 29.9632 25.7883 29.9632C27.4352 29.9632 28.701 28.7833 28.7256 27.2348C28.7379 25.6617 27.4352 24.4081 25.7883 24.4081ZM27.1156 28.8571C26.4643 29.9509 25.0878 29.9632 24.4979 28.8448C23.9325 27.7878 23.9571 26.6694 24.461 25.6002C24.7191 25.0472 25.1861 24.7276 25.8375 24.7399C26.452 24.7522 26.8698 25.084 27.1525 25.6002C27.4229 26.0918 27.5089 26.6326 27.4966 27.1979C27.5089 27.7878 27.4106 28.3532 27.1156 28.8571Z" fill="#01B0AD"/>
<path d="M52.3225 27.4682C52.0153 27.4682 51.708 27.4682 51.4008 27.4682C51.0689 27.4682 50.7494 27.4682 50.4176 27.4682C50.2947 27.4682 50.1595 27.4682 50.1472 27.6403C50.1349 27.8001 50.2455 27.8369 50.3807 27.8615C51.0935 27.9598 50.8354 28.5129 50.86 28.9184C50.8846 29.3609 50.6388 29.5821 50.2086 29.6559C49.4589 29.791 48.7338 29.4961 48.3283 28.7955C47.7752 27.8246 47.726 26.8046 48.2054 25.7968C48.8444 24.4694 50.565 24.3588 51.4253 25.5633C51.536 25.7107 51.6097 25.8828 51.7203 26.0303C51.8063 26.1409 51.9169 26.1778 52.0153 26.0303C52.1996 25.7353 51.9538 24.9119 51.6343 24.7398C50.4176 24.0885 48.5495 24.3343 47.5663 25.2806C46.7797 26.0426 46.5093 26.9643 46.8043 28.0213C47.087 29.0413 47.7998 29.6559 48.8076 29.8894C49.4467 30.0368 50.1103 30.0123 50.7617 29.9017C51.8186 29.7173 51.917 29.5698 51.9292 28.4637C51.9292 28.1319 51.9415 27.8369 52.384 27.8369C52.5315 27.8369 52.6175 27.7632 52.6052 27.6157C52.5929 27.4436 52.4454 27.4682 52.3225 27.4682Z" fill="#01B0AD"/>
<path d="M78.058 29.0168C77.6524 29.5207 76.6938 29.8034 76.0301 29.5576C75.4156 29.3241 75.772 28.7341 75.686 28.3163C75.6614 28.1934 75.686 28.0705 75.686 27.9476C75.686 27.2716 76.0916 27.0012 76.7184 27.2716C76.9396 27.3699 77.0379 27.5789 77.124 27.7878C77.1731 27.9107 77.1854 28.1074 77.382 28.0582C77.5664 28.009 77.4927 27.8247 77.4927 27.6895C77.5049 27.3577 77.5049 27.0381 77.4927 26.7063C77.4804 26.5219 77.6278 26.2393 77.3698 26.1655C77.1117 26.0918 77.1608 26.399 77.0625 26.5342C76.7921 26.9398 76.3865 26.8292 76.0056 26.8415C75.8581 26.8538 75.6983 26.8415 75.6983 26.6448C75.6983 26.0918 75.686 25.5387 75.7229 24.9857C75.7352 24.7276 75.9933 24.703 76.2022 24.703C76.8413 24.703 77.4804 24.7276 77.9105 25.3298C77.9965 25.4404 78.1194 25.6739 78.2669 25.4035C78.4021 25.17 78.0088 24.4449 77.7507 24.4449C76.5463 24.4326 75.3419 24.4449 74.1252 24.4449C74.0023 24.4449 73.8548 24.4203 73.8302 24.5924C73.7933 24.8136 73.99 24.789 74.1129 24.8136C74.457 24.8996 74.5553 25.1209 74.5553 25.4527C74.543 26.6203 74.5553 27.7878 74.5553 28.9554C74.5553 29.2749 74.4693 29.5207 74.1129 29.5822C73.9777 29.6067 73.7933 29.5945 73.8302 29.8034C73.8671 30.0123 74.0514 29.9386 74.1743 29.9386C75.219 29.9509 76.2636 29.9386 77.3083 29.9386C78.5988 29.9386 78.5988 29.9386 78.611 28.6358C78.611 28.599 78.5865 28.5621 78.5373 28.3654C78.3407 28.6481 78.2055 28.8325 78.058 29.0168Z" fill="#01B0AD"/>
<path d="M59.549 24.4572C59.0943 24.4572 58.6518 24.4572 58.1971 24.4572C58.0865 24.4572 57.9882 24.4818 57.9882 24.617C57.9759 24.7522 58.0496 24.7891 58.1725 24.8014C58.6887 24.8751 58.7379 25.2438 58.7379 25.6617C58.7256 26.3622 58.7379 27.0504 58.7379 27.751C58.7379 28.0213 58.7133 28.2794 58.6273 28.5375C58.3569 29.3118 57.7055 29.6928 56.8329 29.5576C56.1201 29.447 55.7883 29.0045 55.776 28.1442C55.7637 27.2594 55.776 26.3868 55.7637 25.5019C55.7637 25.1455 55.8005 24.8382 56.243 24.7891C56.3413 24.7768 56.4642 24.7768 56.4642 24.6293C56.4642 24.5064 56.3782 24.4449 56.2676 24.4449C55.5547 24.4449 54.8419 24.4449 54.1168 24.4449C54.0062 24.4449 53.9202 24.4941 53.9202 24.6293C53.9202 24.7276 53.9816 24.7645 54.0676 24.7891C54.6453 24.8997 54.633 25.3421 54.633 25.7846C54.633 26.1533 54.633 26.522 54.633 26.8907H54.6453C54.6453 27.3577 54.6207 27.837 54.6453 28.304C54.6944 29.2381 55.2967 29.8648 56.2307 29.9509C56.5134 29.9755 56.8083 29.9755 57.091 29.9632C58.3569 29.9386 59.0574 29.2626 59.0943 27.9845C59.1189 27.2102 59.0943 26.4359 59.1066 25.6494C59.1066 25.2684 59.1434 24.8997 59.6227 24.8014C59.7456 24.7768 59.8071 24.7153 59.7825 24.5924C59.7579 24.4695 59.6473 24.4572 59.549 24.4572Z" fill="#01B0AD"/>
<path d="M72.5766 25.2438C72.5888 25.1823 72.5766 25.1209 72.5766 25.0594C72.5888 24.3097 72.5888 24.322 71.876 24.5064C71.704 24.5555 71.5073 24.5433 71.323 24.5433C70.3766 24.5433 69.4426 24.5433 68.4963 24.5433C68.2505 24.5433 67.9801 24.617 67.7712 24.4572C67.2796 24.1008 67.1444 24.3466 67.0829 24.8014C67.0584 24.9611 67.0215 25.1209 66.9969 25.2807C66.9723 25.4404 66.788 25.6494 67.0338 25.7477C67.2304 25.8337 67.3042 25.6125 67.4025 25.4896C67.636 25.1946 67.8941 24.9611 68.2874 24.8751C68.9633 24.7276 69.1476 24.8505 69.1476 25.5265C69.1476 26.608 69.1354 27.6895 69.1476 28.771C69.1476 29.2135 69.0862 29.5576 68.5454 29.5699C68.4103 29.5699 68.2874 29.6068 68.2996 29.7665C68.3119 29.9509 68.4594 29.9263 68.57 29.9263C69.332 29.9263 70.0817 29.9263 70.8437 29.9263C70.9543 29.9263 71.114 29.9632 71.1386 29.7911C71.1632 29.5822 70.9911 29.5822 70.8437 29.5699C70.4258 29.5453 70.3029 29.2749 70.3029 28.9062C70.3029 28.3286 70.3029 27.7632 70.3029 27.1856C70.3029 26.6694 70.3029 26.1655 70.3029 25.6494C70.3029 24.8505 70.5241 24.6907 71.3107 24.8751C71.6302 24.9488 71.8637 25.1332 72.0358 25.4036C72.1341 25.551 72.1464 25.8091 72.3922 25.7477C72.7117 25.6862 72.5274 25.4159 72.5766 25.2438Z" fill="#02B0AD"/>
<path d="M93.6417 29.5945C93.1378 29.5207 93.0395 29.0906 92.8797 28.7219C92.3758 27.4683 91.8965 26.2147 91.4049 24.9611C91.3189 24.7522 91.3189 24.4081 90.9993 24.4204C90.6921 24.4327 90.5692 24.7522 90.5077 24.9857C90.1636 26.2762 89.5122 27.4314 89.0329 28.6727C88.8854 29.0537 88.7257 29.447 88.2709 29.5699C88.1603 29.6068 88.0989 29.6805 88.1112 29.7911C88.1235 29.9263 88.2341 29.9386 88.3324 29.9386C88.7625 29.9386 89.1927 29.9386 89.6228 29.9386C89.7089 29.9386 89.7826 29.914 89.8072 29.8157C89.8318 29.7051 89.7949 29.6068 89.672 29.5945C89.3525 29.5453 89.2419 29.3487 89.3402 29.066C89.4754 28.6727 89.4877 28.1442 89.9301 27.9968C90.8519 27.6772 91.4541 28.0091 91.749 28.9185C91.8473 29.2381 92.0194 29.5822 91.4418 29.5822C91.3189 29.5822 91.2574 29.6559 91.2574 29.7788C91.2574 29.914 91.368 29.9263 91.4664 29.9386C91.7982 29.9386 92.1177 29.9386 92.4496 29.9386C92.8183 29.9386 93.187 29.9386 93.5557 29.9386C93.654 29.9386 93.7769 29.9509 93.8015 29.8157C93.8138 29.7051 93.7646 29.6068 93.6417 29.5945ZM89.9301 27.6035C90.1513 27.0259 90.3603 26.4851 90.6061 25.8214C90.8396 26.4728 91.0485 27.0136 91.2574 27.6035C90.8027 27.6035 90.4094 27.6035 89.9301 27.6035Z" fill="#01B0AD"/>
<path d="M106.681 29.5822C106.263 29.5207 106.141 29.2012 106.005 28.8694C105.489 27.5543 104.985 26.2516 104.457 24.9365C104.371 24.7276 104.383 24.3958 104.039 24.4204C103.756 24.4449 103.646 24.7399 103.584 24.9488C103.228 26.2516 102.576 27.4437 102.085 28.685C101.937 29.0414 101.79 29.4101 101.372 29.5453C101.261 29.5822 101.2 29.6436 101.2 29.7665C101.212 29.9017 101.298 29.9263 101.409 29.9263C101.839 29.9263 102.269 29.9263 102.699 29.9263C102.798 29.9263 102.908 29.914 102.908 29.7665C102.908 29.6805 102.884 29.5945 102.785 29.5822C102.49 29.5453 102.318 29.4101 102.404 29.0906C102.515 28.685 102.54 28.132 102.945 27.9968C103.388 27.8493 103.941 27.8862 104.395 28.0091C104.678 28.0828 104.666 28.5621 104.776 28.8571C104.912 29.1889 105.096 29.5576 104.469 29.5699C104.346 29.5699 104.285 29.6436 104.285 29.7665C104.285 29.9017 104.395 29.914 104.494 29.914C104.838 29.914 105.194 29.914 105.538 29.914C105.882 29.914 106.239 29.914 106.583 29.914C106.694 29.914 106.841 29.9386 106.841 29.7542C106.866 29.6559 106.804 29.6068 106.681 29.5822ZM103.744 27.6403C102.994 27.6035 102.982 27.6281 103.277 26.8907C103.4 26.5834 103.449 26.2516 103.719 25.9566C103.867 26.3499 103.978 26.7063 104.137 27.0258C104.358 27.4806 104.309 27.6649 103.744 27.6403Z" fill="#01B0AD"/>
<path d="M66.1735 29.5821C65.7311 29.5084 65.6204 29.1397 65.4853 28.7956C64.9814 27.5174 64.4898 26.2392 63.9859 24.9733C63.8998 24.7644 63.8998 24.4203 63.5926 24.4203C63.2485 24.4203 63.1256 24.7767 63.0641 25.0225C62.7323 26.3375 62.044 27.5174 61.5647 28.771C61.4295 29.1151 61.2575 29.4469 60.8642 29.5698C60.7536 29.6067 60.6921 29.6681 60.6921 29.7788C60.7044 29.9631 60.8519 29.9262 60.9625 29.9385C61.3558 29.9385 61.7368 29.9385 62.1301 29.9385C62.2407 29.9385 62.3882 29.9631 62.4005 29.7788C62.4005 29.6559 62.339 29.5944 62.2161 29.5821C61.9089 29.5452 61.8843 29.3363 61.9089 29.0905C62.0072 28.2794 62.339 27.9721 63.1501 27.9721C63.273 27.9721 63.3959 27.9844 63.5189 27.9721C63.8998 27.9107 64.0842 28.0827 64.1579 28.4391C64.1948 28.6112 64.2808 28.7833 64.3423 28.9553C64.4406 29.2626 64.5635 29.5821 64.035 29.5821C63.8998 29.5821 63.7892 29.6436 63.8138 29.8033C63.8384 29.9754 63.9982 29.9385 64.1088 29.9385C64.4406 29.9385 64.7601 29.9385 65.092 29.9385C65.4238 29.9385 65.7433 29.9385 66.0752 29.9385C66.1858 29.9385 66.3456 29.9754 66.3578 29.791C66.3578 29.6804 66.2841 29.6067 66.1735 29.5821ZM62.8921 27.6403C62.5848 27.628 62.4988 27.5665 62.634 27.2593C62.8183 26.8414 62.9781 26.399 63.187 25.8336C63.3222 26.2146 63.4205 26.485 63.5189 26.7431C63.863 27.6772 63.863 27.6649 62.8921 27.6403Z" fill="#01B0AD"/>
<path d="M100.045 28.4023C99.8974 28.3409 99.8114 28.4638 99.7622 28.5621C99.3444 29.4715 98.5578 29.619 97.6606 29.5944C97.2059 29.5821 97.0461 29.3978 97.0461 28.9554C97.0584 27.8247 97.0584 26.7063 97.0461 25.5756C97.0461 25.1577 97.1444 24.8505 97.6114 24.789C97.7343 24.7767 97.8818 24.7767 97.8572 24.5924C97.845 24.4695 97.7343 24.4326 97.6237 24.4326C96.8863 24.4326 96.1489 24.4326 95.4115 24.4326C95.3009 24.4326 95.2026 24.4572 95.1903 24.5924C95.178 24.7153 95.2517 24.7644 95.3746 24.789C95.854 24.8505 95.9277 25.1823 95.9277 25.5879C95.9154 26.6694 95.9277 27.7509 95.9277 28.8447C95.9277 29.2012 95.8785 29.5084 95.4484 29.5699C95.3255 29.5821 95.1903 29.5944 95.2026 29.7665C95.2149 30 95.3992 29.9263 95.5221 29.9263C96.1981 29.9386 96.874 29.9263 97.55 29.9263C98.226 29.9263 98.9019 29.9263 99.5779 29.9263C99.7622 29.9263 99.9589 29.9508 99.9834 29.6805C100.02 29.3363 100.082 28.9922 100.119 28.6481C100.143 28.5744 100.155 28.4515 100.045 28.4023Z" fill="#01B0AD"/>
<path d="M125.547 16.1614C124.49 16.1614 123.703 16.8988 123.691 17.8697C123.679 18.8775 124.477 19.6395 125.559 19.6395C126.616 19.6395 127.402 18.9143 127.415 17.9311C127.415 16.9234 126.616 16.1614 125.547 16.1614ZM125.608 19.2708C124.772 19.2953 124.133 18.6931 124.133 17.8943C124.146 17.1323 124.735 16.5547 125.497 16.5424C126.309 16.5301 126.911 17.0954 126.923 17.8943C126.935 18.6563 126.382 19.2462 125.608 19.2708Z" fill="#03B0AD"/>
<path d="M40.4257 27.1242C39.7251 26.8292 39 26.8784 38.238 26.9398C38.7051 27.4806 38.6559 29.4347 38.2012 29.8403C38.6928 29.9509 39.7866 29.9509 40.1799 29.8525C40.8681 29.6805 41.2982 29.2258 41.3597 28.6113C41.4334 27.9599 41.0893 27.3945 40.4257 27.1242ZM40.7575 28.7219C40.6715 29.3118 40.2905 29.5945 39.7251 29.6805C39.2704 29.7419 39.0123 29.619 39.0615 29.0906C39.0861 28.8693 39.0615 28.6481 39.0615 28.4146C39.0615 28.2303 39.0615 28.0459 39.0615 27.8616C39.0615 27.0996 39.3196 26.9398 40.0324 27.2348C40.5854 27.4806 40.8681 28.0459 40.7575 28.7219Z" fill="#04B0AE"/>
<path d="M44.3217 29.4101C43.9776 29.8157 43.5105 29.7296 43.1296 29.6313C42.7854 29.5453 43.0189 29.1397 42.9698 28.8693C42.9452 28.7464 42.896 28.5498 43.0804 28.5006C43.2647 28.4515 43.486 28.4146 43.658 28.5867C43.7563 28.6727 43.6949 28.8939 43.953 28.8571C44.0267 28.5252 44.0022 28.1934 43.9653 27.837C43.7809 27.837 43.7563 27.9107 43.7195 27.9845C43.572 28.2671 43.2525 28.2671 43.0804 28.1565C42.8223 27.9845 42.9698 27.6281 42.9698 27.3577C42.9698 27.075 43.2279 27.1733 43.3999 27.1487C43.7932 27.0996 44.0636 27.3822 44.5183 27.6772C44.3586 27.3208 44.4569 26.9521 44.1865 26.9275C43.4737 26.8661 42.7609 26.9029 42.048 26.9029C42.5765 27.3945 42.5642 29.4101 41.9128 29.9263C42.6748 29.9263 43.3139 29.9263 43.953 29.9263C44.6535 29.9263 44.715 29.8648 44.6289 29.1274C44.4323 29.1397 44.4077 29.3118 44.3217 29.4101Z" fill="#0AB2B0"/>
<path d="M126.296 17.5994C126.407 17.4888 126.321 17.2307 126.124 17.1323C125.755 16.9357 125.35 16.9726 124.993 17.0586C124.649 17.1446 124.883 17.5133 124.821 17.7468C124.809 17.8083 124.821 17.8697 124.821 17.9312C124.821 18.0787 124.809 18.2139 124.821 18.3614C124.846 18.5211 124.723 18.7669 125.018 18.7792C125.301 18.7915 125.252 18.5703 125.264 18.3982C125.276 18.2753 125.276 18.1524 125.448 18.1401C125.571 18.1401 125.694 18.1524 125.755 18.2753C125.805 18.3859 125.854 18.4965 125.891 18.6194C125.952 18.8038 126.087 18.8161 126.235 18.7792C126.481 18.7301 126.321 18.558 126.309 18.4474C126.259 18.1647 125.989 17.9189 126.296 17.5994ZM125.583 17.796C125.436 17.8083 125.288 17.8083 125.288 17.5994C125.288 17.4519 125.288 17.3044 125.497 17.3044C125.669 17.3044 125.817 17.3536 125.878 17.5502C125.854 17.7223 125.743 17.7837 125.583 17.796Z" fill="#08B2AF"/>
</g>
<defs>
<clipPath id="clip0_229_9936">
<rect width="126.809" height="30" fill="white" transform="translate(0.59375)"/>
</clipPath>
</defs>
</svg>
