<svg width="98" height="30" viewBox="0 0 98 30" fill="none" xmlns="http://www.w3.org/2000/svg">
<g clip-path="url(#clip0_229_4229)">
<path d="M0.411865 1.302H6.40772C7.17642 1.302 7.79138 1.37887 8.40634 1.53261C9.0213 1.68635 9.48252 1.91696 9.94374 2.22444C10.3281 2.53192 10.7124 2.91627 10.943 3.37749C11.1737 3.83871 11.2505 4.29993 11.2505 4.91489C11.2505 5.76046 11.0968 6.37542 10.7893 6.75977C10.4818 7.22099 10.0975 7.52847 9.55939 7.75908C9.94374 7.91282 10.3281 8.06656 10.7124 8.2203C11.0968 8.45091 11.4043 8.68152 11.6349 8.989C11.9424 9.29648 12.0961 9.68083 12.2498 10.0652C12.4036 10.5264 12.4804 10.9876 12.4804 11.5257C12.4804 12.9094 11.9424 13.9855 10.943 14.7542C9.94374 15.5229 8.48321 15.9073 6.63833 15.9073H0.411865V1.302ZM6.10024 6.75977C6.56146 6.75977 6.86894 6.6829 7.02268 6.45229C7.25329 6.22168 7.33016 5.99107 7.33016 5.60672C7.33016 5.29924 7.25329 4.99176 7.09955 4.76115C6.86894 4.53054 6.56146 4.45367 6.17711 4.45367H4.17849V6.75977H6.10024ZM6.56146 12.9094C7.33016 12.9094 7.86825 12.7556 8.09886 12.4481C8.40634 12.1407 8.48321 11.7563 8.48321 11.2182C8.48321 10.6801 8.32947 10.2958 8.02199 9.98831C7.86825 9.7577 7.33016 9.60396 6.56146 9.60396H4.17849V12.9094H6.56146Z" fill="#061022"/>
<path d="M19.9369 16.2148C19.0144 16.2148 18.1689 16.061 17.4002 15.8304C16.6315 15.5998 15.9396 15.2155 15.4016 14.7542C14.8635 14.293 14.4022 13.6781 14.0948 12.9094C13.7873 12.1407 13.6335 11.2951 13.6335 10.2958V1.302H17.5539V10.2958C17.5539 11.1414 17.7845 11.7563 18.1689 12.2175C18.5532 12.6788 19.1682 12.9094 20.0138 12.9094C20.8593 12.9094 21.4743 12.6788 21.8586 12.2175C22.243 11.7563 22.4736 11.1414 22.4736 10.2958V1.302H26.394V10.2958C26.394 11.2951 26.2402 12.1407 25.9327 12.9094C25.6253 13.6781 25.164 14.2162 24.6259 14.7542C24.0879 15.2155 23.396 15.5998 22.6273 15.8304C21.7049 16.061 20.8593 16.2148 19.9369 16.2148Z" fill="#061022"/>
<path d="M28.1619 1.302H32.0822V12.6788H38.3087V15.9842H28.1619V1.302Z" fill="#061022"/>
<path d="M39.7693 1.302H43.6897V12.6788H49.9161V15.9842H39.7693V1.302Z" fill="#061022"/>
<path d="M51.4536 1.302H57.142C58.2182 1.302 59.1406 1.45574 60.063 1.84009C60.9855 2.14757 61.7542 2.68566 62.446 3.30062C63.1378 3.91558 63.5991 4.68428 63.9834 5.60672C64.3678 6.52916 64.5215 7.52847 64.5215 8.68152C64.5215 9.83457 64.3678 10.8339 63.9834 11.7563C63.5991 12.6788 63.061 13.4475 62.446 14.0624C61.7542 14.6774 60.9855 15.2155 60.063 15.5229C59.1406 15.8304 58.1413 16.061 57.142 16.061H51.4536V1.302ZM56.6808 12.6788C57.9107 12.6788 58.8331 12.2944 59.525 11.6026C60.2168 10.9107 60.5243 9.91144 60.5243 8.68152C60.5243 7.4516 60.2168 6.45229 59.525 5.76046C58.8331 4.99176 57.9107 4.60741 56.6808 4.60741H55.374V12.6788H56.6808Z" fill="#061022"/>
<path d="M73.7458 16.2148C72.6696 16.2148 71.6703 16.0611 70.7478 15.6767C69.8254 15.2924 68.9798 14.7543 68.2111 14.1393C67.5193 13.4475 66.9043 12.6788 66.52 11.7564C66.0588 10.8339 65.905 9.83462 65.905 8.68157C65.905 7.60539 66.1356 6.52921 66.52 5.60677C66.9812 4.68433 67.5193 3.91563 68.2111 3.2238C68.903 2.53197 69.7485 2.07075 70.7478 1.68641C71.6703 1.30206 72.6696 1.14832 73.7458 1.14832C74.8219 1.14832 75.8213 1.30206 76.7437 1.68641C77.6661 2.07075 78.5117 2.53197 79.2804 3.2238C79.9722 3.91563 80.5872 4.68433 80.9715 5.60677C81.4328 6.52921 81.5865 7.52852 81.5865 8.68157C81.5865 9.75775 81.3559 10.8339 80.9715 11.7564C80.5103 12.6788 79.9722 13.4475 79.2804 14.1393C78.5886 14.8312 77.743 15.2924 76.7437 15.6767C75.7444 15.9842 74.7451 16.2148 73.7458 16.2148ZM73.7458 12.7557C74.3607 12.7557 74.8988 12.6788 75.36 12.4482C75.8213 12.2176 76.2056 11.9101 76.59 11.6026C76.8974 11.2183 77.2049 10.8339 77.3587 10.2958C77.5124 9.75775 77.5893 9.21966 77.5893 8.68157C77.5893 8.14348 77.5124 7.60539 77.3587 7.0673C77.2049 6.52921 76.8974 6.14486 76.59 5.76051C76.2825 5.37616 75.8213 5.06868 75.36 4.91494C74.8988 4.68433 74.3607 4.60746 73.7458 4.60746C73.1308 4.60746 72.5927 4.68433 72.1315 4.91494C71.6703 5.14555 71.2859 5.37616 70.9016 5.76051C70.5941 6.14486 70.2866 6.52921 70.1329 7.0673C69.9791 7.60539 69.9023 8.14348 69.9023 8.68157C69.9023 9.29653 69.9791 9.75775 70.1329 10.2958C70.2866 10.8339 70.5941 11.2183 70.9016 11.6026C71.2091 11.987 71.6703 12.2945 72.1315 12.4482C72.5927 12.6788 73.1308 12.7557 73.7458 12.7557Z" fill="#061022"/>
<path d="M93.732 11.0645H90.8109V7.98971H97.1911V14.1393C96.8068 14.4468 96.4993 14.6774 96.0381 14.908C95.6537 15.1386 95.1925 15.3692 94.6544 15.523C94.1163 15.6767 93.5782 15.8304 92.9633 15.9842C92.3483 16.0611 91.5796 16.1379 90.8109 16.1379C89.7347 16.1379 88.7354 15.9842 87.7361 15.5998C86.8137 15.2155 85.9681 14.6774 85.1994 14.0624C84.5076 13.3706 83.8926 12.6019 83.5083 11.6795C83.1239 10.757 82.8933 9.75772 82.8933 8.60467C82.8933 7.52849 83.1239 6.45231 83.5083 5.52987C83.8926 4.60743 84.5076 3.83873 85.1994 3.1469C85.8912 2.45507 86.7368 1.99385 87.6592 1.6095C88.5817 1.22515 89.581 1.07141 90.6572 1.07141C91.964 1.07141 93.117 1.30202 94.1163 1.76324C95.1156 2.22446 95.8843 2.83942 96.5762 3.68499L93.8088 6.06796C93.4245 5.60674 92.9633 5.22239 92.4252 4.91491C91.8871 4.60743 91.2721 4.45369 90.5034 4.45369C89.8885 4.45369 89.3504 4.53056 88.8892 4.76117C88.4279 4.99178 88.0436 5.22239 87.7361 5.60674C87.4286 5.99109 87.198 6.37544 87.0443 6.91353C86.8905 7.45162 86.8137 7.98971 86.8137 8.5278C86.8137 9.14276 86.8905 9.68085 87.0443 10.1421C87.198 10.6802 87.4286 11.0645 87.813 11.5257C88.1205 11.9101 88.5817 12.2176 89.0429 12.4482C89.5041 12.6788 90.1191 12.7556 90.734 12.7556C91.4259 12.7556 92.0408 12.6788 92.4252 12.6019C92.8864 12.4482 93.1939 12.3713 93.5782 12.2176V11.0645H93.732Z" fill="#061022"/>
<path d="M0.411865 20.9806H0.949955V28.2064H5.48528V28.7445H0.411865V20.9806Z" fill="#061022"/>
<path d="M5.94653 24.8241C5.94653 22.6718 7.48393 20.8269 9.8669 20.8269C12.173 20.8269 13.7104 22.6718 13.7104 24.8241C13.7104 26.8996 12.173 28.8214 9.79003 28.8214C7.48393 28.8214 5.94653 26.9765 5.94653 24.8241ZM13.0954 24.8241C13.0954 22.9024 11.7118 21.2881 9.79003 21.2881C7.86828 21.2881 6.48462 22.8255 6.48462 24.7473C6.48462 26.669 7.86828 28.2064 9.79003 28.2064C11.7118 28.2064 13.0954 26.7459 13.0954 24.8241Z" fill="#061022"/>
<path d="M15.4016 20.9806H15.9397L21.2437 27.7451V20.9806H21.7818V28.7445H21.3206L15.8628 21.903V28.7445H15.3247V20.9806H15.4016Z" fill="#061022"/>
<path d="M23.8572 20.9806H26.3939C28.8537 20.9806 30.468 22.6717 30.468 24.8241C30.468 26.9764 28.7769 28.6676 26.3939 28.6676H23.8572V20.9806ZM26.4708 28.1295C28.6231 28.1295 30.0068 26.669 30.0068 24.8241C30.0068 22.9792 28.6231 21.5187 26.4708 21.5187H24.4721V28.2064H26.4708V28.1295Z" fill="#061022"/>
<path d="M31.7749 24.8241C31.7749 22.6718 33.3123 20.8269 35.6953 20.8269C38.0014 20.8269 39.5388 22.6718 39.5388 24.8241C39.5388 26.8996 38.0014 28.8214 35.6184 28.8214C33.3123 28.8214 31.7749 26.9765 31.7749 24.8241ZM38.9238 24.8241C38.9238 22.9024 37.5402 21.2881 35.6184 21.2881C33.6967 21.2881 32.313 22.8255 32.313 24.7473C32.313 26.669 33.6967 28.2064 35.6184 28.2064C37.617 28.2833 38.9238 26.7459 38.9238 24.8241Z" fill="#061022"/>
<path d="M41.0761 20.9806H41.6142L46.9183 27.7451V20.9806H47.4563V28.7445H46.9951L41.5374 21.903V28.7445H40.9993V20.9806H41.0761Z" fill="#061022"/>
<path d="M53.606 20.9806H56.1427C58.6025 20.9806 60.2168 22.6717 60.2168 24.8241C60.2168 26.9764 58.5256 28.6676 56.1427 28.6676H53.606V20.9806ZM56.1427 28.1295C58.295 28.1295 59.6787 26.669 59.6787 24.8241C59.6787 22.9792 58.295 21.5187 56.1427 21.5187H54.144V28.2064H56.1427V28.1295Z" fill="#061022"/>
<path d="M61.7542 20.9806H64.9827C65.9051 20.9806 66.6738 21.2881 67.135 21.7493C67.5194 22.1336 67.75 22.6717 67.75 23.2098C67.75 24.5166 66.7507 25.2084 65.5208 25.439L68.0575 28.7445H67.2888L64.8289 25.5159H62.2922V28.7445H61.7542V20.9806ZM64.9058 24.9778C66.2126 24.9778 67.135 24.3629 67.135 23.2098C67.135 22.1336 66.2895 21.5187 64.9058 21.5187H62.2922V24.9778H64.9058Z" fill="#061022"/>
<path d="M71.7473 25.5929L68.4419 20.9038H69.1337L72.0548 25.0548L74.9758 20.9038H75.6677L72.3623 25.5929V28.6677H71.7473V25.5929Z" fill="#061022"/>
<path d="M79.3572 24.8241C79.3572 22.7487 80.8946 20.8269 83.2007 20.8269C84.4306 20.8269 85.2762 21.2113 86.0449 21.8262L85.6605 22.2874C85.0456 21.7493 84.3537 21.365 83.2007 21.365C81.3558 21.365 79.9721 22.9793 79.9721 24.8241C79.9721 26.8228 81.2021 28.2833 83.2776 28.2833C84.2769 28.2833 85.1993 27.8989 85.7374 27.4377V25.2085H83.1238V24.6704H86.2755V27.6683C85.5837 28.2833 84.5075 28.8214 83.2007 28.8214C80.8177 28.8214 79.3572 27.0534 79.3572 24.8241Z" fill="#061022"/>
<path d="M88.1973 20.9806H88.7354V28.7445H88.1973V20.9806Z" fill="#061022"/>
<path d="M90.811 20.9806H91.3491L96.6531 27.7451V20.9806H97.1912V28.7445H96.73L91.2722 21.903V28.7445H90.7341V20.9806H90.811Z" fill="#061022"/>
</g>
<defs>
<clipPath id="clip0_229_4229">
<rect width="96.4286" height="30" fill="white" transform="translate(0.640869)"/>
</clipPath>
</defs>
</svg>
