<svg width="135" height="28" viewBox="0 0 135 28" fill="none" xmlns="http://www.w3.org/2000/svg">
<g clip-path="url(#clip0_229_9924)">
<path d="M14.0316 0C14.6566 0.35 15.0816 0.9125 15.5566 1.425C15.9691 1.8625 16.4566 2.175 17.0816 2.175C18.6566 2.175 20.2316 2.175 21.8066 2.175C21.9941 2.175 22.1441 2.2375 22.2566 2.3625C22.8691 2.975 23.4691 3.6 24.0691 4.2125C24.1816 4.325 24.1816 4.425 24.0691 4.5375C23.7066 4.95 23.3316 5.3625 22.9816 5.8C22.7441 6.1 22.5566 6.4375 22.6691 6.8625C22.7691 7.2 23.0066 7.425 23.2941 7.5875C23.7066 7.825 24.1316 8.025 24.5567 8.2625C25.2066 8.625 25.7566 9.0875 26.2442 9.6375C26.7691 10.2375 27.1691 10.9 27.4191 11.65C27.5691 12.075 27.6441 12.5375 27.7316 12.9875C27.7817 13.2875 27.8192 13.6 27.8067 13.9125C27.7817 14.6 27.7191 15.3 27.5066 15.9625C27.3191 16.5375 27.1441 17.125 26.9067 17.6875C26.6067 18.375 26.2066 19.025 25.7066 19.6125C25.3941 19.9875 25.1441 20.4 25.0191 20.875C24.9691 21.0875 25.0567 21.275 25.1567 21.4375C25.3192 21.675 25.4942 21.9 25.6817 22.1125C25.9566 22.425 26.2566 22.7375 26.5441 23.05C26.6691 23.1875 26.6567 23.2625 26.5191 23.4125C26.0066 23.925 25.4941 24.4375 24.9816 24.95C24.8816 25.05 24.7941 25.1375 24.6941 25.2375C24.5941 25.3375 24.4941 25.3625 24.3816 25.2375C24.0441 24.8875 23.6941 24.55 23.3441 24.2C22.8691 23.7125 22.3066 23.6125 21.6566 23.775C21.1316 23.9125 20.7316 24.275 20.2816 24.55C19.3191 25.15 18.3441 25.7625 17.3691 26.35C16.8066 26.6875 16.2191 27.0125 15.6191 27.3125C15.1191 27.5625 14.5941 27.7625 14.0691 28C14.0566 28.0125 14.0441 28.025 14.0316 28.05C13.9316 28.05 13.8441 28.05 13.7441 28.05C13.7316 28.0375 13.7191 28.0125 13.7066 28C13.3941 27.8625 13.0816 27.75 12.7816 27.5875C11.9066 27.125 11.0316 26.6625 10.1816 26.1625C9.23164 25.6125 8.29414 25.025 7.35664 24.4375C6.95664 24.1875 6.58164 23.8875 6.10664 23.775C5.50664 23.6375 4.98164 23.725 4.54414 24.1625C4.18164 24.525 3.81914 24.8875 3.45664 25.25C3.34414 25.3625 3.25664 25.3625 3.14414 25.25C2.53164 24.625 1.90664 24.0125 1.29414 23.4C1.16914 23.275 1.16914 23.1875 1.29414 23.0625C1.68164 22.6625 2.10664 22.275 2.46914 21.8375C2.90664 21.3375 3.00664 21.0625 2.69414 20.45C2.55664 20.1875 2.38164 19.9375 2.19414 19.7C1.83164 19.2125 1.46914 18.7125 1.18164 18.175C0.881641 17.625 0.644141 17.0375 0.456641 16.4375C0.281641 15.8625 0.169141 15.275 0.131641 14.675C0.119141 14.55 0.0816406 14.425 0.0566406 14.3C0.0566406 13.9875 0.0566406 13.6625 0.0566406 13.35C0.0941406 13.1625 0.144141 12.975 0.169141 12.7875C0.256641 12.125 0.481641 11.5125 0.769141 10.925C1.10664 10.2625 1.54414 9.675 2.10664 9.175C2.53164 8.7875 2.98164 8.4625 3.49414 8.2C3.83164 8.025 4.16914 7.8625 4.50664 7.675C4.78164 7.5125 5.04414 7.3125 5.16914 7C5.35664 6.575 5.18164 6.2125 4.94414 5.9C4.59414 5.425 4.19414 4.9875 3.80664 4.5375C3.70664 4.425 3.71914 4.35 3.81914 4.2375C4.40664 3.6375 4.99414 3.0375 5.58164 2.4375C5.71914 2.3 5.86914 2.2375 6.06914 2.2375C7.61914 2.2375 9.15664 2.2375 10.7066 2.2375C11.3691 2.2375 11.8941 1.95 12.3191 1.4625C12.7816 0.9375 13.2691 0.425 13.8566 0.025C13.9316 0 13.9816 0 14.0316 0ZM6.86914 10.2C6.69414 10.225 6.34414 10.2625 6.01914 10.35C5.20664 10.5625 4.54414 11.0125 4.01914 11.675C3.33164 12.5375 3.10664 13.5375 3.23164 14.6125C3.30664 15.25 3.54414 15.8375 3.83164 16.4C4.25664 17.2125 4.81914 17.9125 5.44414 18.575C5.86914 19.0125 6.31914 19.4375 6.76914 19.8375C7.28164 20.2875 7.79414 20.725 8.34414 21.1125C9.10664 21.6625 9.88164 22.2 10.6941 22.7C11.6941 23.3125 12.7316 23.875 13.7441 24.4625C13.9066 24.5625 14.0441 24.5375 14.1941 24.45C14.9691 24.0125 15.7441 23.6 16.5066 23.15C17.1566 22.775 17.7941 22.3625 18.4066 21.95C18.9691 21.575 19.5066 21.1625 20.0441 20.75C20.6316 20.2875 21.2191 19.8 21.7691 19.3C22.3566 18.7625 22.9066 18.1625 23.3816 17.525C23.9441 16.7625 24.4191 15.9625 24.6192 15.0375C24.7566 14.425 24.7566 13.8 24.6192 13.1875C24.4066 12.3 23.9316 11.575 23.1941 11.025C22.5566 10.55 21.8441 10.275 21.0441 10.275C20.7066 10.275 20.3816 10.3125 20.0441 10.3375C19.4691 10.4 18.9316 10.5875 18.4191 10.8125C17.6441 11.15 17.0066 11.6875 16.4066 12.2625C15.9191 12.725 15.4441 13.1875 14.9691 13.6625C12.9566 15.6875 10.9316 17.7125 8.91914 19.75C8.75664 19.9125 8.68164 19.9125 8.50664 19.7625C8.20664 19.5 7.89414 19.25 7.59414 18.9875C7.24414 18.6875 6.90664 18.375 6.56914 18.0625C6.43164 17.9375 6.44414 17.85 6.56914 17.725C7.35664 16.925 8.14414 16.125 8.94414 15.325C10.5191 13.7375 12.0941 12.15 13.6691 10.5625C14.7441 9.4875 15.8191 8.4125 16.8816 7.35C17.0691 7.1625 17.2566 6.9625 17.4316 6.7625C17.5691 6.6125 17.7191 6.45 17.8066 6.275C17.9941 5.8875 17.9566 5.65 17.6941 5.425C17.5316 5.2875 17.3316 5.2625 17.1316 5.2625C14.9691 5.2625 12.8191 5.2625 10.6566 5.2625C10.5316 5.2625 10.3941 5.2875 10.2691 5.3375C10.0066 5.425 9.84414 5.6875 9.89414 5.9375C9.94414 6.2125 10.0566 6.4625 10.2691 6.675C10.8816 7.275 11.4941 7.8875 12.0941 8.5C12.3816 8.7875 12.6566 9.0875 12.9441 9.3875C13.0566 9.5 13.0316 9.6 12.9191 9.7C12.7066 9.9 12.4816 10.1125 12.2691 10.325C11.8691 10.725 11.4691 11.1375 11.0691 11.55C10.9441 11.675 10.8316 11.6875 10.6816 11.5875C10.2816 11.325 9.89414 11.0625 9.46914 10.8375C8.71914 10.4 7.89414 10.2375 6.86914 10.2Z" fill="#976E43"/>
<path d="M134.594 18.5125C134.557 18.6875 134.507 18.8625 134.482 19.0375C134.394 19.5625 134.232 20.0625 133.994 20.55C133.694 21.1625 133.307 21.6875 132.807 22.1375C132.344 22.5625 131.832 22.9125 131.257 23.175C130.682 23.4375 130.082 23.6375 129.457 23.75C129.144 23.8125 128.832 23.85 128.519 23.875C127.944 23.9 127.382 23.9375 126.807 23.9C126.207 23.8625 125.607 23.775 125.007 23.675C124.182 23.525 123.394 23.225 122.644 22.8625C122.057 22.5875 121.694 22.125 121.582 21.4625C121.457 20.75 121.319 20.0375 121.207 19.325C121.119 18.775 121.032 18.2125 120.957 17.65C120.932 17.425 121.069 17.275 121.257 17.175C121.469 17.0625 121.682 17.075 121.869 17.2C122.157 17.4 122.319 17.7125 122.494 18.0125C122.857 18.625 123.194 19.2625 123.582 19.8625C124.119 20.6625 124.857 21.2375 125.757 21.5875C126.144 21.7375 126.557 21.85 126.969 21.9625C127.069 21.9875 127.182 22 127.294 22.0125C127.732 22.025 128.169 22.075 128.594 21.95C129.294 21.7375 129.819 21.3375 130.182 20.7C130.407 20.3125 130.519 19.9 130.532 19.475C130.544 18.9125 130.394 18.375 130.044 17.9125C129.707 17.4625 129.282 17.1125 128.769 16.875C127.982 16.5125 127.194 16.15 126.407 15.8C125.769 15.5125 125.132 15.2375 124.507 14.925C123.994 14.675 123.519 14.35 123.069 13.9625C122.419 13.3875 121.932 12.7125 121.619 11.9125C121.432 11.425 121.319 10.9125 121.294 10.3875C121.269 9.65 121.344 8.925 121.594 8.2375C121.782 7.7 122.057 7.2 122.419 6.75C122.819 6.2625 123.294 5.85 123.832 5.525C124.507 5.1125 125.232 4.8375 126.007 4.6625C126.769 4.5 127.532 4.425 128.307 4.4625C128.944 4.5 129.569 4.575 130.194 4.6625C130.869 4.75 131.507 4.9625 132.132 5.2C132.819 5.4625 133.294 6.075 133.344 6.825C133.394 7.5125 133.444 8.1875 133.482 8.8625C133.507 9.2125 133.532 9.55 133.544 9.9C133.557 10.2 133.394 10.4125 133.132 10.5C132.832 10.5875 132.594 10.5125 132.444 10.25C132.182 9.8 131.932 9.3375 131.669 8.875C131.357 8.325 131.057 7.7625 130.569 7.325C129.982 6.775 129.294 6.4 128.494 6.275C128.082 6.2125 127.657 6.1875 127.244 6.2C126.844 6.2125 126.494 6.4 126.182 6.6375C125.744 6.9875 125.444 7.4375 125.357 7.9875C125.282 8.4625 125.294 8.925 125.482 9.3875C125.744 10.0125 126.219 10.4625 126.807 10.75C127.907 11.3 129.019 11.8375 130.157 12.3125C130.844 12.5875 131.507 12.9 132.119 13.3C132.582 13.6 132.994 13.9625 133.357 14.3875C133.882 15.0125 134.232 15.7125 134.407 16.5125C134.469 16.775 134.494 17.0375 134.544 17.3C134.544 17.3375 134.569 17.3625 134.594 17.4C134.594 17.7625 134.594 18.1375 134.594 18.5125Z" fill="#976E43"/>
<path d="M63.9316 13.1C66.2441 13.1 68.5441 13.1 70.8441 13.1C70.8441 13.0375 70.8566 12.975 70.8566 12.9125C70.8566 11.2 70.8691 9.4875 70.8441 7.775C70.8441 7.45 70.7816 7.1125 70.6941 6.8C70.5441 6.2875 70.1191 6.05 69.6191 5.9375C69.5816 5.925 69.5441 5.9125 69.5066 5.9C69.1816 5.8125 69.0941 5.7125 69.1191 5.3875C69.1316 5.175 69.2816 5.05 69.5691 5.0375C69.8316 5.025 70.0941 5 70.3566 5C72.3441 5 74.3191 5 76.3066 5C76.4691 5 76.6191 5.0125 76.7691 5.05C76.9941 5.1125 77.1066 5.275 77.0941 5.5C77.0816 5.6875 76.9566 5.825 76.7316 5.8875C76.4816 5.9625 76.2316 6.0375 76.0066 6.15C75.6566 6.325 75.5066 6.6625 75.4441 7.025C75.3941 7.3125 75.3691 7.6125 75.3691 7.9125C75.3691 12.1875 75.3566 16.45 75.3691 20.725C75.3691 21.05 75.4441 21.4 75.5566 21.7125C75.7191 22.1875 76.1441 22.3625 76.5941 22.475C76.6441 22.4875 76.7066 22.5 76.7691 22.5125C76.9941 22.575 77.1316 22.7625 77.0941 23.025C77.0691 23.2375 76.9066 23.375 76.6691 23.375C74.3941 23.375 72.1191 23.3875 69.8316 23.3875C69.6816 23.3875 69.5191 23.375 69.3691 23.325C69.1566 23.2375 69.0941 23.0875 69.1191 22.8375C69.1441 22.6375 69.2941 22.575 69.4566 22.525C69.6441 22.4625 69.8316 22.425 70.0066 22.3625C70.5066 22.175 70.7191 21.7625 70.7816 21.275C70.8316 20.8375 70.8566 20.4 70.8566 19.9625C70.8691 18.35 70.8566 16.7375 70.8566 15.1375C70.8566 14.9125 70.8566 14.9125 70.6191 14.9125C68.4441 14.9125 66.2691 14.9125 64.0941 14.9125C63.9566 14.9125 63.9191 14.95 63.9191 15.0875C63.9191 17 63.9191 18.9125 63.9316 20.825C63.9316 21.125 64.0066 21.4375 64.1066 21.725C64.2691 22.2125 64.6941 22.3875 65.1441 22.5125C65.1941 22.525 65.2441 22.5375 65.2941 22.55C65.5816 22.625 65.6816 22.7625 65.6566 23.05C65.6316 23.275 65.4691 23.4 65.1941 23.4C62.9316 23.4 60.6566 23.4125 58.3941 23.4125C58.2191 23.4125 58.0441 23.3625 57.8816 23.3C57.7066 23.2375 57.6566 23.0625 57.6816 22.8875C57.7066 22.725 57.7941 22.625 57.9566 22.5625C58.2191 22.475 58.4691 22.4 58.7191 22.2875C59.0941 22.1125 59.2566 21.7625 59.3316 21.3875C59.3816 21.0875 59.4066 20.7875 59.4066 20.4875C59.4066 16.225 59.4191 11.9625 59.4066 7.6875C59.4066 7.3625 59.3316 7.0125 59.2191 6.7C59.0566 6.25 58.6566 6.05 58.2191 5.9375C58.1441 5.9125 58.0691 5.8875 57.9816 5.875C57.7441 5.825 57.6566 5.65 57.6816 5.375C57.7066 5.175 57.8691 5.0375 58.1066 5.0375C60.3941 5.025 62.6941 5.0125 64.9816 5.0125C65.1566 5.0125 65.3441 5.0625 65.4941 5.15C65.7566 5.3 65.7191 5.7125 65.4441 5.8375C65.3191 5.9 65.1816 5.9375 65.0441 5.9625C64.4566 6.1125 64.0941 6.475 63.9941 7.0875C63.9566 7.3 63.9191 7.5125 63.9191 7.725C63.9191 9.4375 63.9191 11.15 63.9191 12.8625C63.9316 12.925 63.9316 13 63.9316 13.1Z" fill="#976E43"/>
<path d="M116.869 23.425C115.869 23.425 114.869 23.425 113.882 23.425C113.707 23.425 113.532 23.4125 113.357 23.3875C113.182 23.3625 113.032 23.2 113.019 23.0125C113.007 22.75 113.069 22.6375 113.282 22.5625C113.482 22.5 113.682 22.4375 113.869 22.3625C114.257 22.2125 114.457 21.8875 114.307 21.4125C114.157 20.9375 113.982 20.4875 113.807 20.025C113.669 19.65 113.507 19.275 113.382 18.9C113.344 18.7875 113.282 18.75 113.157 18.75C111.269 18.75 109.369 18.75 107.482 18.75C107.357 18.75 107.307 18.8 107.257 18.9C107.019 19.5625 106.757 20.225 106.532 20.9C106.444 21.175 106.419 21.475 106.419 21.7625C106.419 22.075 106.682 22.2625 107.019 22.3875C107.207 22.45 107.394 22.4875 107.594 22.5375C107.857 22.6 107.957 22.75 107.932 23.0625C107.919 23.25 107.769 23.3875 107.532 23.4C107.357 23.4125 107.182 23.4375 107.007 23.4375C105.307 23.4375 103.607 23.4375 101.907 23.4375C101.757 23.4375 101.607 23.4 101.469 23.35C101.269 23.2875 101.269 23.0875 101.269 22.925C101.269 22.725 101.407 22.5875 101.594 22.55C102.007 22.45 102.407 22.3125 102.682 21.975C102.857 21.75 103.007 21.5 103.119 21.25C103.469 20.4375 103.782 19.6 104.119 18.775C104.457 17.9375 104.782 17.1 105.119 16.275C105.444 15.475 105.769 14.6875 106.082 13.8875C106.419 13.0625 106.744 12.225 107.069 11.4C107.369 10.6625 107.669 9.91254 107.969 9.17504C108.257 8.45004 108.544 7.72504 108.844 7.01254C109.044 6.53754 109.244 6.06254 109.444 5.57504C109.607 5.18754 109.932 5.03754 110.319 5.03754C110.869 5.02504 111.432 5.03754 111.982 5.03754C112.482 5.03754 112.757 5.26254 112.932 5.67504C113.207 6.32504 113.444 7.00004 113.707 7.65004C114.082 8.61254 114.469 9.58754 114.857 10.55C115.269 11.6 115.669 12.65 116.082 13.7C116.407 14.5375 116.744 15.375 117.082 16.2125C117.319 16.8 117.544 17.3875 117.769 17.975C118.094 18.7875 118.407 19.5875 118.732 20.4C118.882 20.7875 119.056 21.1625 119.206 21.5375C119.419 22.05 119.756 22.3875 120.306 22.5375C120.619 22.625 120.719 22.7375 120.706 23.025C120.694 23.2125 120.569 23.375 120.382 23.4125C120.257 23.4375 120.131 23.45 119.994 23.45C118.956 23.425 117.919 23.425 116.869 23.425ZM112.657 17C111.882 14.8625 111.119 12.75 110.357 10.6125C110.319 10.6875 110.294 10.7125 110.282 10.75C109.919 11.75 109.544 12.75 109.182 13.75C108.807 14.775 108.444 15.8 108.069 16.825C108.007 16.9875 108.057 17 108.194 17C109.607 17 111.032 17 112.444 17C112.482 17 112.544 17 112.657 17Z" fill="#976E43"/>
<path d="M97.6692 16.4875C97.7192 16.4 97.7567 16.35 97.7692 16.3C98.0817 15.45 98.3942 14.5875 98.7192 13.7375C99.1442 12.6125 99.5692 11.4875 100.007 10.35C100.394 9.33745 100.769 8.33745 101.144 7.32495C101.244 7.06245 101.319 6.77495 101.232 6.48745C101.119 6.13745 100.819 6.03745 100.507 5.94995C100.457 5.93745 100.407 5.92495 100.357 5.91245C99.8817 5.79995 99.9442 5.71245 99.9692 5.29995C99.9817 5.12495 100.144 5.04995 100.432 5.01245C100.469 5.01245 100.519 5.01245 100.557 5.01245C102.194 5.01245 103.819 5.01245 105.457 5.01245C105.582 5.01245 105.707 5.02495 105.819 5.06245C105.982 5.11245 106.082 5.22495 106.082 5.41245C106.094 5.69995 106.044 5.79995 105.819 5.87495C105.694 5.92495 105.557 5.97495 105.432 6.01245C105.044 6.13745 104.819 6.41245 104.669 6.77495C104.294 7.68745 103.894 8.59995 103.532 9.52495C103.157 10.45 102.807 11.375 102.444 12.3C102.119 13.1125 101.782 13.9125 101.469 14.725C101.107 15.625 100.757 16.525 100.394 17.425C100.069 18.25 99.7317 19.075 99.3942 19.9C99.0692 20.725 98.7442 21.55 98.4067 22.375C98.3192 22.6 98.2192 22.8125 98.0942 23.0125C97.9317 23.275 97.6817 23.4125 97.3567 23.4125C97.0192 23.4125 96.6692 23.4 96.3317 23.4125C95.6817 23.4375 95.4192 23.125 95.2192 22.6125C94.8817 21.7625 94.5567 20.9125 94.2317 20.0625C94.0317 19.55 93.8442 19.0375 93.6442 18.5375C93.3567 17.7875 93.0567 17.05 92.7692 16.3C92.5692 15.8 92.3817 15.2875 92.1942 14.7875C91.9067 14.0375 91.6067 13.3 91.3192 12.55C90.9567 11.6 90.5942 10.65 90.2192 9.71245C89.8317 8.71245 89.4317 7.69995 89.0192 6.69995C88.8567 6.32495 88.5817 6.03745 88.1692 5.92495C87.8442 5.83745 87.7317 5.59995 87.8567 5.29995C87.8942 5.19995 88.0317 5.11245 88.1442 5.07495C88.2817 5.02495 88.4442 5.03745 88.5942 5.03745C90.6067 5.03745 92.6317 5.03745 94.6442 5.03745C94.7942 5.03745 94.9317 5.04995 95.0817 5.07495C95.2442 5.09995 95.3942 5.24995 95.3942 5.38745C95.4192 5.74995 95.3817 5.81245 95.1067 5.89995C94.9067 5.96245 94.6942 6.02495 94.5067 6.11245C94.0817 6.29995 94.0067 6.59995 94.1067 6.97495C94.2567 7.52495 94.4692 8.04995 94.6692 8.57495C94.9567 9.34995 95.2567 10.125 95.5442 10.9C95.9192 11.9 96.3067 12.9125 96.6817 13.9125C97.0067 14.7375 97.3317 15.575 97.6692 16.4875Z" fill="#976E43"/>
<path d="M48.9565 4.41248C49.5315 4.43748 50.094 4.43748 50.644 4.51248C51.269 4.58748 51.894 4.69998 52.5065 4.84998C53.244 5.03748 53.969 5.29998 54.694 5.52498C55.169 5.66248 55.494 6.18748 55.519 6.61248C55.544 7.09998 55.6315 7.58748 55.6815 8.08748C55.7315 8.56248 55.7815 9.04998 55.8315 9.52498C55.844 9.69998 55.8815 9.88748 55.894 10.0625C55.9315 10.325 55.7565 10.6125 55.5315 10.7C55.219 10.8 54.9565 10.7125 54.819 10.4375C54.6065 10.025 54.4315 9.59998 54.2065 9.18748C53.8315 8.51248 53.3315 7.92498 52.719 7.43748C52.2065 7.02498 51.644 6.68748 51.019 6.47498C50.5565 6.32498 50.0815 6.22498 49.6065 6.13748C48.994 6.02498 48.3815 6.11248 47.794 6.27498C47.2565 6.42498 46.7565 6.68748 46.319 7.03748C45.744 7.49998 45.294 8.06248 44.944 8.69998C44.6065 9.32498 44.344 9.97498 44.194 10.675C44.119 11.0375 44.019 11.4125 43.9565 11.775C43.9065 12.1 43.8565 12.4375 43.844 12.7625C43.819 13.3625 43.794 13.975 43.8065 14.575C43.819 15.075 43.894 15.5875 43.944 16.0875C44.0065 16.7375 44.144 17.3625 44.3315 17.975C44.569 18.7625 44.9065 19.4875 45.4065 20.15C45.894 20.8 46.494 21.3 47.2315 21.65C47.719 21.8875 48.2315 22.05 48.7815 22.1C49.1315 22.1375 49.4815 22.2 49.8315 22.1875C50.4565 22.1625 51.0815 22.075 51.669 21.8375C52.2315 21.6125 52.744 21.2875 53.2065 20.875C53.894 20.25 54.394 19.4875 54.8315 18.675C54.9565 18.45 55.069 18.2125 55.194 17.9875C55.3315 17.75 55.6315 17.675 55.9315 17.7625C56.194 17.8375 56.319 18.0125 56.294 18.3C56.269 18.6625 56.2065 19.0125 56.144 19.375C56.0315 20.0125 55.9315 20.6375 55.8065 21.275C55.744 21.6125 55.744 21.9875 55.494 22.2625C55.3065 22.4625 55.1065 22.675 54.8565 22.8C54.4065 23.025 53.9315 23.225 53.4565 23.375C52.969 23.525 52.4565 23.6375 51.9565 23.725C51.5065 23.8 51.0565 23.8375 50.6065 23.875C50.094 23.9125 49.5815 23.9625 49.0565 23.9375C48.394 23.9125 47.7315 23.8375 47.069 23.775C46.169 23.675 45.319 23.4375 44.4815 23.1C43.6565 22.7625 42.8815 22.325 42.1815 21.7625C41.3315 21.075 40.669 20.25 40.144 19.2875C39.7065 18.475 39.394 17.6 39.2315 16.6875C39.1565 16.2875 39.094 15.875 39.0565 15.4625C39.0065 14.8875 38.969 14.3125 38.994 13.7375C39.0065 13.05 39.1065 12.375 39.2565 11.7C39.419 10.975 39.644 10.2625 39.969 9.59998C40.294 8.91248 40.7065 8.27498 41.194 7.68748C41.7065 7.07498 42.2815 6.53748 42.9315 6.09998C43.7815 5.52498 44.694 5.06248 45.7065 4.81248C46.244 4.67498 46.794 4.53748 47.3315 4.46248C47.8565 4.44998 48.4065 4.44998 48.9565 4.41248Z" fill="#976E43"/>
<path d="M82.8817 23.4C81.7567 23.4 80.6442 23.4 79.5192 23.4C79.2942 23.4 79.0692 23.4 78.9317 23.175C78.7817 22.9375 78.8942 22.625 79.1442 22.5625C79.4192 22.475 79.7067 22.375 79.9692 22.25C80.3067 22.1 80.4442 21.7625 80.5067 21.4375C80.5817 21.025 80.6192 20.5875 80.6192 20.1625C80.6317 16.15 80.6317 12.1375 80.6192 8.125C80.6192 7.65 80.6067 7.175 80.4192 6.7125C80.2817 6.375 80.0442 6.1625 79.7067 6.0375C79.5317 5.975 79.3567 5.9375 79.1692 5.875C78.9442 5.8125 78.8192 5.625 78.8442 5.425C78.8817 5.175 79.0317 5.0375 79.2692 5.0375C81.1942 5.025 83.1192 5.0125 85.0442 5C85.4192 5 85.7817 5.025 86.1567 5.0375C86.3817 5.05 86.5067 5.1625 86.5567 5.375C86.6067 5.575 86.5317 5.7375 86.3317 5.8375C86.1817 5.9125 86.0192 5.9625 85.8692 6.0375C85.4567 6.2375 85.2442 6.575 85.1942 7.0125C85.1442 7.4375 85.1192 7.875 85.1192 8.3125C85.1192 12.4125 85.1192 16.5125 85.1192 20.6125C85.1192 21.0125 85.1692 21.4 85.3442 21.775C85.4942 22.1 85.7692 22.275 86.0942 22.4C86.2567 22.4625 86.4067 22.5125 86.5692 22.575C86.8067 22.675 86.8817 22.85 86.8192 23.125C86.7817 23.275 86.5942 23.4 86.3942 23.4C85.2317 23.3875 84.0567 23.3875 82.8817 23.4C82.8817 23.3875 82.8817 23.3875 82.8817 23.4Z" fill="#976E43"/>
<path d="M21.4692 17.8375C21.4317 17.8875 21.4067 17.925 21.3692 17.9625C20.7442 18.5125 20.1317 19.0625 19.5067 19.6125C19.4442 19.6625 19.3817 19.7 19.3317 19.7625C19.1942 19.925 19.0942 19.8125 18.9942 19.725C18.9317 19.675 18.8942 19.6 18.8317 19.5375C17.6692 18.375 16.4942 17.2 15.3317 16.0375C15.1942 15.9 15.0692 15.75 14.9317 15.6125C14.8567 15.5375 14.8692 15.475 14.9442 15.4C15.2942 15.05 15.6442 14.7 15.9942 14.35C16.2567 14.0875 16.4942 13.825 16.7567 13.5625C16.9442 13.3625 17.0067 13.375 17.1942 13.5625C18.5692 14.9375 19.9442 16.3125 21.3192 17.6875C21.3817 17.725 21.4192 17.775 21.4692 17.8375Z" fill="#976E43"/>
</g>
<defs>
<clipPath id="clip0_229_9924">
<rect width="134.512" height="28" fill="white" transform="translate(0.081543)"/>
</clipPath>
</defs>
</svg>
