<svg width="100" height="28" viewBox="0 0 100 28" fill="none" xmlns="http://www.w3.org/2000/svg">
<g clip-path="url(#clip0_229_7713)">
<path d="M17.5515 25.0024H18.9141C19.2547 25.0024 19.5953 25.1387 19.7997 25.2749C19.936 25.4112 20.0722 25.6837 20.0722 25.9562C20.0722 26.4331 19.7997 26.7056 19.4591 26.8419L20.2085 27.8638H19.3228L18.6415 27.0462H18.1647V28H17.4834V25.0024H17.5515ZM18.8459 26.4331C19.1866 26.4331 19.3228 26.2968 19.3228 26.0243C19.3228 25.7518 19.1184 25.6156 18.8459 25.6156H18.2328V26.4331H18.8459Z" fill="#163B7D"/>
<path d="M21.3667 26.5012C21.3667 25.6837 22.048 25.0024 22.9336 25.0024C23.8193 25.0024 24.5005 25.6837 24.5005 26.5012C24.5005 27.3187 23.8193 28 22.9336 28C22.048 28 21.3667 27.3187 21.3667 26.5012ZM23.8193 26.5012C23.8193 25.9562 23.4786 25.5475 22.9336 25.5475C22.3886 25.5475 22.048 25.9562 22.048 26.4331C22.048 26.91 22.3886 27.3869 22.9336 27.3869C23.4786 27.455 23.8193 27.0462 23.8193 26.5012Z" fill="#163B7D"/>
<path d="M26.0674 25.0024H26.6805L28.043 26.8419V25.0024H28.6562V27.9319H28.1112L26.6805 26.0925V27.9319H26.0674V25.0024Z" fill="#163B7D"/>
<path d="M32.5393 25.0024H33.6975C34.6512 25.0024 35.2644 25.6156 35.2644 26.4331C35.2644 27.2506 34.6512 27.9319 33.6975 27.9319H32.5393V25.0024ZM33.6975 27.3869C34.2425 27.3869 34.5831 27.0462 34.5831 26.5012C34.5831 25.9562 34.2425 25.6156 33.6975 25.6156H33.2206V27.3869H33.6975Z" fill="#163B7D"/>
<path d="M36.7632 25.0024H39.0114V25.5475H37.4444V26.1606H38.807V26.7056H37.4444V27.3187H39.0114V27.8638H36.7632V25.0024Z" fill="#163B7D"/>
<path d="M42.7583 25.0024H45.0065V25.5475H43.4396V26.1606H44.8021V26.7056H43.4396V27.3187H45.0065V27.8638H42.7583V25.0024Z" fill="#163B7D"/>
<path d="M46.5735 25.0024H47.2548V27.3869H48.6854V28H46.5735V25.0024Z" fill="#163B7D"/>
<path d="M52.1599 27.5231L52.5687 27.0462C52.8412 27.2506 53.1137 27.3869 53.4543 27.3869C53.7268 27.3869 53.8631 27.2506 53.8631 27.1144C53.8631 26.9781 53.795 26.8419 53.2499 26.7737C52.6368 26.6375 52.2962 26.4331 52.2962 25.8881C52.2962 25.3431 52.7049 25.0024 53.3181 25.0024C53.7268 25.0024 54.1356 25.1387 54.4081 25.3431L53.9993 25.8881C53.7268 25.6837 53.4543 25.6156 53.2499 25.6156C52.9774 25.6156 52.8412 25.7518 52.8412 25.8881C52.8412 26.0925 52.9774 26.1606 53.4543 26.2968C54.0675 26.4331 54.4081 26.6375 54.4081 27.1825C54.4081 27.7956 53.9312 28.0681 53.3181 28.0681C52.9093 28 52.5005 27.8638 52.1599 27.5231Z" fill="#163B7D"/>
<path d="M56.9287 25.0024H57.5418L58.8362 27.9319H58.1549L57.8824 27.2506H56.6562L56.3837 27.9319H55.7024L56.9287 25.0024ZM57.6099 26.7737L57.2012 25.82L56.7924 26.7737H57.6099Z" fill="#163B7D"/>
<path d="M60.1987 25.0024H60.88V27.3869H62.3107V28H60.1987V25.0024Z" fill="#163B7D"/>
<path d="M62.9919 25.0024H63.6732L64.4226 27.0462L65.172 25.0024H65.8533L64.6951 27.9319H64.1501L62.9919 25.0024Z" fill="#163B7D"/>
<path d="M67.965 25.0024H68.5782L69.8726 27.9319H69.1913L68.9188 27.2506H67.6925L67.42 27.9319H66.7388L67.965 25.0024ZM68.6463 26.7737L68.2376 25.82L67.8288 26.7737H68.6463Z" fill="#163B7D"/>
<path d="M71.2351 25.0024H72.3933C73.347 25.0024 73.9602 25.6156 73.9602 26.4331C73.9602 27.2506 73.347 27.9319 72.3933 27.9319H71.2351V25.0024ZM72.3933 27.3869C72.9383 27.3869 73.2789 27.0462 73.2789 26.5012C73.2789 25.9562 72.9383 25.6156 72.3933 25.6156H71.9164V27.3869H72.3933Z" fill="#163B7D"/>
<path d="M75.3228 26.5012C75.3228 25.6837 76.004 25.0024 76.8897 25.0024C77.7753 25.0024 78.4566 25.6837 78.4566 26.5012C78.4566 27.3187 77.7753 28 76.8897 28C76.004 28 75.3228 27.3187 75.3228 26.5012ZM77.7753 26.5012C77.7753 25.9562 77.4347 25.5475 76.8897 25.5475C76.3447 25.5475 76.004 25.9562 76.004 26.4331C76.004 26.91 76.3447 27.3869 76.8897 27.3869C77.4347 27.455 77.7753 27.0462 77.7753 26.5012Z" fill="#163B7D"/>
<path d="M80.0234 25.0024H81.386C81.7266 25.0024 82.0672 25.1387 82.2716 25.2749C82.4079 25.4112 82.5441 25.6837 82.5441 25.9562C82.5441 26.4331 82.2716 26.7056 81.931 26.8419L82.6804 27.8638H81.931L81.3178 26.91H80.6366V27.8638H80.0234V25.0024ZM81.3178 26.4331C81.6585 26.4331 81.7947 26.2968 81.7947 26.0243C81.7947 25.7518 81.5903 25.6156 81.3178 25.6156H80.6366V26.4331H81.3178Z" fill="#163B7D"/>
<path d="M85.678 26.5693C85.678 26.2287 85.9505 25.8881 86.3592 25.8881C86.6999 25.8881 87.0405 26.1606 87.0405 26.5693C87.0405 26.9781 86.768 27.2506 86.3592 27.2506C86.0186 27.1825 85.678 26.91 85.678 26.5693Z" fill="#163B7D"/>
<path d="M13.1914 26.5693C13.1914 26.2287 13.4639 25.8881 13.8727 25.8881C14.2133 25.8881 14.5539 26.1606 14.5539 26.5693C14.5539 26.9781 14.2814 27.2506 13.8727 27.2506C13.4639 27.1825 13.1914 26.91 13.1914 26.5693Z" fill="#163B7D"/>
<path d="M9.78516 20.438C8.96764 20.6423 8.082 20.7786 7.0601 20.7786C6.0382 20.7786 5.15256 20.6423 4.33504 20.438C3.9944 20.3017 3.58565 20.1654 3.24501 19.9611C2.56375 19.5523 2.01874 18.871 1.6781 18.1217C1.4056 17.3041 0.928711 15.9416 0.928711 12.3309C0.928711 8.72019 1.4056 7.35766 1.6781 6.60827C2.22311 5.45012 3.17689 4.56448 4.26691 4.29197C5.08443 4.08759 5.97007 3.95134 6.99197 3.95134C8.01387 3.95134 8.89951 4.08759 9.71703 4.29197C10.8752 4.6326 11.829 5.45012 12.3058 6.60827C12.5102 7.15328 12.7146 7.76642 12.8509 8.51581V8.58394L10.5346 9.87835C10.3983 9.94647 10.262 9.94647 10.1258 9.87835C9.98954 9.81022 9.92141 9.67397 9.92141 9.53771C9.78516 8.65207 9.64891 8.24331 9.58078 8.10706C9.44453 7.83455 9.24015 7.63017 8.96764 7.49392C8.42263 7.35766 7.74136 7.22141 6.99197 7.22141C6.24258 7.22141 5.62944 7.28954 5.0163 7.49392C4.7438 7.56204 4.53942 7.76642 4.40316 8.03893C4.26691 8.31144 3.92628 9.33333 3.92628 12.3309C3.92628 15.3285 4.26691 16.3504 4.40316 16.5547C4.53942 16.8272 4.7438 17.0316 5.0163 17.1679C5.69757 17.3041 6.31071 17.4404 7.0601 17.4404C7.80949 17.4404 8.42263 17.3723 9.03577 17.1679C9.30827 17.0998 9.51265 16.8954 9.64891 16.6229C9.71703 16.4866 9.85329 16.0097 9.98954 15.1241C9.98954 14.9878 10.1258 14.8516 10.1939 14.7835C10.3302 14.7153 10.4664 14.7153 10.6027 14.7835L12.919 16.0779C12.919 16.0779 12.9871 16.146 12.919 16.146C12.7827 16.8954 12.6465 17.5766 12.374 18.0535C11.8971 19.2117 10.9433 20.0973 9.78516 20.438ZM66.1258 7.01703C66.1939 7.01703 66.262 7.01703 66.262 7.08516C66.3302 7.15328 66.3302 7.15328 66.3302 7.22141L66.3983 20.3698C66.3983 20.3698 66.3983 20.438 66.4664 20.438H69.5321L69.6003 20.3698L69.5321 7.22141C69.5321 7.15328 69.5321 7.08516 69.6003 7.08516C69.6684 7.01703 69.6684 7.01703 69.7365 7.01703H73.0747L73.1428 6.9489V4.22384C73.1428 4.22384 73.1428 4.15572 73.0747 4.15572H62.7876C62.7876 4.15572 62.7195 4.15572 62.7195 4.22384V6.9489L62.7876 7.01703H66.1258ZM80.0236 0C79.3423 1.0219 78.6611 2.0438 77.7754 3.27007V3.3382C77.7754 3.3382 77.7754 3.3382 77.8436 3.3382H80.228C81.5224 2.11192 82.6124 1.09002 83.5662 0.0681265V0C83.5662 0 83.5662 0 83.4981 0H80.0236V0ZM99.3715 4.22384C99.3715 4.22384 99.3715 4.15572 99.3715 4.22384L96.5102 4.15572L96.4421 4.22384C96.5783 7.01703 96.6465 9.87835 96.6465 12.7397C96.6465 12.8078 96.5784 12.944 96.5102 12.944C96.4421 12.944 96.3058 12.944 96.3058 12.8078C96.1015 12.3309 95.829 11.854 95.6246 11.3771L95.4202 10.9002C94.3302 8.65207 93.2402 6.40389 92.2864 4.15572C92.2864 4.15572 92.2864 4.08759 92.2183 4.08759H88.8119C88.8119 4.08759 88.7438 4.08759 88.7438 4.15572C88.1307 9.53771 88.1307 14.9878 88.7438 20.3017C88.7438 20.3017 88.7438 20.3698 88.8119 20.3698H91.6051L91.6732 20.3017C91.537 17.236 91.4689 14.0341 91.4689 10.9002C91.4689 10.8321 91.537 10.6959 91.6051 10.6959C91.6732 10.6959 91.8095 10.6959 91.8095 10.8321C92.1501 11.5134 92.4908 12.1946 92.8314 12.8759L93.0358 13.2165C94.1939 15.5328 95.3521 17.9173 96.3058 20.3017C96.3058 20.3017 96.3058 20.3698 96.374 20.3698H99.3034L99.3715 20.3017C99.9847 15.056 99.9847 9.60584 99.3715 4.22384ZM51.138 20.438C51.683 15.8735 53.0455 11.309 54.3399 6.88078L54.408 6.74452C54.6805 5.92701 54.8849 5.04136 55.1574 4.22384L55.2255 4.15572H59.1769C59.1769 4.15572 59.245 4.15572 59.245 4.22384C59.4494 5.04136 59.7219 5.85888 59.9263 6.6764C61.2207 11.1727 62.5151 15.8054 63.1282 20.3698L62.992 20.438H60.0625C60.0625 20.438 59.9944 20.438 59.9944 20.3698C59.79 19.3479 59.5857 18.326 59.3813 17.1679C59.3813 17.0998 59.245 17.0316 59.1769 17.0316H55.0893C55.0212 17.0316 54.8849 17.0998 54.8849 17.1679C54.6124 18.326 54.3399 19.3479 54.1355 20.3698L54.0674 20.438H51.138ZM55.5662 13.9659C55.5662 14.0341 55.5662 14.1022 55.6343 14.1703C55.7024 14.2384 55.7024 14.2384 55.7706 14.2384H58.3594C58.4275 14.2384 58.4956 14.2384 58.4956 14.1703C58.5638 14.1022 58.5637 14.0341 58.5637 13.9659C58.2912 12.8759 58.0187 11.7859 57.7462 10.6959L57.2693 8.72019C57.2693 8.65207 57.1331 8.58394 57.065 8.58394C56.9968 8.58394 56.8606 8.65207 56.8606 8.72019L56.3156 10.764C56.0431 11.854 55.8387 12.8759 55.5662 13.9659ZM37.4445 15.601C37.6489 18.7348 39.4202 20.5061 42.554 20.7105C42.7584 20.7105 42.8946 20.7105 43.099 20.7105C46.5735 20.7105 48.6173 18.871 48.8217 15.601C48.9579 11.854 48.8898 8.03893 48.481 4.29197C48.481 4.29197 48.481 4.22384 48.4129 4.22384H45.3472L45.2791 4.29197C45.4153 8.03893 45.4835 11.854 45.4153 15.601C45.4153 17.1679 44.5978 17.9173 43.099 17.9173C41.6002 17.9173 40.8509 17.1679 40.8509 15.601C40.7827 11.854 40.8509 8.03893 41.0552 4.29197L40.9871 4.22384H37.9214C37.9214 4.22384 37.8533 4.22384 37.8533 4.29197C37.4445 7.9708 37.3083 11.7859 37.4445 15.601ZM30.4956 20.438H33.5613C33.5613 20.438 33.6294 20.438 33.6294 20.3698C34.2426 14.9878 34.2426 9.53771 33.6294 4.22384C33.6294 4.22384 33.6294 4.15572 33.5613 4.15572H30.4956L30.4275 4.22384C30.4956 6.26764 30.5637 8.37956 30.6319 10.4234C30.6319 10.4915 30.6319 10.5596 30.5637 10.5596C30.4956 10.6277 30.4956 10.6277 30.4275 10.6277H26.2718C26.2037 10.6277 26.1355 10.6277 26.1355 10.5596C26.0674 10.4915 26.0674 10.4915 26.0674 10.4234C26.0674 8.37956 26.1355 6.26764 26.2718 4.22384L26.1355 4.15572H23.0698C23.0698 4.15572 23.0017 4.15572 23.0017 4.22384C22.3886 9.60584 22.3886 15.056 23.0017 20.3698C23.0017 20.3698 23.0017 20.438 23.0698 20.438H26.2036L26.2718 20.3698C26.2037 18.1898 26.1355 15.8735 26.0674 13.6934C26.0674 13.6253 26.0674 13.5572 26.1355 13.5572C26.2037 13.489 26.2037 13.489 26.2718 13.489H30.4275C30.4956 13.489 30.5637 13.489 30.5637 13.5572C30.6319 13.6253 30.6319 13.6253 30.6319 13.6934C30.6319 15.9416 30.5637 18.1898 30.4956 20.438ZM15.7803 4.15572L15.7122 20.3698C15.7122 20.3698 15.7122 20.438 15.7803 20.438H18.9141C18.9141 20.438 18.9141 20.438 18.9822 20.438V4.22384L18.9141 4.15572H15.7803ZM85.6781 20.3698L82.6805 20.438C82.6805 20.438 82.6124 20.438 82.6124 20.3698C82.408 19.3479 82.2037 18.326 81.9993 17.1679C81.9993 17.0998 81.863 17.0316 81.7949 17.0316H77.7073C77.6392 17.0316 77.5029 17.0998 77.5029 17.1679C77.2304 18.326 77.026 19.3479 76.8217 20.3698C76.8217 20.3698 76.8217 20.438 76.7535 20.438H73.756L73.6878 20.3698C74.3691 15.4647 75.7998 10.4234 77.1623 5.51825L77.5711 4.22384C77.5711 4.22384 77.5711 4.15572 77.6392 4.15572H81.863C81.863 4.15572 81.9311 4.15572 81.9311 4.22384L82.2037 5.31387C83.5662 10.219 84.9968 15.3966 85.6781 20.3698ZM81.2499 13.9659C80.9092 12.399 80.5005 10.9002 80.0917 9.33333L79.9555 8.65207C79.9555 8.58394 79.8192 8.51581 79.7511 8.51581C79.683 8.51581 79.5467 8.58394 79.5467 8.65207L79.3423 9.33333C78.9336 10.8321 78.5929 12.399 78.1842 13.8978C78.1842 13.9659 78.1842 14.0341 78.2523 14.1022C78.3204 14.1703 78.3204 14.1703 78.3886 14.1703H81.0455C81.1136 14.1703 81.1818 14.1703 81.1818 14.1022C81.2499 14.1022 81.2499 14.0341 81.2499 13.9659Z" fill="#163B7D"/>
</g>
<defs>
<clipPath id="clip0_229_7713">
<rect width="98.9197" height="28" fill="white" transform="translate(0.928711)"/>
</clipPath>
</defs>
</svg>
