<svg width="66" height="34" viewBox="0 0 66 34" fill="none" xmlns="http://www.w3.org/2000/svg">
<g clip-path="url(#clip0_229_6182)">
<path d="M19.5048 15.9805C19.5048 15.9805 16.6912 15.8856 15.5532 13.3566C15.5532 13.3566 12.9135 16.3124 8.83535 17.3556L9.10407 18.0827V27.4719L8.32954 28.2464C8.32954 28.2464 5.24726 25.9702 4.97854 23.2515C4.70983 20.5328 5.24726 18.4463 8.29793 15.8066C8.29793 15.8066 9.19891 14.9372 10.748 14.3998V14.0837C5.84791 14.0837 0.17334 18.5253 0.17334 23.7099C0.17334 28.8312 4.06176 31.8819 9.1989 31.8819C9.1989 31.8819 12.4709 31.9135 14.8893 30.5857V31.8661C14.8893 31.9609 14.6838 31.9451 14.6838 31.9451C13.9883 31.9451 13.4193 32.4035 13.4193 32.9883C13.4193 33.5574 13.9883 34.0316 14.6838 34.0316C15.3793 34.0316 15.9483 33.5732 15.9483 32.9883V30.0957C15.9483 30.0957 16.628 29.5741 16.8651 29.4003C17.0864 29.2264 16.9125 28.8628 16.6438 28.9419C16.3751 29.0367 15.9641 29.2106 15.9641 29.2106V17.1818C15.9641 17.166 18.3351 17.3872 19.5048 15.9805ZM14.8735 29.4635C10.7954 29.9219 9.70472 29.0051 9.70472 29.0051L13.0557 26.1441V16.344C13.0557 15.8856 14.8735 17.0237 14.8735 17.0237V29.4635Z" fill="#112A56"/>
<path d="M24.7211 26.5076V20.5169C24.7211 20.2956 25.1795 19.7898 25.1795 19.7898C23.504 19.616 20.8168 18.2882 20.8168 18.2882C19.3152 19.5527 16.9126 19.695 16.9126 19.695C16.8652 19.9637 17.2762 20.4695 17.2762 20.4695V26.3654C17.2762 26.3654 17.1023 26.5392 16.6913 27.0925C16.2803 27.6299 16.5016 27.6299 16.5016 27.6299C19.8684 27.9935 21.212 29.4002 21.212 29.4002C22.7136 27.7247 25.2585 27.3612 25.2585 27.3612C24.8633 27.1873 24.7211 26.5076 24.7211 26.5076ZM22.0023 26.966C20.1846 26.6025 19.821 26.1915 19.821 26.1915V20.0585C19.821 19.9163 22.0023 20.8331 22.0023 20.8331V26.966Z" fill="#112A56"/>
<path d="M42.1556 26.5076V20.5169C42.1556 20.2956 42.614 19.7898 42.614 19.7898C40.9385 19.616 38.2514 18.2882 38.2514 18.2882C36.7498 19.5527 34.3472 19.695 34.3472 19.695C34.2998 19.9637 34.7107 20.4695 34.7107 20.4695V26.3654C34.7107 26.3654 34.5369 26.5392 34.1259 27.0925C33.7149 27.6299 33.9362 27.6299 33.9362 27.6299C37.303 27.9935 38.6624 29.4002 38.6624 29.4002C40.164 27.7247 42.7089 27.3612 42.7089 27.3612C42.2821 27.1873 42.1556 26.5076 42.1556 26.5076ZM39.4211 26.966C37.6033 26.6025 37.2398 26.1915 37.2398 26.1915V20.0585C37.2398 19.9163 39.4211 20.8331 39.4211 20.8331V26.966Z" fill="#112A56"/>
<path d="M53.0623 27.0609C53.0465 27.0609 53.0465 27.0609 53.0623 27.0609C53.0465 27.0609 52.9359 27.2032 53.0623 27.0609Z" fill="#112A56"/>
<path d="M61.7085 26.9187C61.0762 26.8238 60.7917 26.0493 60.7917 26.0493V20.2799V19.0944C58.8475 18.4622 56.9349 17.7825 56.9349 17.7825C55.1171 18.8731 53.1729 19.458 53.1729 19.458C53.1255 19.7267 53.5365 20.2325 53.5365 20.2325V26.3971C53.5365 26.3971 53.6787 26.2232 53.2677 26.7606C53.1571 26.9029 53.0939 26.9819 53.0623 27.0451C55.0065 27.2822 57.1562 29.4003 57.1562 29.4003L58.721 27.7248L60.4914 29.4003L62.5778 27.0451L61.7085 26.9187ZM58.0729 26.7448C57.251 26.1125 56.1287 25.5593 56.1287 25.5593V19.616C55.5755 19.2683 58.0729 20.3906 58.0729 20.3906V26.7448Z" fill="#112A56"/>
<path d="M25.7485 19.8847L28.0405 18.1143C28.0405 18.1143 29.4947 18.9679 29.716 19.3314C29.716 19.3314 29.9373 19.5211 31.8025 18.2882L32.1186 18.0669C32.1186 18.0669 33.3041 19.1576 34.2999 19.4263C34.2999 19.4263 34.0786 21.4179 30.5379 20.4695C30.5379 20.4695 29.7634 20.3272 29.7634 20.6908V27.0925H30.7592C30.7592 27.0925 29.2102 27.9934 28.6728 28.8154C28.1353 29.6373 28.1669 29.4002 28.1669 29.4002C28.1669 29.4002 27.9931 28.4044 26.0331 27.2663L25.9856 27.1241H26.8866V21.0385C26.9024 21.0702 26.5231 19.9321 25.7485 19.8847Z" fill="#112A56"/>
<path d="M51.861 19.6159C50.8968 19.2208 49.3162 17.972 49.3162 17.972L49 18.1933C47.1348 19.4104 46.5974 19.4579 46.5974 19.4579C46.3761 19.0943 44.8745 18.2408 44.8745 18.2408L42.8354 19.7898C43.61 19.8372 43.9261 21.1018 43.9261 21.1018V27.1873H43.0093L43.0567 27.3295C45.001 28.4676 45.2381 29.416 45.2381 29.416C45.2381 29.416 45.159 29.6847 45.6964 28.8786C46.2497 28.0567 47.7829 27.1557 47.7829 27.1557H46.7871V20.754L47.9726 19.8372L48.8736 20.6117V27.1083H48.3362C48.3362 27.1083 50.3594 29.0209 50.4542 29.416C50.4542 29.416 52.3352 27.2347 52.5565 27.2347H51.6555V20.4695C51.6397 20.4695 52.0823 19.7108 51.861 19.6159Z" fill="#112A56"/>
<path d="M22.3657 14.1944H43.3885V12.4398H22.3657V14.1944ZM23.9148 13.9573C23.5986 13.9573 23.3457 13.6885 23.3457 13.3724C23.3457 13.0563 23.5986 12.7876 23.9148 12.7876C24.2309 12.7876 24.4996 13.0563 24.4996 13.3724C24.4838 13.7043 24.2309 13.9573 23.9148 13.9573ZM28.3564 13.9573C28.0403 13.9573 27.7716 13.6885 27.7716 13.3724C27.7716 13.0563 28.0245 12.7876 28.3564 12.7876C28.6726 12.7876 28.9255 13.0563 28.9255 13.3724C28.9255 13.7043 28.6726 13.9573 28.3564 13.9573ZM32.8613 13.9573C32.5452 13.9573 32.2765 13.6885 32.2765 13.3724C32.2765 13.0563 32.5294 12.7876 32.8613 12.7876C33.1774 12.7876 33.4462 13.0563 33.4462 13.3724C33.4462 13.7043 33.1774 13.9573 32.8613 13.9573ZM37.303 13.9573C36.9868 13.9573 36.7339 13.6885 36.7339 13.3724C36.7339 13.0563 36.9868 12.7876 37.303 12.7876C37.6191 12.7876 37.8878 13.0563 37.8878 13.3724C37.8878 13.7043 37.6349 13.9573 37.303 13.9573ZM41.8395 13.9573C41.5233 13.9573 41.2546 13.6885 41.2546 13.3724C41.2546 13.0563 41.5075 12.7876 41.8395 12.7876C42.1556 12.7876 42.4243 13.0563 42.4243 13.3724C42.4243 13.7043 42.1714 13.9573 41.8395 13.9573Z" fill="#FFCB05"/>
<path d="M22.3657 12.2343H43.4359C43.4359 12.2343 43.4517 11.6652 43.4359 11.0646H22.3657V12.2343Z" fill="#FFCB05"/>
<path d="M22.3658 10.8591H43.436C43.436 10.7168 43.436 10.5904 43.436 10.4639C43.4202 9.72101 44.0208 9.29423 44.3686 9.18359C44.7163 9.05713 45.4118 8.56713 45.4118 8.56713C47.198 7.14454 46.4551 5.91162 46.4551 5.91162C46.4551 5.91162 45.8544 7.27099 43.7995 7.0655C43.7995 7.0655 43.6573 7.91906 42.6773 8.12455C42.6773 8.12455 43.1831 8.66197 43.025 9.24681C43.025 9.24681 43.0092 9.81585 42.1873 9.70521C42.1873 9.70521 41.8079 9.37327 42.3611 8.77262L41.5708 8.14035L40.7963 8.7252C40.7963 8.7252 41.3179 8.99391 41.0492 9.67359C41.0492 9.67359 40.7647 9.9265 40.6698 9.9423C40.5592 9.95811 39.5634 9.49972 40.6224 8.39326L39.4211 7.38163L38.1882 8.39326C38.1882 8.39326 39.1524 9.35746 38.3621 9.87908C38.3621 9.87908 37.5085 10.4639 37.4137 9.42069C37.4137 9.42069 37.303 9.08875 37.7298 8.93068L36.5285 8.15616L35.3904 8.96229C35.3904 8.96229 35.7382 9.19939 35.7224 9.42069C35.7066 9.64198 35.8014 10.0055 35.0585 10.0846C35.0585 10.0846 34.2524 10.0055 34.4895 9.18359C34.7108 8.34584 35.5485 8.251 35.833 8.17196C35.833 8.17196 35.0585 6.87582 32.893 6.48066C30.7275 6.87582 29.953 8.17196 29.953 8.17196C30.2375 8.251 31.0752 8.34584 31.2965 9.18359C31.5178 10.0055 30.7275 10.0846 30.7275 10.0846C29.9846 9.98972 30.0794 9.62617 30.0636 9.42069C30.0478 9.2152 30.3956 8.96229 30.3956 8.96229L29.2575 8.15616L28.0562 8.93068C28.483 9.08875 28.3723 9.42069 28.3723 9.42069C28.2775 10.4639 27.4239 9.87908 27.4239 9.87908C26.6178 9.35746 27.5978 8.39326 27.5978 8.39326L26.3649 7.38163L25.1636 8.39326C26.2226 9.49972 25.2268 9.95811 25.1161 9.9423C25.0055 9.9265 24.7368 9.67359 24.7368 9.67359C24.4681 8.99391 24.9897 8.7252 24.9897 8.7252L24.2152 8.14035L23.4248 8.77262C23.9939 9.35746 23.5987 9.70521 23.5987 9.70521C22.7768 9.81585 22.761 9.24681 22.761 9.24681C22.6029 8.66197 23.1087 8.12455 23.1087 8.12455C22.1445 7.91906 21.9864 7.0655 21.9864 7.0655C19.9316 7.27099 19.3309 5.91162 19.3309 5.91162C19.3309 5.91162 18.588 7.14454 20.3742 8.56713C20.3742 8.56713 21.0697 9.07294 21.4174 9.18359C21.7651 9.31004 22.3658 9.72101 22.35 10.4639V10.8591H22.3658Z" fill="#FFCB05"/>
<path d="M43.4676 11.0646V10.8591H43.436C43.436 10.9224 43.436 10.9856 43.436 11.0646H43.4676Z" fill="white"/>
<path d="M32.9088 6.05387C33.6992 6.05387 34.3947 6.30678 34.853 6.70194L34.8847 6.73356C35.1534 7.00227 35.3114 6.98646 35.6434 6.98646C36.0227 6.98646 36.3389 6.67033 36.3389 6.27516C36.3389 5.88 36.3389 5.56387 35.8014 5.07386L35.5011 4.80515L35.9595 4.39418C38.1408 5.32677 38.4095 6.78098 38.4095 6.78098H39.8637C39.8637 6.30678 39.1366 4.97902 39.1366 4.97902C41.9344 5.65871 42.8354 7.41324 42.8354 7.41324C43.6889 5.88 45.1906 6.16452 45.1906 6.16452L45.4435 5.42161C45.4435 5.42161 44.5109 5.37419 43.8312 5.56387C43.8312 5.56387 44.2264 5.07386 43.2305 4.96322C43.2305 4.96322 43.3254 4.26773 42.0134 4.26773C42.0134 4.26773 42.0767 3.80933 41.2547 3.50901C40.4328 3.20868 40.1641 3.50901 40.1641 3.50901C40.1641 3.50901 39.9902 3.019 39.2631 2.87675C38.536 2.71868 38.2989 3.03481 38.2989 3.03481C38.2989 3.03481 38.1566 2.54481 37.0976 2.43416C36.0385 2.32351 35.8489 2.65545 35.8489 2.65545C35.8489 2.65545 35.675 2.2919 35.185 2.26029C34.695 2.22867 34.4895 2.51319 34.4895 2.51319C34.4895 2.51319 34.1892 2.08642 33.794 2.41835C33.794 2.41835 33.3988 2.48158 33.2566 2.14964C33.2566 2.14964 33.3198 1.8177 33.5885 1.75448C33.8572 1.69125 34.0785 1.69125 34.0785 1.69125C34.0785 1.69125 34.0469 1.18544 33.2882 0.995759C33.2882 0.995759 33.5727 0.537368 32.9405 0.0473633H32.8772C32.245 0.537368 32.5295 0.995759 32.5295 0.995759C31.7708 1.18544 31.7391 1.69125 31.7391 1.69125C31.7391 1.69125 31.9446 1.69125 32.2292 1.75448C32.4979 1.8177 32.5611 2.14964 32.5611 2.14964C32.403 2.48158 32.0237 2.41835 32.0237 2.41835C31.6285 2.08642 31.3282 2.51319 31.3282 2.51319C31.3282 2.51319 31.1227 2.22867 30.6327 2.26029C30.1427 2.2919 29.9688 2.65545 29.9688 2.65545C29.9688 2.65545 29.7949 2.32351 28.7359 2.43416C27.6769 2.56061 27.5188 3.03481 27.5188 3.03481C27.5188 3.03481 27.2817 2.73449 26.5546 2.87675C25.8275 3.03481 25.6378 3.50901 25.6378 3.50901C25.6378 3.50901 25.3691 3.20868 24.5471 3.50901C23.7252 3.80933 23.7884 4.26773 23.7884 4.26773C22.4923 4.26773 22.5713 4.96322 22.5713 4.96322C21.5755 5.08967 21.9707 5.56387 21.9707 5.56387C21.2752 5.39 20.3584 5.42161 20.3584 5.42161L20.6113 6.16452C20.6113 6.16452 22.1129 5.86419 22.9665 7.41324C22.9665 7.41324 23.8675 5.67451 26.6652 4.97902C26.6652 4.97902 25.9381 6.29097 25.9381 6.78098H27.3923C27.3923 6.78098 27.661 5.32677 29.8424 4.39418L30.3007 4.80515L30.0004 5.07386C29.463 5.56387 29.463 5.88 29.463 6.27516C29.463 6.67033 29.7791 6.98646 30.1585 6.98646C30.4904 6.98646 30.6485 7.00227 30.9172 6.73356L30.9488 6.70194C31.4072 6.30678 32.1027 6.05387 32.893 6.05387H32.9088Z" fill="#FFCB05"/>
<path d="M64.8381 27.2506C64.8856 27.2822 64.9014 27.3296 64.9014 27.3928C64.9014 27.4561 64.8856 27.5035 64.8381 27.5193C64.8065 27.5351 64.7749 27.5351 64.7117 27.5351H64.443V27.2348H64.7117C64.7749 27.2348 64.8223 27.2348 64.8381 27.2506ZM64.2217 27.0293V28.1674H64.4588V27.7248H64.7117C64.7749 27.7248 64.8223 27.7406 64.8539 27.7564C64.8856 27.7722 64.8856 27.8354 64.8856 27.8987V28.0093C64.8856 28.0409 64.8856 28.0725 64.9014 28.1041C64.9014 28.12 64.9172 28.1516 64.9172 28.1674H65.1859V28.1358C65.1543 28.12 65.1543 28.1041 65.1385 28.0725C65.1385 28.0567 65.1385 28.0251 65.1385 27.9619V27.8829C65.1385 27.8038 65.1227 27.7406 65.1068 27.709C65.0752 27.6774 65.0436 27.6299 64.9962 27.6141C65.0594 27.5983 65.1069 27.5509 65.1385 27.5035C65.1701 27.4403 65.1859 27.3928 65.1859 27.3454C65.1859 27.298 65.1701 27.2664 65.1543 27.2348C65.1385 27.2032 65.1227 27.1716 65.091 27.1399C65.0594 27.1083 65.0278 27.0767 64.9804 27.0609C64.933 27.0451 64.8697 27.0293 64.7907 27.0293H64.2217Z" fill="#112A56"/>
<path d="M64.6169 28.9893C65.344 28.9893 65.9288 28.4044 65.9288 27.6773C65.9288 26.9502 65.344 26.3654 64.6169 26.3654C63.8898 26.3654 63.3049 26.9502 63.3049 27.6773C63.3049 28.4044 63.8898 28.9893 64.6169 28.9893ZM64.6169 28.7838C65.2333 28.7838 65.7233 28.2938 65.7233 27.6773C65.7233 27.0608 65.2333 26.5708 64.6169 26.5708C64.0004 26.5708 63.5104 27.0608 63.5104 27.6773C63.5104 28.2938 64.0162 28.7838 64.6169 28.7838Z" fill="#112A56"/>
</g>
<defs>
<clipPath id="clip0_229_6182">
<rect width="65.7555" height="34" fill="white" transform="translate(0.17334)"/>
</clipPath>
</defs>
</svg>
