<svg width="103" height="18" viewBox="0 0 103 18" fill="none" xmlns="http://www.w3.org/2000/svg">
<g clip-path="url(#clip0_229_6347)">
<path fill-rule="evenodd" clip-rule="evenodd" d="M6.44248 0L4.82813 0.32287L3.85952 0.64574L2.72948 0.726457H2.64876L2.24517 0.32287H1.9223L1.76087 0.726457L1.35728 1.8565L1.19585 1.93722L0.469389 3.79372H0.792259L1.438 3.30942L2.97163 2.42152L5.79674 1.69507H7.33038L8.70257 2.09865L9.7519 2.90583L10.4784 4.03587L10.5591 4.68161L10.8012 5.32735V7.34529L10.8819 7.50673V10.6547L10.7205 11.7848L10.6398 13.4798L10.2362 14.5291L9.42903 15.3363L8.21827 15.8206L6.60392 15.9821L3.21378 15.9013V9.36323L3.37522 7.26457L4.02096 6.21525L5.39316 5.81166H6.84607L8.29899 6.37668L8.3797 6.53812L8.46042 6.78027L8.70257 7.10314L8.94473 8.3139L8.70257 9.44395L8.46042 9.60538L8.21827 9.76682L7.97612 10.0897L7.73396 10.3318L6.76535 10.4933L5.87746 10.1704L5.31244 9.52466L5.07029 8.63677L5.151 8.3139L5.31244 7.99103L5.55459 7.74888L5.87746 7.50673L6.20033 7.42601H6.5232L6.84607 7.50673L7.33038 7.99103V8.07175L7.16894 8.3139L6.76535 8.15247H6.5232L6.36177 8.3139L6.20033 8.71749V8.87892L6.36177 9.12108L6.60392 9.20179H6.84607H7.16894L7.41109 9.04036H7.49181V8.87892L7.65325 8.79821L7.81468 8.3139L7.73396 7.91031L7.16894 7.26457L6.36177 7.02242L5.39316 7.34529L5.151 7.50673L5.07029 7.8296L4.82813 8.07175V9.52466L5.39316 10.2511L6.36177 10.6547L7.41109 10.7354L8.3797 10.3318L9.10616 9.28251L9.2676 7.74888L8.86401 6.61883L8.13755 5.81166L6.92679 5.40807L5.31244 5.32735H0.711542L0.550107 5.48879V5.81166L0.953694 6.05381L1.438 7.18386L1.35728 14.3677V15.9821L0.630824 17.1121H0.469389L0.388672 17.5157L6.0389 17.5964H6.28105H8.54114L10.0748 17.0314L11.1241 16.1435V15.9821H11.2855L11.6891 15.417L12.3349 12.9148L12.4963 10.009L12.3349 8.87892L12.2541 3.95516L11.5277 2.34081L10.3169 1.04933L8.54114 0.161435L6.44248 0Z" fill="#061022"/>
<path fill-rule="evenodd" clip-rule="evenodd" d="M14.5143 0.242094H14.2721L14.1914 0.403529V0.564964L14.2721 0.645682L14.8371 1.2107L15.3215 2.82505L15.2407 4.52012L15.16 10.4125L15.2407 13.1569L15.0793 15.7399L14.595 16.7892L14.3528 16.9506L14.1914 17.1928V17.3542L14.7564 17.5156L23.9582 17.4349H25.3304L26.5412 17.3542L26.6219 17.2735V17.1928V16.9506L25.8954 14.852L25.6533 14.5291V14.2869L25.3304 13.8026L25.169 13.0762L24.8461 11.9461L24.604 11.704L24.0389 9.84748L23.5546 8.47528L23.3932 6.86093L23.9582 6.05375L24.8461 5.8116L25.5726 6.21519L25.9762 6.94165L25.8954 7.91026H25.734L25.4919 8.15241H25.169L24.9268 8.07169L24.5232 7.91026L24.604 7.74882V7.6681H25.169L25.3304 7.58739L25.4919 7.34523V6.94165L25.2497 6.78021L25.0076 6.53806H24.9268H24.6847H24.5232L24.3618 6.69949L24.1197 7.02236L23.9582 7.82954L24.4425 8.39456L25.2497 8.556L26.0569 8.31384L26.2183 7.99097L26.4605 7.82954V7.58739V7.26452L26.3797 6.86093V6.37662L25.4919 5.48873H24.3618L23.4739 5.89232V5.97304L22.9896 6.69949L23.0703 7.82954L23.2318 8.79815L23.5546 10.7354L23.8775 11.5425L24.1197 13.0762L24.2004 13.2376L24.5232 15.7399L17.0972 15.6591V9.68604L17.2587 9.52461H19.5188L20.7295 10.0089H20.8102L20.891 9.92819H20.9717L20.8102 9.12102L20.6488 9.0403L20.5681 8.47528L19.9223 7.02236H19.6802L19.5995 7.10308L19.3573 7.50667L18.3887 7.74882H17.178V1.85644L20.6488 1.77573L23.151 1.93716L24.7654 2.90577L25.169 3.30936L25.4919 3.39008L25.2497 1.93716L24.5232 0.403529L23.5546 0.242094L22.5053 0.322812L15.5636 0.242094H15.6443L15.4829 0.161377L14.5143 0.242094Z" fill="#061022"/>
<path fill-rule="evenodd" clip-rule="evenodd" d="M28.1555 0.322876L27.9134 0.484311H27.8326V0.565028L28.6398 1.69507L28.882 4.76234L28.8012 8.07175L28.7205 14.3677V14.6099L28.8012 14.9327L28.3977 16.1435L28.0748 16.7892L27.5098 17.2735V17.3543L36.3887 17.435H36.308H36.5501H39.3752L39.2138 16.0628L38.7295 14.852V14.5292L38.1645 13.157V12.7534L37.9223 12.1076L37.438 10.1704L36.7116 7.26458L36.4694 6.69956V5.32736L36.6308 4.84306L37.0344 4.52018L37.5995 4.27803H38.0838L38.7295 4.84306L38.9716 5.65023L38.8102 6.05382L38.5681 6.29597L38.3259 6.37669H38.003V6.13453L38.1645 6.05382L38.4066 5.89238V5.56951V5.24664L38.2452 5.08521L38.003 5.00449H37.8416L37.3573 5.08521L37.1959 5.16593L37.0344 5.73095V6.05382L37.1151 6.29597L37.2766 6.53812L37.5187 6.78027L37.8416 6.86099L38.5681 6.78027L39.1331 6.29597L39.3752 5.16593L38.9716 4.19731L38.2452 3.79373H37.3573L36.4694 4.19731L35.9851 5.08521L35.9044 5.32736V6.86099L36.2273 8.31391L37.0344 13.3184L37.5187 15.7399L37.438 15.8206L37.3573 15.9014H30.577V10.9776L30.4963 10.8969H30.577V7.42601L30.4963 7.18386L30.577 3.63229L30.4963 2.17938L30.8192 1.45292L31.3035 0.887898L31.5456 0.726463V0.565028L31.3035 0.403593H29.1241L28.1555 0.322876Z" fill="#061022"/>
<path fill-rule="evenodd" clip-rule="evenodd" d="M43.4112 0.645752L41.5547 0.807187L41.6354 1.04934L42.2004 1.37221L42.4426 1.61436L42.6847 1.85651L42.9269 3.47086V5.40808L43.0076 5.73095L42.9269 12.7534V14.6099L42.8462 16.3857L42.2004 17.2736H42.1197V17.5157H45.5906V17.435L45.6713 17.3543V17.2736L45.4291 17.1121L44.7834 15.9821L44.6219 13.5605L44.5412 10.1704L44.6219 4.52019H44.5412V2.34082L44.7834 1.85651V1.61436L44.9448 1.45293L45.187 1.21077L45.9134 1.13006L45.9941 1.21077L46.2363 1.45293V2.01795L45.9941 1.7758L45.9134 1.69508H45.3484L45.187 1.93723L45.2677 2.17938V2.34082L45.4291 2.58297L45.5906 2.74441H45.9941L46.3977 2.66369L46.5592 2.34082L46.7206 2.01795L46.6399 1.21077L46.5592 0.968622L46.317 0.726469L43.4112 0.645752Z" fill="#061022"/>
<path fill-rule="evenodd" clip-rule="evenodd" d="M62.6218 0.565063L62.4604 0.645781L62.3796 0.726498V0.807216L62.4604 0.887934L62.9447 1.2108L63.5097 1.93726L63.8325 4.11663V6.53816V6.45744V6.61888V7.99107V8.15251L63.9133 9.12112V9.0404L63.8325 9.20184L63.9133 9.60542L63.8325 9.68614V9.9283L63.9133 10.0897V11.7848V11.8655H63.8325L63.9133 15.4978L63.5904 16.5471L63.0254 17.435H66.4962L66.5769 17.1122L66.0119 16.4664L65.6083 15.5785V14.0449L65.4469 13.3184L65.5276 10.3319L65.4469 4.52022V4.4395L65.3662 4.27807L65.5276 1.61439L65.7698 1.45296L66.0119 1.2108L66.8191 1.04937L66.8998 1.13009L67.0612 1.45296H67.142V1.53367V1.85654L66.4962 1.53367L66.2541 1.61439L66.0926 1.77583V2.01798V2.26013L66.1734 2.42157L66.4155 2.583H66.5769L66.8998 2.66372L67.142 2.583L67.3034 2.42157L67.5455 2.01798V0.968651L67.3841 0.887934V0.726498L66.5769 0.565063H65.2855L63.0254 0.645781L62.7832 0.565063H62.6218Z" fill="#061022"/>
<path fill-rule="evenodd" clip-rule="evenodd" d="M81.4291 13.8026L81.6712 1.93717L81.9941 1.29143L82.3977 0.968558L82.4784 0.807123V0.645688L80.8641 0.56497L78.9269 0.645688L79.734 1.53358V1.93717L79.8955 2.34076L79.734 10.9775L78.604 9.9282L77.2318 9.28246L75.6982 9.20174L74.4874 9.76677L73.5995 10.7354L73.2766 12.0269V12.3497V12.7533L73.4381 12.9147L73.9224 13.8834L74.5681 14.2869L75.456 14.4484L76.3439 14.3677L77.0704 14.0448L77.2318 13.8026L77.3932 13.5605L77.7161 13.3183L77.8775 12.1883L77.4739 11.2197L76.6668 10.7354L75.6982 10.8161L74.9717 11.3811L74.891 11.7847L75.0524 12.3497L75.6174 12.7533H76.021L76.1825 12.6726L76.3439 12.5112L76.5053 12.269V11.8654L76.1017 11.6233H75.9403L75.6982 11.704L75.456 12.1076H75.3753L75.2946 11.6233L75.6174 11.2197L76.021 11.0582L76.6668 10.9775L76.9089 11.0582L77.0704 11.2197L77.5547 12.1076L77.3932 13.1569L76.6668 13.9641L75.456 14.2062L74.4067 13.8026L73.7609 12.9955L73.5188 11.7847L73.8417 10.7354L74.0838 10.5739V10.4125L74.5681 10.1704L75.2946 9.60533L76.5053 9.44389L76.5861 9.52461L77.7968 9.68605L78.604 10.2511L79.169 10.9775L79.4919 12.0269L79.6533 13.2376L79.4919 13.3991L78.8461 14.852L77.7161 15.7399L77.1511 16.0627L74.8103 16.3049L74.326 16.0627L74.0031 16.1434L73.1152 15.4977L72.308 14.6098L71.743 13.4798L71.2587 10.8161L71.4201 7.82955L72.0659 5.24659L72.7923 3.63224L73.1152 3.14793L73.1959 2.90578L73.4381 2.74434L73.6802 2.17932L74.7295 0.968558L74.8103 0.645688L71.9852 0.484253L70.6937 0.726405L70.613 0.88784L69.7251 1.45286L69.5636 1.77573L69.4829 2.0986L69.5636 2.82506L69.8058 3.39008L70.0479 3.63224L70.2901 3.71295H70.5322H70.9358H71.178L71.4201 3.4708V3.22865L71.5008 2.90578L71.178 2.58291H70.7744L70.613 2.74434V2.82506V3.39008L70.0479 3.22865L69.9672 2.90578V2.58291L70.2094 2.42147L70.5322 2.26004H73.1959L72.6309 3.06721L72.4695 3.55152L72.2273 3.79367L71.6623 4.92372L71.5008 5.00443L71.0973 6.13448L70.613 6.86094V7.10309L70.4515 7.42596V7.74883L70.2094 8.15242L70.0479 9.28246L69.8865 10.0089L70.0479 12.4304V12.9955L70.2094 13.2376V13.7219L71.4201 16.3856L72.5502 17.2735L74.0838 17.8385L75.6982 17.9999L77.3932 17.5156L77.4739 17.3542L78.2811 17.0313V16.8699L79.4112 15.6591L79.5726 15.7399L79.6533 17.4349L82.1556 17.5156L82.0748 17.1928L81.752 16.8699L81.5905 16.3856L81.4291 16.2242V13.9641H81.3484L81.4291 13.8026Z" fill="#061022"/>
<path fill-rule="evenodd" clip-rule="evenodd" d="M93.3753 0.322876L92.5681 0.484311L86.1107 0.565028V0.887898L86.8372 1.29149V1.3722L86.9179 1.29149V1.53364L86.595 1.69507L84.8193 3.87445L84.4157 5.73095L84.4964 7.8296L85.5457 11.5426L85.8686 12.1076L86.1107 12.8341L86.3529 13.0762L86.6758 14.0448L86.9179 14.2063L86.9986 14.6099L87.3215 14.852L87.7251 16.1435L86.1915 16.2242L84.6578 16.0628L84.5771 15.9821L84.4157 15.5785H84.335V15.3363H84.4157V15.2556H84.4964L84.8193 15.4978H85.3036L85.3843 15.417L85.465 15.3363L85.1421 15.1749V15.0942L85.2228 15.0135L85.6264 14.9327L85.5457 14.6906V14.6099L84.8193 14.287H84.4964L84.1735 14.4484L83.9314 14.6099L83.7699 14.9327L83.6892 15.5785L83.7699 16.2242L84.1735 16.9507L84.7385 17.435L86.7565 17.5964L88.8551 17.5157L89.0166 17.2736L88.613 16.6278L86.4336 10.3318L86.1915 6.69956L86.5143 5.08521L87.2408 3.71301L88.1287 2.7444L89.8237 2.17938L92.0031 2.01794L92.0838 2.17938L92.0031 7.66817L92.0838 7.91032L92.0031 8.39462L90.7924 8.31391L89.743 7.99104L89.8237 10.574L90.1466 10.3318L92.0031 10.1704L91.9224 13.722L92.0031 14.0448L91.9224 14.6906V15.8206L91.5995 16.7085L91.0345 17.2736H90.9538V17.435L91.8417 17.5964L94.6668 17.5157L94.7475 17.2736L94.0211 16.3049L93.9403 14.4484L93.8596 14.2063L93.7789 14.1256L93.8596 14.0448H93.9403V10.2511L94.1018 10.0897L95.474 10.1704L95.8776 10.4933H96.1197L96.2811 7.99104L94.0211 8.31391L93.9403 4.43947L94.0211 2.09866L95.9583 2.01794L97.6533 2.50225L98.8641 3.87445V4.03588L99.0255 4.1166L99.3484 5.00449V5.4888L99.5906 5.81167V6.69956L99.1063 11.9462L98.7834 12.8341V13.157L98.6219 13.2377L98.3798 14.3677L97.8955 15.3363L97.7341 15.417L97.3305 16.4664L96.7654 17.435L98.9448 17.5964L100.963 17.2736L101.931 16.4664L102.174 15.8206L102.093 15.0942L101.931 14.6099L101.689 14.4484L101.447 14.287L100.963 14.2063L100.721 14.287L100.64 14.3677L100.317 15.1749L101.366 15.4978L101.286 15.8206L101.205 15.9014L99.752 16.2242L98.1376 16.1435L99.1063 14.2063L100.64 11.0583L101.528 7.3453L101.286 4.76234L100.317 2.82512L99.6713 2.2601L99.5098 2.01794L99.3484 1.85651L99.1063 1.69507L99.0255 1.3722L99.9134 0.726463L99.8327 0.403593L93.5367 0.484311L93.3753 0.322876Z" fill="#061022"/>
<path fill-rule="evenodd" clip-rule="evenodd" d="M60.039 15.9821L59.3125 14.0449L59.1511 13.9642L58.9897 13.3184L58.6668 12.8341L57.6982 10.0897L57.1332 8.63681V8.31394L57.2946 8.15251L58.1018 7.74892L59.9583 6.13457L60.4426 4.92381L60.3619 3.39018L59.6354 2.01798L58.1018 0.968651L57.7789 0.807216L54.5502 0.565063L51.1601 0.645781L49.3036 0.565063L48.9 0.645781L48.8193 0.807216V0.887933L49.1421 1.2108L49.6264 2.01798V3.14802L49.7072 3.9552L49.6264 4.03592V8.5561L49.7072 11.1391L49.6264 14.9328V15.5785L49.1421 16.5471L48.335 17.1929L48.4157 17.2736V17.3543L52.9359 17.2736V17.0314L52.2901 16.7086L52.048 16.6278L51.8058 16.3857L51.5637 15.0135L51.6444 13.4799H51.8865L53.178 13.9642L54.1466 13.722L54.7924 13.0763L54.9538 12.1884L54.5502 11.3005L54.3888 11.0583L54.2273 10.8969L53.5009 10.8162L53.178 10.8969L52.8551 11.1391L52.6937 11.3812L52.613 11.7041L52.8551 12.4305L53.0973 12.592L53.4202 12.6727L53.743 12.592L53.9045 12.5113L53.9852 12.3498V11.7848L53.5816 11.5426L53.5009 11.3005H54.3888L54.4695 11.3812L54.5502 11.5426L54.6309 11.8655L54.7116 12.592L54.4695 12.9148L54.3081 13.157L54.0659 13.3184L53.8237 13.4799L53.178 13.5606L52.5323 13.3991L52.2901 13.2377L52.048 12.9956L51.7251 12.3498V11.3812L52.048 10.4933L52.6937 9.92829L55.1152 8.87897L56.4067 11.8655L56.5681 11.9462L56.891 12.9148L57.5368 14.2063L57.9403 15.6592L57.7789 16.3857L57.6175 16.7086L57.3753 16.9507L57.0524 17.1122V17.3543H61.2498L61.3305 17.0314L60.039 15.9821ZM56.2453 8.07179L55.761 8.39466L54.9538 8.5561L53.9045 9.0404H53.5816L52.3708 9.68614L52.048 10.0897V10.1704H51.8058V5.40811V5.48883L51.7251 5.40811L51.8058 2.42157L53.5009 2.17941L56.6489 2.26013L58.0211 2.66372L58.8282 3.39018L59.0704 5.08524V5.73098L58.8282 6.13457V6.45744L58.1018 7.26462L57.2139 7.91036L56.2453 8.07179Z" fill="#061022"/>
</g>
<defs>
<clipPath id="clip0_229_6347">
<rect width="101.785" height="18" fill="white" transform="translate(0.388672)"/>
</clipPath>
</defs>
</svg>
