<svg width="82" height="34" viewBox="0 0 82 34" fill="none" xmlns="http://www.w3.org/2000/svg">
<g clip-path="url(#clip0_229_9868)">
<path d="M8.96741 0C0.230463 0 -0.82625 7.5604 3.33524 8.78052C1.2436 6.92855 2.48551 2.81064 8.01963 2.81064C8.39003 2.81064 8.77132 2.84332 9.14171 2.90868C8.83668 3.11567 7.51851 4.06344 7.22438 4.25953C6.91935 4.52099 6.66879 4.83691 6.49448 5.2073C6.32018 5.5777 6.24392 5.96988 6.24392 6.37296V12.2012C6.2766 12.6261 6.18945 13.0509 5.98247 13.4213C3.30256 12.9965 1.7883 14.4018 1.52684 16.6242C2.72518 14.9792 3.54222 14.7504 6.53806 16.3518C11.4948 18.999 18.1619 17.6264 18.1619 8.75873C18.151 4.24864 14.2183 0 8.96741 0ZM9.3378 14.7068C8.56433 14.2711 7.75818 13.9225 6.90845 13.6719C7.57298 13.2906 8.13947 12.7568 8.53165 12.0923C8.93473 11.4386 9.15261 10.687 9.18529 9.91349V2.93047C12.0831 3.4207 15.6127 5.73021 15.6127 11.3624C15.6127 13.2906 15.0898 17.8552 9.3378 14.7068ZM29.4153 11.3297C29.4045 11.9833 29.2737 12.6261 29.0232 13.2361C28.7617 13.8353 28.3913 14.38 27.9229 14.8376C27.4544 15.2951 26.9097 15.6437 26.2997 15.8834C25.7005 16.123 25.0469 16.232 24.4041 16.2211C21.2885 16.2211 19.3602 14.1077 19.3602 11.3079C19.3058 10.6107 19.4038 9.91349 19.6326 9.24896C19.8614 8.59532 20.2209 7.98526 20.6893 7.47325C21.1577 6.96123 21.7351 6.55815 22.367 6.27491C22.9988 5.99167 23.6851 5.85005 24.3823 5.85005C25.0796 5.85005 25.755 5.99167 26.3977 6.27491C27.0296 6.55815 27.607 6.96123 28.0754 7.47325C28.5438 7.98526 28.9033 8.58443 29.1321 9.24896C29.3609 9.9026 29.4589 10.6107 29.4044 11.3079L29.4153 11.3297ZM23.8703 7.0157C22.4759 7.2009 21.8985 9.14002 22.1709 11.4713C22.4432 13.8026 23.4128 15.5239 24.8508 15.3822C26.3759 15.1971 26.8008 13.2797 26.5285 10.9484C26.2561 8.61711 25.3083 6.81961 23.8703 7.0157ZM81.6627 11.297C81.6627 11.9615 81.532 12.6043 81.2705 13.2144C81.0091 13.8244 80.6387 14.3691 80.1702 14.8267C79.7018 15.2842 79.1462 15.6437 78.5362 15.8834C77.9261 16.123 77.2725 16.232 76.6188 16.2102C73.5032 16.2102 71.5749 14.0968 71.5749 11.297C71.5205 10.5998 71.6185 9.9026 71.8473 9.23806C72.076 8.58443 72.4355 7.97437 72.904 7.46235C73.3724 6.95034 73.9498 6.54726 74.5816 6.26402C75.2135 5.98078 75.8998 5.83915 76.597 5.83915C77.2833 5.83915 77.9697 5.98078 78.6124 6.26402C79.2443 6.54726 79.8216 6.95034 80.2901 7.46235C80.7585 7.97437 81.118 8.57353 81.3577 9.23806C81.5865 9.8917 81.6845 10.5998 81.63 11.297H81.6627ZM76.1068 7.0157C74.7233 7.2009 74.135 9.14002 74.4073 11.4713C74.6797 13.8026 75.6493 15.5239 77.0873 15.3822C78.6124 15.1971 79.0373 13.2797 78.7649 10.9484C78.5035 8.61711 77.5448 6.81961 76.1068 7.0157ZM60.6374 15.9923V15.5239C61.8139 15.3605 61.8357 14.2929 61.8357 13.563V3.92182C61.8357 2.64723 60.4958 2.83243 60.4958 2.83243V2.3422C61.8139 2.21147 63.1212 1.95002 64.3849 1.54694L64.6246 1.95002C64.6246 1.95002 64.5592 3.08299 64.5592 3.51874V13.563C64.5592 14.6088 64.5592 15.2406 65.5941 15.5239V15.9923H60.6374ZM41.268 15.513V15.9814H36.2458V15.513C37.3897 15.2188 37.2808 14.5979 37.2808 13.5521V8.83499C37.2808 7.0157 35.0693 7.30984 33.871 8.2685V13.563C33.871 14.6088 33.871 15.2406 34.9059 15.5239V15.9923H29.96V15.5239C31.1366 15.3605 31.1584 14.2929 31.1584 13.563V8.87856C31.1584 8.70426 31.1257 8.52996 31.0603 8.37744C30.995 8.21403 30.8969 8.07241 30.7662 7.95258C30.6355 7.83275 30.4938 7.74559 30.3304 7.68023C30.167 7.62576 29.9927 7.59308 29.8293 7.60397V7.11375C31.1366 6.93944 32.433 6.6562 33.6967 6.25312L33.9363 6.6562C33.8928 6.86318 33.8601 7.08106 33.8492 7.28805C36.7579 5.45787 40.026 5.78468 40.026 8.29029V13.5521C40.0696 14.2929 40.0914 15.3605 41.268 15.513ZM60.1254 15.9923C58.8181 15.9923 57.5108 16.1557 56.2362 16.4825V15.3714C53.5019 17.1689 50.0485 17.0054 50.0485 13.8462V8.75873C50.0485 7.48414 48.7085 7.66934 48.7085 7.66934V7.21179C50.0267 7.16821 51.334 6.93944 52.5977 6.53637L52.8373 6.93944C52.8373 6.93944 52.7284 8.07241 52.7284 8.49728V13.8571C52.7284 15.1426 54.2862 15.6437 56.0401 14.685V8.68247C56.0619 8.52996 56.051 8.37744 55.9966 8.22493C55.953 8.08331 55.8658 7.95258 55.7569 7.84364C55.648 7.7347 55.5172 7.65844 55.3647 7.61487C55.2231 7.57129 55.0597 7.5604 54.9181 7.59308V7.09196C56.1818 7.08106 57.4346 6.85229 58.622 6.41653L58.8617 6.81961C58.8617 6.81961 58.7527 7.95258 58.7527 8.37744V13.8789C58.7527 14.9574 59.1558 15.5566 60.0927 15.5566L60.1254 15.9923ZM66.2369 15.9923V15.5021C67.4134 15.3387 67.4352 14.2602 67.4352 13.5303V8.64979C67.4352 7.3752 66.0953 7.5604 66.0953 7.5604V7.07017C67.4243 6.96123 68.7207 6.68888 69.9844 6.26402L70.2241 6.66709C70.2241 6.66709 70.1151 7.78917 70.1151 8.22493V13.563C70.1151 14.6088 70.1151 15.2406 71.1501 15.5239V16.0032H66.2369V15.9923ZM68.5791 2.71259C68.2958 2.71259 68.0235 2.79974 67.7947 2.95226C67.5659 3.10477 67.3808 3.33355 67.2827 3.595C67.1847 3.85646 67.152 4.1397 67.2065 4.42294C67.2609 4.69529 67.3916 4.95674 67.5986 5.15284C67.7947 5.34893 68.0453 5.49055 68.3176 5.54502C68.59 5.59949 68.8732 5.56681 69.1347 5.45787C69.3961 5.34893 69.614 5.16373 69.7665 4.93496C69.919 4.70618 70.0062 4.42294 70.0062 4.1397C70.0062 3.75841 69.8537 3.39891 69.5922 3.12656C69.309 2.86511 68.9495 2.71259 68.5791 2.71259ZM49.9286 1.56873C48.349 2.03717 46.4971 2.91958 43.0437 1.56873C37.3026 -0.729894 33.8165 1.33995 33.9254 3.54053C34.9713 2.60365 35.9735 1.68856 39.1981 3.33355C42.6951 5.12015 44.9719 4.39026 46.7912 3.38802C46.7912 3.38802 46.8348 3.50785 46.3772 3.80199C45.7018 4.19417 45.1462 4.76065 44.7649 5.43608C44.3836 6.1115 44.1766 6.88497 44.1766 7.66934V20.5678C44.1766 22.3871 43.7082 23.1061 42.8367 23.1061C40.3311 23.1061 39.5249 17.6482 35.0257 17.6482C31.9427 17.6482 28.4567 19.0644 26.3868 19.8923C24.9924 19.2823 23.4999 18.9773 21.9857 18.9881C20.6784 18.9555 19.382 19.206 18.1728 19.7289C17.0398 19.4348 12.2901 18.0186 10.4599 21.6245C7.67103 22.1583 6.9956 23.9122 6.9956 24.9144C6.9956 28.4005 10.961 28.967 14.654 27.9865C15.3513 28.6729 16.2337 29.1413 17.1923 29.3374C16.8002 30.9061 17.7915 34 22.7265 34C29.35 34 30.5592 29.0215 30.581 28.967C35.1347 29.8494 37.4333 27.7251 37.4333 25.993C37.4333 24.2608 36.1587 23.6834 35.1673 23.422C35.2 23.1605 35.1782 22.8882 35.1129 22.6267C35.0366 22.3653 34.9168 22.1256 34.7425 21.9186C34.4266 21.57 34.0344 21.2977 33.5877 21.1234C33.152 20.9491 32.6726 20.8837 32.2042 20.9382C31.0603 20.9708 29.9274 21.1996 28.8598 21.6136C28.217 20.9708 27.4762 20.437 26.6592 20.0449C28.6637 19.2387 30.5483 18.4434 32.64 18.4434C37.052 18.4434 36.845 24.5876 41.6601 24.5876C45.2116 24.5876 47.3141 21.3086 47.3141 18.3563V7.47325C47.3141 4.64082 47.8261 3.68215 48.7303 2.84332C49.1552 2.44024 49.6345 2.09164 50.1574 1.80839C50.3099 1.74303 50.4407 1.67767 50.4298 1.59052C50.3971 1.39442 49.9286 1.56873 49.9286 1.56873ZM25.5044 20.3281L22.879 21.5918C22.3016 21.3303 20.1991 20.3608 18.9463 19.9468C21.1033 19.2496 23.4455 19.3912 25.5044 20.3281ZM22.0728 24.8164C21.5499 24.5658 20.4278 24.0756 19.1641 23.5745L22.0292 22.2236L24.8399 23.5091L22.0728 24.8164ZM25.1013 23.6399C25.1013 23.6399 27.7486 24.7728 28.4131 25.0125C27.5307 25.4265 26.5829 25.9058 25.6351 26.3633C24.0991 25.7642 22.9552 25.1977 22.367 24.9144L25.1013 23.6399ZM21.7569 22.1147C20.7002 22.6158 19.6326 23.1169 18.87 23.4656C17.6499 22.9753 16.3208 22.4851 15.2859 22.1583C15.9613 21.3957 16.811 20.7965 17.7479 20.4044C19.8396 21.156 21.3538 21.9295 21.7569 22.1147ZM17.5736 24.0211C16.408 24.5114 15.177 24.8382 13.9133 24.9907C14.0113 24.2717 14.2619 23.5745 14.654 22.9644C15.5582 23.2477 16.4951 23.5963 17.5736 24.0211ZM17.2032 20.2192C16.3644 20.7094 15.6018 21.3303 14.9591 22.0711C13.5755 21.6898 12.1484 21.5373 10.7104 21.6136C12.3554 18.7921 16.3317 19.9032 17.2032 20.2192ZM10.5143 22.2454C11.8434 22.2999 13.1616 22.5287 14.4362 22.9209C14.044 23.5527 13.7825 24.2608 13.6954 25.0125C12.3554 25.2195 10.242 24.5005 10.5143 22.2672V22.2454ZM7.16991 24.9471C7.16991 22.8773 9.55568 22.3435 10.2638 22.289C10.035 24.5876 11.9959 25.4156 13.6409 25.2522C13.5755 26.1781 13.8588 27.0932 14.4471 27.8231C9.83892 28.9234 7.19169 27.6053 7.19169 24.9253L7.16991 24.9471ZM13.8588 25.2304C15.2314 25.067 16.5714 24.7075 17.846 24.1519C18.1837 24.2935 20.1446 25.1214 20.8091 25.4047C18.8373 26.3524 16.8002 27.1368 14.6976 27.736C14.4035 27.3874 14.1747 26.9843 14.0331 26.5485C13.8915 26.1128 13.8479 25.6552 13.9024 25.1977L13.8588 25.2304ZM14.8501 27.9321C16.9854 27.322 19.077 26.5159 21.0706 25.5245L24.4477 26.9843C24.4477 26.9843 22.8245 27.8122 22.2036 28.1064C21.8658 27.7033 21.4192 27.3983 20.929 27.224C20.4278 27.0497 19.894 27.017 19.382 27.1259C18.87 27.2349 18.3907 27.4854 18.0094 27.834C17.6281 28.1935 17.334 28.6511 17.1923 29.1522C16.3208 28.967 15.5256 28.5312 14.8937 27.9103L14.8501 27.9321ZM21.7569 28.3134C21.332 28.5095 19.4365 29.5988 17.4211 29.2067C17.7806 27.8122 20.21 26.7664 21.7896 28.3025L21.7569 28.3134ZM22.8136 33.8148C18.0856 33.8148 16.9854 31.1131 17.3557 29.4136C19.3602 29.8167 21.3756 28.7382 21.8985 28.4768C22.465 29.1958 22.2689 30.1326 21.6915 30.1762C21.441 30.1762 21.3974 30.0673 21.3756 29.9583C21.3756 29.9583 21.3102 29.6206 21.027 29.7949C20.7438 29.9583 21.027 30.3723 21.5499 30.3723C22.5522 30.3723 22.8245 29.0215 22.3343 28.2807L24.7309 27.0823C26.4086 27.8231 28.1408 28.4223 29.9165 28.869C29.4262 30.3505 28.4785 31.636 27.2039 32.5184C25.9293 33.4117 24.4041 33.8584 22.8572 33.793L22.8136 33.8148ZM30.1017 27.834C28.6637 27.4854 27.2366 27.0497 25.853 26.5159C26.8117 26.0256 27.7704 25.5463 28.6528 25.165C29.0776 25.3175 29.5134 25.4591 29.9383 25.5681C30.1343 26.298 30.1997 27.0606 30.1343 27.8122L30.1017 27.834ZM30.5265 24.3262C31.8992 23.7597 33.3807 23.52 34.8623 23.6072C34.7207 24.0429 34.2631 25.5027 30.6681 24.7837C30.6573 24.6203 30.6137 24.4569 30.5592 24.3153L30.5265 24.3262ZM37.1392 25.677C37.1392 27.1913 35.7447 28.8472 30.788 27.9974C30.9296 27.2566 30.9514 26.4941 30.8533 25.7533C34.0888 26.2653 35.0584 24.2608 35.1238 23.6616C35.9735 23.7706 37.1718 24.5332 37.1718 25.6552L37.1392 25.677ZM34.895 23.3893C33.3916 23.2586 31.8774 23.5091 30.483 24.0865C30.1561 23.2259 29.6659 22.4524 29.045 21.7879C34.0235 20.034 35.1782 22.2781 34.9386 23.3784L34.895 23.3893ZM29.5461 24.4896C28.4022 24.0974 27.291 23.6508 26.2016 23.1387L28.01 22.2781C28.6419 22.9318 29.1757 23.6616 29.5896 24.4678L29.5461 24.4896ZM27.9011 22.0711L26.474 22.7466L25.9838 22.9753L23.1404 21.7007L25.7441 20.4588C26.5393 20.8728 27.2692 21.4175 27.9011 22.0711Z" fill="#0A0A0A"/>
</g>
<defs>
<clipPath id="clip0_229_9868">
<rect width="80.6806" height="34" fill="white" transform="translate(0.982422)"/>
</clipPath>
</defs>
</svg>
