<svg width="105" height="32" viewBox="0 0 105 32" fill="none" xmlns="http://www.w3.org/2000/svg">
<g clip-path="url(#clip0_229_9870)">
<path d="M75.9592 22.0086C75.4099 21.7683 75.2725 21.1274 75.284 20.5437C75.3412 18.7011 76.2453 16.9042 77.5157 15.6796C77.8934 15.3134 78.3398 14.9586 78.809 14.764C78.9692 14.6953 79.1638 14.6953 79.3355 14.6267C79.942 14.5923 80.3655 14.9128 80.4342 15.6109C80.4571 15.8284 80.2511 16.1031 80.1709 16.2862C79.9764 16.7554 79.7818 17.2132 79.5872 17.6825C79.2897 18.4493 78.9921 19.2161 78.7289 20.0058C78.6259 20.3606 78.5114 20.7039 78.4084 21.0587C78.1109 21.6424 77.2639 22.1345 76.52 22.1345C76.314 22.1116 76.1309 22.0773 75.9592 22.0086ZM96.8233 22.0086C96.1709 21.7225 96.0679 21.0816 96.0908 20.3949C96.148 18.5866 97.0293 16.95 98.231 15.7139C98.6316 15.3019 99.1123 14.9242 99.6159 14.7182C99.7646 14.661 99.9478 14.6267 100.108 14.5809C101.355 14.4435 101.218 15.5995 101.218 15.6224C101.184 15.9314 100.886 16.4121 100.76 16.7096C100.394 17.5451 100.062 18.3806 99.7418 19.2504C99.6159 19.5938 99.2611 20.9328 99.0551 21.1846C98.6545 21.6653 98.1738 21.9743 97.5443 22.0544C97.4184 22.0659 97.2811 22.0773 97.1552 22.0773C97.0522 22.0659 96.9378 22.0544 96.8233 22.0086ZM102.18 13.6996C102.18 13.6996 101.722 14.5466 101.71 14.5694C101.71 14.3062 101.161 13.8942 100.955 13.8026C100.394 13.5623 99.8562 13.5737 99.1008 13.7797C97.3612 14.2604 96.0107 15.7254 94.9578 17.1789C94.8662 17.3162 94.8204 17.3963 94.6602 17.6138C94.6602 17.6138 93.9964 18.3806 93.5615 20.3033C93.5157 20.3033 93.4699 21.1503 93.3898 21.3219C93.3212 21.4707 93.1495 21.5852 93.0236 21.6882C92.6459 21.9972 91.8791 22.5923 91.4099 22.0659C90.5744 21.1503 93.3326 16.8012 93.2182 15.2561C93.0808 13.5394 91.2267 13.4593 89.9335 13.94C89.4871 14.1002 89.1209 14.352 88.7203 14.5694C88.7203 14.5351 89.0179 13.6195 89.0179 13.6195L86.4313 13.6653C86.4313 13.6653 84.2224 18.9872 83.4213 20.9557C83.0551 21.5051 82.1738 22.3978 81.4299 22.249C80.9378 22.146 80.789 21.6081 80.8805 21.1159C81.0522 20.2118 81.3841 19.3992 81.7274 18.5866C82.1624 17.5451 83.902 13.6195 83.902 13.6195L81.4413 13.6996C81.4413 13.6996 81.0408 14.3749 80.9835 14.558C80.9492 14.4207 80.5944 14.1002 80.48 14.0201C80.1137 13.734 79.5415 13.6081 79.0265 13.6767C76.4742 14.0086 74.2768 16.5265 73.304 18.7239C72.9149 19.6167 72.5372 20.5666 72.6287 21.6882C72.7317 23.0043 73.4413 24.6295 74.9749 24.6295C76.3827 24.6295 78.2482 22.3405 78.2596 22.3405C78.2596 23.4278 78.9463 24.4579 80.1023 24.4579C81.4642 24.3548 82.7003 22.7182 82.7003 22.7182L82.0708 24.4922L84.6459 24.5151C84.6459 24.5151 87.7475 16.7211 87.8963 16.5036C88.3312 15.8856 89.0751 15.2104 89.8877 15.2218C90.2997 15.2218 90.5629 15.4736 90.4828 15.9199C90.3684 16.538 90.0594 17.1102 89.8419 17.6825C89.3956 18.827 88.9263 19.9829 88.6173 21.196C88.4685 21.7912 88.3083 22.5008 88.4914 23.1417C88.6173 23.5995 88.892 23.9772 89.3154 24.229C90.6316 24.9843 91.8448 23.9772 92.7031 23.0616C92.9664 22.7754 93.4471 22.1689 93.4699 22.1574C93.4699 22.1689 93.4814 22.1689 93.4928 22.1803C93.4928 22.5008 93.6645 22.867 93.779 23.1417C93.8133 23.2447 93.9163 23.4049 93.9392 23.485C93.9392 23.485 94.2711 24.0001 94.5343 24.1603C94.6488 24.229 94.7632 24.2862 94.8777 24.3548C95.1409 24.4807 95.3812 24.5494 95.6903 24.5837C96.9492 24.7096 98.4599 23.382 98.975 22.352H99.0436C99.0436 25.3734 101.607 24.9156 103.232 23.4393C103.965 22.7754 104.423 21.8599 104.72 20.9672C104.835 20.5895 104.984 20.1431 104.926 19.6968C104.915 19.6052 104.835 19.3763 104.732 19.4908C104.572 19.6739 104.377 19.9829 104.274 20.1889C103.919 20.8298 103.21 21.9858 102.374 22.0086C102.157 22.0201 101.939 21.9629 101.813 21.8141C101.665 21.6538 101.642 21.3448 101.665 21.1045C101.745 20.3033 102.111 19.5709 102.397 18.8613C102.946 17.4307 104.686 13.5966 104.686 13.5966L102.18 13.6996ZM86.2367 11.3649C86.191 11.5594 86.1109 11.8455 86.1795 12.063C86.1795 12.0973 86.9349 11.8799 87.3011 11.7654C87.8047 11.6968 88.3426 11.6853 88.8462 11.7769C89.7503 11.9257 90.6087 12.3148 91.5358 12.3606C92.6001 12.4064 93.5272 11.8455 93.9163 10.9185C94.0651 10.5752 94.0994 10.1975 94.2024 9.8198C94.2024 9.8198 93.8247 9.98003 93.6645 10.0601C93.1953 10.2204 92.6345 10.3234 92.0851 10.3348C90.6659 10.3577 89.098 9.80835 88.7432 9.73968C87.6445 9.73968 86.5343 10.3005 86.2367 11.3649ZM53.2525 19.5938C53.0121 19.4793 52.8862 19.239 52.8519 18.9757C52.726 17.9342 53.447 16.7898 54.1452 16.1145C54.3855 15.8742 54.4656 15.794 54.7174 15.6224C54.8891 15.5308 55.0264 15.4393 55.2096 15.4164C55.5529 15.3591 55.9878 15.5308 56.0794 15.9085C56.148 16.1946 55.8161 16.7898 55.7131 17.0644C55.4156 17.8999 54.8319 19.6281 53.6874 19.6395C53.6645 19.6395 53.6416 19.6395 53.6187 19.6395C53.4928 19.651 53.3669 19.6395 53.2525 19.5938ZM62.2024 15.0616C62.4885 15.0845 62.7174 15.2332 62.706 15.5537C62.6716 16.8584 61.3097 17.671 60.3254 18.2089C60.2453 18.2547 60.1652 18.3005 60.0851 18.3577H59.9935C60.005 17.0759 60.9549 15.3706 62.2024 15.0616ZM58.9635 9.4879C58.4485 10.6667 58.0708 11.5594 57.5558 12.7383C57.2353 13.4936 56.4227 15.3935 56.4227 15.3935C56.4227 15.0272 55.8963 14.7068 55.4613 14.661C55.0379 14.6152 54.6259 14.7526 54.2825 14.8899C52.8862 15.382 51.5243 16.7325 51.1809 18.2089C51.0665 18.6667 50.9978 19.2161 51.1008 19.7082C51.3183 20.7955 52.2797 21.5966 53.4356 21.1388C53.7561 21.0129 54.0307 20.7726 54.294 20.5208C54.5572 20.2805 54.8433 19.9371 54.9807 19.6166C55.0264 19.6166 55.0493 19.6853 55.0608 19.7197C55.221 20.1202 55.2668 20.4979 55.5987 20.8184C56.5028 21.6882 58.1738 21.0015 58.5171 19.9028C58.5858 20.0744 58.6545 20.2232 58.7003 20.3033C58.7575 20.3949 58.8834 20.5437 58.952 20.6238C58.952 20.6238 59.1123 20.8527 59.3755 21.0015C59.5014 21.0702 59.6387 21.1388 59.7646 21.2075C60.0508 21.3219 60.3712 21.3906 60.6917 21.4021C61.6073 21.4364 62.4885 20.8985 62.7518 20.0516C62.809 19.8684 62.8777 19.6395 62.8204 19.4335C62.8204 19.3763 62.4084 19.754 62.191 19.857C62.0307 19.9371 61.8133 20.0058 61.5844 20.0287C60.9435 20.0287 60.4056 19.8684 60.1194 19.3076C60.0737 19.2275 60.0279 19.0787 60.0965 18.9872C60.2339 18.8041 60.7489 18.5637 60.9664 18.4378C61.8133 17.9686 63.53 16.7783 63.5529 15.6796C63.5644 15.3134 63.4385 15.0158 63.1523 14.8212C61.9735 14.0315 60.1194 15.4507 59.387 16.3434C59.1008 16.6868 58.8719 17.0873 58.7117 17.4879C58.5858 17.7969 58.54 18.1975 58.4942 18.5408C58.4599 18.827 58.4828 19.1703 58.334 19.4106C58.1166 19.754 57.6817 20.0287 57.2468 19.857C56.789 19.6624 56.8118 19.0787 56.892 18.6553C56.995 18.0945 57.2124 17.5795 57.407 17.0644C57.6359 16.4464 58.1166 15.2104 58.1166 15.2104L59.5815 11.5709L60.4628 9.45356H58.9635V9.4879ZM35.5586 22.1002C35.0665 21.8827 34.9406 21.2418 34.9177 20.7268C34.9063 20.2118 34.9406 19.7425 35.0322 19.2619C35.1123 18.8498 35.3068 18.4378 35.4785 18.0716C36.1309 16.7211 37.1495 15.3706 38.4427 14.4893C38.6945 14.3177 38.9578 14.1689 39.2096 14.1345C40.1023 14.1345 40.4227 14.6953 40.4342 15.5308C40.4342 15.7139 40.4456 16.0001 40.354 16.1374C40.1938 16.2404 40.045 16.332 39.8848 16.435C39.4041 16.744 38.9807 17.2018 38.8319 17.7397C38.7289 18.1059 38.7746 18.5408 38.9349 18.8498C38.9921 18.9528 39.3469 19.342 39.324 19.4221C39.2553 19.651 39.0722 19.9371 38.9463 20.1546C38.3741 21.093 37.5271 21.94 36.417 22.146C36.3025 22.1689 36.1881 22.1803 36.0622 22.1803C35.8905 22.1918 35.7188 22.1689 35.5586 22.1002ZM30.0651 15.7139C30.294 15.2447 30.5229 14.7754 30.7518 14.3177C31.324 13.1846 31.9878 12.063 32.7203 11.0101C33.2811 10.2089 33.7961 9.38489 34.4141 8.64097C35.3183 7.53081 36.1881 6.35199 37.2754 5.33339C37.7332 4.89848 38.1795 4.46357 38.6831 4.13167C38.9692 3.94855 39.118 3.86844 39.4156 3.77688C39.6902 3.75399 39.839 3.8341 39.9649 3.99433C40.5257 4.72681 39.4728 7.09591 39.0722 7.72538C38.7632 8.22895 38.5 8.65242 38.1566 9.07588C36.8176 10.7354 35.1809 12.3377 33.4985 13.6424C32.6287 14.3062 31.7818 14.9815 30.8776 15.588C30.6488 15.7483 29.8476 16.2747 29.8247 16.2747C29.9163 16.0802 29.9849 15.8856 30.0651 15.7139ZM39.0951 2.80406C38.294 3.13596 37.55 3.75399 36.8748 4.2919C35.1123 5.69963 33.407 7.37058 31.9535 9.12166C31.2439 9.96858 30.5229 10.7926 29.8934 11.6853C29.3669 12.4292 28.8405 13.1732 28.3827 13.9629C28.1194 14.4092 27.6731 15.1875 27.4213 15.6338C27.4213 15.6338 27.0093 16.3434 26.5286 17.7626C26.5286 17.7855 26.334 18.2433 26.3226 18.289C26.1395 18.8498 23.4842 19.5022 23.7589 20.2347C24.0107 20.8985 25.5558 19.8684 25.9334 19.8227C25.8991 20.0744 25.8648 20.3377 25.8304 20.5895C25.7732 21.2762 25.819 21.9629 25.9792 22.5809C26.5171 24.744 28.7031 25.4078 30.6144 24.3091C31.3698 23.8856 31.9535 23.1302 32.5257 22.4664V22.455C32.5372 22.4664 32.5486 22.4664 32.5715 22.4664C32.6516 22.6724 32.7317 22.8785 32.8118 23.073C32.9034 23.2561 33.098 23.6224 33.098 23.6224C33.3269 24.0344 33.7274 24.2976 34.1738 24.4807C35.0093 24.847 36.0279 24.7898 36.9091 24.538C38.4199 24.1031 39.633 22.5466 40.251 21.1846C40.3769 20.887 40.5028 20.6009 40.6287 20.3033C40.7088 20.1088 40.789 19.9028 40.8691 19.7082C41.0293 19.651 41.3612 19.5136 41.51 19.4564C41.9334 19.2619 42.6774 18.5752 42.7117 18.5752C43.1695 18.1403 43.4671 17.7168 43.7417 17.1674C44.314 16.2175 44.9778 14.9586 45.1037 14.7297C45.4814 14.867 45.8705 15.0158 46.2482 15.1531C45.9163 15.6109 45.5958 16.0802 45.2754 16.538C44.0736 18.3348 42.2768 21.4364 43.49 23.7368C44.6802 25.9571 48.3426 24.7898 48.5257 22.4664C48.5372 22.249 48.5829 21.9743 48.4113 21.8255C48.4113 21.8255 48.4113 21.8141 48.3998 21.8141C48.2053 21.9514 47.9764 22.1231 47.6788 22.3062C47.4385 22.455 47.2668 22.4779 46.9578 22.5237C46.294 22.5237 46.0078 21.9972 45.9735 21.4021C45.9392 20.5437 46.2024 19.7998 46.4427 19.0673C46.8319 17.8541 47.3812 16.6639 48.0221 15.6338C48.2854 15.2104 48.6974 14.8327 48.8347 14.352C48.892 14.1803 48.8691 13.9857 48.8004 13.8255C48.6287 13.4135 48.0908 13.1732 47.6674 13.3906C47.427 13.5165 47.221 13.7111 46.9578 13.7683C46.6602 13.837 45.8819 13.528 45.8362 13.4936C45.8018 13.3448 45.9277 13.1846 45.9506 13.0587C46.0765 12.475 46.0422 11.6968 45.5043 11.3763C45.2181 11.2046 44.7031 11.1589 44.3941 11.3076C43.696 11.6281 43.5701 12.8527 43.799 13.5623C43.8676 13.7454 44.1194 14.0201 44.0736 14.2146C43.9821 14.6381 43.5815 15.176 43.3412 15.5423C43.1809 15.8169 42.9177 16.1717 42.6545 16.4693C42.3798 16.9385 41.4413 17.465 41.4184 17.465C41.4413 17.259 41.4756 17.053 41.4985 16.847C41.5329 16.4235 41.5558 16.0001 41.5901 15.5766C41.613 14.043 40.8576 13.1732 39.3011 13.1732C35.593 13.9857 33.407 17.7053 33.407 17.7053C33.3383 17.8427 33.1552 18.1288 33.0865 18.2776C32.9148 18.6553 32.7775 19.0558 32.6516 19.4564C32.5143 19.8913 32.4685 20.372 32.4342 20.8527C32.4342 20.99 32.4227 21.1388 32.4227 21.2647C32.354 21.631 31.4613 22.0773 31.1523 22.146C30.8891 22.1918 30.2367 22.3177 30.1795 22.3291C29.7789 22.3291 29.3898 22.352 29.138 22.0544C28.5314 21.3448 28.8977 19.2275 29.0922 18.4035C29.1266 18.2433 29.1609 17.9686 29.2754 17.8541C29.55 17.5909 29.9392 17.4192 30.2596 17.2247C30.9921 16.744 31.7131 16.2633 32.4456 15.7826C34.6545 14.1803 36.9206 12.5208 38.7861 10.3463C39.4613 9.55657 40.1251 8.73253 40.5829 7.82838C41.3498 6.3291 42.7689 2.58661 39.6902 2.58661C39.6674 2.63239 39.3583 2.68961 39.0951 2.80406ZM82.0136 1.70535C81.0636 2.00292 79.5644 2.70106 78.6945 3.19319C77.7446 3.7311 76.8061 4.2919 75.8676 4.88704C74.3226 5.88275 72.8119 7.19891 71.4728 8.53797C68.108 11.9028 65.5558 15.8055 64.892 20.5437C64.8004 21.1846 64.8233 21.8599 64.8233 22.5237C64.8233 24.229 65.3955 26.4264 66.2539 27.6968C66.8719 28.6124 67.5815 29.5852 68.5429 30.2261C69.5157 30.8785 70.5114 31.3019 71.6788 31.588C72.6745 31.8284 73.8076 31.7597 74.8491 31.691C77.0808 31.5537 79.0722 31.0043 81.1209 30.5122C83.181 30.0201 85.3669 29.5966 87.6445 29.5737C89.4299 29.5394 90.5629 29.7683 91.8333 30.7297C91.9935 30.8556 92.6917 31.6453 92.7604 31.6567C92.8977 31.691 93.0465 31.5651 93.1495 31.5194C94.1795 31.073 95.1295 30.6038 96.3083 30.4207C96.7661 30.352 97.2353 30.3291 97.7503 30.3291C97.9335 30.3291 98.231 30.3863 98.3913 30.3291C98.4943 30.3291 97.922 29.8026 97.8305 29.7225C96.5028 28.475 94.8204 27.7197 92.9664 27.4793C92.6802 27.445 92.0622 27.3878 91.7074 27.3992C91.6044 27.3992 90.4943 27.445 90.3798 27.445C90.0479 27.445 87.2096 27.7425 86.5686 27.857C85.1724 28.0859 83.9134 28.4292 82.5744 28.7611C82.0136 28.9099 81.3841 29.0587 80.8233 29.2075C80.1938 29.3448 77.6759 29.9056 75.4442 30.0201C73.1895 30.0201 71.4499 29.5051 70.0994 27.7998C68.8405 26.2089 68.5772 24.5837 68.7375 22.3749C69.0236 18.5981 70.3283 15.6796 72.1938 12.7154C72.892 11.6052 73.7274 10.5065 74.643 9.52223C77.4127 6.58088 80.5028 4.13167 84.0851 2.67817C84.932 2.33482 86.3054 1.89991 87.1638 2.49505C87.4614 2.70106 87.7933 3.20463 87.5529 3.58232C87.4041 3.79977 86.8319 3.85699 86.5801 3.94855C86.3741 4.02867 86.1795 4.17745 86.0079 4.32624C85.1953 5.12738 85.6874 6.61522 86.7861 6.79834C88.0794 7.01579 89.2811 5.9743 89.4871 4.77259C89.5901 4.14312 89.4413 3.43353 89.1895 2.91851C88.8805 2.30048 88.3426 1.8198 87.7589 1.4879C87.3812 1.27044 86.5229 1.07588 85.4242 1.07588C84.4285 1.08732 83.2382 1.24755 82.0136 1.70535ZM28.108 4.96715H28.1309C28.1309 4.82981 28.2797 4.71536 28.3598 4.6238C28.8862 3.98289 29.6301 3.35342 30.3397 2.97574C30.6259 2.81551 31.2095 2.68961 31.427 2.65528C31.736 2.66672 31.9649 2.67817 32.1709 2.81551C32.7889 3.21608 32.0565 4.12023 31.6902 4.42924C31.4499 4.6238 31.1638 4.77259 30.8662 4.87559C30.4656 5.03582 29.9621 5.09305 29.447 5.09305C28.9778 5.10449 28.4971 5.04727 28.108 4.96715ZM13.9964 0.972874C13.2754 1.0301 12.0965 1.45356 11.696 1.67101C9.45275 2.91851 7.51856 5.5394 9.13229 8.12595C9.77321 9.15599 11.1352 9.91136 12.4055 9.65957C12.6917 9.60234 12.9892 9.49934 13.1495 9.22466C12.8977 9.19033 12.0279 8.93854 11.7074 8.56086C11.5128 8.32051 11.4556 8.04584 11.4213 7.71393C11.2382 6.15742 13.3555 5.0816 14.5 4.65814C16.7661 3.82266 20.1309 4.42924 22.3283 5.00149C22.8204 5.11594 23.3011 5.23038 23.7932 5.34483C24.1595 5.42495 24.9606 5.58518 24.9606 5.58518C24.9606 5.58518 24.7661 5.84841 24.7432 5.88275C24.0679 6.64956 23.4384 7.41637 22.8548 8.21751C22.0765 9.29333 21.3898 10.4607 20.8176 11.6395C20.5314 12.2347 20.2568 12.8413 19.9706 13.4364C19.9935 13.4936 19.3755 13.4936 18.952 13.5852C17.7847 13.8484 16.3655 14.7869 16.457 16.1832C16.4685 16.2747 16.4799 16.3663 16.4914 16.4579C16.4914 16.4693 17.1552 16.2747 17.4299 16.1832C18.0593 15.9657 18.9291 16.0229 18.9177 16.0573C18.8605 16.2404 18.7918 16.4235 18.7346 16.6066C18.1166 18.1746 17.5443 19.754 16.8805 21.2991C15.3698 24.7554 13.5043 29.6081 9.24674 30.5008C8.69739 30.6152 7.90769 30.7411 7.28966 30.6381C6.69453 30.5466 6.28251 30.4092 5.81327 30.2146C4.14231 29.5165 3.0207 27.8455 2.74603 26.0945C2.63158 25.362 2.76892 24.5609 2.95203 23.9199C3.21527 23.0043 3.76462 22.0544 4.54288 21.4364C5.3898 20.7726 6.80897 20.2003 7.82757 20.9672C7.97636 21.0816 8.5486 21.5737 8.5486 21.5737C8.5486 21.5737 9.24674 21.2075 9.60153 21.0129C10.6201 20.5322 11.6845 20.2003 12.9435 20.2003C12.9435 20.1775 12.0164 19.2847 11.6731 19.033C10.6659 18.289 9.50998 17.7511 8.36548 17.6023C8.06792 17.568 7.03787 17.568 6.9692 17.5795C5.89338 17.5795 4.81756 17.9571 3.97063 18.4493C-0.218209 20.8413 -0.298323 26.5523 2.89481 29.837C3.69596 30.6724 4.70311 31.3706 5.79038 31.6682C7.30111 32.0802 8.98351 32.0916 10.5629 31.7712C11.5243 31.5766 12.4399 31.3248 13.2868 30.8899C16.7203 29.1274 18.4942 25.774 20.0393 22.5237C20.623 21.2876 21.1151 19.9829 21.6073 18.7011C21.8476 18.0716 22.3168 16.8241 22.3168 16.8241C22.3168 16.8241 22.7289 16.7783 22.8891 16.7898C24.3884 16.8813 25.4299 16.2633 26.0364 15.0959C26.2539 14.6496 26.3455 14.146 26.4027 13.6195C26.3798 13.6195 25.7389 13.9629 25.3612 14.0773C24.8233 14.2833 23.9878 14.2948 23.7475 14.2948C23.5987 14.2833 23.3011 14.249 23.3011 14.2375C23.2324 14.2375 23.427 13.8255 23.4499 13.734C23.9306 12.4064 24.4685 11.0787 25.1209 9.8198C25.6817 8.73253 26.2081 7.64526 26.8834 6.60378C26.9978 6.4321 27.3297 5.98575 27.3297 5.98575C27.3297 5.98575 28.52 6.02008 28.7718 6.03153C29.241 6.05442 29.6874 6.02008 30.1223 5.98575C31.4499 5.88275 33.1209 4.78403 33.3269 3.38775C33.3498 3.18174 33.3726 2.97574 33.304 2.78117C33.1437 2.24326 32.6287 1.98003 32.1137 1.87702C30.5343 1.56801 28.4628 2.62094 27.4327 3.47931C27.2382 3.63954 26.0136 4.53224 25.9678 4.53224C25.6473 4.44069 25.3269 4.33768 25.0064 4.23468C23.9077 3.82266 22.8662 3.35342 21.8133 2.87273C20.2911 2.18604 18.6545 1.33911 16.9263 1.08732C16.6287 1.06443 16.0565 0.915649 15.0837 0.915649C14.7632 0.915649 14.4084 0.927094 13.9964 0.972874Z" fill="black"/>
<path d="M99.9135 27.2961C99.0666 27.3076 98.3914 27.9943 98.3914 28.8412C98.3914 29.6996 99.0895 30.3863 99.9364 30.3748C100.795 30.3634 101.459 29.6881 101.459 28.8183C101.447 27.9828 100.772 27.2961 99.9135 27.2961ZM99.9135 27.6052C100.566 27.6052 101.092 28.1545 101.092 28.8298C101.104 29.5165 100.577 30.0658 99.925 30.0658C99.2841 30.0658 98.7576 29.5394 98.7461 28.8527C98.7461 28.166 99.2612 27.6166 99.9135 27.6052ZM99.6617 29.0358H99.822C100.005 29.0358 100.12 29.1044 100.142 29.2876C100.177 29.5165 100.2 29.6767 100.245 29.7225H100.623C100.6 29.6653 100.566 29.5737 100.532 29.299C100.497 29.0472 100.406 28.9099 100.257 28.887V28.8755C100.44 28.8298 100.589 28.681 100.577 28.475C100.577 28.3033 100.52 28.1889 100.429 28.1087C100.314 28.0172 100.142 27.9714 99.8449 27.9714C99.5816 27.9714 99.4328 27.9943 99.2955 28.0172L99.3184 29.7225L99.6732 29.711L99.6617 29.0358ZM99.6503 28.2575C99.6961 28.2461 99.7647 28.2461 99.8449 28.2461C100.097 28.2461 100.2 28.3605 100.2 28.4979C100.2 28.6695 100.039 28.7382 99.822 28.7382H99.6503V28.2575Z" fill="black"/>
<path d="M57.3727 0C55.8391 0 54.6374 1.16738 54.6374 2.79256C54.6374 4.42918 55.6331 5.6309 57.2468 5.6309C58.9063 5.6309 60.0623 4.5093 60.0623 2.75823C60.0623 1.14449 58.8949 0 57.3727 0ZM57.5558 5.39056C56.0794 5.39056 55.1753 3.99428 55.1753 2.56366C55.1753 1.33906 55.8963 0.251788 57.1438 0.251788C58.5973 0.251788 59.5129 1.62518 59.5129 3.04435C59.5244 4.48641 58.6431 5.39056 57.5558 5.39056ZM57.1782 6.3176C56.9149 6.3176 56.9607 6.51216 56.9721 6.63805C57.0065 6.93562 56.9607 7.01574 56.686 7.01574C55.8963 7.01574 55.244 6.22604 54.6145 5.34478C54.6145 5.34478 52.9321 2.90701 52.8291 2.75823C53.3555 2.54077 53.7676 2.02575 53.7676 1.41917C53.7676 -0.0801145 52.1195 0.0457797 52.005 0.0457797C51.6388 0.0457797 51.5816 0.0457797 51.1467 0.0457797C49.6245 0.0457797 47.6102 0.446352 47.7361 1.65951C47.7933 2.22031 48.1252 2.4721 48.5258 2.4721C48.789 2.4721 49.0065 2.31187 48.9721 2.01431C48.9493 1.8083 48.789 1.69385 48.6631 1.69385C48.4342 1.69385 48.5372 1.85408 48.5487 1.96853C48.5716 2.15165 48.4457 2.17454 48.3541 2.17454C48.2168 2.17454 48.0451 2.00286 48.0222 1.79685C47.9307 0.927039 49.0408 0.343348 50.46 0.343348C50.6202 0.343348 50.7804 0.400572 50.7804 0.858369V4.80687C50.7804 5.39056 50.2425 5.28755 50.2425 5.48212C50.2425 5.5279 50.2769 5.56223 50.3226 5.56223C50.6088 5.56223 50.8834 5.53934 51.1696 5.53934C51.7876 5.53934 51.9593 5.56223 52.0279 5.56223C52.0852 5.56223 52.1538 5.57368 52.1538 5.50501C52.1538 5.24177 51.3756 5.48212 51.3756 4.81831V3.17024C51.3756 3.09013 51.3298 2.95279 51.5701 2.95279C52.4056 2.95279 52.2912 2.9299 52.5658 3.36481L54.0194 5.45923C54.8548 6.74106 55.5186 7.29041 56.5029 7.29041C56.8348 7.29041 57.4872 7.1073 57.4414 6.56939C57.4071 6.43205 57.2697 6.3176 57.1782 6.3176ZM52.1767 2.68956C51.8219 2.68956 51.3641 2.72389 51.3641 2.58655V0.618026C51.3641 0.320458 51.5244 0.331903 51.7876 0.331903C52.5201 0.331903 53.2068 0.65236 53.2068 1.59084C53.2182 2.55222 52.4972 2.68956 52.1767 2.68956ZM65.7161 5.45923C65.7161 5.50501 65.7046 5.56223 65.6359 5.56223C65.4528 5.56223 65.2468 5.53934 64.8806 5.53934C64.6173 5.53934 64.2397 5.56223 64.1824 5.56223C64.0909 5.56223 64.0794 5.51645 64.0794 5.48212C64.0794 5.299 64.3656 5.39056 64.5601 5.16166L61.5158 1.63662C61.5043 1.62518 61.4128 1.48784 61.3555 1.48784C61.3212 1.48784 61.2983 1.51073 61.2983 1.67096V4.8412C61.2983 5.53934 61.9507 5.26466 61.9507 5.48212C61.9507 5.51645 61.9392 5.58512 61.8706 5.58512C61.6874 5.58512 61.4814 5.56223 61.1152 5.56223C60.852 5.56223 60.4743 5.58512 60.4171 5.58512C60.3255 5.58512 60.3141 5.53934 60.3141 5.49356C60.3141 5.21888 60.9664 5.56223 60.9664 4.47496V1.60229C60.9664 -0.011445 60.0623 0.434907 60.0623 0.148784C60.0623 0.103004 60.1424 0.0686695 60.1767 0.0686695C60.2912 0.0686695 60.4056 0.0915594 60.5315 0.0915594C60.646 0.0915594 60.7604 0.0686695 60.8749 0.0686695C60.955 0.0686695 61.0236 0.194564 61.0694 0.251788L64.6173 4.37196C64.6631 4.42918 64.686 4.45207 64.7089 4.45207C64.7204 4.45207 64.7204 4.44063 64.7204 4.42918V1.60229H64.7318V1.13305C64.7318 0.114449 63.9078 0.412017 63.9078 0.160229C63.9078 0.103004 63.9421 0.0801144 63.9879 0.0801144C64.2168 0.0801144 64.4228 0.103004 64.6631 0.103004C64.9149 0.103004 65.2354 0.0801144 65.4185 0.0801144C65.4643 0.0801144 65.4986 0.103004 65.4986 0.148784C65.4986 0.354793 65.0637 0.206009 65.0637 0.778255V4.88698C65.1095 5.49356 65.7161 5.25322 65.7161 5.45923Z" fill="black"/>
</g>
<defs>
<clipPath id="clip0_229_9870">
<rect width="104.275" height="32" fill="white" transform="translate(0.663086)"/>
</clipPath>
</defs>
</svg>
