<svg width="124" height="22" viewBox="0 0 124 22" fill="none" xmlns="http://www.w3.org/2000/svg">
<g clip-path="url(#clip0_229_6531)">
<path d="M31.3439 17.073C30.5418 17.875 29.5106 18.6198 28.5366 18.9636C27.5627 19.25 24.87 19.4792 24.0679 17.2448C23.896 16.7865 24.0106 16.6146 24.4689 16.5C25.0991 16.3282 26.8179 15.8125 28.5939 15.125C30.1981 14.5521 31.6304 13.8073 32.0887 13.4636C32.8908 12.948 33.0054 12.2032 32.6616 11.4011C31.5158 8.88026 28.995 6.18755 24.6981 6.98963C21.3179 7.61984 18.9116 10.6563 18.9116 14.1511C18.9116 18.448 21.4897 20.9688 24.8127 21.7709C27.8491 22.5157 31.4585 21.0261 33.0054 18.5053C33.6356 17.6459 31.9168 16.5 31.3439 17.073ZM23.7241 13.6928C23.3804 12.7761 23.6668 9.9688 25.2137 9.45318C26.8179 8.88026 27.8491 9.73963 28.3075 11.3438C28.4793 11.974 28.422 12.6042 28.2502 12.8334C27.9637 13.1771 27.4481 13.4063 26.9897 13.5209L25.7866 13.9219C24.5262 14.3803 23.9533 14.4376 23.7241 13.6928Z" fill="#007220"/>
<path d="M70.9325 17.073C70.1305 17.875 69.0992 18.6198 68.1252 18.9636C67.1513 19.25 64.4586 19.4792 63.6565 17.2448C63.4846 16.7865 63.5992 16.6146 64.0575 16.5C64.6877 16.3282 66.4065 15.8125 68.1825 15.125C69.7867 14.5521 71.219 13.8073 71.6773 13.4636C72.4794 12.948 72.594 12.2032 72.2502 11.4011C71.1044 8.88026 68.5836 6.18755 64.2867 6.98963C60.9065 7.61984 58.5002 10.6563 58.5002 14.1511C58.5002 18.448 61.0784 20.9688 64.4013 21.7709C67.4377 22.5157 71.0471 21.0261 72.594 18.5053C73.2242 17.6459 71.5055 16.5 70.9325 17.073ZM63.2555 13.6928C63.0836 13.1198 63.0836 11.9167 63.4273 10.9428C63.6565 10.2553 64.0575 9.73963 64.6877 9.45318C65.4325 9.16672 66.0627 9.22401 66.5784 9.51047C67.1513 9.85422 67.5523 10.4844 67.7815 11.3438C67.9534 11.974 67.8961 12.6042 67.7242 12.8334C67.4377 13.1771 66.9794 13.349 66.4638 13.5209C65.9482 13.6928 65.4898 13.8646 65.2607 13.9219C64.1148 14.323 63.5419 14.4376 63.2555 13.6928Z" fill="#007220"/>
<path d="M101.125 17.073C100.323 17.875 99.2918 18.6198 98.3179 18.9636C97.3439 19.25 94.6512 19.4792 93.8491 17.2448C93.6772 16.7865 93.7918 16.6146 94.2502 16.5C94.8804 16.3282 96.5991 15.8125 98.3752 15.125C99.9793 14.5521 101.412 13.8073 101.87 13.4636C102.672 12.948 102.787 12.2032 102.443 11.4011C101.297 8.88026 98.7762 6.18755 94.4793 6.98963C91.0991 7.61984 88.6929 10.6563 88.6929 14.1511C88.6929 18.448 91.271 20.9688 94.5939 21.7709C97.6304 22.5157 101.24 21.0261 102.787 18.5053C103.36 17.6459 101.641 16.5 101.125 17.073ZM93.4481 13.6928C93.2762 13.1198 93.2762 11.9167 93.62 10.9428C93.8491 10.2553 94.2502 9.73963 94.8804 9.45318C95.6252 9.16672 96.2554 9.22401 96.771 9.51047C97.3439 9.85422 97.7449 10.4844 97.9741 11.3438C98.146 11.974 98.0887 12.6042 97.9168 12.8334C97.6304 13.1771 97.172 13.349 96.6564 13.5209C96.1408 13.6928 95.6825 13.8646 95.4533 13.9219C94.3075 14.323 93.7345 14.4376 93.4481 13.6928Z" fill="#007220"/>
<path d="M12.094 17.875C12.094 18.448 11.9221 19.0782 11.4638 19.3073L10.4898 19.7657C10.318 19.823 10.2607 19.9948 10.2607 20.1667C10.2607 20.224 10.2607 20.224 10.2607 20.3386L10.3752 21.4271C10.4325 21.7136 10.6044 21.7709 11.0055 21.7709H17.995C18.3961 21.7709 18.568 21.7136 18.6252 21.4271L18.7398 20.3386C18.7398 20.2813 18.7398 20.224 18.7398 20.1667C18.7398 19.9948 18.6825 19.823 18.5107 19.7657L17.5367 19.3073C17.0784 19.1355 16.9065 18.448 16.9065 17.875V5.7865C16.9065 5.21358 17.0784 4.58337 17.5367 4.35421L18.5107 3.89587C18.6825 3.83858 18.7398 3.66671 18.7398 3.49483C18.7398 3.43754 18.7398 3.43754 18.7398 3.32296L18.6252 2.52087C18.568 2.23442 18.3961 2.17712 17.995 2.17712H11.4065C11.0055 2.17712 10.8336 2.23442 10.7763 2.52087L10.6044 3.43754C10.6044 3.49483 10.6044 3.55212 10.6044 3.60942C10.6044 3.78129 10.6617 3.95317 10.8336 4.01046L11.6357 4.4115C12.094 4.64067 12.094 5.27087 12.094 5.84379V9.16671C12.094 9.39587 11.9221 9.56775 11.693 9.56775H7.9117C7.68254 9.56775 7.51066 9.39587 7.51066 9.16671V5.7865C7.51066 5.21358 7.56795 4.64067 7.96899 4.35421L8.77108 3.89587C8.94295 3.83858 9.00024 3.66671 9.00024 3.49483C9.00024 3.43754 9.00024 3.43754 9.00024 3.32296L8.88566 2.52087C8.77108 2.29171 8.5992 2.23442 8.19816 2.23442H1.55233C1.15129 2.23442 0.979411 2.29171 0.922119 2.57817L0.750244 3.43754C0.750244 3.49483 0.750244 3.55212 0.750244 3.60942C0.750244 3.78129 0.807536 3.95317 0.979411 4.01046L1.95337 4.46879C2.35441 4.58337 2.58358 5.21358 2.58358 5.7865V17.875C2.58358 18.448 2.4117 19.0782 1.95337 19.3073L0.979411 19.7657C0.807536 19.823 0.750244 19.9375 0.750244 20.1667C0.750244 20.224 0.750244 20.224 0.750244 20.3386L0.864827 21.4271C0.922119 21.7136 1.09399 21.7709 1.49504 21.7709H8.48462C8.88566 21.7709 9.05754 21.7136 9.11483 21.4271L9.22941 20.3386C9.22941 20.2813 9.22941 20.224 9.22941 20.1667C9.22941 19.9948 9.17212 19.823 9.00024 19.7657L8.02629 19.3073C7.56795 19.1355 7.39608 18.448 7.39608 17.875V12.948C7.39608 12.7188 7.56795 12.5469 7.79712 12.5469H11.5784C11.8075 12.5469 11.9794 12.7188 11.9794 12.948V17.875H12.094Z" fill="#007220"/>
<path d="M39.5939 4.29688C39.5939 5.61458 38.4481 6.70312 37.0731 6.70312C35.6981 6.70312 34.5522 5.61458 34.5522 4.29688C34.5522 2.97917 35.6981 1.89062 37.0731 1.89062C38.5054 1.89062 39.5939 2.97917 39.5939 4.29688Z" fill="#007220"/>
<path d="M34.3232 21.7135C33.9221 21.7135 33.7502 21.6562 33.693 21.3698L33.5784 20.2812C33.5784 20.224 33.5784 20.1667 33.5784 20.1667C33.5784 19.9948 33.6357 19.8802 33.8075 19.7656L34.5523 19.3646C34.9534 19.1354 35.1252 18.5625 35.1252 17.9896V11.1146C35.1252 10.5417 35.0107 9.79688 34.495 9.56771L34.0367 9.28125C33.8648 9.22396 33.8075 9.05208 33.8075 8.88021C33.8075 8.82292 33.8075 8.82292 33.8075 8.70833L33.9221 7.90625C33.9794 7.61979 34.1513 7.5625 34.5523 7.5625H39.2502C39.4794 7.5625 39.6513 7.73437 39.6513 7.96354V17.9896C39.6513 18.5625 39.8232 19.1354 40.2242 19.3646L40.969 19.7656C41.1409 19.8229 41.1982 19.9375 41.1982 20.1667C41.1982 20.224 41.1982 20.224 41.1982 20.2812L41.0836 21.3698C41.0263 21.6562 40.8544 21.7135 40.4534 21.7135H34.3232Z" fill="#007220"/>
<path d="M48.5889 8.3073C48.5889 8.3073 48.8753 8.19272 49.3337 7.96355C50.2503 7.50522 52.141 6.70314 53.6305 7.21876C54.9482 7.6198 56.0941 8.59376 56.0941 11.1146C56.0941 13.9792 56.0941 17.6458 56.0941 18.7344C56.0941 19.0781 56.0941 19.1927 56.266 19.25C56.4951 19.3646 56.8389 19.0208 57.1826 18.849C57.5264 18.6771 57.6982 18.9063 57.9274 19.1354C58.0993 19.3646 58.3285 19.6511 58.1566 19.9948C57.5837 21.1979 56.3232 21.8854 54.8337 21.8854C53.4587 21.8854 51.6826 21.0833 51.6826 18.9636C51.6826 16.8438 51.6826 12.5469 51.6826 11.6302C51.6826 10.4844 50.8805 10.1406 50.2503 10.1979C49.2764 10.3125 48.5889 11.1146 48.5889 12.5469V18.0469C48.5889 18.6198 48.7607 19.1927 49.2191 19.4219L49.9639 19.8229C50.1357 19.8802 50.193 19.9948 50.193 20.224C50.193 20.2813 50.193 20.2813 50.193 20.3386L50.0212 21.3698C49.9639 21.6563 49.792 21.7136 49.391 21.7136H43.1462C42.7451 21.7136 42.5732 21.6563 42.516 21.3698L42.4014 20.2813C42.4014 20.224 42.4014 20.1667 42.4014 20.1667C42.4014 19.9948 42.4587 19.8802 42.6305 19.7656L43.3753 19.3646C43.7764 19.1354 43.9482 18.5625 43.9482 17.9896V11.1146C43.9482 10.5417 43.8337 9.79689 43.318 9.56772L42.8597 9.28126C42.6878 9.22397 42.6305 9.05209 42.6305 8.88022C42.6305 8.82293 42.6305 8.82293 42.6305 8.70834L42.7451 7.90626C42.8024 7.6198 42.9743 7.56251 43.3753 7.56251H47.8441C48.1878 7.56251 48.3024 7.73439 48.417 7.96355L48.5889 8.3073Z" fill="#007220"/>
<path d="M109.547 8.3073C109.547 8.3073 109.834 8.19272 110.292 7.96355C111.209 7.50522 113.099 6.70314 114.589 7.21876C115.907 7.6198 117.052 8.59376 117.052 11.1146C117.052 13.9792 117.052 17.6458 117.052 18.7344C117.052 19.0781 117.052 19.1927 117.224 19.25C117.453 19.3646 117.797 19.0208 118.141 18.849C118.485 18.6771 118.657 18.9063 118.886 19.1354C119.058 19.3646 119.287 19.6511 119.115 19.9948C118.542 21.1979 117.282 21.8854 115.792 21.8854C114.417 21.8854 112.641 21.0833 112.641 18.9636C112.641 16.8438 112.641 12.5469 112.641 11.6302C112.641 10.4844 111.839 10.1406 111.209 10.1979C110.235 10.3125 109.547 11.1146 109.547 12.5469V18.0469C109.547 18.6198 109.719 19.1927 110.177 19.4219L110.922 19.8229C111.094 19.8802 111.151 19.9948 111.151 20.224C111.151 20.2813 111.151 20.2813 111.151 20.3386L111.037 21.4271C110.979 21.7136 110.808 21.7708 110.407 21.7708H104.162C103.761 21.7708 103.589 21.7136 103.532 21.4271L103.417 20.3386C103.417 20.2813 103.417 20.224 103.417 20.224C103.417 20.0521 103.474 19.9375 103.646 19.8229L104.391 19.4219C104.792 19.1927 104.964 18.6198 104.964 18.0469V11.1146C104.964 10.5417 104.849 9.79689 104.334 9.56772L103.875 9.28126C103.703 9.22397 103.646 9.05209 103.646 8.88022C103.646 8.82293 103.646 8.82293 103.646 8.70834L103.761 7.90626C103.818 7.6198 103.99 7.56251 104.391 7.56251H108.86C109.203 7.56251 109.318 7.73439 109.433 7.96355L109.547 8.3073Z" fill="#007220"/>
<path d="M86.9742 18.2187C87.318 18.7344 87.719 19.1927 88.12 19.3646L88.8648 19.7656C89.0367 19.8229 89.094 19.9375 89.094 20.1667C89.094 20.224 89.094 20.224 89.094 20.2812L88.9794 21.3698C88.9221 21.6562 88.7502 21.7135 88.3492 21.7135H84.568C83.9377 21.7135 83.8805 21.5417 83.594 21.026L80.3857 15.2396L79.1825 16.3854V17.9896C79.1825 18.5625 79.469 19.1354 79.87 19.3646L80.6148 19.7656C80.7867 19.8229 80.844 19.9375 80.844 20.1667C80.844 20.224 80.844 20.224 80.844 20.2812L80.7294 21.3698C80.6721 21.6562 80.5002 21.7135 80.0992 21.7135H73.8544C73.4534 21.7135 73.2815 21.6562 73.2242 21.3698L73.1096 20.2812C73.1096 20.224 73.1096 20.1667 73.1096 20.1667C73.1096 19.9948 73.1669 19.8802 73.3388 19.7656L74.0836 19.3646C74.4846 19.1354 74.6565 18.5625 74.6565 17.9896V5.67187C74.6565 5.09896 74.4846 4.52604 74.0836 4.29687L73.3388 3.89583C73.1669 3.83854 73.1096 3.72396 73.1096 3.49479C73.1096 3.4375 73.1096 3.4375 73.1096 3.38021L73.2242 2.57812C73.2815 2.29167 73.4534 2.23438 73.8544 2.23438H78.3805C78.8388 2.23438 79.1825 2.57813 79.1825 3.03646V12.4323L81.1877 10.599C81.4742 10.3698 81.9325 9.91146 82.1044 9.73958C82.2763 9.56771 82.3336 9.28125 82.0471 9.16667L81.3596 8.82292C81.1877 8.76562 81.1305 8.65104 81.1305 8.47917C81.1305 8.42187 81.1305 8.42188 81.1305 8.36458L81.245 7.39062C81.3023 7.10417 81.4742 7.10417 81.818 7.10417H87.2607C87.6044 7.10417 87.8336 7.16146 87.8336 7.39062L87.9482 8.36458C87.9482 8.42188 87.9482 8.47917 87.9482 8.47917C87.9482 8.70833 87.719 8.82292 87.5471 8.88021C87.5471 8.88021 87.1461 8.99479 86.8023 9.16667C86.4586 9.33854 86.0575 9.68229 85.5992 10.0833L83.5367 12.0885L86.9742 18.2187Z" fill="#007220"/>
<path d="M116.136 3.72396C116.136 5.78646 117.797 7.44792 119.86 7.44792C121.922 7.44792 123.584 5.78646 123.584 3.72396C123.584 1.66146 121.922 0 119.86 0C117.797 0 116.136 1.66146 116.136 3.72396ZM119.86 6.70312C118.256 6.70312 116.938 5.38542 116.938 3.78125C116.938 2.17708 118.256 0.859375 119.86 0.859375C121.464 0.859375 122.782 2.17708 122.782 3.78125C122.839 5.38542 121.521 6.70312 119.86 6.70312Z" fill="#007220"/>
<path d="M118.313 5.55733H119.229V4.01046C119.229 4.01046 119.287 4.01046 119.573 4.01046C120.031 4.01046 120.261 4.12504 120.433 4.52608C120.547 4.81254 120.547 5.099 120.776 5.55733C121.177 5.55733 121.292 5.55733 121.75 5.55733C121.636 5.32817 121.521 4.98442 121.406 4.58337C121.349 4.12504 121.177 3.89587 120.834 3.66671C121.12 3.55212 121.464 3.20837 121.464 2.63546C121.464 1.77608 120.547 1.48962 120.261 1.48962C119.917 1.48962 118.313 1.48962 118.313 1.48962V5.55733ZM120.031 3.20837C119.745 3.20837 119.287 3.20837 119.287 3.20837V2.29171C119.287 2.29171 119.63 2.29171 119.917 2.29171C120.203 2.29171 120.547 2.40629 120.547 2.75004C120.547 2.97921 120.318 3.20837 120.031 3.20837Z" fill="#007220"/>
</g>
<defs>
<clipPath id="clip0_229_6531">
<rect width="122.891" height="22" fill="white" transform="translate(0.750244)"/>
</clipPath>
</defs>
</svg>
