<svg width="143" height="30" viewBox="0 0 143 30" fill="none" xmlns="http://www.w3.org/2000/svg">
<g clip-path="url(#clip0_229_9990)">
<path fill-rule="evenodd" clip-rule="evenodd" d="M21.4863 3.72727L20.9409 3.54545L21.85 0.272727L23.85 1L21.4863 3.72727ZM27.3954 0.909091L25.3954 0.181818L24.4863 3.45455L25.1227 3.63636L27.3954 0.909091ZM27.0318 22L28.3045 22.3636L26.3045 25.5455L22.6681 24.5455C22.6681 24.5455 22.9409 22.2727 22.9409 22C22.9409 21.7273 22.85 21.1818 22.85 21.1818L22.0318 22.4545L20.3045 25.5455L15.6681 24.5455L15.9409 23.3636C15.9409 23.3636 15.9409 13.9091 15.9409 13.2727C15.9409 12.7273 15.5772 11.8182 15.5772 11.8182L18.3954 10.7273C18.3954 10.7273 18.3954 10.7273 18.0318 10.4545C17.1227 9.90909 16.4863 9.27273 16.2136 9C16.0318 8.72727 15.6681 8.09091 15.6681 8.09091L18.9409 6.45455L20.85 4.27273L27.4863 6.72727C27.4863 6.72727 27.3045 7.09091 27.1227 7.27273C26.9409 7.54545 26.85 8.09091 26.85 8.09091V21.7273L27.0318 22ZM22.85 19.2727V10.3636L19.6681 11.9091V21.4545L21.3045 22L22.85 19.2727ZM24.1227 9.18182L19.6681 7.81818C19.6681 7.81818 19.7591 8.18182 19.85 8.36364C20.1227 8.90909 20.4863 9.09091 21.0318 9.36364C21.4863 9.54545 21.85 9.54545 22.3954 9.54545C23.1227 9.54545 24.1227 9.18182 24.1227 9.18182ZM34.2136 4.27273L41.3954 6.72727C41.3954 6.72727 40.9409 7.27273 40.85 7.90909C40.7591 8.63636 40.7591 15.3636 40.7591 15.3636V26.7273L38.3045 27.4545L36.1227 29.7273C36.1227 29.7273 33.7591 28.5455 32.3954 28.5455C31.0318 28.5455 30.85 28.5455 30.4863 28.9091C30.1227 29.1818 29.6681 30.0909 29.6681 30.0909L28.7591 29.7273C28.7591 29.7273 29.5772 28.1818 30.3954 27.2727C31.2136 26.4545 31.9409 25.8182 32.5772 25.6364C33.2136 25.4545 33.5772 25.3636 33.5772 25.3636L33.4863 25.1818L29.3954 24.0909C29.3954 24.0909 29.7591 23 29.7591 22.0909C29.7591 21.1818 29.7591 15.0909 29.7591 15.0909V9.27273L29.3045 7.81818L32.3045 6.45455L34.2136 4.27273ZM37.0318 20.0909L34.0318 25.2727L37.0318 26V20.0909ZM37.5772 9.27273L33.5772 7.90909V21.5455L34.9409 21.9091L37.0318 18V11.6364C37.0318 11 36.6681 10.1818 36.6681 10.1818L37.5772 9.27273ZM51.9409 21L53.1227 21.3636L50.6681 25.6364L43.3954 23.8182L43.7591 21.9091C43.7591 21.9091 43.7591 12.3636 43.7591 10.5455C43.7591 8.72727 43.3954 7.63636 43.3954 7.63636L45.9409 6.90909L48.3045 4.18182L53.0318 9.18182L52.4863 10L47.5772 18.8182L47.6681 21.1818L51.4863 22.1818L51.9409 21ZM47.5772 17.0909L50.3045 12L47.4863 8.81818L47.5772 17.0909ZM62.1227 4.27273H61.2136L58.3954 9.27273V6.54545L58.6681 5.45455L55.3045 4.27273C55.3045 4.27273 54.6681 5.18182 54.2136 5.90909C53.7591 6.63636 53.1227 7.36364 53.1227 7.36364L54.7591 7.90909C54.7591 7.90909 54.7591 17.8182 54.7591 20.7273C54.7591 23.6364 54.3045 24 54.3045 24L59.85 25.4545L62.4863 21.1818L61.1227 20.9091L60.85 22.1818L58.3954 21.4545V11.2727C58.3954 11.2727 59.4863 9.45455 59.5772 9.27273C59.6681 9.09091 59.9409 8.72727 59.9409 8.72727C59.9409 8.72727 60.3954 10.1818 60.7591 11.1818C61.0318 12.1818 61.3045 12.9091 61.3045 13.4545C61.3045 14 60.4863 14.9091 60.4863 14.9091L61.3045 15.7273C61.3045 15.7273 61.5772 15.3636 62.2136 14.8182C62.7591 14.2727 63.2136 13.3636 63.5772 12.4545C63.9409 11.5455 63.6681 9.72727 63.6681 9.72727L62.1227 4.27273ZM85.2136 8.36364C85.2136 7.45455 85.9409 6 85.9409 6L81.0318 4.27273L77.7591 10.3636C77.7591 10.3636 77.6681 9.45455 77.6681 8.27273C77.6681 7.09091 78.1227 6 78.1227 6L73.2136 4.27273L69.9409 10C69.9409 10 69.9409 8.54545 69.9409 7.63636C69.9409 6.81818 70.3954 5.72727 70.3954 5.72727L66.6681 4.27273L64.4863 7.27273L66.1227 8.09091C66.1227 8.09091 66.2136 20.2727 66.1227 21.9091C66.1227 23.5455 65.5772 24.5455 65.5772 24.5455L69.4863 25.5455L71.1227 22.4545L69.9409 22.0909V11.8182L72.2136 7.90909L73.9409 8.63636V10.1818C73.9409 10.1818 73.9409 19.1818 73.9409 21.5455C73.9409 23.9091 73.4863 24.5455 73.4863 24.5455L77.3954 25.5455L79.1227 22.3636L77.7591 22L77.6681 12.0909L80.1227 7.90909L81.3954 8.36364C81.3954 8.36364 81.3954 19.0909 81.3954 21.2727C81.3954 23.4545 80.85 24.2727 80.85 24.2727L85.1227 25.4545L86.7591 22.2727L85.2136 21.8182C85.2136 21.9091 85.1227 10.1818 85.2136 8.36364ZM96.5772 20.9091L97.759 21.2727L95.3045 25.5455L88.0318 23.7273L88.3954 21.8182C88.3954 21.8182 88.3954 12.2727 88.3954 10.4545C88.3954 8.63636 88.0318 7.54545 88.0318 7.54545L90.5772 6.81818L92.9409 4.09091L97.6681 9.09091L97.1227 9.81818L92.2136 18.6364L92.3045 21L96.1227 22L96.5772 20.9091ZM92.3045 17L95.0318 11.9091L92.2136 8.72727L92.3045 17ZM103.759 7.27273L104.395 5.81818L100.395 4.18182L98.3954 7.54545L100.123 8.18182C100.123 8.18182 100.123 16.3636 100.123 20C100.123 23.6364 99.4863 24.3636 99.4863 24.3636L103.759 25.4545L105.668 22.2727C105.668 22.2727 103.941 21.7273 103.85 21.7273C103.668 21.8182 103.759 7.27273 103.759 7.27273ZM104.668 0.818182L102.668 0L101.759 3.45455L102.305 3.63636L104.668 0.818182ZM116.577 1.27273L115.85 0.818182C115.85 0.818182 115.85 0.909091 115.214 1.45455C114.577 2 113.668 1.45455 113.668 1.45455L111.577 0L109.395 2.27273L106.486 3.09091L106.941 4.72727L107.032 29.8182H108.486C108.486 29.8182 108.486 29.2727 108.668 28.8182C108.85 28.3636 109.214 28.1818 109.759 27.9091C110.214 27.6364 110.85 27.7273 110.85 27.7273V11.8182L110.941 3.90909C110.941 3.90909 111.759 4.27273 112.486 4.45455C113.214 4.72727 114.668 4 114.668 4L116.577 1.27273ZM118.395 0.727273L115.759 4.54545L113.214 7.18182H114.577C114.577 7.18182 114.577 18.8182 114.577 21C114.577 23.1818 113.941 24.2727 113.941 24.2727L118.214 25.4545L120.123 22.2727L118.305 21.7273L118.395 7.09091H120.577L122.123 4.09091H118.395V0.727273ZM139.759 15.4545C139.759 15.4545 140.032 15.1818 140.668 14.5455C141.214 14 141.668 13.0909 142.032 12.1818C142.214 11.8182 142.214 11.2727 142.214 10.8182C142.214 10.0909 142.123 9.54545 142.123 9.54545L140.668 4.09091H139.759L136.941 9.09091V6.36364L137.305 5.27273L133.941 4.09091C133.941 4.09091 133.305 5 132.85 5.72727C132.395 6.45455 131.759 7.18182 131.759 7.18182L133.395 7.72727C133.395 7.72727 133.395 17.6364 133.395 20.5455C133.395 23.4545 132.941 23.8182 132.941 23.8182L138.486 25.2727L141.123 21L139.759 20.5455L139.486 21.8182L137.032 21.0909V11C137.032 11 138.123 9.18182 138.214 9C138.305 8.81818 138.577 8.45455 138.577 8.45455C138.577 8.45455 139.032 9.90909 139.395 10.9091C139.668 11.9091 139.941 12.6364 139.941 13.1818C139.941 13.7273 139.123 14.6364 139.123 14.6364L139.759 15.4545ZM130.759 20.7273L131.941 21.0909L129.486 25.3636L122.214 23.5455L122.577 21.6364C122.577 21.6364 122.577 12.0909 122.577 10.2727C122.577 8.45455 122.214 7.36364 122.214 7.36364L124.759 6.63636L127.123 3.90909L131.85 8.90909L131.305 9.63636L126.395 18.4545L126.486 20.8182L130.305 21.8182L130.759 20.7273ZM126.395 16.9091L129.123 11.8182L126.395 8.63636V16.9091ZM14.3045 1H2.84996V0.272727H1.57724V8.27273L2.94087 4.45455L3.2136 4.36364C3.2136 4.36364 6.48633 4.36364 6.66815 4.36364C6.84996 4.36364 7.39542 4.27273 7.75906 4.27273C8.12269 4.18182 10.3954 3.72727 10.3954 3.72727L10.4863 3.81818C10.4863 3.81818 10.3954 3.90909 9.48633 4.54545C8.57724 5.18182 8.30451 5.27273 8.30451 5.27273L8.48633 6.18182V9.45455H5.57724V8.72727H3.94087V15.6364L4.94087 12.3636L5.2136 11.9091H8.39542V18.8182C8.39542 18.8182 8.48633 25 8.48633 25.3636C8.48633 25.7273 8.30451 25.3636 8.30451 25.3636C8.30451 25.3636 2.94087 18.9091 2.66815 18.3636C2.30451 17.8182 2.48633 17.6364 2.48633 17.6364L2.66815 16.9091H1.94087C1.94087 17 1.84996 17 1.75906 17.0909C1.48633 17.5455 0.849964 18.1818 0.577237 20.0909C0.486328 20.4545 0.486328 20.8182 0.486328 21.0909C0.486328 22.8182 1.39542 23.6364 1.39542 23.6364L6.39542 30L9.94087 27.2727L13.0318 26.1818C12.7591 25.4545 12.85 23.3636 12.85 23.3636V10.2727C12.85 10.0909 12.85 7.36364 12.85 5.45455C12.85 3.45455 12.9409 3.54545 13.2136 2.90909C13.4863 2.27273 14.3954 2 14.3954 2V0.909091L14.3045 1Z" fill="#DD5A12"/>
</g>
<defs>
<clipPath id="clip0_229_9990">
<rect width="141.818" height="30" fill="white" transform="translate(0.486328)"/>
</clipPath>
</defs>
</svg>
