<svg width="57" height="34" viewBox="0 0 57 34" fill="none" xmlns="http://www.w3.org/2000/svg">
<g clip-path="url(#clip0_229_9888)">
<path d="M13.3561 8.36914C13.2406 8.8388 13.4562 9.13907 13.7565 9.37005C14.4494 9.9013 15.1578 10.4095 15.8353 10.9484C16.5513 11.5258 17.2905 11.4643 18.0681 11.1024C18.1913 11.0485 18.3222 11.0254 18.453 10.9869C18.4684 11.0177 18.4838 11.0485 18.4992 11.0793C18.3837 11.1563 18.2606 11.2333 18.1451 11.3103C17.0364 12.0032 15.9046 12.6576 14.9807 13.6047C14.7189 13.8741 14.3801 13.9126 14.0183 13.8048C13.0174 13.4969 12.1858 12.8963 11.3774 12.265C10.9693 11.9416 10.5844 11.5951 10.1301 11.2025C10.0916 11.3565 10.0069 11.5489 10.0069 11.7414C9.99154 14.4054 9.99154 17.077 9.99154 19.741C9.99154 23.2672 9.99154 26.7935 9.99154 30.3198C9.99154 30.9819 9.99154 31.0281 10.6306 31.0974C11.7239 31.2129 12.8249 31.2976 13.9259 31.3438C15.127 31.3977 16.1433 30.7971 17.1827 30.3044C17.2828 30.2582 17.4059 30.2351 17.5137 30.2043C17.5291 30.2428 17.5522 30.289 17.5676 30.3275C17.4444 30.4045 17.3289 30.4815 17.2058 30.5585C15.6505 31.5286 14.0799 32.4679 12.5477 33.4765C11.9318 33.8846 11.3466 34.0924 10.6152 33.9616C9.06763 33.6844 7.55087 33.2994 6.23429 32.3986C4.26328 31.0512 2.78502 29.2804 1.8919 27.0399C1.38375 25.7541 0.852501 24.4837 0.806305 23.0671C0.721613 20.5648 0.96029 18.1241 2.24607 15.899C2.65413 15.1907 3.15458 14.6133 3.88601 14.1744C6.98882 12.3035 10.0685 10.3864 13.1482 8.47693C13.1944 8.44613 13.2483 8.42304 13.3561 8.36914ZM6.26509 27.8945C6.28049 27.7559 6.28819 27.7097 6.28819 27.6558C6.29589 25.7464 6.30359 23.837 6.30359 21.9276C6.30359 19.9258 6.28819 17.9239 6.29589 15.9298C6.29589 15.7758 6.34978 15.5988 6.42677 15.4679C6.98882 14.4978 7.68946 13.6354 8.51328 12.8732C8.64417 12.75 8.69036 12.5422 8.78275 12.3728C8.72886 12.3343 8.68266 12.3035 8.62877 12.265C7.98203 12.8578 7.2275 13.3737 6.71165 14.0666C4.54045 16.9384 3.74743 20.1644 4.54045 23.7292C4.86382 25.1844 5.36427 26.5779 6.26509 27.8945ZM6.46527 28.0331C7.09661 29.0494 7.97433 29.6192 8.79045 30.2582C8.82895 30.2428 8.86744 30.2274 8.90594 30.212C8.85205 24.6839 8.79815 19.1635 8.74426 13.6354C8.69806 13.6278 8.65187 13.62 8.61337 13.62C8.34389 14.0281 7.90504 14.3207 7.90504 14.9135C7.92043 18.7478 7.91273 22.5743 7.90504 26.4086C7.90504 26.5625 7.82804 26.7627 7.72025 26.8705C7.31219 27.2709 6.88873 27.6404 6.46527 28.0331Z" fill="black"/>
<path d="M16.6823 17.3002C17.8064 16.8075 18.3761 15.8835 18.8381 14.9442C19.685 15.6834 20.5242 16.4071 21.3866 17.1539C20.786 17.3464 20.7475 17.8007 20.7475 18.3396C20.7629 21.3654 20.7475 24.3912 20.7552 27.4171C20.7552 28.0022 20.8014 28.0407 21.3558 28.2178C20.7552 28.8491 20.1624 29.4728 19.5002 30.1734C18.5609 29.9424 17.9758 29.2187 17.6986 28.1408C16.998 28.7336 16.2126 29.1725 15.8046 30.004C15.6583 30.3043 15.4273 30.1965 15.2117 30.1272C13.8105 29.6575 13.0328 28.6489 12.9174 27.2015C12.8327 26.1313 12.8943 25.0534 12.8789 23.9755C12.8481 21.9891 12.8019 20.0027 12.748 18.0162C12.7403 17.8854 12.5786 17.7237 12.44 17.639C12.2937 17.5466 12.1089 17.5235 11.9626 17.4773C12.4477 17.0769 12.9559 16.7151 13.3947 16.2685C13.7104 15.9451 13.9568 15.5371 14.18 15.1444C14.3186 14.9057 14.4495 14.8518 14.6574 15.0058C14.8268 15.1367 15.027 15.2676 15.1347 15.4447C15.5197 16.0837 15.8354 16.7382 15.8431 17.5158C15.8508 20.5955 15.8816 23.6675 15.9047 26.7472C15.9047 27.1091 16.2203 27.5325 16.5514 27.6095C16.613 27.6249 16.7054 27.6018 16.7516 27.5633C17.2828 27.086 17.714 26.624 17.6909 25.7848C17.6216 23.3518 17.6601 20.9112 17.6524 18.4782C17.6524 17.716 17.5985 17.6467 16.8594 17.3772C16.8286 17.3695 16.7824 17.3464 16.6823 17.3002Z" fill="black"/>
<path d="M48.1953 17.2771C49.8584 16.8691 51.3289 16.1146 52.3375 14.5824C53.3846 15.1752 54.5241 15.6218 55.4403 16.4533C55.9485 16.9153 56.1872 17.4465 56.1487 18.1857C56.0024 21.2346 56.0486 24.2835 56.2796 27.3324C56.2873 27.394 56.2873 27.4556 56.2873 27.548C55.0708 27.9868 53.9621 28.6259 52.9689 29.442C52.761 29.6114 52.5223 29.7654 52.3606 29.9733C52.0449 30.3813 51.6677 30.3813 51.2288 30.2504C50.1509 29.9271 49.2424 29.3496 48.5649 28.4565C48.3955 28.2255 48.3493 27.856 48.3493 27.5557C48.3262 25.3999 48.3493 23.2518 48.3262 21.096C48.3108 19.8333 48.2415 18.5783 48.1953 17.2771ZM53.3153 27.9484C53.3153 27.7405 53.3153 27.5403 53.3153 27.3401C53.2845 25.8926 53.246 24.4452 53.2229 23.0054C53.1998 21.5195 53.2229 20.0335 53.1844 18.5475C53.1536 17.485 52.1912 16.846 51.2057 17.1309C51.2057 17.6621 51.2134 18.1703 51.2057 18.6861C51.1749 20.7572 51.121 22.836 51.121 24.9071C51.121 25.7002 51.2365 26.4855 51.3212 27.2785C51.3597 27.6712 51.6215 27.9099 52.0065 27.9484C52.4222 27.9714 52.8534 27.9484 53.3153 27.9484Z" fill="black"/>
<path d="M38.3711 17.1308C39.0332 16.3532 39.6723 15.5987 40.3344 14.8287C41.1967 15.1367 41.6202 15.8527 41.8358 16.692C41.959 17.1539 42.0129 17.6544 42.0129 18.1317C42.036 20.942 42.036 23.7522 42.0514 26.5624C42.0514 27.009 42.0283 27.4786 42.4055 27.8174C42.7597 28.1408 42.8213 28.0715 43.0754 27.7866C43.8607 26.8781 44.0224 25.8233 43.9916 24.6684C43.9454 22.7205 43.9608 20.7726 43.9454 18.8247C43.9377 17.7083 43.9146 17.6621 43.0831 17.1308C43.6913 16.3455 44.2995 15.5525 44.9386 14.7286C45.6392 15.0212 46.0858 15.6449 46.3245 16.4148C46.4476 16.8151 46.5246 17.2386 46.5631 17.6544C46.7941 20.1027 46.6632 22.5434 46.54 24.9918C46.4938 25.8541 46.1705 26.3777 45.5468 26.9089C44.7769 27.5556 44.1148 28.3333 43.4218 29.0724C43.2139 29.2957 43.0215 29.5652 42.9291 29.8423C42.7982 30.2581 42.521 30.2889 42.2284 30.1657C41.5586 29.8885 40.8657 29.6344 40.2574 29.2572C39.5106 28.7798 39.1872 27.9945 39.1795 27.1168C39.1641 24.1911 39.1718 21.2653 39.1795 18.3396C39.1718 17.7622 38.9716 17.331 38.3711 17.1308Z" fill="black"/>
<path d="M28.5469 25.654C28.8318 25.9619 29.055 26.2006 29.3091 26.4778C28.1003 27.5865 26.7838 28.5874 26.2063 30.2196C25.1438 29.6114 24.1737 28.9646 23.4115 28.033C23.1651 27.7328 23.065 27.4017 23.065 27.0013C23.0804 24.9379 23.0804 22.8745 23.065 20.8034C23.0573 19.9565 23.0419 19.1096 22.988 18.2627C22.9726 18.0163 22.8032 17.7776 22.6877 17.4927C24.5741 16.9846 26.2371 16.0376 27.7 14.6825C28.4776 15.4832 29.0935 16.3763 29.6094 17.331C29.8789 17.8238 30.0713 18.355 30.3177 18.8632C30.4255 19.0942 30.3639 19.2174 30.1637 19.3636C28.8703 20.303 27.7077 21.3732 26.7761 22.682C25.9137 23.8908 25.7059 25.1689 26.2371 26.5702C26.3911 26.9628 26.676 27.2092 27.0455 27.3401C27.2072 27.394 27.4844 27.3247 27.6307 27.2092C28.1003 26.8473 28.416 26.3392 28.5469 25.654ZM25.9291 22.2432C25.9676 22.2509 26.0138 22.2509 26.0523 22.2586C26.5759 21.5733 27.1071 20.8881 27.623 20.1952C27.6769 20.1259 27.7077 19.995 27.6769 19.918C27.3689 18.9325 26.9377 18.0086 26.2756 17.2079C26.2217 17.1386 26.1139 17.1155 26.0292 17.077C25.9907 17.1617 25.9291 17.2464 25.9291 17.331C25.9291 18.971 25.9291 20.6109 25.9291 22.2432Z" fill="black"/>
<path d="M36.7696 25.8541C36.9929 26.0928 37.1854 26.293 37.4164 26.5316C35.9535 27.4709 34.9218 28.6951 34.3213 30.3505C34.1673 30.158 34.0364 30.0117 33.9209 29.8577C33.1895 28.8953 32.204 28.2563 31.1415 27.7173C31.0491 27.6711 30.949 27.6403 30.872 27.571C30.8104 27.5094 30.7334 27.4093 30.7488 27.3401C30.7642 27.2785 30.8874 27.2169 30.9721 27.2015C31.5726 27.1245 31.5726 27.1322 31.5803 26.5316C31.588 23.9139 31.6034 21.2961 31.6034 18.6861C31.6034 17.9931 31.3339 17.4157 30.7334 16.9691C31.588 16.4148 32.204 15.6756 32.7737 14.8749C32.8199 14.8056 33.0894 14.7902 33.151 14.8518C33.4743 15.1829 33.8131 15.5217 34.0595 15.9066C34.2674 16.2377 34.3521 16.6381 34.5369 17.1308C35.1528 16.3917 35.7225 15.6987 36.3308 14.9596C36.8004 15.4293 37.3548 15.9759 37.886 16.5303C37.9476 16.5919 37.963 16.7535 37.9245 16.8382C37.5088 17.6775 37.0776 18.5167 36.6696 19.302C36.5695 19.0479 36.4771 18.7015 36.3077 18.4012C35.915 17.7314 35.2837 17.6159 34.7447 18.0932C34.6446 18.1779 34.56 18.3473 34.56 18.4782C34.5676 20.4107 34.5907 22.3509 34.5984 24.2834C34.6061 25.0765 34.6061 25.8695 34.5753 26.6625C34.5599 27.2246 34.9988 27.5633 35.507 27.317C35.9458 27.1014 36.2923 26.7934 36.5156 26.3545C36.5926 26.2083 36.6619 26.062 36.7696 25.8541Z" fill="black"/>
<path d="M26.291 1.13178C26.2294 1.20878 26.1755 1.30117 26.0908 1.34736C25.6519 1.63224 25.5903 2.0403 25.5903 2.53305C25.6134 5.52037 25.598 8.51539 25.6134 11.5027C25.6134 11.7953 25.5211 11.957 25.2901 12.1264C24.4047 12.7654 23.5423 13.4275 22.6723 14.0897C22.5106 14.2129 22.349 14.3437 22.1642 14.49C21.7253 13.697 21.0863 13.1812 20.247 12.8963C19.5541 12.6576 18.9613 12.7962 18.4685 13.3428C18.43 13.389 18.4069 13.4583 18.353 13.4891C18.3838 12.7346 19.6619 11.5643 20.7013 11.3795C21.8331 11.1793 22.8571 11.3025 23.6809 12.7962C23.6809 12.6653 23.6809 12.5421 23.6809 12.4112C23.6809 9.29302 23.6809 6.17481 23.6655 3.0566C23.6655 2.76403 23.7579 2.57925 23.9966 2.42526C24.6587 2.0172 25.3132 1.58604 25.9753 1.17028C26.0446 1.12409 26.1293 1.10099 26.2063 1.07019C26.2525 1.08559 26.2756 1.10869 26.291 1.13178Z" fill="black"/>
<path d="M28.8933 2.94116C29.4091 3.23373 29.9173 3.50321 30.4023 3.81118C30.8797 4.11915 31.1184 4.51181 31.103 5.15085C31.0645 6.7523 31.1261 8.35374 31.1646 9.95519C31.1723 10.2247 31.0953 10.3402 30.8566 10.471C30.2022 10.8406 29.5631 11.2487 28.9626 11.6952C28.6931 11.8954 28.4698 11.9955 28.1619 11.8569C27.9155 11.7491 27.6691 11.649 27.4381 11.5181C26.8145 11.164 26.4834 10.6789 26.5219 9.8936C26.5835 8.57702 26.545 7.25275 26.5373 5.92848C26.5373 5.54351 26.4757 5.15855 26.468 4.78129C26.468 4.6735 26.5527 4.49641 26.6374 4.47332C27.5536 4.22694 28.3312 3.77268 28.8933 2.94116ZM29.3783 10.548C29.3783 8.7695 29.386 7.04487 29.3706 5.31253C29.3629 4.6581 28.9087 4.32703 28.2311 4.45022C28.2311 4.81978 28.2311 5.18935 28.2311 5.55121C28.2311 6.97558 28.2234 8.39224 28.2388 9.8166C28.2465 10.4248 28.439 10.5788 29.0473 10.5711C29.1628 10.5788 29.2782 10.5557 29.3783 10.548Z" fill="black"/>
<path d="M34.6061 2.94116C35.5223 4.31163 35.684 4.39633 36.4924 3.88047C36.5694 4.31163 36.146 4.93527 35.6224 5.17395C35.0296 5.44343 34.3674 5.20475 33.8516 4.53491C33.7823 4.58881 33.6899 4.6273 33.6591 4.6966C33.3819 5.30484 33.6822 6.18256 34.275 6.49823C34.4983 6.61372 34.7447 6.70611 34.968 6.8216C35.6994 7.19116 36.0613 7.79941 36.0921 8.60783C36.0998 8.86191 36.0998 9.12368 36.0767 9.37776C36.0382 9.78582 35.8765 10.1092 35.5146 10.371C35.1759 10.6096 34.8987 10.9484 34.6138 11.2564C34.4213 11.4566 34.2596 11.6875 34.0903 11.9031C33.1278 10.8868 32.1115 10.8791 30.9797 11.7491C31.049 10.856 31.4725 10.3402 32.0884 9.9398C32.8661 9.43935 33.6052 9.47015 34.3212 10.217C34.3982 9.60104 34.4829 9.06978 34.2134 8.57703C34.121 8.40765 33.9132 8.27676 33.7284 8.17667C33.4435 8.00729 33.1201 7.8995 32.843 7.73011C32.304 7.39904 31.9498 6.92169 31.896 6.27495C31.8575 5.82839 31.8267 5.38183 31.8267 4.93527C31.8267 4.83518 31.9498 4.6735 32.0422 4.6427C33.097 4.35013 33.8901 3.72649 34.6061 2.94116Z" fill="black"/>
<path d="M37.0469 4.404C38.0863 4.09603 39.0564 3.57248 39.9495 2.74866C40.2344 3.12592 40.527 3.47239 40.7656 3.84965C41.012 4.23462 41.1968 4.65808 41.4124 5.06614C41.5356 5.29712 41.474 5.42801 41.2738 5.61279C40.6271 6.20563 39.9726 6.81388 39.4029 7.48371C38.887 8.09196 38.7638 8.83879 39.0333 9.61641C39.1334 9.91669 39.3028 10.2093 39.6184 10.1939C39.8186 10.1785 40.0342 9.93978 40.1959 9.7627C40.3191 9.62411 40.3653 9.42393 40.4577 9.21605C40.5963 9.37004 40.7348 9.51632 40.8888 9.67801C40.1805 10.3324 39.4183 10.9176 39.0487 11.88C38.3866 11.4873 37.7552 11.1101 37.3395 10.471C37.2471 10.3247 37.224 10.1092 37.2163 9.92439C37.1932 8.32294 37.1855 6.72149 37.1624 5.12004C37.1624 4.90446 37.0931 4.68888 37.0469 4.404ZM39.1565 4.19612C39.0949 4.21152 39.0333 4.22692 38.9717 4.24232C38.9717 5.22013 38.9717 6.20563 38.9717 7.21424C39.2874 6.79078 39.5876 6.40581 39.8725 6.00545C39.911 5.95156 39.9341 5.85147 39.911 5.79757C39.6646 5.26632 39.4106 4.73507 39.1565 4.19612Z" fill="black"/>
<path d="M21.5482 3.87276C21.7791 4.01904 22.0486 4.10373 22.0563 4.21152C22.0717 4.4271 22.0024 4.70428 21.8638 4.85056C21.3634 5.37411 20.3779 5.45111 19.7619 5.05074C18.915 4.5041 18.6147 3.3954 19.1229 2.52538C19.7157 1.50908 20.5781 0.739152 21.5944 0.161706C22.0717 -0.107769 22.6107 0.0154199 23.1342 0.12321C23.9811 0.300293 24.8357 0.477376 25.6904 0.631362C25.8752 0.662159 26.0676 0.639061 26.3602 0.639061C26.0214 0.854641 25.7597 1.03172 25.4979 1.20111C25.0128 1.50908 24.5047 1.78625 24.035 2.11732C23.6732 2.3714 23.3036 2.3945 22.9109 2.27131C22.5722 2.16352 22.2334 2.04803 21.8869 1.94794C20.9245 1.67846 20.1469 2.00183 19.5156 2.72556C19.1537 3.14132 19.1537 3.92665 19.4771 4.38861C19.8004 4.85056 20.5858 5.14314 21.0862 4.98915C21.4789 4.85056 21.6406 4.54259 21.5482 3.87276Z" fill="black"/>
<path d="M56.0639 29.3188C56.5259 29.3111 56.9186 29.6807 56.9109 30.1273C56.9109 30.5584 56.5028 30.9588 56.0716 30.9511C55.6251 30.9511 55.2632 30.5969 55.2555 30.1581C55.2478 29.6961 55.6097 29.3265 56.0639 29.3188ZM56.0947 29.4343C55.7098 29.4266 55.4095 29.7115 55.3941 30.0965C55.3787 30.5045 55.6713 30.8202 56.0639 30.8279C56.4412 30.8356 56.7569 30.543 56.7723 30.1658C56.7954 29.7808 56.4797 29.442 56.0947 29.4343Z" fill="black"/>
<path d="M56.3567 30.5661C56.2566 30.4737 56.1411 30.3736 56.0103 30.2658C55.9564 30.3659 55.9102 30.4583 55.8563 30.5507C55.8178 30.5507 55.7716 30.543 55.7331 30.543C55.7331 30.2812 55.6946 30.0117 55.7562 29.7653C55.7716 29.7037 56.118 29.6806 56.2874 29.7191C56.3644 29.7345 56.426 29.9501 56.4414 30.081C56.4645 30.2119 56.4029 30.3505 56.3567 30.5661Z" fill="black"/>
</g>
<defs>
<clipPath id="clip0_229_9888">
<rect width="56.1277" height="34" fill="white" transform="translate(0.791016)"/>
</clipPath>
</defs>
</svg>
