<svg width="184" height="20" viewBox="0 0 184 20" fill="none" xmlns="http://www.w3.org/2000/svg">
<g clip-path="url(#clip0_229_4670)">
<path d="M64.8188 3.24324L66.2787 4.46533C66.2787 5.56992 66.2787 6.76851 66.3431 8.0611C66.4075 9.3537 66.3431 10.7168 66.3431 12.1974C65.4629 10.9283 64.6686 9.84724 63.9387 8.86016C63.2088 7.87309 62.5862 6.98002 62.028 6.25147C61.4699 5.52291 60.9976 4.86486 60.6112 4.32432C60.3106 3.94829 60.053 3.54876 59.8169 3.12573H56.6182V3.24324L58.1209 4.41833C58.2282 8.20211 58.2282 11.2808 58.1209 13.6545L56.8543 14.7826V14.9471H60.5682V14.7826L59.1728 13.678C59.087 10.9283 59.0655 8.22562 59.0655 5.54641L65.4199 14.3126C65.5058 14.4301 65.6132 14.5711 65.7205 14.7121C65.8064 14.8061 65.8493 14.9236 65.8708 15.0411H67.352C67.2662 13.537 67.2018 11.8919 67.2018 10.1528C67.2018 8.41363 67.2018 6.53349 67.2662 4.48883L68.5328 3.26674V3.14923H64.8403V3.24324H64.8188Z" fill="#061022"/>
<path d="M74.9517 4.20681L76.1968 3.24324V3.12573H71.8603V3.24324L73.1054 4.20681C73.1054 7.35605 73.1054 10.5523 73.1054 13.772L71.7959 14.7591V14.9001H76.2397V14.7591L74.9517 13.772C74.8873 10.6933 74.8873 7.52056 74.9517 4.20681Z" fill="#061022"/>
<path d="M87.1453 13.8895C85.6211 13.96 84.1398 13.96 82.7444 13.8895C82.723 12.3384 82.723 10.7872 82.7444 9.25963C83.5602 9.23613 84.6765 9.21263 86.0934 9.21263L86.9092 10.5522H87.038V6.90946H86.9092L86.0934 8.27256C84.1828 8.27256 83.045 8.27256 82.68 8.22556C82.68 7.56751 82.6371 6.88596 82.6371 6.20441C82.6371 5.52285 82.6371 4.86481 82.6371 4.13625C83.3026 4.06575 84.0325 4.06574 84.7624 4.06574H87.0165L87.9182 5.42885H88.047V3.10217H79.6746V3.21968L80.8982 4.18325C80.8982 6.93296 80.8982 10.0587 80.8982 13.7485L79.6746 14.7355V14.8766H88.326V12.2914H88.1972L87.1453 13.8895Z" fill="#061022"/>
<path d="M49.9419 3.24325L51.3802 4.46534C51.3802 5.56992 51.3802 6.76851 51.4232 8.06111C51.4661 9.3537 51.4232 10.7168 51.4232 12.1974C50.5645 10.9283 49.7702 9.84724 49.0617 8.86017C48.3533 7.87309 47.6878 6.98003 47.1296 6.25147C46.5715 5.52292 46.1206 4.86487 45.7557 4.32433C45.4551 3.9483 45.1975 3.54877 44.9399 3.12574H41.7627V3.24325L43.2654 4.41834C43.3728 8.20212 43.3728 11.2808 43.2654 13.6545L42.0203 14.7826V14.9471H45.6913V14.7826L44.2959 13.678C44.21 10.9048 44.1671 8.22562 44.1671 5.52292L50.543 14.2891C50.6503 14.4066 50.7362 14.5476 50.8221 14.6886C50.908 14.7826 50.9509 14.9001 50.9724 15.0176H52.4536C52.3678 13.4665 52.3248 11.8214 52.3248 10.0823C52.3248 8.36663 52.3248 6.46299 52.3892 4.41834L53.6558 3.19624V3.07874H49.9419V3.24325Z" fill="#061022"/>
<path d="M114.281 0.211567C114.495 0.352578 114.689 0.51709 114.903 0.681602C115.118 0.846115 115.311 1.01063 115.504 1.17514C115.118 2.72626 114.732 4.11286 114.431 5.38195L113.572 8.6252C113.336 9.51826 113.143 10.2703 112.971 10.8814C112.821 11.4689 112.735 11.8684 112.692 12.08L109.687 1.29265C109.901 1.05763 110.095 0.846115 110.266 0.681602C110.438 0.51709 110.631 0.352578 110.824 0.211567V0.0705566H106.08V0.235069L107.282 1.24564C106.96 2.37373 106.66 3.45481 106.381 4.48889L105.608 7.3326C105.372 8.20217 105.157 9.04823 104.942 9.82379C104.728 10.5993 104.556 11.3044 104.384 12.033L101.55 1.29265L102.71 0.235069V0.0940584H98.137V0.235069C98.3302 0.399581 98.5019 0.540592 98.6307 0.681602C98.7381 0.775609 98.8454 0.869616 98.9527 0.987125C99.0171 1.05763 99.103 1.12814 99.146 1.22214C99.2104 1.29265 99.2318 1.38666 99.2533 1.48066C99.4036 1.9977 99.6182 2.72626 99.9188 3.64282C100.219 4.55939 100.498 5.68748 100.863 6.88607C101.228 8.08466 101.615 9.40076 102.044 10.8109C102.452 12.221 102.86 13.6781 103.289 15.2292H104.792C104.792 15.1822 104.792 15.1117 104.792 15.0647C104.771 14.9707 104.771 14.8767 104.792 14.7592C104.792 14.6651 104.835 14.5711 104.856 14.4536C104.899 14.3596 104.921 14.2656 104.942 14.1716C105.071 13.6546 105.221 13.0905 105.35 12.4795C105.5 11.8684 105.651 11.2339 105.822 10.5523C105.994 9.89429 106.187 9.21274 106.338 8.50769C106.509 7.80264 106.703 7.14459 106.874 6.43953C107.046 5.73448 107.218 5.12344 107.39 4.48889C107.561 3.85434 107.733 3.24329 107.862 2.70275L111.426 15.2057H112.864C112.928 14.9472 113.036 14.4771 113.229 13.7016C113.422 12.926 113.68 12.033 114.002 10.8579C114.324 9.68278 114.667 8.31967 115.139 6.74506C115.612 5.17044 116.063 3.3373 116.599 1.36315C116.9 1.03413 117.157 0.799111 117.351 0.634599C117.544 0.470087 117.673 0.305574 117.737 0.258571V0.11756H114.238L114.281 0.211567Z" fill="#061022"/>
<path d="M3.78616 0.141011L5.43918 1.2691L5.54652 13.913C5.54652 14.4301 5.54652 14.8766 5.54652 15.2761C5.52505 15.6287 5.50358 15.9812 5.43918 16.3337C5.37478 16.6392 5.28891 16.9448 5.18157 17.2268C5.05276 17.5088 4.88102 17.7908 4.68781 18.0259C4.4302 18.3549 4.10818 18.6369 3.74323 18.8014C3.37828 18.9894 2.97039 19.0834 2.5625 19.0834C2.60544 19.0364 2.64837 18.9659 2.69131 18.8954C2.73424 18.8249 2.75571 18.7544 2.77718 18.6604C2.79865 18.5429 2.79865 18.4489 2.77718 18.3314C2.77718 18.2139 2.75571 18.0964 2.71278 17.9788C2.64837 17.8378 2.58397 17.7203 2.4981 17.6028C2.39076 17.5088 2.28342 17.4383 2.15461 17.3678C2.02581 17.2973 1.897 17.2738 1.74673 17.2738C1.46765 17.2738 1.21003 17.3913 0.995356 17.6028C0.888017 17.7203 0.802146 17.8378 0.759211 17.9788C0.716275 18.1669 0.67334 18.3314 0.67334 18.4959C0.67334 18.7309 0.737743 18.9659 0.845082 19.1774C0.952421 19.3655 1.10269 19.53 1.27444 19.6475C1.44618 19.765 1.63939 19.859 1.85407 19.906C2.04728 19.9765 2.26195 20 2.45516 20C2.86305 20 3.27094 19.9295 3.65736 19.7885C4.04378 19.6475 4.38726 19.436 4.73074 19.1774C5.07423 18.8954 5.37478 18.5899 5.65386 18.2609C5.93294 17.8848 6.16908 17.4853 6.38376 17.0388C6.5555 16.6628 6.72724 16.3102 6.87752 15.9342C7.04926 15.5817 7.17807 15.1821 7.26394 14.7826C7.37128 14.3596 7.45715 13.913 7.52155 13.4665C7.58595 12.926 7.60742 12.3854 7.58595 11.8214C7.58595 11.1633 7.58595 10.5288 7.54302 9.84724C7.50008 9.16569 7.54302 8.36663 7.54302 7.54407C7.54302 6.7215 7.54302 5.75793 7.50008 4.72385C7.45715 3.68978 7.50008 2.44418 7.50008 1.10458L8.85255 0.117509V0H3.78616V0.141011Z" fill="#061022"/>
<path d="M21.4111 11.3983C21.2179 12.0094 20.9388 12.5969 20.5738 13.114C20.2518 13.5605 19.8439 13.9365 19.4146 14.2185C18.9638 14.43 18.4915 14.5476 18.0192 14.5476C17.504 14.5476 16.9887 14.4065 16.5379 14.1715C16.0656 13.8895 15.6363 13.5135 15.2928 13.0669C14.9064 12.5499 14.6273 11.9624 14.4341 11.3278C14.2194 10.5758 14.1121 9.8002 14.1335 9.02464C14.1335 8.27259 14.2194 7.54403 14.3911 6.81548C14.5414 6.20443 14.799 5.61689 15.1425 5.09985C15.4645 4.60631 15.8724 4.20678 16.3447 3.92476C16.8385 3.64274 17.3966 3.50173 17.9548 3.50173C18.5129 3.50173 19.0711 3.64274 19.5863 3.92476C20.0586 4.20678 20.488 4.60631 20.7885 5.09985C21.132 5.61689 21.3896 6.20443 21.5399 6.81548C21.7331 7.54403 21.819 8.27259 21.819 9.02464C21.776 9.84721 21.6472 10.6463 21.4111 11.3983ZM22.9997 5.7344C22.7636 5.26436 22.4415 4.81783 22.0766 4.4653C21.7331 4.06577 21.3252 3.71324 20.8959 3.45472C20.488 3.1727 20.0157 2.96119 19.5434 2.82018C19.0711 2.67917 18.5988 2.60866 18.1051 2.60866C17.2893 2.58516 16.4735 2.77317 15.7221 3.1022C14.3053 3.73674 13.1675 4.95884 12.5449 6.50995C12.2444 7.28551 12.0726 8.15508 12.0941 9.00114C12.0941 9.8472 12.2444 10.6933 12.5664 11.4453C12.8669 12.1974 13.2963 12.8789 13.8544 13.4665C14.3911 14.054 15.0352 14.5241 15.7436 14.8531C16.4735 15.2056 17.2678 15.3701 18.0621 15.3231C18.8564 15.3701 19.6507 15.2056 20.3806 14.8296C21.0676 14.5006 21.7116 14.0305 22.2269 13.4195C22.7421 12.8554 23.15 12.1739 23.4291 11.4453C23.9228 10.1057 24.0087 8.64861 23.6437 7.26201C23.5149 6.74497 23.3002 6.25143 22.9997 5.7344Z" fill="#061022"/>
<path d="M34.2273 3.24318L35.4725 4.20676V8.22556C33.5404 8.22556 31.6512 8.22556 29.762 8.22556V4.20676L31.0072 3.24318V3.12567H26.7136V3.24318L27.9158 4.20676V13.772L26.7136 14.759V14.9001H31.0072V14.759L29.762 13.772V9.16563C31.6512 9.16563 33.5404 9.16563 35.4725 9.16563V13.7485L34.2273 14.7355V14.8766H38.5423V14.7355L37.3187 13.7485C37.2757 10.7637 37.2757 7.59101 37.3187 4.18325L38.5423 3.21968V3.10217H34.2273V3.24318Z" fill="#061022"/>
<path d="M121.386 9.70625L123.039 4.72388L124.8 9.70625H121.386ZM124.306 2.93774H122.76L119.025 13.6781L117.78 14.8061V14.9471H121.429V14.8061L120.077 13.6781L121.107 10.5758C122.546 10.5758 123.898 10.5758 125.143 10.5758L126.26 13.6781L124.843 14.8061V14.9471H129.544V14.8061L128.299 13.631L124.306 2.93774Z" fill="#061022"/>
<path d="M164.343 13.9601C162.755 14.0306 161.295 14.0306 159.921 13.9601C159.899 12.409 159.899 10.8579 159.921 9.33026C160.715 9.33026 161.832 9.28325 163.313 9.28325L164.15 10.6229H164.279V6.95658H164.15L163.313 8.31968C161.381 8.31968 160.264 8.31968 159.899 8.27268C159.899 7.61463 159.899 6.93308 159.899 6.25153C159.899 5.56997 159.899 4.91192 159.899 4.18337C160.565 4.11286 161.252 4.11286 161.982 4.11286H164.3L165.181 5.47597H165.288V3.14929H156.83V3.2668L158.053 4.23037C158.096 6.98008 158.096 10.1058 158.053 13.7956L156.83 14.7827V14.9237H165.503V12.362H165.374L164.343 13.9601Z" fill="#061022"/>
<path d="M173.489 9.00116H172.565C172.458 9.00116 172.372 9.00116 172.265 9.00116V4.13629C172.415 4.13629 172.587 4.13629 172.759 4.13629H173.252H173.66H173.939C174.283 4.13629 174.605 4.18329 174.927 4.3243C175.206 4.44181 175.464 4.62983 175.678 4.86484C175.893 5.07636 176.043 5.31138 176.151 5.5934C176.258 5.87542 176.322 6.18094 176.322 6.50997C176.365 7.23852 176.086 7.94358 175.592 8.41361C174.991 8.90715 174.24 9.14217 173.489 9.07166V9.00116ZM179.07 14.7121C178.984 14.6181 178.856 14.4771 178.748 14.3831C178.641 14.2656 178.534 14.054 178.426 13.913C178.319 13.7955 178.233 13.678 178.169 13.5605L176.473 10.6698C176.322 10.3643 176.108 10.0822 175.85 9.87072C175.571 9.68271 175.27 9.5652 174.927 9.5417C175.399 9.5182 175.872 9.42419 176.344 9.25968C176.752 9.11867 177.117 8.90715 177.46 8.62513C177.761 8.36661 178.018 8.06109 178.19 7.68506C178.362 7.30903 178.469 6.886 178.469 6.46296C178.469 6.01643 178.362 5.5699 178.147 5.19387C177.932 4.79434 177.632 4.44181 177.288 4.15979C176.881 3.85427 176.43 3.64275 175.936 3.50174C175.356 3.33723 174.777 3.26672 174.197 3.26672H169.195V3.38423L170.419 4.39481V13.96L169.174 14.8061V14.9471H173.574V14.8061L172.351 13.8895L172.308 9.84722C172.565 9.84722 172.802 9.80022 172.973 9.80022H173.446C173.617 9.80022 173.811 9.82372 173.982 9.89422C174.133 9.98823 174.261 10.1292 174.347 10.2938L176.881 14.9471H179.328V14.8061C179.242 14.7591 179.156 14.6886 179.092 14.6181" fill="#061022"/>
<path d="M148.243 8.1551C149.187 7.19153 149.981 6.36897 150.626 5.71092C151.27 5.05287 151.763 4.58284 152.107 4.23031L153.738 3.29024V3.17273H150.11V3.29024L150.668 4.20681C150.282 4.65334 149.896 5.07637 149.531 5.4759C149.166 5.87543 148.758 6.27496 148.371 6.65099C147.985 7.05052 147.642 7.37955 147.277 7.75557C146.912 8.1316 146.611 8.43713 146.268 8.69564C147.513 10.0587 148.951 11.7744 150.583 13.8425L150.11 14.7591V14.9001H154.017V14.7591L153.18 13.8425C150.862 11.2103 149.209 9.33019 148.221 8.0846" fill="#061022"/>
<path d="M146.268 4.27737L147.534 3.3138V3.19629H143.155V3.3138L144.4 4.27737C144.4 7.45011 144.4 10.6228 144.4 13.8426L143.112 14.8297V14.9707H147.556V14.8062L146.289 13.8191C146.268 10.5758 146.268 7.40311 146.268 4.27737Z" fill="#061022"/>
<path d="M139.226 13.913H137.079H135.233C135.19 10.6698 135.19 7.49705 135.233 4.30081L136.586 3.36074V3.21973H132.12V3.36074L133.344 4.30081C133.387 7.47355 133.387 10.6463 133.344 13.866L132.12 14.8531V14.9941H140.364V12.3384H140.214L139.226 13.913Z" fill="#061022"/>
<path d="M182.677 13.1139C182.677 13.2549 182.591 13.349 182.419 13.349H182.076V12.8554H182.398C182.57 12.8789 182.677 12.9494 182.677 13.1139ZM183.02 13.1139C183.02 12.7614 182.784 12.5734 182.419 12.5734H181.754V14.2185H182.097V13.678H182.355L182.677 14.2185H183.063L182.698 13.631C182.892 13.5605 183.02 13.349 183.02 13.1139ZM183.6 13.443C183.6 14.195 183.02 14.8061 182.333 14.8061C181.646 14.8061 181.088 14.1715 181.088 13.4195C181.088 12.6674 181.668 12.0564 182.355 12.0564C183.042 12.0564 183.6 12.6674 183.6 13.443C183.6 13.4195 183.6 13.4195 183.6 13.443ZM183.75 13.443C183.75 12.5969 183.106 11.8918 182.333 11.8918C181.561 11.8918 180.917 12.5969 180.917 13.443C180.917 14.289 181.539 14.9941 182.333 14.9941C183.106 14.9941 183.75 14.3125 183.75 13.4665C183.75 13.443 183.75 13.443 183.75 13.443Z" fill="#061022"/>
</g>
<defs>
<clipPath id="clip0_229_4670">
<rect width="183.077" height="20" fill="white" transform="translate(0.67334)"/>
</clipPath>
</defs>
</svg>
