<svg width="148" height="32" viewBox="0 0 148 32" fill="none" xmlns="http://www.w3.org/2000/svg">
<g clip-path="url(#clip0_229_9958)">
<path d="M17.9138 25.9556H19.336L20.8472 28.4445L22.3583 25.9556H23.7805V31.9111H22.536V28.0889L20.8472 30.5778L19.2472 28.0889V31.9111H18.0027V25.9556H17.9138Z" fill="#061022"/>
<path d="M26.2693 25.9556H30.7137V27.1111H27.6026V28.2667H30.3582V29.4222H27.6026V30.6667H30.8026V31.8222H26.3582V25.9556H26.2693Z" fill="#061022"/>
<path d="M32.7583 30.9333L35.9583 27.1111H32.8472V25.9556H37.6472V26.9333L34.4472 30.7556H37.6472V31.9111H32.7583V30.9333Z" fill="#061022"/>
<path d="M39.425 28.9778C39.425 27.2889 40.6695 25.8667 42.4473 25.8667C43.5139 25.8667 44.225 26.2223 44.7584 26.7556L43.9584 27.7334C43.5139 27.2889 43.0695 27.0223 42.4473 27.0223C41.4695 27.0223 40.7584 27.8223 40.7584 28.8889C40.7584 29.8667 41.4695 30.7556 42.4473 30.7556C43.1584 30.7556 43.5139 30.4889 43.9584 30.0445L44.7584 30.8445C44.1362 31.4667 43.5139 31.9111 42.3584 31.9111C40.6695 32 39.425 30.6667 39.425 28.9778Z" fill="#061022"/>
<path d="M48.9359 25.9556H50.0915L52.5804 31.9111H51.247L50.7137 30.5778H48.2248L47.6915 31.9111H46.3582L48.9359 25.9556ZM50.2693 29.4222L49.4693 27.4667L48.6693 29.4222H50.2693Z" fill="#061022"/>
<path d="M54.5361 25.9556H55.7806V30.6667H58.7139V31.8222H54.5361V25.9556Z" fill="#061022"/>
<path d="M66.4472 25.9556H67.6027L70.0916 31.9111H68.7583L68.2249 30.5778H65.736L65.2027 31.9111H63.8694L66.4472 25.9556ZM67.7805 29.4222L66.9805 27.4667L66.1805 29.4222H67.7805Z" fill="#061022"/>
<path d="M72.136 25.9556H74.8027C75.5138 25.9556 76.136 26.1333 76.4915 26.5778C76.8471 26.9333 77.0249 27.3778 77.0249 27.9111C77.0249 28.8889 76.4915 29.4222 75.7804 29.7778L77.2027 31.9111H75.6915L74.4471 30.0445H73.4693V31.9111H72.2249V25.9556H72.136ZM74.7138 28.8889C75.336 28.8889 75.6915 28.5333 75.6915 28.0889C75.6915 27.5556 75.336 27.2 74.7138 27.2H73.4693V28.8889H74.7138Z" fill="#061022"/>
<path d="M80.5805 27.2H78.8027V26.0444H83.6027V27.2H81.825V31.9111H80.5805V27.2Z" fill="#061022"/>
<path d="M85.7361 25.9556H90.1805V27.1111H87.0694V28.2667H89.825V29.4222H87.0694V30.6667H90.2694V31.8222H85.825V25.9556H85.7361Z" fill="#061022"/>
<path d="M91.9583 31.0222L92.7583 30.1333C93.2916 30.5778 93.8249 30.8444 94.536 30.8444C95.0694 30.8444 95.336 30.6667 95.336 30.3111C95.336 29.9555 95.1583 29.7778 94.1805 29.6C93.0249 29.3333 92.2249 28.9778 92.2249 27.8222C92.2249 26.7555 93.1138 26.0444 94.2694 26.0444C95.1583 26.0444 95.8694 26.3111 96.4027 26.7555L95.6916 27.7333C95.1583 27.3778 94.6249 27.1111 94.1805 27.1111C93.736 27.1111 93.4694 27.3778 93.4694 27.6444C93.4694 28 93.736 28.1778 94.7138 28.4444C95.8694 28.8 96.5805 29.1555 96.5805 30.2222C96.5805 31.3778 95.6916 32.0889 94.4471 32.0889C93.5583 32 92.6694 31.6444 91.9583 31.0222Z" fill="#061022"/>
<path d="M100.669 25.9556H101.825L104.314 31.9111H102.98L102.447 30.5778H99.9582L99.4249 31.9111H98.1804L100.669 25.9556ZM102.092 29.4222L101.292 27.4667L100.492 29.4222H102.092Z" fill="#061022"/>
<path d="M106.358 25.9556H107.514L110.27 29.6V25.9556H111.514V31.9111H110.447L107.603 28.1778V31.9111H106.358V25.9556Z" fill="#061022"/>
<path d="M116.047 25.9556H117.203L119.692 31.9111H118.358L117.825 30.5778H115.336L114.803 31.9111H113.469L116.047 25.9556ZM117.381 29.4222L116.581 27.4667L115.781 29.4222H117.381Z" fill="#061022"/>
<path d="M121.736 25.9556H122.981V30.6667H125.914V31.8222H121.736V25.9556Z" fill="#061022"/>
<path d="M7.42483 10.1333C8.22483 7.02222 9.02483 3.91111 9.91372 0.888889C10.0026 0.622222 10.1804 0.444444 10.4471 0.444444C11.4248 0.444444 12.4915 0.533333 13.4693 0.533333C13.7359 0.533333 13.9137 0.711111 13.9137 0.977778V21.9556C13.9137 22.2222 13.7359 22.4 13.4693 22.4C12.4026 22.4 11.4248 22.4889 10.3582 22.4889C10.0915 22.4889 9.91372 22.3111 9.91372 22.0444V13.7778C9.91372 13.5111 9.82483 13.3333 9.64705 13.3333C9.46928 13.3333 9.38039 13.5111 9.20261 13.9556C8.84705 15.0222 8.4915 16.0889 8.04705 17.1556C7.95817 17.4222 7.6915 17.6 7.51372 17.6889C7.24705 17.6889 6.98039 17.6889 6.71372 17.6889C6.44705 17.6889 6.26928 17.5111 6.18039 17.2444C5.82483 16.1778 5.46928 15.1111 5.02483 14.0444C4.93594 13.6 4.75816 13.3333 4.58039 13.3333C4.40261 13.3333 4.31372 13.5111 4.31372 13.7778V22.2222C4.31372 22.4889 4.13594 22.7556 3.86928 22.7556C2.80261 22.8444 1.82483 22.8444 0.758165 22.9333C0.491498 22.9333 0.313721 22.7556 0.313721 22.4889V0.444444C0.40261 0.177778 0.580387 0 0.847054 0C1.82483 0.0888889 2.8915 0.0888889 3.86928 0.177778C4.13594 0.177778 4.31372 0.355556 4.40261 0.711111C5.20261 3.91111 6.00261 7.02222 6.80261 10.1333C6.8915 10.4 6.98039 10.5778 7.15816 10.5778C7.33594 10.5778 7.33594 10.3111 7.42483 10.1333Z" fill="#061022"/>
<path d="M21.8248 22.1333C19.7804 22.2222 18.447 20.9777 18.447 18.1333V4.88883C18.447 2.04439 19.7804 0.799945 21.8248 0.888834C23.0692 0.888834 24.4026 0.977723 25.647 0.977723C27.7804 1.06661 29.0248 2.31106 29.0248 5.06661V17.8666C29.0248 20.6222 27.6915 21.9555 25.647 21.9555C24.4026 22.0444 23.0692 22.1333 21.8248 22.1333ZM25.1137 5.06661C25.1137 4.79994 24.9359 4.62217 24.6692 4.62217C24.047 4.62217 23.4248 4.62217 22.8026 4.62217C22.5359 4.62217 22.3581 4.79994 22.3581 5.06661V18.1333C22.3581 18.3999 22.5359 18.5777 22.7137 18.5777C23.3359 18.5777 23.9581 18.5777 24.5804 18.5777C24.847 18.5777 25.0248 18.3999 25.0248 18.1333V5.06661H25.1137Z" fill="#061022"/>
<path d="M38.2692 13.4222C38.0914 12.9777 38.0025 12.8 37.8248 12.8C37.647 12.8 37.5581 12.8889 37.5581 13.1555V21.1555C37.5581 21.4222 37.3803 21.6 37.1137 21.6C36.047 21.6 35.0692 21.6889 34.0025 21.6889C33.7359 21.6889 33.5581 21.5111 33.5581 21.2444V1.59996C33.5581 1.3333 33.7359 1.15552 34.0025 1.15552C34.7137 1.15552 35.4248 1.15552 36.1359 1.24441C36.4914 1.24441 36.5803 1.42218 36.7581 1.68885C37.7359 4.35552 38.8025 6.93329 39.7803 9.51107C39.9581 9.95552 40.047 10.1333 40.2248 10.1333C40.4025 10.1333 40.4914 10.0444 40.4914 9.77774V1.77774C40.4914 1.51107 40.6692 1.3333 40.847 1.3333C41.9137 1.3333 42.9803 1.3333 43.9581 1.42218C44.2248 1.42218 44.3137 1.59996 44.3137 1.86663V21.1555C44.3137 21.4222 44.1359 21.6 43.9581 21.6C43.247 21.6 42.5359 21.6 41.7359 21.6C41.3803 21.6 41.2914 21.4222 41.1137 21.1555C40.3137 18.6666 39.3359 16.0889 38.2692 13.4222Z" fill="#061022"/>
<path d="M57.736 1.60005C58.0027 1.60005 58.1804 1.77783 58.1804 2.0445C58.0915 2.93339 58.0915 3.73339 58.0027 4.62228C58.0027 4.88894 57.736 4.97783 57.5582 4.97783C56.936 4.97783 56.3138 4.97783 55.6027 4.97783C55.336 4.97783 55.1582 5.15561 55.1582 5.33339V20.9778C55.1582 21.2445 54.9804 21.4223 54.7138 21.4223C53.6471 21.4223 52.6693 21.4223 51.6027 21.4223C51.336 21.4223 51.1582 21.2445 51.1582 20.9778V5.33339C51.1582 5.06672 50.9804 4.97783 50.7138 4.97783C50.0027 4.97783 49.2915 4.97783 48.5804 4.97783C48.3138 4.97783 48.136 4.80005 48.136 4.53339C48.2249 3.6445 48.2249 2.75561 48.3138 1.95561C48.3138 1.68894 48.5804 1.60005 48.7582 1.60005C51.7804 1.51116 54.7138 1.60005 57.736 1.60005Z" fill="#061022"/>
<path d="M66.1805 5.06664C65.9138 5.06664 65.8249 5.24442 65.8249 5.4222V9.24442C65.8249 9.51109 66.0027 9.68886 66.2694 9.68886C67.0694 9.68886 67.8694 9.68886 68.6694 9.68886C68.936 9.68886 69.1138 9.86664 69.1138 10.1333C69.0249 11.0222 69.0249 11.8222 68.936 12.7111C68.936 12.9778 68.6694 13.0666 68.4916 13.0666C67.6916 13.0666 66.9805 13.0666 66.1805 13.0666C65.9138 13.0666 65.8249 13.2444 65.8249 13.4222V17.6C65.8249 17.8666 66.0027 18.0444 66.1805 18.0444C67.7805 18.0444 69.2916 18.0444 70.8916 18.0444C71.1583 18.0444 71.336 18.2222 71.336 18.4889C71.2472 19.3778 71.2472 20.1778 71.1583 21.0666C71.1583 21.3333 70.8916 21.4222 70.7138 21.4222C67.9583 21.4222 65.1138 21.4222 62.3583 21.4222C62.0916 21.4222 61.9138 21.2444 61.9138 20.9778V2.04442C61.9138 1.77775 62.0916 1.59998 62.3583 1.59998C65.2027 1.59998 68.136 1.59998 70.9805 1.59998C71.2472 1.59998 71.4249 1.77775 71.4249 2.04442C71.336 2.93331 71.336 3.73331 71.2472 4.6222C71.2472 4.88886 70.9805 4.97775 70.8027 4.97775C69.1138 5.06664 67.6027 5.06664 66.1805 5.06664Z" fill="#061022"/>
<path d="M78.7138 1.68884C78.9804 1.68884 79.1582 1.86662 79.1582 2.13329V17.6C79.1582 17.8666 79.336 18.0444 79.6026 18.0444C81.1138 18.0444 82.6249 18.0444 84.0471 18.0444C84.3138 18.0444 84.4915 18.2222 84.4915 18.4888C84.4026 19.3777 84.4027 20.1777 84.3138 21.0666C84.3138 21.3333 84.0471 21.4222 83.8693 21.4222C81.1138 21.4222 78.3582 21.4222 75.6026 21.4222C75.336 21.4222 75.1582 21.2444 75.1582 20.9777V2.13329C75.1582 1.86662 75.336 1.68884 75.6026 1.68884C76.6693 1.68884 77.736 1.68884 78.7138 1.68884Z" fill="#061022"/>
<path d="M91.4249 21.4222C89.3805 21.4222 88.0471 20.1778 88.0471 17.6V5.42222C88.0471 2.75555 89.3805 1.6 91.4249 1.6C92.6693 1.6 94.0027 1.6 95.2471 1.51111C97.3804 1.51111 98.6249 2.66666 98.6249 5.33333V17.6889C98.6249 20.3556 97.3804 21.5111 95.2471 21.5111C93.9138 21.5111 92.6693 21.4222 91.4249 21.4222ZM94.6249 5.33333C94.6249 5.06666 94.4471 4.88889 94.1805 4.88889C93.5582 4.88889 92.936 4.88889 92.3138 4.88889C92.0471 4.88889 91.8693 5.06666 91.8693 5.33333V17.5111C91.8693 17.7778 92.0471 17.9556 92.2249 17.9556C92.8471 17.9556 93.4693 17.9556 94.0916 17.9556C94.3582 17.9556 94.536 17.7778 94.536 17.5111V5.33333H94.6249Z" fill="#061022"/>
<path d="M113.736 8.97778C113.736 9.86667 113.38 10.6667 112.758 11.1111C112.669 11.2 112.58 11.2889 112.58 11.3778C112.58 11.4667 112.58 11.5556 112.758 11.6445C113.292 12.0889 113.736 12.8889 113.736 13.7778V17.9556C113.736 20.7111 112.492 21.9556 110.358 21.8667C108.136 21.7778 105.825 21.7778 103.603 21.6889C103.336 21.6889 103.158 21.5111 103.158 21.2444V1.77778C103.158 1.51112 103.336 1.33334 103.603 1.33334C105.825 1.24445 108.136 1.24445 110.358 1.15556C112.492 1.06667 113.736 2.31112 113.736 5.06667V8.97778ZM109.825 5.15556C109.825 4.88889 109.647 4.71112 109.38 4.71112C108.758 4.71112 108.225 4.71112 107.603 4.71112C107.336 4.71112 107.158 4.88889 107.158 5.06667V9.06667C107.158 9.33334 107.336 9.51112 107.603 9.51112C108.136 9.51112 108.669 9.51112 109.114 9.51112C109.558 9.51112 109.825 9.24445 109.825 8.88889V5.15556ZM109.469 18.2222C109.647 18.2222 109.825 18.0445 109.825 17.8667V13.6889C109.825 13.2444 109.558 12.9778 109.114 12.9778C108.58 12.9778 108.047 12.9778 107.514 12.9778C107.247 12.9778 107.158 13.1556 107.158 13.4222V17.7778C107.158 18.0444 107.336 18.2222 107.603 18.2222C108.225 18.2222 108.847 18.2222 109.469 18.2222Z" fill="#061022"/>
<path d="M121.558 22.1333C119.514 22.0444 118.18 20.8 118.18 17.9555V5.06663C118.18 2.31107 119.425 0.977741 121.558 0.888852C122.803 0.888852 124.136 0.799964 125.38 0.799964C127.514 0.711075 128.758 1.95552 128.758 4.88885V18.3111C128.758 21.2444 127.425 22.4889 125.38 22.4C124.136 22.2222 122.803 22.1333 121.558 22.1333ZM124.847 4.88885C124.847 4.62219 124.669 4.44441 124.403 4.44441C123.78 4.44441 123.158 4.44441 122.625 4.44441C122.358 4.44441 122.18 4.62219 122.18 4.88885V17.9555C122.18 18.2222 122.358 18.4 122.536 18.4C123.158 18.4 123.78 18.4 124.403 18.4C124.669 18.4 124.847 18.2222 124.847 17.9555V4.88885Z" fill="#061022"/>
<path d="M136.669 13.5111C134.358 13.4222 133.025 11.6444 133.025 8.7111V4.7111C133.025 1.77776 134.269 0.355542 136.403 0.266653C137.647 0.177764 138.892 0.177764 140.136 0.0888754C142.269 -1.35303e-05 143.514 1.33332 143.514 4.35554V6.66665C143.514 6.93332 143.336 7.19999 143.069 7.19999C142.092 7.28888 141.025 7.37776 140.047 7.46665C139.78 7.46665 139.603 7.28888 139.603 7.02221V4.44443C139.603 4.17776 139.425 3.99999 139.247 3.99999C138.625 3.99999 138.003 3.99999 137.38 4.08888C137.114 4.08888 136.936 4.26665 136.936 4.53332V8.7111C136.936 9.15554 137.114 9.5111 137.647 9.5111C138.358 9.5111 139.069 9.5111 139.869 9.59999C142.18 9.59999 143.514 11.3778 143.514 14.4889V18.5778C143.514 21.6 142.18 22.9333 140.136 22.8444C138.892 22.7555 137.647 22.7555 136.403 22.6667C134.269 22.5778 133.025 21.1555 133.025 18.2222V16C133.025 15.7333 133.203 15.5555 133.469 15.4667C134.447 15.3778 135.514 15.3778 136.492 15.2889C136.758 15.2889 136.936 15.4667 136.936 15.8222V18.3111C136.936 18.5778 137.114 18.7555 137.292 18.7555C137.914 18.7555 138.536 18.7555 139.158 18.8444C139.425 18.8444 139.603 18.6667 139.603 18.4889V14.3111C139.603 13.8667 139.425 13.5111 138.892 13.5111C138.092 13.5111 137.38 13.5111 136.669 13.5111Z" fill="#061022"/>
<path d="M147.514 1.77773C147.514 2.66662 146.803 3.37773 145.914 3.37773C145.025 3.37773 144.314 2.66662 144.314 1.77773C144.314 0.888846 145.025 0.177734 145.914 0.177734C146.803 0.177734 147.514 0.799957 147.514 1.77773ZM144.669 1.77773C144.669 2.48885 145.203 3.02218 145.914 3.02218C146.625 3.02218 147.158 2.48885 147.158 1.77773C147.158 1.06662 146.625 0.53329 145.914 0.53329C145.203 0.444401 144.669 1.06662 144.669 1.77773ZM145.647 2.57773H145.292V0.977734C145.469 0.977734 145.647 0.888846 145.914 0.888846C146.18 0.888846 146.358 0.977734 146.447 0.977734C146.536 1.06662 146.625 1.15551 146.625 1.33329C146.625 1.51107 146.447 1.68885 146.269 1.68885C146.447 1.77773 146.536 1.86662 146.536 2.0444C146.625 2.31107 146.625 2.39996 146.625 2.39996H146.269C146.18 2.31107 146.18 2.22218 146.18 2.0444C146.18 1.86662 146.092 1.77773 145.825 1.77773H145.647V2.57773ZM145.736 1.68885H145.914C146.092 1.68885 146.269 1.59996 146.269 1.42218C146.269 1.2444 146.18 1.15551 145.914 1.15551C145.825 1.15551 145.736 1.15551 145.736 1.15551V1.68885Z" fill="#061022"/>
<path d="M15.0693 30.0444L0.402588 29.4222L15.0693 28.7111V30.0444Z" fill="#061022"/>
<path d="M128.136 28.7111L142.803 29.4222L128.136 30.0444V28.7111Z" fill="#061022"/>
</g>
<defs>
<clipPath id="clip0_229_9958">
<rect width="147.111" height="32" fill="white" transform="translate(0.402588)"/>
</clipPath>
</defs>
</svg>
