<svg width="77" height="44" viewBox="0 0 77 44" fill="none" xmlns="http://www.w3.org/2000/svg">
<g clip-path="url(#clip0_229_7984)">
<path d="M21.2322 11.293C21.2322 11.293 20.9196 15.0444 16.9924 20.4369C16.9924 20.4369 17.8912 15.2984 20.5679 10.9413C20.5679 10.9413 20.8219 10.5115 21.0954 10.6092C21.0759 10.5896 21.3104 10.6092 21.2322 11.293ZM14.5892 23.7584C14.4525 24.3836 12.1079 35.2078 11.8343 36.3019C11.8343 36.3019 10.0564 44.3321 6.26596 43.4724C6.26596 43.4724 4.23399 42.9644 4.83967 39.9556C4.83967 39.9556 5.26952 37.6696 7.22333 36.7318C7.34056 36.6731 7.45779 36.6536 7.57502 36.6341C7.57502 36.6341 8.98177 36.7708 9.27484 35.6376C9.37253 35.2664 8.98177 35.3836 8.98177 35.3836C8.72777 35.4227 8.29793 35.2273 8.29793 35.2273C7.53595 34.9733 6.83257 35.5595 6.83257 35.5595C5.93381 36.1847 5.23044 37.0444 4.76152 38.0408C4.29261 39.0373 4.09722 40.1314 4.17538 41.2255C4.40983 43.8437 6.51996 43.9804 6.51996 43.9804C8.72777 44.254 10.3299 41.7531 10.3299 41.7531C13.1043 37.9627 16.6212 21.9609 16.6212 21.9609C16.6603 21.7264 16.758 21.492 16.9143 21.3161C16.9143 21.3161 21.7793 15.0053 21.9356 10.5896C22.0137 8.85075 21.3494 8.85075 21.3494 8.85075C20.2358 8.79213 18.7704 11.293 18.7704 11.293C16.504 15.0248 14.9214 22.3712 14.9214 22.3712C14.8628 22.6056 14.7455 22.8206 14.6088 23.0159C2.96401 35.1101 0.79527 36.0675 0.560812 36.1456C0.541274 36.1456 0.521735 36.1651 0.521735 36.1847C0.502197 36.1847 0.502197 36.2042 0.502197 36.2238C0.502197 36.2824 0.541274 36.3215 0.658503 36.3019C0.658503 36.3019 1.14696 36.1651 1.88941 35.6767C5.54305 33.2149 14.1985 24.1492 14.5892 23.7584Z" fill="#C60A0A"/>
<path d="M67.3814 14.7123C67.3814 14.7123 67.2447 16.9396 66.1896 21.2185C66.1896 21.238 66.1701 21.2576 66.1701 21.2771C66.1505 21.2966 66.131 21.2966 66.131 21.3162L64.8415 21.7655H64.8219H64.8024V21.746C64.8024 21.746 66.9125 15.3179 67.2447 14.7318C67.2251 14.7123 67.3814 14.3801 67.3814 14.7123ZM66.0333 21.7851C65.0368 25.6146 64.0404 27.9982 64.0404 27.9982C63.6301 28.8774 63.337 28.7602 63.337 28.7602C62.6727 28.5062 64.3921 22.8792 64.5679 22.3126C64.5679 22.2931 64.5875 22.2735 64.5875 22.2735C64.607 22.254 64.607 22.254 64.6265 22.254L65.9747 21.7655H65.9942H66.0138C66.0333 21.7655 66.0333 21.7851 66.0333 21.7851ZM60.6407 23.2504C60.6212 23.2504 60.6212 23.2504 60.6212 23.2504C60.6212 23.2504 60.6212 23.2504 60.6017 23.2504C60.6017 23.2504 60.6017 23.2504 60.6017 23.2309C60.6017 23.2309 60.6017 23.2309 60.6017 23.2114C62.3992 18.3464 62.4578 15.9041 62.3992 15.1226C62.3992 15.1226 62.3406 14.8686 62.4969 14.7904C63.2003 14.4583 64.6852 13.6963 67.2056 11.5861C67.2056 11.5861 67.3228 11.4494 67.2837 11.5861C67.2837 11.5861 67.1079 12.1918 67.0884 12.27C67.0884 12.2895 67.0688 12.3091 67.0493 12.3286C67.0297 12.3481 67.0102 12.3481 66.9907 12.3481C66.9907 12.3481 66.8734 12.3286 66.8344 12.3481C66.8344 12.3481 66.5999 12.3286 66.5217 12.6217C66.5022 12.7194 66.5022 12.8171 66.5217 12.9147C66.5413 13.0124 66.5999 13.0906 66.6781 13.1492C66.6781 13.1492 66.7171 13.1883 66.6976 13.286C65.8379 15.7282 63.9818 21.5506 63.7864 22.1172C63.7864 22.1368 63.7669 22.1563 63.7669 22.1563C63.7473 22.1758 63.7473 22.1758 63.7278 22.1758C62.536 22.5666 61.5004 22.9378 60.6407 23.2504ZM60.0937 23.3872C60.0937 23.4068 60.0741 23.4263 60.0741 23.4263C60.0546 23.4458 60.0546 23.4458 60.0351 23.4458C58.7065 23.9343 57.6709 24.3055 56.9676 24.5595H56.948H56.9285V24.54C56.9285 24.54 56.9285 24.54 56.9285 24.5204C60.6017 14.7513 61.1878 14.3215 61.1878 14.3215C61.1878 14.3215 60.9534 14.7123 61.0901 14.8881C61.0901 14.8881 61.2074 15.1421 61.6567 14.9858C61.6567 14.9858 61.8521 14.8881 61.8912 15.0835C61.8717 15.0835 62.067 17.6625 60.0937 23.3872ZM59.8788 24.0124C57.1825 31.0853 55.7953 33.254 55.2287 33.6838C55.1505 33.7425 55.0724 33.7815 54.9747 33.7815C54.877 33.7815 54.7988 33.7425 54.7207 33.6838C53.8415 32.9805 56.4791 25.7709 56.6745 25.2238C56.6745 25.2043 56.694 25.1847 56.694 25.1847C56.7136 25.1652 56.7136 25.1652 56.7331 25.1652C57.4169 24.8917 58.472 24.4814 59.8397 23.9734H59.8592C59.8788 23.9929 59.8788 23.9929 59.8788 24.0124ZM61.5981 13.1492C61.5981 13.1492 65.5644 3.98579 67.0884 2.71581C67.0884 2.71581 67.6354 2.18828 67.4987 2.87211C67.4987 2.87211 66.5022 7.26821 61.6567 13.2078C61.5395 13.325 61.5981 13.1492 61.5981 13.1492ZM69.9019 8.55773C69.9019 8.55773 71.9143 4.10302 72.8326 2.63766C72.8326 2.63766 73.4383 1.54352 73.829 1.21137C73.8681 1.17229 73.9072 1.13322 73.9658 1.11368C74.0244 1.09414 74.083 1.0746 74.1416 1.0746C74.1416 1.0746 74.5324 1.11368 74.337 1.91474C74.337 1.91474 73.5946 4.88455 70.0386 8.5968C70.0191 8.5968 69.7846 8.81172 69.9019 8.55773ZM76.3299 9.14387H76.3104L76.2908 9.16341C72.2269 14.1261 68.0457 13.2078 68.0457 13.2078C67.7722 13.1687 67.9285 12.9538 67.9285 12.9538C68.0066 12.7194 69.2962 9.84725 69.2962 9.84725C69.3352 9.73002 69.4134 9.63233 69.5111 9.57371C74.6496 4.45471 74.7864 1.17229 74.7864 1.17229C74.845 0.293073 74.6496 0.117229 74.6496 0.117229C74.5129 0 74.1807 0 74.1807 0C74.0049 0 73.8486 0.0781528 73.7313 0.195382C71.2109 2.22735 67.6745 10.6874 67.6745 10.6874C67.6354 10.7851 67.5768 10.8437 67.4987 10.9023C66.0138 12.0746 64.4312 13.1297 62.7704 14.0675C62.6336 14.1456 62.4773 14.1847 62.321 14.2043C62.1647 14.2238 62.0084 14.2043 61.8717 14.1457C61.7544 14.1066 61.6567 14.087 61.5395 14.1066C61.4418 14.1261 61.52 14.0284 61.52 14.0284C67.3423 7.54174 68.3193 1.91474 68.3193 1.91474C68.3779 1.62167 68.3779 1.38721 68.2411 1.25044C67.4205 0.527531 66.7953 1.28952 66.7953 1.28952C63.3175 5.17762 59.7029 14.9272 59.7029 14.9272C59.5857 15.2593 59.3903 15.5719 59.1558 15.8064C58.0812 16.8615 57.2216 16.9005 57.2216 16.9005C57.2606 16.1972 56.5963 16.2362 56.5963 16.2362C56.44 16.2362 56.3033 16.2949 56.1665 16.373C56.0493 16.4707 55.9516 16.5879 55.893 16.7247C55.8539 16.8419 55.8539 16.9787 55.893 17.1155C55.9125 17.2327 55.9907 17.3499 56.0688 17.4476C56.1274 17.5258 56.2251 17.5844 56.3228 17.6039C56.3424 17.6039 56.3619 17.6234 56.3814 17.6234C56.401 17.643 56.4205 17.643 56.4205 17.6625C56.44 17.6821 56.44 17.7016 56.44 17.7211C56.44 17.7407 56.44 17.7602 56.44 17.7798C55.932 20.6909 54.2322 22.2735 54.2322 22.2735C54.0759 22.4298 53.8805 22.5471 53.6461 22.5861C53.5875 22.5861 53.5289 22.5861 53.4702 22.5666C53.4116 22.5471 53.353 22.5275 53.3139 22.4885C52.2003 21.5506 54.623 17.2327 56.2447 15.9822C56.3423 15.9236 56.401 15.865 56.401 15.865C56.9285 15.2984 56.186 15.1226 56.186 15.1226C55.3654 14.9467 54.9942 15.357 54.9942 15.357C51.8681 18.2291 51.5555 21.0231 51.5555 21.0231C51.536 21.1403 51.4773 21.2576 51.3992 21.3552C50.7544 22.3517 50.012 23.27 49.1914 24.1297C48.5466 24.8721 48.2535 24.7549 48.2535 24.7549C47.9019 24.6572 48.1754 23.9734 48.1754 23.9734C48.4489 23.3091 50.0901 19.2451 50.0901 19.2451C50.4614 18.2682 49.7189 17.8384 49.7189 17.8384C49.0351 17.4085 48.2145 18.0142 48.2145 18.0142C47.3548 18.5808 45.44 21.4529 45.3814 21.5115C45.186 21.746 45.2837 21.3748 45.2837 21.3748C45.4596 20.73 45.7722 19.3037 45.7722 19.3037C45.7917 19.2647 45.7917 19.2256 45.7917 19.1865C45.7917 19.1474 45.7917 19.1084 45.7722 19.0693C45.7527 19.0302 45.7331 19.0107 45.694 18.9716C45.655 18.952 45.6354 18.9325 45.5963 18.913C45.4791 18.8739 45.1274 18.9325 45.1274 18.9325C44.8734 18.9716 44.7562 19.2842 44.7562 19.2842C44.5804 19.6945 44.2873 20.2416 44.2873 20.2416C43.8184 21.0817 41.1807 25.2433 39.6372 26.9236C38.9729 27.6465 38.6994 27.5293 38.6994 27.5293C38.3477 27.3925 38.6212 26.7478 38.6212 26.7478C38.8752 26.1226 40.4187 22.3126 40.6141 21.8046C41.0439 20.8863 40.1647 20.5737 40.1647 20.5737L39.1292 20.1634C38.758 20.0071 38.9143 19.6945 38.9143 19.6945C38.9729 19.5187 38.9729 19.3428 38.9338 19.167C38.8361 18.7567 38.5235 18.8153 38.5235 18.8153C37.7811 18.913 38.25 20.1634 38.25 20.1634C38.3086 20.3002 38.3086 20.4565 38.25 20.6128C36.3939 25.556 33.1114 29.0338 33.1114 29.0338C32.7207 29.4831 32.4276 29.6785 32.2322 29.7957C32.2127 29.8153 32.1736 29.8153 32.1541 29.8348C31.6265 29.952 31.5289 29.405 31.5289 29.405C31.1772 28.0178 33.6976 23.5435 33.6976 23.5435C34.0102 22.9378 33.4045 22.9183 33.4045 22.9183C32.7598 22.8597 32.5448 23.3286 32.5448 23.3286C32.3885 23.6021 30.6496 26.9236 30.6496 26.9236C29.7313 28.7016 27.5626 31.2025 27.5626 31.2025C26.996 31.8863 26.7225 31.7691 26.7225 31.7691C26.3512 31.6519 26.6052 31.0071 26.6052 31.0071C26.7615 30.5382 27.5821 28.0959 28.012 26.8455C28.3441 25.4583 27.3477 25.4583 27.3477 25.4583C25.8823 25.4192 23.8699 28.8384 23.8699 28.8384C23.7527 29.0338 23.8113 28.8188 23.8113 28.8188C24.2606 27.1776 23.4791 27.0799 23.4791 27.0799C22.4045 26.8064 19.7669 30.8117 19.7669 30.8117C19.6301 30.9876 19.7082 30.7922 19.7082 30.7922C20.8415 27.6465 19.337 27.6075 19.337 27.6075C17.7349 27.5098 16.758 29.7371 16.758 29.7371C16.758 29.7371 15.8201 31.4956 15.7225 31.73C15.7225 31.73 15.4685 32.1599 15.6638 32.238C15.6638 32.238 15.8592 32.3357 16.0351 31.8277C16.0351 31.8277 17.6763 27.9982 18.7313 28.2522C18.7313 28.2522 19.1221 28.3108 18.6336 29.8934C18.6336 29.8934 17.6177 33.1758 16.758 35.032C16.758 35.032 16.5626 35.4814 16.7384 35.6963C16.7384 35.6963 16.9729 36.0284 17.2464 36.1261C17.2464 36.1261 17.6763 36.302 18.0475 35.4814C18.0475 35.4814 20.3335 29.8544 22.5413 28.1741C22.5413 28.1741 22.8148 27.9787 22.7562 28.2522C22.7562 28.2522 22.3459 29.6394 21.8574 30.8508C21.8574 30.8508 21.0955 32.9023 21.0564 33.2931C21.0564 33.2931 20.9392 33.8792 21.2322 34.0551C21.4471 34.1918 21.7011 34.2895 21.9551 34.3286C22.0528 34.3286 22.1505 34.3091 22.2287 34.2505C22.3068 34.1918 22.3654 34.1137 22.385 34.016C22.385 34.016 24.0457 27.7247 26.5271 26.2593C26.5271 26.2593 26.9569 26.0053 26.8397 26.4547C26.3903 27.7638 25.4134 30.6163 25.2571 31.0266C25.2571 31.0266 24.7882 32.2185 25.6088 32.5506C25.6088 32.5506 26.2535 32.9414 27.0741 32.1794C27.0741 32.1794 27.9534 31.5737 30.3566 28.1155C30.3566 28.1155 29.9658 30.0888 31.3335 30.4796C31.3335 30.4796 32.0368 30.7336 32.7598 30.0302C32.7598 30.0302 35.9054 27.2753 38.6798 20.73C38.6798 20.73 38.7189 20.5737 38.8361 20.6519C38.8361 20.6519 39.1292 20.8277 39.3832 21.0036C39.3832 21.0036 39.5786 21.1208 39.4223 21.4725C39.4027 21.5506 37.5075 26.1616 37.2731 26.6892C37.2731 26.6892 36.726 27.8615 37.5271 28.2327C37.5271 28.2327 38.1523 28.643 39.0315 27.9592C39.0315 27.9592 39.52 27.6661 40.4969 26.4938C41.845 24.8917 43.4081 22.3908 43.6035 22.0782C43.6035 22.0782 43.6621 21.9805 43.7011 22C43.7011 22 43.7402 22.0195 43.6816 22.1563C43.6816 22.1563 41.9036 26.0444 41.845 26.2789C41.845 26.2789 41.7082 26.6306 41.845 26.8064C41.9232 26.9236 42.0209 27.0409 42.1576 27.119C42.2944 27.1972 42.4312 27.2362 42.5679 27.2362C42.6461 27.2362 42.7242 27.2167 42.7828 27.1776C42.8415 27.1385 42.9001 27.0799 42.9392 27.0213C42.9392 27.0213 45.2251 21.6092 48.0386 18.6199C48.0386 18.6199 48.5662 18.0728 48.8592 18.2291C48.8592 18.2291 49.0937 18.3464 48.8788 18.8544C48.8592 18.9325 47.0422 23.3677 46.8077 23.8757C46.8077 23.8757 46.2606 25.048 47.0617 25.4192C47.0617 25.4192 47.6869 25.8295 48.5662 25.1457C48.5662 25.1457 49.5235 24.5595 51.4773 21.7655C51.4773 21.7655 51.536 21.6874 51.575 21.6874C51.575 21.6874 51.575 21.6679 51.575 21.8046C51.575 21.8046 51.4969 22.9378 52.4933 23.2895C52.4933 23.2895 53.3335 23.6412 54.5253 22.4885C55.893 21.1208 56.8308 19.3819 57.202 17.4867C57.202 17.4867 57.7296 17.389 58.8237 16.5684C58.8237 16.5684 58.9995 16.4512 58.9214 16.5879C58.8432 16.7638 57.2606 20.8668 55.9907 24.833C55.9907 24.8526 55.9711 24.8721 55.9711 24.8721C55.9516 24.8917 55.9516 24.8917 55.932 24.8917C51.8095 26.5133 14.0031 40.0533 14.0031 40.0533C14.0031 40.0533 13.4951 40.1901 13.7491 40.4636C13.7491 40.4636 13.9836 40.7371 14.9214 41.0497C15.2731 41.167 15.6638 41.167 16.0351 41.0497C16.0351 41.0497 52.4738 26.8064 55.7367 25.5364H55.7562H55.7757V25.556C54.3885 29.9911 53.2944 34.6608 54.623 34.9929C54.623 34.9929 55.0724 35.1101 55.5999 34.4458C56.401 33.3517 57.9249 30.3819 60.4649 23.7389C60.4649 23.7194 60.4844 23.7194 60.4844 23.6998C60.504 23.6803 60.504 23.6803 60.5235 23.6803C61.4027 23.3481 62.4383 22.9769 63.6301 22.5471H63.6496H63.6692V22.5666C63.6692 22.5666 61.6958 29.405 63.2003 29.6199C63.2003 29.6199 63.7864 29.6785 64.2358 28.7798C64.2358 28.7798 65.4471 26.2789 66.5413 21.5702C66.5413 21.5506 66.5608 21.5311 66.5608 21.5311C66.5804 21.5115 66.5804 21.5115 66.5999 21.492C68.0848 20.9645 69.5892 20.4369 70.1949 20.2611C70.1949 20.2611 70.6248 20.1048 71.2695 19.929C71.8361 19.7726 71.7775 19.6163 71.7775 19.6163C71.758 19.5577 71.4649 19.6163 71.4649 19.6163C70.6248 19.7922 69.7846 20.0462 69.7846 20.0462C69.2766 20.183 67.9871 20.6128 66.7367 21.0231H66.7171H66.6976V21.0036C68.1434 15.2984 67.7917 13.5986 67.7917 13.5986C67.7722 13.4227 67.9285 13.5009 67.9285 13.5009C71.9729 14.1652 74.7278 11.4298 75.9001 9.96448C75.9001 9.96448 76.3495 9.39787 76.4862 9.16341C76.4862 9.16341 76.4862 9.14387 76.4862 9.12434C76.4862 9.1048 76.4862 9.08526 76.4667 9.08526C76.369 9.16341 76.3495 9.16341 76.3299 9.14387Z" fill="#C60A0A"/>
<path d="M34.108 20.4565C34.8114 20.5347 35.1044 19.8313 35.1044 19.8313C35.4561 19.0107 34.87 18.8544 34.87 18.8544C34.0689 18.6395 33.7758 19.7727 33.7758 19.7727C33.6781 20.1244 33.7758 20.2611 33.7758 20.2611C33.8149 20.3198 33.854 20.3588 33.9126 20.3979C33.9712 20.4174 34.0298 20.437 34.108 20.4565Z" fill="#C60A0A"/>
</g>
<defs>
<clipPath id="clip0_229_7984">
<rect width="75.8863" height="44" fill="white" transform="translate(0.502197)"/>
</clipPath>
</defs>
</svg>
