<svg width="123" height="28" viewBox="0 0 123 28" fill="none" xmlns="http://www.w3.org/2000/svg">
<g clip-path="url(#clip0_229_4724)">
<path d="M117.069 12.6977C114.934 15.4041 109.892 20.4099 108.448 20.4099C107.736 20.4099 107.594 19.2907 108.651 17.9884C110.99 15.1803 115.666 9.54364 115.666 9.54364H112.25C112.25 9.54364 109.241 13.2268 107.716 15.0582C107.716 15.0582 107.716 15.0785 107.696 15.0785C105.561 17.7849 102.633 20.5117 100.803 20.4913C100.03 20.4913 100.091 19.596 101.311 18.0494C103.548 15.221 105.784 12.3518 108.021 9.54364H104.747C103.731 10.9274 102.694 12.3111 101.657 13.6948C102.917 11.721 103.588 9.2384 102.002 9.2384C99.6234 9.2384 96.0041 11.2733 94.0521 13.7151C91.0224 17.5407 91.9374 20.8779 94.0724 20.8779C96.4107 20.8983 98.4644 17.8663 100.579 15.1599C98.8101 17.5814 98.4034 20.8779 100.599 20.8779C102.47 20.8779 105.032 18.8024 107.045 16.0146C105.784 18.2936 106.191 20.7965 108.082 20.8169C109.912 20.8169 113.491 17.1338 115.768 14.3663C114.487 16.0349 113.186 17.7035 111.905 19.3721C109.505 22.4855 106.801 26.0262 105.052 27.8169C105.113 27.8779 105.195 27.939 105.256 28C106.557 27.2878 112.088 26.6977 115.768 24.032C119.306 21.5087 121.543 17.2965 119.875 14.8547C120.953 17.5407 118.452 21.2442 116.5 22.8925C114.365 24.6832 111.823 25.9244 109.099 26.5146C109.566 26.0262 110.014 25.4971 110.441 24.9681C114.507 19.8401 122.641 9.52329 122.641 9.52329H119.469C119.489 9.54364 117.862 11.6599 117.069 12.6977ZM100.315 15.2006C98.7898 17.1134 96.1871 20.5117 94.1741 20.5117C91.7951 20.5117 96.5328 15.0582 98.9931 11.9244C99.8064 10.8867 101.026 9.66573 102.063 9.66573C103.466 9.64538 102.145 12.9012 100.315 15.2006Z" fill="#061022"/>
<path d="M92.9136 13.0233C95.2723 13.0233 96.9396 9.23841 94.825 9.25876C93.1983 9.25876 89.6196 12.8402 84.638 19.1279C84.9633 18.6192 85.2886 18.1105 85.6343 17.6018C87.688 14.9361 89.762 12.2297 91.8156 9.54365H88.725C88.115 10.3576 87.505 11.1716 86.8746 12.0059C86.895 11.9652 86.9356 11.9245 86.9356 11.9245C86.956 11.9245 79.758 20.5117 75.8743 20.5117C75.3456 20.5117 75.0406 20.3082 75.0203 19.7791C75.0203 18.4768 76.5656 16.6047 78.05 14.6919C78.8836 13.6338 79.697 12.596 80.5306 11.5175C82.4216 9.09597 83.3976 9.27911 83.418 10.1541C83.418 11.0291 81.9946 13.1047 80.368 14.5291C79.148 15.5262 77.7856 16.3605 76.3216 16.9913C76.3216 16.9913 84.089 14.2646 84.0686 10.5C84.0686 9.74714 83.601 9.17737 82.5843 9.17737C80.9983 9.17737 77.379 11.2936 75.3456 13.5727C75.183 13.7355 75.061 13.9186 74.9186 14.1018C74.817 14.2239 74.7356 14.3256 74.6543 14.4681C71.3806 18.5175 68.6763 20.471 67.375 20.471C66.5006 20.471 67.07 19.1279 68.29 17.5814C70.4656 14.7936 74.5526 9.5233 74.5526 9.5233H71.2586C71.2586 9.5233 69.51 11.8431 68.656 13.0029C64.6503 17.9884 61.763 20.4913 60.482 20.471C59.4653 20.471 59.9533 19.2297 61.153 17.7035C63.288 14.9768 65.423 12.25 67.558 9.5233H64.264C64.264 9.5233 61.4376 13.1047 60.055 14.875C58.042 17.4593 57.7573 20.939 60.1363 20.939C61.5596 20.939 63.3083 19.8605 66.5006 15.8721C64.9553 18.2123 65.0976 20.8983 67.192 20.8983C68.5746 20.8983 70.4656 20.1454 74.3086 15.0175C72.6616 17.8663 73.3733 20.8169 75.6303 20.7966C79.7986 20.7762 85.2073 14.1018 86.5696 12.3314C84.516 15.0378 82.4826 17.7646 80.429 20.4913H83.662C84.9023 18.6396 91.1853 11.5378 92.751 10.8053C92.263 11.2326 91.6123 13.0233 92.9136 13.0233Z" fill="#061022"/>
<path d="M52.0843 23.625C50.4576 25.0494 48.5056 26.0872 46.4113 26.5959C47.001 26.2093 47.5296 25.7413 47.9566 25.1512C52.003 19.9419 56.0086 14.7326 60.0346 9.52325H56.6796C55.7443 10.8052 54.8293 12.0872 53.9143 13.3692C55.114 11.4157 55.846 9.21802 53.7923 9.21802C51.4133 9.21802 47.5296 11.2122 45.5776 13.6541C42.5276 17.4796 43.2393 20.8169 45.3743 20.8169C47.3263 20.8372 49.99 18.2122 52.1656 15.6279C46.7773 22.5262 43.6256 26.6163 42.4463 27.8779C43.402 27.532 44.7643 27.4099 45.9233 27.1453C50.7016 26.0261 54.0363 23.2384 59.7703 15.2413C57.4726 18.2936 54.8903 21.0814 52.0843 23.625ZM45.5776 20.3692C45.049 20.3692 44.6626 19.718 46.0453 17.9477C47.672 15.8924 49.2986 13.8576 50.905 11.8023C51.7386 10.7645 52.796 9.62499 53.833 9.62499C55.8663 9.62499 54.3006 12.6366 52.3893 15.0581C50.417 17.5 47.184 20.3895 45.5776 20.3692Z" fill="#061022"/>
<path d="M37.79 20.4913C37.4646 20.4913 37.18 20.3692 37.18 19.9622C37.18 18.7006 43.0766 14.5698 43.036 11.1105C43.036 10.1541 42.609 9.15698 41.389 9.15698C39.3353 9.17733 34.0893 15.2616 31.4256 18.4157C32.4016 17.1337 33.3573 15.8721 34.3333 14.6105C37.2003 10.8663 38.3186 9.54361 38.3186 9.54361H35.167C33.9876 11.1105 32.788 12.657 31.6086 14.2035C27.603 19.0465 24.5733 20.4506 23.211 20.4506C22.357 20.4506 22.2756 19.3924 23.577 17.6628C25.6713 14.875 27.664 12.3314 29.7583 9.52326H26.505C25.7323 10.6017 25.0613 11.4564 24.2683 12.5552C25.2036 10.8663 25.5493 9.21803 23.821 9.23838C21.5843 9.23838 17.843 11.1512 15.9316 13.5727C12.902 17.4186 13.939 20.8169 16.0536 20.8169C18.026 20.8169 19.9983 18.2733 21.9503 15.7704C20.2423 18.1919 20.4456 20.8779 22.723 20.8779C23.882 20.8576 26.5456 20.4506 30.4496 15.6686C29.2296 17.2762 28.0096 18.8634 26.7693 20.4709H29.8396C31.0393 18.8227 39.193 9.58431 41.206 9.58431C41.45 9.58431 41.6736 9.76745 41.6736 10.0116C41.694 11.3547 35.6753 15.4244 35.6956 18.5581C35.6956 19.6366 36.143 20.8779 37.3833 20.8779C40.596 20.8779 44.134 15.8111 45.0083 14.3256C44.3373 15.5669 40.3316 20.4709 37.79 20.4913ZM16.257 20.4506C14.976 20.4506 15.8706 18.6192 17.2736 16.6861C18.4936 14.9971 19.9576 13.2064 21.1166 11.8023C21.9706 10.7645 23.1296 9.62501 24.0853 9.62501C25.5696 9.62501 24.3496 12.5959 22.418 14.9971C20.4863 17.439 18.026 20.4506 16.257 20.4506Z" fill="#061022"/>
<path d="M4.2602 22.75C3.67054 22.75 3.1012 22.7907 2.53187 22.8924C4.8092 22.4854 6.84254 21.2035 8.18454 19.2907C10.9092 15.5058 13.9185 11.7209 16.6432 7.91567C18.3919 5.47381 20.4252 3.68311 21.9909 3.41857C28.0095 3.37787 32.8082 1.85171 33.1539 0.488339C33.0522 0.508688 32.9505 0.508688 32.8489 0.508688C32.8489 0.508688 32.6049 1.36334 29.7582 1.40404C24.7359 1.44473 19.9575 -0.0407308 14.6099 -3.31547e-05C9.1402 -3.31547e-05 2.59287 3.47962 2.59287 8.58718C2.59287 9.34009 2.95887 9.34009 3.08087 9.34009C3.36554 9.31974 3.67054 9.29939 3.9552 9.29939C3.9552 9.29939 3.3452 9.11625 3.3452 7.54939C3.67054 4.47671 6.23254 2.1366 9.3232 2.07555C13.9999 2.0552 16.8465 3.31683 21.2792 3.41857C17.9852 3.66276 13.6745 6.36915 11.0109 10.0726C11.0312 10.0726 3.20287 20.4506 2.45054 21.5901C1.96254 22.3226 1.35254 22.9942 0.640869 23.5232C3.69087 22.4447 5.88687 23.5639 7.26954 23.5436C7.7982 23.6046 8.30654 23.3808 8.61154 22.9535C7.7372 23.3197 6.25287 22.7296 4.2602 22.75Z" fill="#061022"/>
<path d="M120.851 23.4622C120.323 23.4622 119.896 23.8895 119.896 24.4186C119.896 24.9476 120.323 25.3749 120.851 25.3749C121.38 25.3749 121.807 24.9476 121.807 24.4186C121.807 23.8895 121.4 23.4622 120.872 23.4622H120.851ZM120.851 25.1918C120.424 25.1918 120.079 24.8255 120.099 24.3982C120.099 23.9709 120.465 23.6249 120.892 23.6453C121.319 23.6453 121.644 23.9912 121.644 24.4186C121.624 24.8459 121.278 25.1918 120.851 25.1918Z" fill="#061022"/>
<path d="M120.974 24.4797C121.136 24.4797 121.258 24.3372 121.258 24.1948C121.258 24.0117 121.136 23.9099 120.913 23.9099C120.75 23.9099 120.587 23.9099 120.425 23.9099V24.9274H120.628V24.5H120.689C120.831 24.5 120.892 24.5407 120.994 24.7442C121.035 24.8053 121.055 24.846 121.075 24.907H121.34C121.319 24.8256 121.258 24.7646 121.238 24.7035C121.075 24.5407 121.055 24.5204 120.974 24.4797ZM120.791 24.3576H120.608V24.0727H120.811C120.953 24.0727 121.035 24.1134 121.035 24.2151C121.035 24.2965 120.953 24.3576 120.791 24.3576Z" fill="#061022"/>
</g>
<defs>
<clipPath id="clip0_229_4724">
<rect width="122" height="28" fill="white" transform="translate(0.640869)"/>
</clipPath>
</defs>
</svg>
