<svg width="97" height="30" viewBox="0 0 97 30" fill="none" xmlns="http://www.w3.org/2000/svg">
<g clip-path="url(#clip0_229_4614)">
<path d="M79.8896 10.5903C79.2311 9.74691 78.2608 9.7951 77.3252 9.91559C75.9622 10.0963 74.7493 10.6746 73.5826 11.4096C73.3978 11.53 73.2361 11.7469 72.9473 11.6144C73.444 11.0481 73.9407 10.4939 74.4259 9.95173C73.6519 10.0722 72.9473 10.1084 72.2311 10.1204C71.2031 10.1445 70.3598 10.5541 69.7245 11.4698C68.6272 13.024 67.4836 14.53 66.3169 16.024C64.9308 17.8072 63.279 19.2529 61.3268 20.3373C60.8417 20.6023 60.3218 20.7469 59.7674 20.6144C59.3284 20.518 59.2014 20.2288 59.3284 19.8072C59.444 19.4216 59.675 19.0963 59.9176 18.7831C61.0958 17.265 62.2625 15.759 63.4407 14.2409C64.5611 12.7951 65.6816 11.3493 66.8945 9.78306C66.1783 9.95173 65.5892 10.012 65.0001 9.97583C64.2493 9.92763 63.6486 10.2529 63.1634 10.8192C62.8978 11.1325 62.6783 11.4819 62.4357 11.8192C62.4126 11.8072 62.4011 11.7951 62.3895 11.7831C62.3664 11.7349 62.3318 11.6746 62.3318 11.6144C62.1585 10.3011 61.3153 9.71077 60.1601 9.48185C59.1321 9.27703 58.1618 9.53004 57.2377 9.92763C54.3268 11.1806 52.0974 13.3132 50.307 15.9879C50.1799 16.1806 50.0528 16.3975 49.8796 16.5541C48.4241 17.8433 46.8647 18.9879 45.1205 19.7951C44.1733 20.2409 43.1914 20.6023 42.1287 20.6144C41.2162 20.6264 40.9043 20.2288 41.0891 19.3011C41.2508 18.518 41.5974 17.8313 42.0248 17.1806C43.5726 14.7951 45.4786 12.771 47.7079 11.0722C48.2047 10.6867 48.7591 10.4096 49.3713 10.265C49.6948 10.1927 50.0182 10.1686 50.3301 10.3132C50.6304 10.4457 50.7921 10.6746 50.7344 11.024C50.6651 11.3734 50.4109 11.5059 50.1106 11.53C49.9835 11.5421 49.8565 11.4939 49.6948 11.4578C49.8565 12.0722 50.2839 12.2891 50.769 12.3252C51.3235 12.3734 51.7855 12.1204 52.0512 11.5782C52.4555 10.771 52.1436 9.90354 51.2773 9.4939C50.4109 9.08426 49.5099 9.12041 48.6205 9.31318C45.3053 10.0722 42.6254 11.9758 40.3614 14.518C38.7673 16.3132 37 17.8674 35.1634 19.3734C34.528 19.8915 33.8581 20.3734 33.0726 20.6144C32.6221 20.759 32.4026 20.5541 32.495 20.0722C32.5643 19.6626 32.8416 19.3614 33.0726 19.0481C35.2789 16.0843 37.4851 13.1204 39.6799 10.1445C39.7954 9.98787 39.9686 9.86739 39.9802 9.61438C39.4142 9.73486 38.8366 9.85535 38.2706 9.80715C37.1733 9.71077 36.4917 10.3011 35.9604 11.1927C35.8218 11.4337 35.6716 11.6867 35.5445 11.9035C35.3828 11.8312 35.3944 11.759 35.3944 11.6746C35.5214 10.5421 35.0247 9.8192 33.9736 9.57824C33.0264 9.36137 32.1254 9.56619 31.259 9.90354C27.7821 11.2891 25.0792 13.6746 23.127 16.9758C22.8036 17.53 22.5957 18.1325 22.4801 18.771C22.2029 20.3975 23.1963 21.6987 24.7673 21.771C25.5874 21.8072 26.3267 21.5541 27.0198 21.1445C28.1864 20.4578 29.1683 19.53 30.0924 18.53C30.2425 18.3734 30.3581 18.1565 30.6006 18.0963C30.6699 18.3373 30.566 18.518 30.5313 18.7108C30.2425 20.4337 31.1666 21.5782 32.7145 21.4096C33.1419 21.3614 33.5346 21.1927 33.9043 20.9879C34.6667 20.6023 35.3713 20.0963 36.0297 19.5541C36.7921 18.9276 37.5429 18.265 38.3053 17.6144C38.3977 17.8312 38.3053 17.9999 38.2706 18.1686C38.0049 19.8674 38.9059 21.277 40.4885 21.6264C41.2277 21.7831 41.9786 21.7831 42.7178 21.5782C45.005 20.9638 46.9225 19.6626 48.7707 18.1927C48.9208 18.0722 49.0825 17.9517 49.2905 17.7951C49.2558 18.0481 49.2327 18.2047 49.1981 18.3614C48.8169 20.6505 50.2492 22.0722 52.4208 21.5421C53.8763 21.1806 54.9852 20.2168 56.0826 19.2288C56.4638 18.8794 56.8334 18.5059 57.307 18.0481C57.2261 18.5541 57.1684 18.9035 57.1222 19.2529C56.9374 20.6626 57.6882 21.5662 59.0397 21.6626C60.4489 21.759 61.5578 21.0722 62.6552 20.3132C62.84 20.1927 62.9786 19.9879 63.3136 19.9879C60.7492 23.3132 58.2195 26.5903 55.609 29.9758C56.302 29.9397 56.8103 29.771 57.2839 29.518C58.0578 29.1084 58.7971 28.6505 59.675 28.4939C59.8829 28.4578 59.9753 28.265 60.0908 28.1084C61.8351 25.7108 63.5677 23.3132 65.312 20.9035C65.4968 20.6505 65.6931 20.3855 65.8895 20.1084C66.5133 21.1445 67.0793 21.53 68.1536 21.6264C68.5925 21.6626 69.043 21.6987 69.4819 21.6144C74.3912 20.759 77.7526 17.8072 79.878 13.2168C80.317 12.3975 80.5249 11.4096 79.8896 10.5903ZM31.5594 15.9999C30.3234 17.4096 29.0643 18.7831 27.6204 19.9638C27.2046 20.3011 26.7887 20.6023 26.3036 20.8192C25.9686 20.9638 25.5874 21.1084 25.2755 20.8192C24.9521 20.53 24.9521 20.1204 25.0676 19.7108C25.1947 19.2168 25.391 18.771 25.6452 18.3373C27.2854 15.5662 29.33 13.1686 31.7326 11.0843C32.3102 10.5782 32.9571 10.1686 33.7657 10.2168C34.3779 10.2409 34.6898 10.5782 34.6551 11.0481C34.5973 11.7228 34.3432 12.2168 34.0544 12.6987C33.3498 13.9035 32.4719 14.9638 31.5594 15.9999ZM54.2806 19.8553C53.8185 20.2168 53.3449 20.5541 52.7789 20.7228C52.0974 20.9276 51.6931 20.5903 51.7509 19.8433C51.7855 19.3132 52.0165 18.8433 52.2591 18.3855C53.3796 16.3493 54.8812 14.6264 56.4522 12.9758C57.1684 12.2168 57.8961 11.4698 58.7393 10.8674C59.236 10.518 59.7558 10.2288 60.2525 10.2047C61.269 10.2047 61.6387 10.7349 61.3499 11.6264C61.0611 12.4939 60.5529 13.2288 59.9984 13.9276C58.2773 16.1084 56.4291 18.1445 54.2806 19.8553ZM76.9209 13.4337C75.1305 16.9156 72.4275 19.277 68.8235 20.4939C68.7196 20.53 68.604 20.5541 68.4885 20.5662C68.3499 20.5782 68.2229 20.5782 68.142 20.5903C67.1255 20.6023 66.8136 20.1566 67.0908 19.1566C67.2757 18.4698 67.6338 17.8674 68.038 17.3132C69.8054 14.9035 71.9539 12.9517 74.4836 11.4578C75.0727 11.1084 75.6849 10.8072 76.378 10.7831C77.0364 10.759 77.3368 11.0722 77.3368 11.759C77.3137 12.3493 77.175 12.9156 76.9209 13.4337Z" fill="#061022"/>
<path d="M44.6353 26.8794C40.6386 27.2891 36.6765 27.0361 32.726 26.4216C29.1105 25.8553 25.5874 24.8553 22.0642 23.8915C18.3794 22.8915 14.6599 22.0361 10.8134 22.1445C10.7672 22.1445 10.6979 22.1445 10.6863 22.0361C10.7787 21.9638 10.8711 21.8674 10.9866 21.7831C16.7622 17.4096 22.5609 13.0722 28.1055 8.38546C29.5379 7.18064 31.028 6.02401 32.726 5.21678C33.4884 4.85533 33.5461 4.68666 33.0263 3.98786C32.8762 3.78305 32.6913 3.60232 32.4834 3.4457C31.6633 2.83124 30.7161 2.59027 29.7227 2.50594C26.858 2.28907 24.0395 2.73485 21.2325 3.16859C18.8761 3.53003 16.5197 3.91558 14.117 3.81919C13.447 3.79509 12.7771 3.71076 12.1418 3.43365C11.3794 3.0963 11.1368 2.49389 11.4371 1.67461C11.5411 1.3975 11.6797 1.12039 11.8414 0.770996C11.1715 0.891478 10.6632 1.16859 10.2012 1.54208C9.47343 2.14449 8.80346 2.83124 8.94207 3.89148C9.08069 4.92762 9.86617 5.40955 10.721 5.75895C12.1302 6.33726 13.6088 6.3975 15.0989 6.30112C17.3513 6.16859 19.5576 5.68666 21.7524 5.20473C23.6467 4.78305 25.5411 4.34931 27.4817 4.18064C27.7128 4.15654 28.0131 4.04811 28.1748 4.32521C28.325 4.61437 28.1286 4.86738 27.99 5.0963C27.4009 6.03606 26.6385 6.79509 25.8415 7.51799C21.9141 11.1083 17.7441 14.3734 13.2738 17.2047C10.4668 18.9879 7.57903 20.6264 4.73744 22.3614C3.50146 23.1084 2.34634 23.9758 1.38759 25.1084C0.659864 25.9879 0.163163 26.9879 0.151611 28.3614C1.35294 27.2288 2.60047 26.4096 3.9404 25.7469C7.97177 23.7228 12.1764 23.7108 16.4504 24.6144C19.4306 25.2409 22.2953 26.2891 25.1715 27.277C31.7326 29.5541 38.4207 30.6385 45.3284 29.5903C47.7195 29.2288 50.0297 28.5662 52.0974 27.1927C53.137 26.5059 54.038 25.6746 54.6386 24.53C54.7657 24.2891 54.9621 24.0481 54.8696 23.6867C51.6584 25.5662 48.2277 26.5059 44.6353 26.8794Z" fill="#061022"/>
<path d="M37.5197 4.42164C38.0164 4.69875 38.6401 4.54212 39.0098 4.04814C37.9355 3.90357 37.6467 3.30116 38.1896 2.31321C38.3744 1.97586 38.6055 1.6867 38.8942 1.44574C39.8645 0.650554 40.9735 0.240916 42.2094 0.313205C42.8447 0.34935 43.3992 0.590313 43.6533 1.24092C43.8959 1.87947 43.6533 2.45778 43.249 2.96381C42.8101 3.49393 42.221 3.67465 41.551 3.77104C41.9553 4.65055 42.0708 5.57827 42.348 6.44573C42.7408 7.6626 43.6764 8.08429 44.7622 7.54212C43.9536 7.09634 43.6418 6.28911 43.3876 5.46983C43.2028 4.87947 43.0296 4.30116 42.5213 3.81923C43.0642 3.6626 43.5378 3.48188 43.9421 3.19272C44.5428 2.75899 44.9932 2.20477 44.8546 1.38549C44.716 0.590313 44.1269 0.192723 43.4223 0.0842894C41.1236 -0.277156 39.1368 0.385494 37.5197 2.16863C37.3117 2.39754 37.1731 2.69875 37.0807 3.012C36.8728 3.6626 37.0345 4.15658 37.5197 4.42164Z" fill="#061022"/>
<path d="M49.7178 5.60231C50.1913 4.73484 50.7805 3.92761 51.589 3.33725C51.8085 3.18062 52.0742 2.91556 52.2937 3.15652C52.4438 3.31315 52.1781 3.57821 52.0395 3.77098C51.797 4.10833 51.5428 4.43363 51.3003 4.77098C51.1385 4.9999 50.9768 5.22881 50.8613 5.48183C50.5263 6.19267 50.7689 6.61436 51.5197 6.6505C52.7095 6.71074 53.5065 6.03604 54.1765 5.12038C54.2343 5.03604 54.292 4.93966 54.1996 4.85532C54.061 4.72279 54.0148 4.87942 53.9455 4.9758C53.6336 5.38544 53.3102 5.78303 52.8828 6.06014C52.6171 6.24086 52.259 6.51797 51.9933 6.22881C51.7392 5.95171 52.1088 5.66255 52.259 5.40954C52.4438 5.10833 52.6748 4.83122 52.8828 4.54207C53.056 4.27701 53.2524 4.02399 53.3795 3.73484C53.7144 2.9999 53.4603 2.6264 52.6979 2.6264C52.0511 2.6264 51.5775 3.02399 51.0115 3.36134C51.0346 3.07218 51.4158 2.77098 50.9191 2.66255C50.5841 2.59026 50.0874 2.45773 50.0412 2.89146C49.9719 3.46978 49.6369 3.83122 49.3712 4.24086C48.9207 4.92761 48.4125 5.57821 47.9158 6.27701C48.7128 6.44568 49.2904 6.39749 49.7178 5.60231Z" fill="#061022"/>
<path d="M36.6534 7.62641C37.5544 7.57822 38.3283 7.21677 39.0099 6.62641C39.9917 5.78304 40.6732 4.6987 41.2739 3.54207C41.7475 2.62641 42.2095 1.6987 43.1336 1.01195C42.8102 0.90352 42.6138 0.963762 42.4059 1.03605C41.7706 1.26497 41.2623 1.68665 40.8118 2.18063C40.1419 2.93967 39.6683 3.83123 39.16 4.71075C38.7904 5.3493 38.4438 5.98786 37.9356 6.51798C37.5198 6.95171 37.0231 7.27702 36.3993 7.19268C35.9372 7.13244 35.66 6.75894 35.7871 6.38545C35.8217 6.28906 36.0297 6.25292 35.8679 6.10834C35.7755 6.024 35.6485 6.03605 35.533 6.09629C35.2095 6.24087 35.1287 6.49388 35.2442 6.83123C35.4174 7.36135 35.9372 7.66256 36.6534 7.62641Z" fill="#061022"/>
<path d="M45.3398 6.37346C45.8712 6.4096 46.3679 6.28912 46.8415 6.04815C48.2045 5.34936 48.759 4.16864 48.6897 2.66261C48.6088 2.86743 48.4818 3.02406 48.2276 2.74695C48.0197 2.53008 47.754 2.42165 47.4537 2.39755C46.1946 2.28912 44.5543 3.49394 44.2193 4.74695C43.9999 5.59032 44.4966 6.31321 45.3398 6.37346ZM47.4306 2.759C47.5923 2.72285 47.7771 2.67466 47.9157 2.92767C47.5577 2.97587 47.2342 3.0843 47.2342 3.59032C47.419 3.53008 47.6039 3.46984 47.8002 3.4096C47.7194 4.27707 46.3679 5.89153 45.6055 6.04815C45.2359 6.12044 45.1088 5.90358 45.1203 5.57827C45.1434 4.77105 46.6567 2.95177 47.4306 2.759Z" fill="#061022"/>
<path d="M94.1899 16.0121C94.5364 16.5422 94.5826 17.0361 94.3747 17.5904C93.7278 19.2651 91.4176 20.8675 89.6965 20.8193C89.142 20.8072 88.9688 20.5663 89.1651 20.012C89.3615 19.4337 89.6734 18.9277 90.0315 18.4578C91.279 16.8193 92.5265 15.2048 93.7856 13.5783C94.7212 12.3615 95.6684 11.1566 96.6734 9.85543C96.0034 10 95.4374 10.1446 94.8714 10.0723C93.7625 9.93977 93.0463 10.5181 92.4919 11.4217C92.3533 11.6386 92.2262 11.8554 92.0414 12.1807C91.741 10.1566 90.9902 9.55423 89.1074 9.73495C88.5298 9.79519 87.9754 9.95182 87.4324 10.1687C84.7872 11.2289 82.6272 12.988 80.779 15.2048C80.0166 16.1205 79.3466 17.0964 79.0116 18.2771C78.3648 20.506 79.8202 22.1566 82.0034 21.7108C83.2625 21.4578 84.2559 20.6988 85.2031 19.8795C85.7691 19.3855 86.3004 18.8434 86.8895 18.2892C86.8318 18.6627 86.7625 18.9759 86.7278 19.2892C86.5546 20.6867 87.2592 21.5422 88.5991 21.5542C90.8054 21.5783 92.7344 20.7831 94.4094 19.3012C94.8945 18.8675 95.3335 18.3976 95.5991 17.7711C95.784 17.3253 95.8417 16.8675 95.5067 16.4699C95.1717 16.0723 94.7443 15.9157 94.1899 16.0121ZM84.1404 19.9157C83.6437 20.3253 83.1239 20.7108 82.5232 20.9518C82.2344 21.0723 81.9225 21.1807 81.6569 20.9398C81.3565 20.6626 81.2872 20.2771 81.4027 19.8916C81.5182 19.506 81.6569 19.1325 81.8532 18.7952C83.5397 15.8795 85.642 13.3374 88.2064 11.241C88.7146 10.8193 89.2691 10.4337 89.8813 10.4096C90.8054 10.4217 91.2905 11.1687 90.9556 11.988C90.5397 13.0362 89.8351 13.9036 89.142 14.759C87.6057 16.6145 85.9885 18.3855 84.1404 19.9157Z" fill="#061022"/>
</g>
<defs>
<clipPath id="clip0_229_4614">
<rect width="96.5217" height="30" fill="white" transform="translate(0.151611)"/>
</clipPath>
</defs>
</svg>
