<svg width="181" height="100" viewBox="0 0 181 100" fill="none" xmlns="http://www.w3.org/2000/svg">
<rect width="181" height="100" rx="8" fill="white"/>
<rect x="34.5" y="11.5" width="112" height="77" rx="3.5" fill="#006FCF" stroke="#F3F3F3"/>
<path fill-rule="evenodd" clip-rule="evenodd" d="M57.1129 67.343V51.2857H75.278L77.2269 53.6636L79.2402 51.2857H145.175V66.2356C145.175 66.2356 143.451 67.327 141.456 67.343H104.947L102.75 64.8118V67.343H95.5492V63.0222C95.5492 63.0222 94.5656 63.6253 92.4391 63.6253H89.9883V67.343H79.0862L77.14 64.9141L75.164 67.343H57.1129ZM35.9481 39.1834L40.0351 30.2451H47.1032L49.4226 35.252V30.2451H58.2088L59.5896 33.8639L60.9282 30.2451H100.369V32.0644C100.369 32.0644 102.443 30.2451 105.85 30.2451L118.647 30.2871L120.927 35.2284V30.2451H128.279L130.303 33.0835V30.2451H137.723V46.3024H130.303L128.364 43.4548V46.3024H117.561L116.475 43.7712H113.57L112.502 46.3024H105.176C102.244 46.3024 100.369 44.5203 100.369 44.5203V46.3024H89.3232L87.1309 43.7712V46.3024H46.0561L44.9705 43.7712H42.0755L40.9976 46.3024H35.9481V39.1834ZM35.9694 44.2477L41.4819 32.2245H45.6611L51.1683 44.2477H47.5003L46.4885 41.8401H40.5755L39.5583 44.2477H35.9694ZM45.324 39.2299L43.5216 35.0228L41.714 39.2299H45.324ZM51.5476 44.2459V32.2226L56.6476 32.2404L59.614 39.9922L62.5093 32.2226H67.5685V44.2459H64.3644V35.3867L60.9678 44.2459H58.1578L54.7518 35.3867V44.2459H51.5476ZM69.7609 44.2459V32.2226H80.2167V34.9121H72.9988V36.9687H80.048V39.4999H72.9988V41.6356H80.2167V44.2459H69.7609ZM82.0714 44.2477V32.2245H89.2018C91.5645 32.2245 93.6814 33.595 93.6814 36.1251C93.6814 38.288 91.8965 39.6811 90.1662 39.8181L94.3823 44.2477H90.4666L86.6248 39.9763H85.2756V44.2477H82.0714ZM88.9386 34.9138H85.276V37.445H88.9861C89.6283 37.445 90.4564 36.9782 90.4564 36.1794C90.4564 35.5585 89.8173 34.9138 88.9386 34.9138ZM98.2612 44.2459H94.9895V32.2226H98.2612V44.2459ZM106.019 44.2459H105.312C101.896 44.2459 99.8211 41.7206 99.8211 38.2837C99.8211 34.7619 101.872 32.2226 106.187 32.2226H109.729V35.0703H106.058C104.306 35.0703 103.067 36.3526 103.067 38.3134C103.067 40.6418 104.484 41.6197 106.525 41.6197H107.368L106.019 44.2459ZM107.479 44.2477L112.991 32.2245H117.17L122.678 44.2477H119.01L117.998 41.8401H112.085L111.068 44.2477H107.479ZM116.834 39.2299L115.031 35.0228L113.224 39.2299H116.834ZM123.052 44.2459V32.2226H127.125L132.327 39.7767V32.2226H135.531V44.2459H131.589L126.256 36.4941V44.2459H123.052ZM59.3051 65.2865V53.2633H69.7609V55.9527H62.543V58.0093H69.5922V60.5405H62.543V62.6762H69.7609V65.2865H59.3051ZM110.538 65.2865V53.2633H120.994V55.9527H113.776V58.0093H120.792V60.5405H113.776V62.6762H120.994V65.2865H110.538ZM70.1665 65.2865L75.2573 59.349L70.0453 53.2633H74.0821L77.1862 57.0255L80.3008 53.2633H84.1795L79.036 59.2749L84.1362 65.2865H80.1L77.0861 61.5836L74.1454 65.2865H70.1665ZM84.5172 65.2883V53.2651H91.5949C94.4991 53.2651 96.1957 55.021 96.1957 57.3091C96.1957 60.0712 94.0325 61.4915 91.1786 61.4915H87.8057V65.2883H84.5172ZM91.3575 55.9842H87.8055V58.7527H91.347C92.2828 58.7527 92.9385 58.1709 92.9385 57.3685C92.9385 56.5143 92.2795 55.9842 91.3575 55.9842ZM97.587 65.2865V53.2633H104.717C107.08 53.2633 109.197 54.6338 109.197 57.1639C109.197 59.3268 107.412 60.7199 105.682 60.8569L109.898 65.2865H105.982L102.14 61.0151H100.791V65.2865H97.587ZM104.454 55.9526H100.791V58.4838H104.501C105.144 58.4838 105.972 58.0169 105.972 57.2182C105.972 56.5973 105.333 55.9526 104.454 55.9526ZM122.478 65.2865V62.6762H128.891C129.84 62.6762 130.25 62.1952 130.25 61.6677C130.25 61.1622 129.841 60.6512 128.891 60.6512H125.993C123.474 60.6512 122.071 59.2116 122.071 57.0502C122.071 55.1224 123.356 53.2633 127.099 53.2633H133.339L131.989 55.9685H126.593C125.561 55.9685 125.244 56.4763 125.244 56.9612C125.244 57.4596 125.636 58.0093 126.424 58.0093H129.46C132.268 58.0093 133.486 59.5034 133.486 61.46C133.486 63.5636 132.128 65.2865 129.307 65.2865H122.478ZM133.769 65.2865V62.6762H140.182C141.13 62.6762 141.541 62.1952 141.541 61.6677C141.541 61.1622 141.132 60.6512 140.182 60.6512H137.284C134.765 60.6512 133.362 59.2116 133.362 57.0502C133.362 55.1224 134.647 53.2633 138.39 53.2633H144.629L143.28 55.9685H137.884C136.852 55.9685 136.535 56.4763 136.535 56.9612C136.535 57.4596 136.927 58.0093 137.715 58.0093H140.751C143.559 58.0093 144.777 59.5034 144.777 61.46C144.777 63.5636 143.419 65.2865 140.598 65.2865H133.769Z" fill="white"/>
</svg>
