<svg width="240" height="72" viewBox="0 0 240 72" fill="none" xmlns="http://www.w3.org/2000/svg">
<path d="M81.7132 45.741H88.0056L85.7529 39.7106C85.4429 38.8776 85.1381 37.9575 84.8376 36.9497C84.5664 37.8412 84.2707 38.7516 83.951 39.6816L81.7132 45.741ZM89.0808 48.6037H80.6524L78.5894 54.2419H74.8838L83.1374 33.1862H86.6395L95.0822 54.2419H91.188L89.0808 48.6037Z" fill="#112A56"/>
<path d="M106.013 50.4129C106.745 49.4299 107.111 47.9934 107.111 46.1044C107.111 44.3512 106.808 43.0794 106.202 42.2897C105.597 41.5003 104.79 41.1056 103.783 41.1056C103.085 41.1056 102.441 41.2706 101.85 41.5997C101.259 41.9291 100.697 42.3697 100.164 42.9219V51.3212C100.523 51.4953 100.94 51.6335 101.414 51.7348C101.889 51.8372 102.359 51.888 102.824 51.888C104.219 51.888 105.282 51.396 106.013 50.4129ZM96.5755 42.399C96.5755 41.2365 96.5367 39.9575 96.4594 38.5628H99.8304C99.9562 39.2119 100.044 39.8756 100.092 40.5534C101.487 39.0328 103.085 38.2719 104.887 38.2719C105.934 38.2719 106.902 38.5359 107.794 39.0637C108.685 39.5919 109.404 40.425 109.951 41.5631C110.499 42.7016 110.772 44.1478 110.772 45.9009C110.772 47.7319 110.46 49.2966 109.835 50.5944C109.21 51.8929 108.336 52.8757 107.212 53.5446C106.089 54.2126 104.79 54.5471 103.318 54.5471C102.252 54.5471 101.201 54.3677 100.164 54.0095V60.4901L96.5755 60.7953V42.399Z" fill="#112A56"/>
<path d="M122.388 50.4129C123.12 49.4299 123.486 47.9934 123.486 46.1044C123.486 44.3512 123.183 43.0794 122.578 42.2897C121.972 41.5003 121.165 41.1056 120.158 41.1056C119.46 41.1056 118.816 41.2706 118.225 41.5997C117.634 41.9291 117.072 42.3697 116.54 42.9219V51.3212C116.898 51.4953 117.314 51.6335 117.79 51.7348C118.264 51.8372 118.734 51.888 119.199 51.888C120.594 51.888 121.657 51.396 122.388 50.4129ZM112.95 42.399C112.95 41.2365 112.911 39.9575 112.834 38.5628H116.206C116.331 39.2119 116.419 39.8756 116.467 40.5534C117.862 39.0328 119.46 38.2719 121.262 38.2719C122.309 38.2719 123.277 38.5359 124.169 39.0637C125.06 39.5919 125.779 40.425 126.327 41.5631C126.874 42.7016 127.148 44.1478 127.148 45.9009C127.148 47.7319 126.835 49.2966 126.21 50.5944C125.585 51.8929 124.711 52.8757 123.588 53.5446C122.463 54.2126 121.165 54.5471 119.693 54.5471C118.627 54.5471 117.576 54.3677 116.54 54.0095V60.4901L112.95 60.7953V42.399Z" fill="#112A56"/>
<path d="M133.741 53.2464C132.191 52.3895 130.999 51.1612 130.166 49.5628C129.333 47.9644 128.916 46.0753 128.916 43.8956C128.916 41.5322 129.396 39.524 130.355 37.8722C131.314 36.2209 132.62 34.9808 134.271 34.1524C135.923 33.3242 137.775 32.91 139.83 32.91C141.04 32.91 142.196 33.0433 143.295 33.3095C144.395 33.5762 145.419 33.9416 146.369 34.4068L145.453 37.1675C143.544 36.257 141.723 35.8016 139.99 35.8016C138.527 35.8016 137.245 36.1142 136.146 36.7391C135.047 37.364 134.191 38.2819 133.581 39.4928C132.971 40.7038 132.666 42.1665 132.666 43.881C132.666 45.383 132.9 46.7147 133.37 47.8772C133.84 49.0397 134.581 49.9603 135.594 50.6381C136.606 51.3163 137.882 51.6551 139.423 51.6551C140.12 51.6551 140.818 51.5972 141.515 51.4809C142.213 51.3649 142.867 51.1953 143.477 50.9722V46.7147H138.609V43.9247H146.964V52.7889C145.763 53.3505 144.501 53.7821 143.179 54.0821C141.856 54.3821 140.542 54.5323 139.234 54.5323C137.122 54.5323 135.29 54.1042 133.741 53.2464Z" fill="#112A56"/>
<path d="M157.569 51.3354C158.314 50.9775 158.925 50.5314 159.399 49.9988V47.0925C158.421 46.9862 157.621 46.9328 157.002 46.9328C155.52 46.9328 154.495 47.1722 153.929 47.6522C153.361 48.131 153.078 48.7781 153.078 49.5917C153.078 50.3673 153.284 50.9409 153.696 51.3139C154.108 51.6868 154.667 51.8732 155.374 51.8732C156.091 51.8732 156.822 51.6941 157.569 51.3354ZM159.719 54.2419C159.593 53.6313 159.51 52.9391 159.472 52.164C158.92 52.823 158.201 53.3822 157.314 53.8425C156.428 54.3024 155.427 54.5323 154.313 54.5323C153.412 54.5323 152.592 54.3557 151.85 54.0019C151.11 53.6486 150.521 53.1157 150.085 52.4034C149.649 51.6917 149.431 50.8224 149.431 49.7951C149.431 48.2745 149.978 47.061 151.073 46.155C152.168 45.2493 153.994 44.7966 156.551 44.7966C157.51 44.7966 158.46 44.8646 159.399 45V44.6949C159.399 43.3097 159.104 42.3337 158.513 41.7666C157.922 41.2003 157.074 40.9168 155.97 40.9168C155.205 40.9168 154.386 41.0284 153.514 41.2509C152.642 41.4741 151.877 41.7403 151.218 42.0502L150.651 39.4346C151.291 39.1438 152.134 38.8775 153.18 38.6353C154.226 38.3934 155.33 38.2719 156.493 38.2719C157.849 38.2719 159.002 38.4778 159.951 38.8893C160.901 39.3013 161.642 40.0088 162.175 41.0109C162.708 42.0141 162.974 43.3631 162.974 45.0581V51.2917C162.974 51.9412 163.012 52.9249 163.09 54.2419H159.719Z" fill="#112A56"/>
<path d="M165.728 50.4782V31.9509L169.302 31.6603V49.8388C169.302 50.5074 169.416 50.9793 169.644 51.2557C169.871 51.5313 170.232 51.6701 170.726 51.6701C170.949 51.6701 171.264 51.6169 171.671 51.5102L172.092 54.0821C171.753 54.2179 171.339 54.3268 170.85 54.4089C170.361 54.491 169.898 54.5323 169.462 54.5323C166.972 54.5323 165.728 53.1812 165.728 50.4782Z" fill="#112A56"/>
<path d="M174.664 50.4782V31.9509L178.239 31.6603V49.8388C178.239 50.5074 178.353 50.9793 178.58 51.2557C178.808 51.5313 179.169 51.6701 179.663 51.6701C179.886 51.6701 180.201 51.6169 180.608 51.5102L181.029 54.0821C180.69 54.2179 180.275 54.3268 179.787 54.4089C179.297 54.491 178.835 54.5323 178.399 54.5323C175.909 54.5323 174.664 53.1812 174.664 50.4782Z" fill="#112A56"/>
<path d="M192.23 44.5787C192.158 43.329 191.846 42.3919 191.285 41.7666C190.723 41.1422 189.97 40.8294 189.034 40.8294C188.122 40.8294 187.363 41.1446 186.758 41.7741C186.154 42.4041 185.755 43.3388 185.573 44.5787H192.23ZM195.73 46.86H185.472C185.635 50.1442 187.2 51.7862 190.166 51.7862C190.901 51.7862 191.654 51.6966 192.427 51.5175C193.195 51.3379 193.934 51.0984 194.64 50.7979L195.427 53.2535C193.67 54.1065 191.702 54.5323 189.514 54.5323C187.843 54.5323 186.442 54.2179 185.299 53.588C184.152 52.9584 183.293 52.0526 182.717 50.8704C182.142 49.6892 181.853 48.2649 181.853 46.5984C181.853 44.8646 182.159 43.3725 182.77 42.1228C183.379 40.8731 184.229 39.9191 185.318 39.2602C186.408 38.6015 187.666 38.2719 189.091 38.2719C190.574 38.2719 191.808 38.6184 192.802 39.3112C193.795 40.0035 194.53 40.9266 195.01 42.0791C195.49 43.2324 195.73 44.5059 195.73 45.9009V46.86Z" fill="#112A56"/>
<path d="M198.446 42.5006C198.446 41.6387 198.403 40.3262 198.326 38.5628H201.686C201.744 38.9987 201.797 39.5194 201.854 40.125C201.907 40.7303 201.941 41.2219 201.96 41.5997C202.378 40.9119 202.786 40.3331 203.189 39.8634C203.592 39.3932 204.062 39.0109 204.6 38.715C205.138 38.4197 205.747 38.2719 206.438 38.2719C206.99 38.2719 207.461 38.3303 207.859 38.4465L207.408 41.5562C207.062 41.4497 206.674 41.3963 206.246 41.3963C205.406 41.3963 204.667 41.6119 204.038 42.0431C203.41 42.4738 202.738 43.1835 202.018 44.1716V54.2419H198.446V42.5006Z" fill="#112A56"/>
<path d="M209.875 60.6572C209.352 60.5655 208.92 60.4612 208.584 60.3452L209.237 57.7295C209.477 57.7969 209.784 57.8625 210.154 57.9255C210.518 57.9889 210.869 58.02 211.2 58.02C212.789 58.02 213.979 56.9975 214.771 54.9538L215.006 54.3726L209.222 38.5628H213.072L215.981 47.3975C216.451 48.9092 216.758 50.0668 216.893 50.8704C217.166 49.7372 217.483 48.6037 217.853 47.4703L220.805 38.5628H224.419L218.654 54.4455C218.112 55.9468 217.522 57.1575 216.893 58.0781C216.264 58.9982 215.52 59.6812 214.666 60.1271C213.806 60.5722 212.774 60.7953 211.56 60.7953C210.96 60.7953 210.398 60.7498 209.875 60.6572Z" fill="#112A56"/>
<path d="M74.868 13.1419H81.2654L81.0854 14.687H76.7429V17.6794H80.8378V19.127H76.7429V22.4419H81.3178L81.1603 24.0019H74.868V13.1419Z" fill="#112A56"/>
<path d="M85.6752 18.4594L82.3003 13.1419H84.4301L86.7177 17.0496L89.1254 13.1419H91.1952L87.8501 18.3917L91.4726 24.0019H89.3126L86.7254 19.727L84.0926 24.0019H82.0229L85.6752 18.4594Z" fill="#112A56"/>
<path d="M97.5552 17.9904C97.955 17.6285 98.1552 17.1168 98.1552 16.4568C98.1552 15.7867 97.9512 15.3048 97.5441 15.0096C97.1366 14.7144 96.5376 14.567 95.748 14.567H94.728V18.4219C95.1979 18.4968 95.5579 18.5342 95.808 18.5342C96.5726 18.5342 97.1553 18.3533 97.5552 17.9904ZM92.8526 13.1419H95.7777C97.1525 13.1419 98.2051 13.4222 98.9352 13.9819C99.6653 14.5421 100.03 15.3518 100.03 16.4117C100.03 17.1317 99.8664 17.761 99.539 18.2981C99.2112 18.8357 98.7552 19.2485 98.17 19.5355C97.5854 19.8235 96.9124 19.967 96.1526 19.967C95.7379 19.967 95.2627 19.9171 94.728 19.8168V24.0019H92.8526V13.1419Z" fill="#112A56"/>
<path d="M101.883 13.1419H103.758V22.3968H108.25L108.093 24.0019H101.883V13.1419Z" fill="#112A56"/>
<path d="M115.96 22.1381C116.485 21.7857 116.878 21.3009 117.138 20.6832C117.398 20.0659 117.528 19.3593 117.528 18.5645C117.528 17.7845 117.413 17.0899 117.183 16.4793C116.952 15.8693 116.585 15.3835 116.08 15.0206C115.575 14.6582 114.925 14.4768 114.13 14.4768C113.37 14.4768 112.725 14.6606 112.195 15.0283C111.665 15.3955 111.268 15.8885 111.003 16.5057C110.738 17.1235 110.605 17.8046 110.605 18.5496C110.605 19.3344 110.73 20.0371 110.98 20.6568C111.23 21.2769 111.612 21.767 112.128 22.127C112.643 22.487 113.28 22.667 114.04 22.667C114.795 22.667 115.435 22.4904 115.96 22.1381ZM111.1 23.4696C110.305 23.0145 109.698 22.3757 109.278 21.5529C108.858 20.7307 108.648 19.7745 108.648 18.6845C108.648 17.5397 108.871 16.5384 109.319 15.6806C109.766 14.8233 110.411 14.1609 111.254 13.6929C112.096 13.2259 113.09 12.9917 114.235 12.9917C115.33 12.9917 116.273 13.2182 117.063 13.6704C117.852 14.1235 118.455 14.7595 118.87 15.5793C119.285 16.3997 119.493 17.3496 119.493 18.4296C119.493 19.5945 119.267 20.6073 118.814 21.467C118.361 22.3267 117.717 22.9896 116.879 23.4542C116.041 23.9193 115.058 24.1519 113.928 24.1519C112.838 24.1519 111.895 23.9246 111.1 23.4696Z" fill="#112A56"/>
<path d="M124.525 18.2794C124.98 18.2794 125.383 18.191 125.733 18.013C126.083 17.8358 126.355 17.5858 126.55 17.2632C126.745 16.9406 126.843 16.5667 126.843 16.1419C126.843 15.5971 126.67 15.1982 126.325 14.9458C125.98 14.6933 125.478 14.567 124.818 14.567H123.46V18.2794H124.525ZM121.585 13.1419H124.983C126.223 13.1419 127.162 13.3896 127.799 13.8845C128.437 14.3794 128.755 15.0874 128.755 16.007C128.755 16.5821 128.64 17.0885 128.41 17.5258C128.18 17.9635 127.895 18.3197 127.555 18.5942C127.215 18.8693 126.865 19.0742 126.505 19.2096L129.843 24.0019H127.668L124.84 19.6968H123.46V24.0019H121.585V13.1419Z" fill="#112A56"/>
<path d="M131.328 13.1419H137.725L137.545 14.687H133.203V17.6794H137.298V19.127H133.203V22.4419H137.778L137.62 24.0019H131.328V13.1419Z" fill="#112A56"/>
<path d="M144.685 13.1419H146.56V24.0019H144.685V13.1419Z" fill="#112A56"/>
<path d="M151.518 14.7096H148.15L148.315 13.1419H156.768L156.595 14.7096H153.393V24.0019H151.518V14.7096Z" fill="#112A56"/>
<path d="M169.765 22.1381C170.29 21.7857 170.683 21.3009 170.943 20.6832C171.203 20.0659 171.333 19.3593 171.333 18.5645C171.333 17.7845 171.217 17.0899 170.988 16.4793C170.758 15.8693 170.39 15.3835 169.885 15.0206C169.38 14.6582 168.73 14.4768 167.935 14.4768C167.175 14.4768 166.53 14.6606 166 15.0283C165.47 15.3955 165.072 15.8885 164.808 16.5057C164.543 17.1235 164.41 17.8046 164.41 18.5496C164.41 19.3344 164.535 20.0371 164.785 20.6568C165.035 21.2769 165.418 21.767 165.933 22.127C166.448 22.487 167.085 22.667 167.845 22.667C168.6 22.667 169.24 22.4904 169.765 22.1381ZM164.905 23.4696C164.11 23.0145 163.503 22.3757 163.083 21.5529C162.663 20.7307 162.453 19.7745 162.453 18.6845C162.453 17.5397 162.676 16.5384 163.124 15.6806C163.571 14.8233 164.216 14.1609 165.059 13.6929C165.901 13.2259 166.895 12.9917 168.04 12.9917C169.135 12.9917 170.077 13.2182 170.868 13.6704C171.658 14.1235 172.26 14.7595 172.675 15.5793C173.09 16.3997 173.298 17.3496 173.298 18.4296C173.298 19.5945 173.071 20.6073 172.619 21.467C172.166 22.3267 171.521 22.9896 170.684 23.4542C169.847 23.9193 168.863 24.1519 167.733 24.1519C166.643 24.1519 165.7 23.9246 164.905 23.4696Z" fill="#112A56"/>
<path d="M175.39 13.1419H177.543L182.914 21.5568C182.866 20.7571 182.846 20.0194 182.846 19.3445V13.1419H184.584V24.0019H182.501L177.048 15.4517C177.103 16.4222 177.13 17.2819 177.13 18.0317V24.0019H175.39V13.1419Z" fill="#112A56"/>
<path d="M35.6189 39.6459H37.4477L36.5304 37.5128L35.6189 39.6459Z" fill="#112A56"/>
<path fill-rule="evenodd" clip-rule="evenodd" d="M48.4954 13.2H28.5543C19.1607 13.2 15.7248 16.6358 15.7248 26.0295V45.9709C15.7248 55.3642 19.1607 58.8 28.5543 58.8H48.4891C57.8827 58.8 61.3248 55.3642 61.3248 45.9709V26.0295C61.3248 16.6358 57.889 13.2 48.4954 13.2ZM35.1686 40.7212L34.6262 41.9625H33.3912L36.0177 36.0039H37.0848L39.7008 41.9625H38.4326L37.8969 40.7212H35.1686ZM55.0421 41.9584H56.2358V36.0039H55.0421V41.9584ZM50.2915 39.3997H52.4913V38.3147H50.2915V37.0941H53.4849V36.0077H49.0982V41.9619H53.6001V40.8759H50.2915V39.3997ZM45.5486 40.1034L44.195 36.0037H43.2081L41.8545 40.1034L40.5374 36.0066H39.2501L41.328 41.9653H42.3293L43.6848 38.0512L45.0398 41.9653H46.0502L48.1229 36.0066H46.8686L45.5486 40.1034ZM31.5691 39.4162C31.5691 40.3856 31.0877 40.9035 30.2136 40.9035C29.3347 40.9035 28.8509 40.371 28.8509 39.375V36.0073H27.6413V39.4162C27.6413 41.0934 28.5729 42.0549 30.1973 42.0549C31.8374 42.0549 32.7782 41.075 32.7782 39.3669V36.0037H31.5691V39.4162ZM24.755 36.0039H25.9641V41.9657H24.755V39.5447H22.0233V41.9657H20.8137V36.0039H22.0233V38.409H24.755V36.0039ZM30.9346 20.8229C30.9346 25.008 34.3397 28.4132 38.5248 28.4132C42.7099 28.4132 46.115 25.008 46.115 20.8229H45.0427C45.0427 24.4168 42.119 27.3409 38.5248 27.3409C34.9306 27.3409 32.0069 24.4168 32.0069 20.8229H30.9346Z" fill="#112A56"/>
<path d="M3.68556 71.2643L3.23157 72.1553L3.68556 71.2643ZM0.735706 68.3144L1.62671 67.8604L0.735706 68.3144ZM238.664 68.3144L237.773 67.8604L238.664 68.3144ZM235.714 71.2643L236.168 72.1553L235.714 71.2643ZM235.714 0.735706L236.168 -0.1553L235.714 0.735706ZM238.664 3.68556L239.555 3.23157L238.664 3.68556ZM10.8 1H228.6V-1H10.8V1ZM238.4 10.8V61.2H240.4V10.8H238.4ZM228.6 71H10.8V73H228.6V71ZM1 61.2V10.8H-1V61.2H1ZM10.8 71C8.89332 71 7.52346 70.9992 6.44805 70.9114C5.38431 70.8244 4.69704 70.6573 4.13955 70.3733L3.23157 72.1553C4.11799 72.607 5.09776 72.8077 6.28518 72.9047C7.46093 73.0008 8.92632 73 10.8 73V71ZM-1 61.2C-1 63.0737 -1.00078 64.5391 -0.904716 65.7148C-0.8077 66.9022 -0.606954 67.882 -0.1553 68.7684L1.62671 67.8604C1.34266 67.303 1.17555 66.6157 1.08864 65.552C1.00078 64.4765 1 63.1067 1 61.2H-1ZM4.13955 70.3733C3.05762 69.822 2.17798 68.9424 1.62671 67.8604L-0.1553 68.7684C0.587718 70.2267 1.77332 71.4123 3.23157 72.1553L4.13955 70.3733ZM238.4 61.2C238.4 63.1067 238.399 64.4765 238.311 65.552C238.224 66.6157 238.057 67.303 237.773 67.8604L239.555 68.7684C240.007 67.882 240.208 66.9022 240.305 65.7148C240.401 64.5391 240.4 63.0737 240.4 61.2H238.4ZM228.6 73C230.474 73 231.939 73.0008 233.115 72.9047C234.302 72.8077 235.282 72.607 236.168 72.1553L235.26 70.3733C234.703 70.6573 234.016 70.8244 232.952 70.9114C231.877 70.9992 230.507 71 228.6 71V73ZM237.773 67.8604C237.222 68.9424 236.342 69.822 235.26 70.3733L236.168 72.1553C237.627 71.4123 238.812 70.2267 239.555 68.7684L237.773 67.8604ZM228.6 1C230.507 1 231.877 1.00078 232.952 1.08864C234.016 1.17555 234.703 1.34266 235.26 1.62671L236.168 -0.1553C235.282 -0.606954 234.302 -0.8077 233.115 -0.904716C231.939 -1.00078 230.474 -1 228.6 -1V1ZM240.4 10.8C240.4 8.92632 240.401 7.46093 240.305 6.28518C240.208 5.09776 240.007 4.11799 239.555 3.23157L237.773 4.13955C238.057 4.69704 238.224 5.38431 238.311 6.44805C238.399 7.52346 238.4 8.89332 238.4 10.8H240.4ZM235.26 1.62671C236.342 2.17798 237.222 3.05762 237.773 4.13955L239.555 3.23157C238.812 1.77332 237.627 0.587718 236.168 -0.1553L235.26 1.62671ZM10.8 -1C8.92632 -1 7.46093 -1.00078 6.28518 -0.904716C5.09776 -0.8077 4.11799 -0.606954 3.23157 -0.1553L4.13955 1.62671C4.69704 1.34266 5.38431 1.17555 6.44805 1.08864C7.52346 1.00078 8.89332 1 10.8 1V-1ZM1 10.8C1 8.89332 1.00078 7.52345 1.08864 6.44804C1.17555 5.38431 1.34266 4.69704 1.62671 4.13955L-0.1553 3.23157C-0.606954 4.11799 -0.8077 5.09776 -0.904716 6.28518C-1.00078 7.46092 -1 8.92632 -1 10.8H1ZM3.23157 -0.1553C1.77332 0.587718 0.587718 1.77332 -0.1553 3.23157L1.62671 4.13955C2.17798 3.05762 3.05762 2.17798 4.13955 1.62671L3.23157 -0.1553Z" fill="#112A56"/>
</svg>
