<svg width="164" height="32" viewBox="0 0 164 32" fill="none" xmlns="http://www.w3.org/2000/svg">
<path d="M25.3231 18.2534C26.2633 19.4767 26.7497 20.9898 26.7497 22.7926C26.7497 25.3359 25.7446 27.2675 23.7667 28.6518C21.7888 30.0039 18.9031 30.7121 15.0771 30.7121H0V1.73828H14.2341C17.8007 1.73828 20.5243 2.41434 22.4049 3.76645C24.3179 5.11856 25.2582 6.95357 25.2582 9.27148C25.2582 10.688 24.934 11.9435 24.2531 13.0381C23.5722 14.1326 22.6319 15.0019 21.3998 15.6457C23.0534 16.1608 24.3503 17.03 25.3231 18.2534ZM6.71174 6.79261V13.6176H13.4235C15.0771 13.6176 16.3416 13.3278 17.2171 12.7483C18.0925 12.1689 18.514 11.3318 18.514 10.1729C18.514 9.04613 18.0925 8.20911 17.2171 7.62963C16.3416 7.05015 15.1095 6.79261 13.4235 6.79261H6.71174V6.79261ZM18.5789 24.7564C19.4868 24.1769 19.9407 23.2755 19.9407 22.0844C19.9407 19.7021 18.1574 18.4787 14.5583 18.4787H6.71174V25.6256H14.5907C16.3416 25.6256 17.671 25.3359 18.5789 24.7564Z" fill="#B91619"/>
<path d="M46.3337 10.5594C48.1819 12.2013 49.1222 14.6802 49.1222 17.9639V30.648H43.0589V27.8794C41.8268 29.9397 39.5571 30.9699 36.2175 30.9699C34.499 30.9699 33.0075 30.6802 31.743 30.1007C30.4784 29.5534 29.5057 28.7486 28.8573 27.7184C28.1764 26.6882 27.8521 25.5293 27.8521 24.2415C27.8521 22.1812 28.6303 20.5393 30.2191 19.3804C31.7754 18.1892 34.2072 17.6097 37.482 17.6097H42.6374C42.6374 16.1932 42.2159 15.1309 41.3404 14.3582C40.465 13.5856 39.2005 13.2315 37.482 13.2315C36.2823 13.2315 35.1151 13.4246 33.9802 13.7788C32.813 14.1651 31.8402 14.648 31.0296 15.2918L28.6951 10.7848C29.9272 9.91558 31.3863 9.27171 33.0724 8.78882C34.7908 8.30592 36.5417 8.08057 38.325 8.08057C41.7944 8.11276 44.4856 8.91759 46.3337 10.5594ZM40.7892 25.8834C41.6647 25.3683 42.2483 24.6278 42.605 23.6299V21.3441H38.1629C35.5041 21.3441 34.1748 22.2134 34.1748 23.9518C34.1748 24.7888 34.499 25.4327 35.1475 25.9156C35.796 26.3985 36.7038 26.6238 37.8387 26.6238C38.9411 26.656 39.9462 26.3985 40.7892 25.8834Z" fill="#B91619"/>
<path d="M62.2538 8.91759C63.5832 8.3703 65.0747 8.08057 66.8256 8.08057V14.0363C66.1123 13.9719 65.6259 13.9397 65.3665 13.9397C63.5184 13.9397 62.0593 14.4548 60.9893 15.485C59.9193 16.5152 59.4005 18.0604 59.4005 20.1208V30.6158H52.9158V8.43469H59.1087V11.3643C59.8869 10.3019 60.9245 9.46487 62.2538 8.91759Z" fill="#B91619"/>
<path d="M68.6089 0H75.0937V30.6801H68.6089V0Z" fill="#B91619"/>
<path d="M79.0494 0H85.5342V30.6801H79.0494V0Z" fill="#B91619"/>
<path d="M111.311 21.3763H94.3535C94.6453 22.7606 95.3911 23.8552 96.5259 24.6278C97.6607 25.4327 99.0874 25.819 100.773 25.819C101.941 25.819 102.978 25.658 103.886 25.3039C104.794 24.9498 105.637 24.4025 106.415 23.6621L109.885 27.3965C107.777 29.7788 104.697 31.0021 100.644 31.0021C98.1147 31.0021 95.8774 30.5192 93.932 29.5212C91.9866 28.5554 90.4951 27.1711 89.4251 25.4649C88.3551 23.7264 87.8363 21.7627 87.8363 19.5413C87.8363 17.3522 88.3551 15.3884 89.3927 13.65C90.4302 11.9116 91.8569 10.5272 93.6726 9.56145C95.4883 8.59566 97.531 8.08057 99.7683 8.08057C101.973 8.08057 103.951 8.56346 105.734 9.49707C107.518 10.4307 108.912 11.7828 109.917 13.5212C110.922 15.2596 111.441 17.2878 111.441 19.6057C111.441 19.7023 111.376 20.2818 111.311 21.3763ZM96.1044 14.2295C95.0993 15.0665 94.4832 16.1932 94.2887 17.6097H105.313C105.086 16.1932 104.47 15.0665 103.497 14.2295C102.492 13.3924 101.292 12.9739 99.8331 12.9739C98.3416 12.9739 97.1095 13.3924 96.1044 14.2295Z" fill="#B91619"/>
<path d="M134.008 10.5917C135.726 12.2335 136.569 14.7124 136.569 17.9639V30.6802H130.085V18.9297C130.085 17.1591 129.696 15.8391 128.917 14.9699C128.139 14.1007 127.004 13.6822 125.545 13.6822C123.892 13.6822 122.595 14.1973 121.622 15.1953C120.649 16.1933 120.163 17.7064 120.163 19.6701V30.648H113.678V8.43472H119.871V11.0424C120.747 10.1088 121.784 9.36833 123.081 8.88543C124.346 8.37034 125.772 8.11279 127.296 8.11279C130.052 8.11279 132.322 8.91762 134.008 10.5917Z" fill="#B91619"/>
<path d="M147.756 30.4225C147.756 29.5855 147.788 28.7485 147.788 27.8793C147.82 26.0443 147.756 24.1771 147.853 22.3421C147.885 21.8914 147.95 21.4728 148.015 21.0221C148.015 20.8934 148.047 20.7968 148.08 20.668C148.112 20.4427 148.145 20.2173 148.21 20.0242C148.274 19.7666 148.339 19.5413 148.404 19.2837C148.501 18.9618 148.599 18.6398 148.728 18.3179C148.826 18.0282 148.923 17.7384 149.02 17.4487C149.117 17.0946 149.247 16.7404 149.344 16.3863C149.409 16.1932 149.474 16.0322 149.539 15.839C149.604 15.6137 149.669 15.3561 149.734 15.1308C149.798 14.8089 149.896 14.5191 149.928 14.1972C149.993 13.8753 150.025 13.5211 150.058 13.1992C150.09 12.9095 150.123 12.6197 150.155 12.33C150.187 11.7183 150.187 11.1388 150.22 10.5272C150.22 10.3662 150.252 10.2052 150.252 10.0121C150.285 9.8833 150.22 9.78672 150.123 9.69015C150.09 9.65795 150.025 9.59357 150.025 9.52918C150.025 9.33602 150.025 9.11067 150.025 8.91751C150.025 8.65996 150.058 8.40242 150.09 8.14487C150.123 7.95171 150.123 7.72636 150.123 7.5332C143.768 8.17707 138.774 13.5211 138.774 19.992C138.774 25.658 142.568 30.4225 147.756 32C147.723 31.4849 147.723 30.9376 147.756 30.4225Z" fill="#B91619"/>
<path d="M152.717 7.5332C152.717 7.5654 152.717 7.5654 152.717 7.59759C152.717 7.72636 152.717 7.85513 152.717 8.0161C152.781 8.33803 152.717 8.65996 152.814 8.9497C152.781 9.17505 152.911 9.40041 152.749 9.59357C152.717 9.65795 152.717 9.72234 152.684 9.75453C152.652 9.94769 152.619 10.173 152.619 10.3662C152.619 10.5916 152.619 10.8169 152.652 11.0423C152.684 11.4286 152.684 11.7827 152.717 12.169C152.749 12.7163 152.814 13.2636 152.879 13.8109C152.911 14.004 152.943 14.1972 152.976 14.3903C153.008 14.6157 153.073 14.8089 153.138 15.0342C153.203 15.3561 153.3 15.6781 153.397 16C153.462 16.1932 153.527 16.3863 153.592 16.5795C153.689 16.9014 153.787 17.2555 153.884 17.5775C154.013 17.996 154.143 18.4145 154.273 18.8652C154.403 19.2837 154.532 19.7344 154.63 20.1851C154.727 20.6358 154.824 21.0865 154.857 21.5372C154.921 22.0523 154.954 22.5674 154.986 23.0825C155.019 23.7586 154.986 24.4346 154.986 25.0785C154.986 26.4628 154.986 27.8471 154.986 29.2314C154.986 30.165 154.986 31.0664 154.986 32C160.174 30.4547 163.968 25.658 163.968 19.992C164 13.5211 159.039 8.20926 152.717 7.5332Z" fill="#B91619"/>
</svg>
