<svg width="40" height="28" viewBox="0 0 40 28" fill="none" xmlns="http://www.w3.org/2000/svg">
<path d="M0 21.3333V24.1333C0 26.2667 1.48148 28 3.47826 28H36.5217C38.4541 28 40 26.2667 40 24.1333V21.3333H0Z" fill="#D11F3E"/>
<path d="M36.0709 0H3.86473C1.73913 0 0 1.6 0 3.86667V14H39.9356V3.86667C39.9356 1.6 38.1965 0 36.0709 0Z" fill="#FCD73E"/>
<path d="M3.86475 0H36.0709C38.1965 0 39.9356 1.6 39.9356 3.86667V24.1333C39.9356 26.4 37.9388 28 35.8132 28" fill="#E5BF23"/>
<path d="M36.0709 28H36.5217C36.7794 28 37.037 27.8667 37.2947 27.8C37.2947 27.8 37.5523 27.7333 37.6812 27.6667C37.6812 27.6667 37.81 27.6 37.8744 27.6C38.0676 27.4667 38.1965 27.4 38.3897 27.2667C38.5185 27.1333 38.7762 26.9333 38.9694 26.8C39.0982 26.6667 39.2271 26.5333 39.3559 26.3333C39.4847 26.1333 39.6779 25.8667 39.7424 25.6667V25.6C39.8068 25.4 39.8712 25.2 39.9356 24.9333V24.8667C39.9356 24.6667 39.9356 24.4 39.9356 24.1333V21.3333H27.8905L36.0709 28Z" fill="#BA0F34"/>
<path d="M3.86475 0H36.0709C38.1965 0 39.9356 1.6 39.9356 3.86667V11.3333" fill="#D3AD0D"/>
<path d="M39.9356 24.0667C39.9356 26.5333 38.4541 28 36.3285 28H3.86473C1.73913 28 0 26.2667 0 24" fill="#A50A33"/>
<path d="M39.9356 14H0V21.3333H39.9356V14Z" fill="#1D4F95"/>
<path d="M27.8905 21.3333H39.9356V14H19.7746L27.8905 21.3333Z" fill="#083A75"/>
</svg>
