<svg width="40" height="28" viewBox="0 0 40 28" fill="none" xmlns="http://www.w3.org/2000/svg">
<path d="M0 18.6667V24.1333C0 26.4 1.74194 28 3.87097 28H36.129C38.2581 28 40 26.4 40 24.1333V18.6667H0Z" fill="#214183"/>
<path d="M36 28C38.129 28 40 26.4 40 24.1333V18.6667H25.4193L36 28Z" fill="#12326D"/>
<path d="M36.129 0H3.87097C1.74194 0 0 1.6 0 3.86667V9.33333H40V3.86667C40 1.6 38.2581 0 36.129 0Z" fill="#214183"/>
<path d="M36.129 0H3.87096L14.258 9.33333H40V3.86667C40 1.6 38.258 0 36.129 0Z" fill="#12326D"/>
<path d="M36.129 0H3.87096L33.4839 9.33333H40V3.86667C40 1.6 38.258 0 36.129 0Z" fill="#092656"/>
<path d="M0 5.33334V9.13334V9.26667V18.7333V18.8667V22.6667H40V18.8667V18.7333V9.26667V9.13334V5.33334H0Z" fill="#F3F4F5"/>
<path d="M14.1936 9.26667L25.3548 18.7333L29.9355 22.6667H40V18.8667V18.7333V9.26667V9.13334V5.33334H9.87097L14.1936 9.26667Z" fill="#D3DDE5"/>
<path d="M33.4193 9.33334H40V9.13334V5.33334H20.5806L33.4193 9.33334Z" fill="#C1D1DB"/>
<path d="M40 9.33333H0V18.6667H40V9.33333Z" fill="#D71F37"/>
<path d="M25.2258 18.6667H40V9.33333H14.2581L25.2258 18.6667Z" fill="#C1102D"/>
<path d="M40 11.2V9.33333H33.4193L40 11.2Z" fill="#A00826"/>
<path d="M40 24.0667C40 26.4667 38.2581 28 36.129 28H3.87097C1.74194 28 0 26.2667 0 24" fill="#092656"/>
</svg>
