<svg width="40" height="28" viewBox="0 0 40 28" fill="none" xmlns="http://www.w3.org/2000/svg">
<path d="M0 18.6667V23.9906C0 26.2254 1.74194 28 3.87097 28H36.129C38.2581 28 40 26.2254 40 23.9906V18.6667H0Z" fill="#0F47AF"/>
<path d="M36.129 0H3.87097C1.74194 0 0 1.77465 0 4.00939V9.33333H40V4.00939C40 1.77465 38.2581 0 36.129 0Z" fill="#0F47AF"/>
<path d="M40 9.20186H0V18.7324H40V9.20186Z" fill="white"/>
<path d="M36.129 28C38.258 28 40 26.2254 40 23.9906V18.6667H25.4193L36.129 28Z" fill="#0A429B"/>
<path d="M36.129 0H3.87096L14.5806 9.33333H40V4.00939C40 1.77465 38.2581 0 36.129 0Z" fill="#0A429B"/>
<path d="M25.4839 18.7981H40V9.20186H14.5161L25.4839 18.7981Z" fill="#E2E2E2"/>
<path d="M36.129 0H3.87096L33.7419 9.33333H40V4.00939C40 1.77465 38.2581 0 36.129 0Z" fill="#063C89"/>
<path d="M40 11.2394V9.20186H33.4193L40 11.2394Z" fill="#BCBCBC"/>
<path d="M40 23.9906C40 26.2253 38.2581 28 36.129 28H3.87097C1.74194 28 0 26.2253 0 23.9906" fill="#063C89"/>
<path d="M18.7935 16.169L18.987 16.1033C18.987 16.1033 18.987 16.1033 18.9225 16.1033C19.0515 16.169 19.2451 16.3005 19.5031 16.3662C19.8257 16.4319 19.8902 16.4319 19.9547 16.4319C20.0193 16.4319 20.0838 16.4319 20.4064 16.3662C20.6644 16.3005 20.858 16.169 20.9225 16.1033L21.116 16.169H21.1806V16.1033V16.0376C21.116 15.9719 21.0515 15.9061 20.9225 15.9061C20.7935 15.9061 20.858 15.9061 20.7289 15.9719C20.5999 16.0376 20.4064 16.169 19.9547 16.169C19.5677 16.169 19.3096 16.0376 19.1806 15.9719C19.0515 15.9061 19.116 15.9061 18.987 15.9061C18.858 15.9061 18.7289 15.9719 18.7289 16.0376C18.7289 16.1033 18.7289 16.1033 18.7935 16.169C18.7289 16.1033 18.7289 16.169 18.7935 16.169C18.7289 16.169 18.7935 16.169 18.7935 16.169ZM20.987 16.1033C21.0515 16.1033 21.0515 16.1033 20.987 16.1033C21.0515 16.1033 21.0515 16.1033 20.987 16.1033ZM21.1806 16.1033H21.0515H21.1806ZM18.9225 16.1033H18.7289H18.9225C18.858 16.1033 18.858 16.1033 18.9225 16.1033Z" fill="#0F47AF"/>
<path d="M18.6 16.4977C18.6 16.5634 18.6645 16.6948 18.6645 16.6948L18.6 16.4977C18.6645 16.4977 18.6645 16.4977 18.6 16.4977C18.6645 16.4319 18.6 16.4319 18.6 16.4319V16.4977Z" fill="#338E1A"/>
<path d="M18.4064 16.7606C18.3419 16.6948 18.3419 16.7606 18.3419 16.7606C18.3419 16.8263 18.3419 16.8263 18.4064 16.7606C18.4064 16.8263 18.4064 16.8263 18.4064 16.7606Z" fill="#338E1A"/>
<path d="M17.5032 16.1033C17.5388 16.1033 17.5677 16.0738 17.5677 16.0375C17.5677 16.0012 17.5388 15.9718 17.5032 15.9718C17.4675 15.9718 17.4386 16.0012 17.4386 16.0375C17.4386 16.0738 17.4675 16.1033 17.5032 16.1033Z" fill="#338E1A"/>
<path d="M17.5032 12.554C17.5032 12.4883 17.5032 12.4883 17.5032 12.554C17.4386 12.4883 17.4386 12.554 17.4386 12.554C17.4386 12.554 17.4386 12.554 17.5032 12.554C17.4386 12.554 17.4386 12.554 17.5032 12.554C17.4386 12.554 17.4386 12.6197 17.5032 12.554V12.6197V12.554Z" fill="#338E1A"/>
<path d="M21.5677 16.7606C21.5032 16.7606 21.5032 16.7606 21.5677 16.7606C21.5032 16.8263 21.5677 16.8263 21.5677 16.8263C21.5677 16.8263 21.5677 16.8263 21.5677 16.7606Z" fill="#338E1A"/>
<path d="M22.4064 16.1033C22.442 16.1033 22.4709 16.0738 22.4709 16.0375C22.4709 16.0012 22.442 15.9718 22.4064 15.9718C22.3708 15.9718 22.3419 16.0012 22.3419 16.0375C22.3419 16.0738 22.3708 16.1033 22.4064 16.1033Z" fill="#338E1A"/>
<path d="M21.2451 16.6948C21.2451 16.6948 21.2451 16.5634 21.2451 16.4976C21.2451 16.4976 21.3096 16.4976 21.3096 16.4319C21.3096 16.4319 21.3096 16.3662 21.2451 16.3662C21.2451 16.3662 21.1806 16.3662 21.1806 16.4319L21.2451 16.6948Z" fill="#338E1A"/>
<path d="M21.3096 16.7606L21.5032 16.8263V16.7606C21.4387 16.7606 21.3096 16.7606 21.3096 16.7606Z" fill="#338E1A"/>
<path d="M22.4709 12.554C22.4709 12.554 22.5354 12.554 22.4709 12.554C22.5354 12.4883 22.5354 12.4883 22.4709 12.4883C22.4064 12.4883 22.4064 12.4883 22.4709 12.554C22.4064 12.554 22.4064 12.554 22.4709 12.554C22.4709 12.554 22.4064 12.6197 22.4709 12.554C22.4709 12.6197 22.4709 12.554 22.4709 12.554Z" fill="#338E1A"/>
<path d="M23.2451 14.3944C23.2451 14.3944 23.1806 14.3944 23.1161 14.4601H23.0516V14.3944C23.0516 14.3286 23.0516 14.1972 23.0516 14.1972C23.0516 14.1972 23.0516 14.2629 22.987 14.3286C22.9225 14.3286 22.858 14.3944 22.858 14.3944C22.858 14.3944 22.7935 14.3944 22.7935 14.5258C22.7935 14.5916 22.7935 14.5916 22.729 14.6573C22.729 14.5916 22.729 14.4601 22.7935 14.3944C22.7935 14.3286 22.9225 14.2629 22.9225 14.2629C22.9225 14.2629 22.987 14.2629 22.987 14.1972C22.987 14.1972 22.987 14.1315 22.9225 14.1315C22.9225 14.1315 22.858 14.1315 22.858 14.1972H22.729C22.729 14.1972 22.729 14.1972 22.729 14.1315C22.729 14.1315 22.729 14.1315 22.7935 14.1315C22.9225 14.0657 22.987 14 23.0516 13.9343C23.0516 13.8686 23.1161 13.8686 23.1161 13.8028L23.1806 13.6714C23.1806 13.6056 23.1806 13.4742 23.1806 13.4742L23.1161 13.5399V13.4742C23.1161 13.4085 23.0516 13.277 23.0516 13.277C23.0516 13.277 22.987 13.3427 22.987 13.4085C22.9225 13.4742 22.9225 13.4742 22.9225 13.5399C22.9225 13.5399 22.858 13.6056 22.858 13.6714C22.858 13.7371 22.858 13.7371 22.858 13.8028C22.858 13.7371 22.858 13.6056 22.7935 13.5399C22.7935 13.4742 22.858 13.4085 22.858 13.4085C22.858 13.4085 22.858 13.4085 22.9225 13.4085C22.9225 13.4085 22.987 13.4085 22.987 13.3427C22.987 13.3427 22.987 13.277 22.9225 13.277C22.9225 13.277 22.858 13.277 22.858 13.3427H22.729C22.729 13.3427 22.729 13.3427 22.729 13.277C22.729 13.277 22.729 13.1455 22.7935 13.1455C22.858 13.0798 22.858 13.0798 22.858 13.0141C22.858 12.9484 22.858 12.9484 22.858 12.8826C22.858 12.8169 22.729 12.6855 22.729 12.6855L22.6645 12.8169C22.5999 12.7512 22.5354 12.6855 22.4709 12.6855C22.4709 12.6855 22.4709 12.6197 22.4064 12.6197V12.554H22.3419V12.4883C22.3419 12.4225 22.3419 12.3568 22.3419 12.3568C22.3419 12.2911 22.2774 12.2911 22.2774 12.2254C22.2774 12.1596 22.2774 12.1596 22.2128 12.0939C22.1483 12.0282 22.1483 12.0282 22.1483 12.0282C22.1483 12.0282 22.1483 12.0939 22.1483 12.1596C22.1483 12.1596 22.1483 12.1596 22.0838 12.1596C22.0838 12.1596 22.0838 12.1596 22.0193 12.1596C22.0193 12.0939 21.9548 12.0939 21.9548 12.0939C21.9548 12.0939 21.9548 12.0282 21.8903 12.0282C21.8903 12.0282 21.8258 12.0282 21.8258 12.0939C21.8258 12.0939 21.8258 12.0939 21.8258 12.1596C21.8258 12.1596 21.8258 12.2254 21.8903 12.2254H21.8258C21.8258 12.2254 21.8258 12.3568 21.8258 12.4225C21.7612 12.4225 21.6967 12.4225 21.6967 12.4225L21.7612 12.4883C21.7612 12.4883 21.8258 12.554 21.8258 12.6197C21.8258 12.6197 21.8903 12.6855 21.9548 12.6855C21.9548 12.6855 22.0838 12.6855 22.0838 12.7512H22.1483L22.0838 12.8169C22.0838 12.8169 22.0838 12.7512 22.0193 12.7512C22.0193 12.7512 21.9548 12.7512 21.9548 12.8169C21.9548 12.8169 21.9548 12.8826 22.0193 12.8826H22.0838C22.0838 12.8826 22.1483 12.8826 22.2128 12.8826C22.2128 12.9484 22.2128 12.9484 22.2128 13.0141C22.1483 13.0141 22.0838 12.9484 22.0838 12.9484C22.0838 13.0141 22.1483 13.1455 22.1483 13.1455C22.2129 13.1455 22.2128 13.2113 22.2128 13.2113C22.2774 13.2113 22.3419 13.3427 22.3419 13.3427C22.5999 13.3427 22.6645 13.3427 22.6645 13.3427C22.6645 13.3427 22.6645 13.3427 22.6645 13.4085H22.5354C22.5354 13.4085 22.5354 13.3427 22.4709 13.3427C22.4709 13.3427 22.4064 13.3427 22.4064 13.4085C22.4064 13.4085 22.4064 13.4742 22.4709 13.4742C22.4709 13.4742 22.5354 13.5399 22.5999 13.5399C22.5999 13.6056 22.5999 13.6714 22.6645 13.7371C22.5999 13.6714 22.5999 13.5399 22.4709 13.4742V13.5399C22.4709 13.5399 22.4709 13.6056 22.4709 13.6714C22.4064 13.6714 22.3419 13.6056 22.3419 13.5399C22.3419 13.5399 22.3419 13.7371 22.3419 13.8028C22.4064 13.8686 22.4064 13.9343 22.4709 13.9343C22.5354 13.9343 22.5354 14 22.5354 14H22.5999C22.5999 14 22.5999 14 22.5999 14.0657C22.5999 14.0657 22.5999 14.0657 22.5999 14.1315H22.6645C22.6645 14.1315 22.6645 14.0657 22.5999 14.0657C22.5354 14.0657 22.5354 14.0657 22.5354 14.1315C22.5354 14.1315 22.5354 14.1315 22.5999 14.1315C22.5999 14.1315 22.729 14.1972 22.729 14.2629C22.729 14.3286 22.729 14.4601 22.6645 14.5916V14.5258C22.6645 14.4601 22.6645 14.3944 22.6645 14.3944C22.6645 14.3286 22.5999 14.3286 22.5999 14.3286C22.5999 14.2629 22.5354 14.2629 22.5354 14.2629C22.5354 14.1972 22.4709 14.1972 22.4709 14.1972C22.4709 14.2629 22.4709 14.4601 22.4709 14.4601C22.4709 14.4601 22.4709 14.4601 22.4709 14.5258H22.4064C22.3419 14.5916 22.4064 14.723 22.4064 14.7887C22.4064 14.7887 22.4064 14.8545 22.4709 14.8545V14.9202C22.4709 14.9202 22.5354 14.9202 22.5354 14.9859C22.5354 15.0517 22.5354 15.1174 22.5354 15.0517V14.9859V15.0517H22.4064C22.4064 15.0517 22.4064 15.0517 22.4064 14.9859C22.4064 14.9859 22.4064 14.9202 22.3419 14.9202C22.3419 14.9202 22.2774 14.9202 22.2774 14.9859C22.2774 14.9859 22.2774 14.9859 22.3419 14.9859L22.4064 15.1174C22.4064 15.1831 22.4064 15.1831 22.3419 15.2488C22.3419 15.2488 22.3419 15.1831 22.2774 15.1831C22.2128 15.1174 22.2128 15.1174 22.2128 15.0517C22.2128 14.9859 22.1483 14.9859 22.1483 14.9202C22.1483 14.9202 22.1483 14.9859 22.1483 15.1174C22.1483 15.1831 22.1483 15.2488 22.1483 15.2488V15.3146C22.1483 15.2488 22.1483 15.2488 22.1483 15.1831V15.1174C22.1483 15.1174 22.0838 15.2488 22.0193 15.2488L21.9548 15.3803C21.9548 15.3803 21.9548 15.446 21.9548 15.5117C21.9548 15.5117 21.9548 15.5775 21.9548 15.6432C21.9548 15.7089 22.0193 15.7747 22.0838 15.7747V15.8404C22.0193 15.9061 22.0193 15.9718 21.9548 15.9718C21.9548 15.9061 21.9548 15.7747 21.9548 15.7747C21.9548 15.7747 22.0193 15.7747 22.0193 15.7089C22.0193 15.6432 22.0193 15.6432 21.9548 15.6432C21.9548 15.6432 21.8903 15.6432 21.8903 15.7089L21.9548 15.9061C21.8903 15.9718 21.8903 15.9718 21.8258 16.0376C21.8258 16.0376 21.8903 15.9718 21.8258 15.9061C21.8258 15.8404 21.8258 15.7747 21.7612 15.7089C21.7612 15.6432 21.6967 15.5775 21.6322 15.5117C21.6322 15.5117 21.5677 15.6432 21.5677 15.7089C21.5677 15.7747 21.5677 15.8404 21.5032 15.8404C21.5032 15.8404 21.5032 15.8404 21.5032 15.9061C21.5032 15.9061 21.5032 15.9061 21.5032 15.8404C21.5032 15.7747 21.3741 15.5775 21.3741 15.5775C21.3741 15.6432 21.3096 15.7747 21.3096 15.8404C21.3096 15.9061 21.2451 15.9718 21.2451 16.0376C21.2451 16.1033 21.1806 16.169 21.1806 16.169C21.3741 16.3662 21.3741 16.6291 21.3741 16.6291C21.3096 16.6948 21.1806 16.7606 21.1161 16.7606C21.1161 16.7606 21.0516 16.7606 21.0516 16.8263C21.1806 16.6948 21.1806 16.6291 21.1806 16.6291C21.2451 16.6291 21.1161 16.6291 21.0516 16.6291C21.1161 16.5634 21.1161 16.4977 21.1806 16.4319C21.1806 16.3662 20.987 16.4319 20.987 16.4319H20.9225C20.9225 16.3662 20.987 16.3005 20.987 16.2348C20.987 16.2348 20.858 16.2348 20.7935 16.3005C20.729 16.3005 20.6645 16.3662 20.5999 16.4319C20.5354 16.4977 20.5354 16.6291 20.4709 16.6291C20.4064 16.6948 20.4064 16.7606 20.4064 16.7606C20.4064 16.8263 20.4064 16.8263 20.3419 16.892L20.2774 16.9578C20.2774 16.892 20.2774 16.892 20.2774 16.8263C20.2774 16.8263 20.2774 16.8263 20.2774 16.7606C20.2774 16.6948 20.2774 16.6291 20.2128 16.6291C20.1483 16.5634 20.0193 16.6291 19.9548 16.6291C19.8903 16.6291 19.8903 16.9578 19.8903 16.9578C19.8903 16.9578 19.8903 16.9578 19.8258 16.9578C19.8258 16.9578 19.7612 16.7606 19.7612 16.6948C19.8903 16.6291 19.7612 16.6291 19.6967 16.6291C19.6322 16.6291 19.5677 16.6291 19.5677 16.6291C19.5677 16.6291 19.5032 16.6291 19.5032 16.8263C19.5032 16.892 19.5032 16.9578 19.5032 16.9578L19.4387 16.892C19.4387 16.8263 19.3741 16.8263 19.3741 16.7606C19.3741 16.6948 19.3741 16.6948 19.3096 16.6291C19.3096 16.5634 19.2451 16.4319 19.1806 16.4319C19.1161 16.3662 19.0516 16.3662 18.987 16.3005C18.9225 16.2348 18.7935 16.2348 18.7935 16.2348C18.7935 16.2348 18.7935 16.3662 18.858 16.4319H18.7935C18.7935 16.4319 18.5354 16.3662 18.5999 16.4319C18.6645 16.4977 18.6645 16.5634 18.729 16.6291C18.6645 16.6291 18.5999 16.6291 18.5999 16.6291C18.5999 16.6291 18.5999 16.6948 18.729 16.8263C18.729 16.8263 18.6645 16.8263 18.6645 16.7606C18.5999 16.6948 18.4709 16.6291 18.4064 16.6291C18.4064 16.6291 18.4709 16.3662 18.4064 16.3005C18.4064 16.3005 18.3419 16.2348 18.3419 16.169C18.3419 16.1033 18.2774 15.9718 18.2774 15.9718C18.2774 15.9061 18.2129 15.7747 18.2129 15.7089C18.2129 15.7089 18.0838 15.8404 18.0838 15.9718C18.0838 16.0376 18.0838 16.0376 18.0838 16.0376V15.9718C18.0838 15.9718 18.0193 15.9061 18.0193 15.8404C18.0193 15.7747 17.9548 15.6432 17.9548 15.6432C17.8903 15.6432 17.8903 15.7747 17.8258 15.8404C17.8258 15.9061 17.7612 15.9718 17.7612 16.0376C17.7612 16.1033 17.7612 16.169 17.7612 16.169C17.6967 16.1033 17.6967 16.1033 17.6322 16.0376L17.6967 15.8404C17.6967 15.8404 17.6967 15.7747 17.6322 15.7747C17.6322 15.7747 17.5677 15.7747 17.5677 15.8404C17.5677 15.9061 17.5677 15.9061 17.6322 15.9061C17.6322 15.9061 17.6322 16.0376 17.6322 16.1033C17.5677 16.0376 17.5677 16.0376 17.5032 15.9718C17.5032 15.9061 17.5032 15.9061 17.5032 15.9061C17.5032 15.9061 17.5677 15.7747 17.6322 15.7747C17.6322 15.7089 17.6322 15.7089 17.6322 15.6432V15.5117C17.6322 15.5117 17.8258 15.3146 17.7612 15.3146C17.7612 15.3146 17.6967 15.1831 17.6322 15.1831V15.2488C17.6322 15.2488 17.6322 15.3146 17.6322 15.3803C17.6322 15.3146 17.6322 15.3146 17.6322 15.3146C17.6322 15.2488 17.6322 15.2488 17.6322 15.1831C17.6322 15.1174 17.6322 14.9859 17.6322 14.9859C17.6322 15.0517 17.5677 15.0517 17.5677 15.1174C17.5677 15.1831 17.5677 15.1831 17.5032 15.2488C17.5032 15.3146 17.5032 15.3146 17.5032 15.3146C17.5032 15.2488 17.5032 15.2488 17.4387 15.1831C17.4387 15.1174 17.5032 15.0517 17.5032 15.0517C17.5032 15.0517 17.5032 15.0517 17.5677 15.0517C17.5677 15.0517 17.5677 14.9859 17.5032 14.9859C17.5032 14.9859 17.4387 14.9859 17.4387 15.0517C17.4387 15.0517 17.4387 15.0517 17.4387 15.1174H17.3096V15.0517V15.1174V15.0517C17.3741 14.9859 17.3741 14.9859 17.3741 14.9859V14.9202L17.4387 14.8545C17.4387 14.7887 17.5032 14.723 17.4387 14.5916C17.4387 14.5916 17.4387 14.5916 17.3741 14.5916V14.5258C17.3741 14.5258 17.3741 14.3286 17.3741 14.2629L17.3096 14.3286C17.3096 14.3944 17.2451 14.3944 17.2451 14.3944C17.2451 14.4601 17.1806 14.4601 17.1806 14.4601C17.1806 14.5258 17.1161 14.5916 17.1806 14.5916C17.1806 14.6573 17.1806 14.6573 17.1806 14.6573C17.1161 14.5258 17.1161 14.3944 17.1161 14.3286C17.1806 14.2629 17.2451 14.2629 17.2451 14.1972C17.2451 14.1972 17.2451 14.1972 17.3096 14.1972C17.3096 14.1972 17.3096 14.1315 17.2451 14.1315C17.2451 14.1315 17.1806 14.1315 17.1806 14.1972H17.0516C17.0516 14.1972 17.0516 14.1972 17.0516 14.1315C17.0516 14.1315 17.0516 14.1315 17.0516 14.0657H17.1161C17.1161 14.0657 17.1161 14.0657 17.1806 14C17.2451 14 17.2451 13.9343 17.3096 13.8686C17.3741 13.8028 17.3096 13.6056 17.3096 13.6056C17.3096 13.6056 17.2451 13.6714 17.1806 13.7371C17.1806 13.6714 17.1806 13.6714 17.1806 13.6056C17.1806 13.5399 17.1806 13.5399 17.1806 13.5399C17.0516 13.6056 17.0516 13.7371 16.987 13.8028C16.987 13.7371 16.987 13.6714 16.987 13.6056C17.0516 13.6056 17.1161 13.5399 17.1161 13.5399C17.1161 13.5399 17.1806 13.5399 17.1806 13.4742C17.1806 13.4742 17.1806 13.4085 17.1161 13.4085C17.1161 13.4085 17.0516 13.4085 17.0516 13.4742H16.9225C16.9225 13.4742 16.9225 13.4742 16.9225 13.4085L16.987 13.3427C17.0516 13.3427 17.1161 13.2113 17.1161 13.2113L17.1806 13.1455C17.2451 13.1455 17.2451 13.0141 17.2451 12.9484C17.2451 12.9484 17.1161 12.9484 17.1161 13.0141C17.1161 13.0141 17.1161 12.9484 17.1161 12.8826C17.1806 12.8826 17.2451 12.8826 17.2451 12.8826C17.2451 12.8826 17.2451 12.9484 17.3096 12.8826C17.3096 12.8826 17.3741 12.8826 17.3741 12.8169C17.3741 12.8169 17.3741 12.7512 17.3096 12.7512C17.3096 12.7512 17.2451 12.7512 17.2451 12.8169L17.5677 12.6855H17.6322C17.6967 12.6855 17.7612 12.6855 17.7612 12.6197C17.7612 12.6197 17.8258 12.554 17.8903 12.554C17.8903 12.554 17.9548 12.4883 17.9548 12.4225L18.0193 12.3568C18.0193 12.3568 17.9548 12.3568 17.8903 12.3568C17.9548 12.2911 17.8903 12.1596 17.8903 12.1596C17.8903 12.1596 17.8903 12.1596 17.8258 12.1596C17.8258 12.0939 17.8903 12.0939 17.8903 12.0939C17.8903 12.0939 17.8903 12.0939 17.8903 12.0282C17.8903 12.0282 17.8903 11.9624 17.8258 11.9624C17.8258 11.9624 17.7612 11.9624 17.7612 12.0282L17.6967 12.0939H17.6322C17.6322 12.0939 17.6322 12.0939 17.5677 12.0939C17.5677 12.0282 17.5677 11.9624 17.5677 11.9624L17.5032 12.0282C17.4387 12.0282 17.4387 12.0939 17.4387 12.1596C17.4387 12.2254 17.3741 12.2254 17.3741 12.2911V12.4225C17.3741 12.4883 17.3741 12.4883 17.3741 12.4883H17.3096V12.554C17.3096 12.554 17.3096 12.6197 17.2451 12.6197C17.1806 12.6197 17.1161 12.6855 17.0516 12.7512C17.0516 12.6855 16.987 12.6197 16.987 12.6197C16.987 12.6855 16.9225 12.8169 16.858 12.8169C16.858 12.8826 16.858 12.8826 16.858 12.9484C16.858 13.0141 16.858 13.0798 16.9225 13.0798C16.987 13.1455 16.9225 13.277 16.987 13.2113C16.987 13.2113 16.987 13.2113 16.987 13.277H16.858C16.858 13.277 16.858 13.2113 16.7935 13.2113C16.7935 13.2113 16.729 13.2113 16.729 13.277C16.729 13.277 16.729 13.3427 16.7935 13.3427C16.7935 13.3427 16.7935 13.3427 16.858 13.3427C16.858 13.3427 16.9225 13.4085 16.9225 13.4742C16.9225 13.5399 16.9225 13.6056 16.9225 13.6714C16.9225 13.6714 16.9225 13.6714 16.9225 13.6056C16.9225 13.5399 16.858 13.5399 16.858 13.4742C16.858 13.4742 16.7935 13.4085 16.7935 13.3427C16.7935 13.277 16.729 13.2113 16.729 13.2113C16.729 13.2113 16.6645 13.277 16.6645 13.4085V13.4742C16.6645 13.4085 16.5999 13.4085 16.5999 13.4085V13.6056C16.5999 13.6714 16.5999 13.7371 16.6645 13.7371C16.6645 13.7371 16.6645 13.8028 16.729 13.8686C16.729 13.9343 16.858 14 16.987 14.0657H17.0516C17.0516 14.0657 17.0516 14.0657 17.0516 14.1315H16.9225C16.9225 14.1315 16.9225 14.0657 16.858 14.0657C16.858 14.0657 16.7935 14.0657 16.7935 14.1315C16.7935 14.1315 16.7935 14.1972 16.858 14.1972C16.858 14.1972 16.987 14.2629 16.987 14.3286C16.987 14.3944 16.987 14.5258 17.0516 14.5916C17.0516 14.5916 17.0516 14.5916 16.987 14.4601C16.987 14.3944 16.9225 14.3944 16.9225 14.3286C16.9225 14.3286 16.858 14.2629 16.7935 14.2629C16.729 14.2629 16.729 14.1315 16.729 14.1315C16.729 14.1315 16.729 14.2629 16.729 14.3286C16.729 14.3944 16.729 14.3944 16.729 14.3944H16.6645C16.5999 14.3944 16.5354 14.3286 16.5354 14.3286L16.5999 14.5258C16.5999 14.5916 16.6645 14.6573 16.6645 14.6573C16.6645 14.6573 16.729 14.723 16.729 14.7887C16.7935 14.8545 16.9225 14.9202 17.0516 14.9202C17.1161 14.9202 17.1161 14.9202 17.1161 14.9202C17.1161 14.9859 17.1161 14.9859 17.1161 14.9859H17.0516C17.0516 14.9859 17.0516 14.9202 16.987 14.9202C16.987 14.9202 16.9225 14.9202 16.9225 14.9859C16.9225 14.9859 16.9225 15.0517 16.987 15.0517H17.0516C17.0516 15.0517 17.1161 15.1174 17.1806 15.1174C17.1806 15.1831 17.1806 15.1831 17.1806 15.2488C17.1161 15.1831 17.0516 15.1831 16.987 15.1831C16.9225 15.1831 16.729 15.1174 16.729 15.1174C16.7935 15.1174 16.7935 15.2488 16.858 15.3146C16.729 15.3146 16.6645 15.3146 16.6645 15.3146C16.6645 15.3146 16.858 15.446 16.858 15.5117C16.858 15.5775 16.9225 15.7089 16.987 15.7089C16.987 15.7089 17.0516 15.7747 17.1161 15.8404C17.1806 15.9061 17.3096 15.8404 17.3741 15.8404C17.4387 15.8404 17.4387 15.8404 17.5032 15.9061C17.5032 15.9061 17.5032 15.9061 17.5677 15.9718C17.5677 15.9718 17.5032 15.9718 17.4387 15.9718C17.4387 15.9718 17.4387 15.9718 17.4387 16.0376L17.5677 15.9718L17.6322 16.0376C17.5677 16.0376 17.5677 16.0376 17.5677 15.9718C17.5677 15.9061 17.5677 16.1033 17.6322 16.169C17.5677 16.169 17.5677 16.169 17.5032 16.1033C17.4387 16.0376 17.5032 16.2348 17.5677 16.3005C17.6967 16.3662 17.6322 16.4319 17.6967 16.4319C17.6322 16.4319 17.5032 16.4977 17.4387 16.4319C17.3741 16.4319 17.5032 16.4977 17.5677 16.4977C17.6322 16.4977 17.6322 16.5634 17.7612 16.6291C17.8903 16.6948 17.9548 16.6948 18.0193 16.6948C18.0838 16.6948 18.0838 16.6948 18.1483 16.6291C18.2129 16.6291 18.2774 16.5634 18.4064 16.4977C18.5354 16.5634 18.5999 16.6291 18.729 16.6948C18.729 16.6948 18.729 16.6948 18.6645 16.6948C18.5999 16.6948 18.4709 16.7606 18.4064 16.6948C18.3419 16.6948 18.4709 16.7606 18.4709 16.8263C18.4064 16.8263 18.4064 16.8263 18.3419 16.8263H18.2129C18.1483 16.8263 18.3419 16.9578 18.4064 17.0235H18.4709C18.4064 17.0235 18.3419 17.0892 18.3419 17.0892C18.2774 17.0892 18.5354 17.2207 18.5999 17.2207C18.7935 17.2207 18.987 17.2864 19.1161 17.2207C19.1806 17.1549 19.2451 17.1549 19.3096 17.1549C19.3741 17.1549 19.3741 17.0892 19.3741 17.0892C19.3741 17.0892 19.4387 17.0235 19.5677 16.9578H19.6322H19.6967C19.6967 16.9578 19.6967 16.9578 19.6322 17.0235C19.5032 17.0892 19.3741 17.0892 19.3741 17.0892C19.3096 17.1549 19.0516 17.2864 19.0516 17.3521H19.2451C19.2451 17.3521 19.3096 17.2207 19.3741 17.2207C19.3741 17.2207 19.4387 17.1549 19.5677 17.1549C19.4387 17.3521 19.6322 17.5493 19.6322 17.5493C19.5677 17.4836 19.6322 17.4179 19.6322 17.4179L19.6967 17.4836C19.5677 17.2864 19.6967 17.1549 19.7612 17.0892H19.8258C19.8258 17.0892 19.8258 17.0892 19.8903 17.0892C20.0838 17.2864 20.0838 17.2864 20.1483 17.2864V17.3521C20.1483 17.4836 20.2128 17.615 20.2774 17.6808C20.2774 17.6808 20.2774 17.615 20.3419 17.615C20.3419 17.615 20.4064 17.7465 20.4709 17.7465C20.4709 17.7465 20.4064 17.6808 20.4064 17.615C20.4064 17.615 20.4064 17.4836 20.3419 17.4179C20.4064 17.4179 20.4064 17.4836 20.4064 17.4836C20.4064 17.4836 20.4709 17.615 20.5354 17.615H20.729C20.6645 17.5493 20.4709 17.3521 20.4064 17.3521C20.4064 17.3521 20.2774 17.2864 20.2128 17.2864L20.1483 17.2207C20.2129 17.2207 20.2128 17.2207 20.2774 17.2207C20.2774 17.2207 20.2774 17.2207 20.3419 17.2207H20.4064C20.3419 17.2207 20.2774 17.2864 20.2774 17.2864C20.4064 17.3521 20.4709 17.3521 20.4709 17.4179L20.5354 17.4836C20.5999 17.4836 20.5999 17.5493 20.729 17.5493C20.7935 17.615 21.0516 17.5493 21.2451 17.5493C21.3096 17.5493 21.5677 17.4179 21.5032 17.4179C21.5032 17.4179 21.4387 17.4178 21.3741 17.3521H21.4387C21.5032 17.3521 21.6967 17.1549 21.6322 17.1549H21.5032C21.4387 17.1549 21.4387 17.1549 21.3741 17.1549C21.4387 17.0892 21.5032 17.0235 21.4387 17.0235C21.3741 17.0235 21.2451 17.0235 21.1806 17.0235C21.1806 17.0235 21.1806 17.0235 21.1161 17.0235C21.2451 16.9578 21.3096 16.892 21.4387 16.8263C21.5677 16.8263 21.6322 16.892 21.6967 16.9578C21.7612 16.9578 21.8258 16.9578 21.8258 17.0235C21.8903 17.0235 22.0193 17.0235 22.0838 16.9578C22.2128 16.9578 22.1483 16.892 22.2774 16.8263C22.3419 16.8263 22.4709 16.6948 22.4064 16.7606C22.3419 16.7606 22.2774 16.7606 22.1483 16.7606C22.1483 16.7606 22.1483 16.7606 22.2774 16.6291C22.3419 16.5634 22.3419 16.4319 22.3419 16.4319C22.3419 16.4319 22.2774 16.4319 22.2128 16.4977C22.2128 16.4319 22.2774 16.3005 22.2774 16.3005L22.2128 16.3662L22.2774 16.3005L22.4064 16.3662V16.3005C22.4064 16.3005 22.3419 16.3005 22.2774 16.3005C22.2774 16.3005 22.2774 16.2348 22.3419 16.2348C22.4064 16.2348 22.4064 16.169 22.4709 16.169C22.5354 16.169 22.6645 16.169 22.729 16.169C22.7935 16.1033 22.858 16.0376 22.858 16.0376C22.858 16.0376 22.9225 15.9061 22.987 15.8404C22.987 15.7747 23.1806 15.6432 23.1806 15.6432C23.1806 15.6432 23.0516 15.6432 22.987 15.6432C22.987 15.5775 23.0516 15.446 23.1161 15.446C23.1161 15.446 22.9225 15.5117 22.858 15.5117C22.7935 15.5117 22.729 15.5117 22.6645 15.5775C22.6645 15.5117 22.6645 15.5117 22.6645 15.446C22.729 15.446 22.729 15.3803 22.7935 15.3803C22.7935 15.3803 22.858 15.3803 22.858 15.3146C22.858 15.3146 22.858 15.2488 22.7935 15.2488C22.7935 15.2488 22.729 15.2488 22.729 15.3146H22.6645V15.2488H22.729C22.858 15.2488 22.987 15.1831 23.0516 15.1174C23.1161 15.0517 23.1161 15.0517 23.1161 14.9859L23.1806 14.8545C23.2451 14.5916 23.2451 14.4601 23.2451 14.3944ZM17.6322 15.7747C17.6322 15.8404 17.6322 15.8404 17.6322 15.7747C17.6322 15.8404 17.6322 15.8404 17.6322 15.7747C17.6322 15.8404 17.6322 15.8404 17.6322 15.7747ZM17.6322 15.5117V15.5775C17.6322 15.5117 17.6322 15.5117 17.6322 15.5117ZM18.3419 16.5634C18.3419 16.5634 18.3419 16.6291 18.3419 16.5634C18.4064 16.5634 18.4064 16.5634 18.4064 16.5634C18.3419 16.6291 18.3419 16.6291 18.3419 16.5634ZM19.6322 17.0235C19.6322 17.0235 19.6967 17.0235 19.7612 17.0235C19.7612 17.0235 19.6967 17.0235 19.6322 17.0235ZM19.3096 17.0892C19.3096 17.0892 19.3741 17.0892 19.3096 17.0892C19.4387 17.0892 19.4387 17.0892 19.5032 17.0892C19.4387 17.0892 19.3741 17.0892 19.3096 17.0892ZM19.6322 17.1549H19.5677H19.6322ZM20.2774 16.8263C20.2774 16.8263 20.2774 16.892 20.2774 16.9578C20.2774 16.9578 20.2774 17.0235 20.2128 17.0235C20.1483 17.0235 20.0838 17.0235 20.0838 17.0892C20.0838 17.0892 20.0838 17.0892 20.1483 17.0235C20.1483 16.9578 20.2128 16.7606 20.2128 16.6948H20.1483H20.2128C20.2128 16.7606 20.2774 16.8263 20.2774 16.8263ZM20.1483 16.7606L20.0838 17.0892C20.0838 16.9578 20.1483 16.7606 20.1483 16.7606ZM19.9548 17.0892C19.9548 17.0892 19.8903 17.0892 19.9548 17.0892C19.8258 17.0235 19.7612 17.0235 19.7612 16.9578C19.7612 16.9578 19.6967 16.7606 19.6967 16.6948C19.8258 16.892 19.9548 17.0892 19.9548 17.0892ZM19.6967 16.6948C19.6967 16.6948 19.6322 16.6948 19.6967 16.6948C19.6322 16.6948 19.6322 16.6948 19.6967 16.6948ZM19.6322 16.6948C19.6322 16.6948 19.5677 16.6948 19.6322 16.6948C19.5677 16.6948 19.5677 16.6948 19.6322 16.6948C19.5677 16.6948 19.6322 16.6948 19.6322 16.6948ZM19.6322 16.9578C19.6322 16.892 19.6322 16.8263 19.6322 16.7606C19.5677 16.8263 19.6322 16.892 19.6322 16.9578ZM20.5354 17.0892C20.5999 17.0892 20.5999 17.0892 20.5354 17.0892C20.5354 17.0892 20.4709 17.0892 20.4064 17.1549C20.4709 17.0892 20.5354 17.0892 20.5354 17.0892ZM21.5677 16.6291C21.5677 16.6291 21.6322 16.5634 21.5677 16.6291V16.6291ZM22.2774 15.5775V15.5117C22.2774 15.5117 22.2774 15.5117 22.2774 15.5775Z" fill="#338E1A"/>
<path d="M19.7612 11.9624L20.0838 11.6995C20.0838 11.6995 20.0838 11.6995 20.0838 11.6338C20.0838 11.5681 20.0838 11.3709 20.0838 11.3709L20.0193 11.108L20.0838 11.0423L20.0193 10.9765C20.0193 10.9765 20.0838 10.9765 20.0838 11.0423C20.0838 11.0423 20.1483 11.0423 20.1483 10.9765L20.0838 10.9108C20.0838 10.9108 20.0838 10.9108 20.0838 10.8451C20.0193 10.7793 20.0193 10.6479 20.0193 10.6479C20.0193 10.7136 19.9548 10.8451 19.9548 10.8451C20.0193 10.8451 20.0193 10.9108 20.0193 10.9108L19.9548 10.8451L19.8903 10.9108L19.9548 10.9765L19.8903 11.0423C19.8903 11.0423 19.8903 11.108 19.9548 11.108C19.9548 11.1737 19.8257 11.5681 19.7612 11.6338C19.6967 11.6338 19.6967 11.9624 19.7612 11.9624ZM20.0838 10.8451C20.0838 10.8451 20.0838 10.9108 20.0838 10.8451C20.1483 10.9108 20.1483 10.9108 20.0838 10.8451C20.0838 10.9765 20.0193 10.9765 20.0838 10.8451C20.0193 10.9108 20.0193 10.9108 20.0193 10.9108L20.0838 10.8451ZM19.9548 10.9108C20.0193 10.9108 19.9548 10.9108 19.9548 10.9108V10.9108ZM19.8257 10.9108C19.8257 10.9108 19.8257 10.8451 19.8257 10.9108C19.8903 10.8451 19.8903 10.8451 19.9548 10.9108C19.8903 10.9765 19.8257 10.9765 19.8257 10.9108Z" fill="#0F47AF"/>
<path d="M18.1483 14.723L18.4709 14.1971L18.5999 13.9342V13.8685V13.8028L18.2128 13.5399L18.5999 13.8028L18.6645 13.6713L18.9225 13.2112L19.0516 12.9483L18.0838 11.8967H18.1483C18.1483 11.8967 18.2128 11.8309 18.1483 11.8309C18.1483 11.8309 18.0838 11.7652 18.0838 11.8309L18.0193 11.8967V11.7652C17.9548 11.7652 17.8257 11.6995 17.8257 11.6995C17.8903 11.7652 17.8903 11.8967 17.8903 11.8967C17.8903 11.8967 17.9548 11.8967 18.0193 11.8967H17.9548V11.9624H18.0193C18.0193 11.9624 18.0193 11.8967 18.0838 11.8967C18.0838 11.8967 18.0838 11.9624 18.0193 11.9624V12.0281H18.0838C18.0838 12.2253 18.0838 12.3568 18.0193 12.5539C18.0193 12.6197 18.0193 12.6197 18.0193 12.6854C18.0193 12.9483 18.0193 13.0798 18.0193 13.2769C18.0193 13.2769 18.0193 13.3427 18.0193 13.4084V13.4741L17.4386 13.0798H17.5032V13.014H17.4386C17.4386 13.014 17.4386 13.0798 17.4386 13.1455V13.014C17.3741 13.014 17.2451 12.9483 17.2451 12.9483C17.3096 13.014 17.3741 13.0798 17.3741 13.0798C17.3741 13.0798 17.4387 13.0798 17.5032 13.0798C17.5032 13.0798 17.4386 13.0798 17.4386 13.1455V13.2112H17.5032V13.1455V13.2112V13.2769V13.3427H17.5677C17.5677 13.5399 17.5677 13.8028 17.5032 13.9342C17.5032 14.1971 17.5677 14.3286 17.5677 14.5258C17.5677 14.5915 17.6322 14.723 17.6322 14.7887C17.6322 14.7887 17.6322 14.7887 17.6322 14.8544C17.6322 14.9201 17.6322 14.9201 17.6322 14.9859C17.6322 15.0516 17.6322 15.0516 17.6967 15.183C17.6967 15.2488 17.7612 15.2488 17.7612 15.3145L18.1483 14.723ZM17.5677 13.014C17.6322 13.014 17.6322 13.014 17.6322 13.014C17.6322 13.0798 17.6322 13.0798 17.5677 13.0798C17.5032 13.0798 17.5677 13.014 17.5677 13.014ZM17.5032 13.2112C17.5032 13.2769 17.5032 13.2769 17.4386 13.2769V13.2112C17.4386 13.1455 17.4387 13.1455 17.5032 13.2112C17.5032 13.1455 17.5032 13.1455 17.5032 13.2112C17.5032 13.1455 17.5032 13.1455 17.5032 13.2112C17.5032 13.1455 17.5032 13.2112 17.5032 13.2112ZM18.4064 13.737L18.0193 13.4741L18.4064 13.737ZM18.2128 11.8967L18.5354 12.291L18.2128 11.8967ZM18.7935 12.5539L18.6645 12.4225L19.1161 12.9483L18.7935 12.5539ZM18.2774 11.7652C18.2774 11.7652 18.3419 11.7652 18.2774 11.7652C18.3419 11.7652 18.3419 11.7652 18.2774 11.7652C18.3419 11.8309 18.2774 11.8309 18.2774 11.8309C18.2128 11.7652 18.2774 11.7652 18.2774 11.7652ZM18.2128 11.8967L18.1483 11.9624V11.8967C18.0838 11.8309 18.1483 11.8309 18.2128 11.8967C18.2128 11.8309 18.2128 11.8967 18.2128 11.8967ZM17.8257 13.3427L17.5677 13.1455L17.8257 13.3427Z" fill="#0F47AF"/>
<path d="M21.3741 15.446H20.729H20.0838H20.0193H19.9548H19.8903H19.8258H19.1806H18.5354H17.9548C18.0193 15.5117 18.0838 15.5117 18.1483 15.5774L18.2129 15.6432C18.2774 15.7089 18.4064 15.7089 18.4709 15.7746C18.4709 15.7746 18.5354 15.7746 18.5354 15.8403C18.6 15.8403 18.729 15.9061 18.7935 15.9061C18.858 15.9061 18.9225 15.9061 18.987 15.9061C19.0516 15.9061 19.1161 15.9061 19.1806 15.9061C19.2451 15.9061 19.2451 15.9061 19.2451 15.9061C19.2451 15.9061 19.3096 15.9061 19.3741 15.9061C19.4387 15.9061 19.3741 15.9061 19.4387 15.9061C19.5032 15.9061 19.5677 15.8403 19.6322 15.8403H19.6967C19.6967 15.8403 19.6967 15.8403 19.7612 15.7746C19.7612 15.7746 19.7612 15.7746 19.7612 15.8403V15.9061V15.9718C19.7612 15.9718 19.7612 15.9718 19.7612 16.0375V16.1033C19.7612 16.1033 19.7612 16.169 19.8258 16.169C19.8258 16.169 19.8258 16.169 19.8903 16.169H19.9548H20.0193C20.0193 16.169 20.0193 16.169 20.0838 16.169C20.0838 16.169 20.0838 16.169 20.1483 16.169C20.2129 16.169 20.1483 16.169 20.1483 16.169V16.1033C20.1483 16.1033 20.1483 16.1033 20.1483 16.0375V15.9718V15.9061C20.1483 15.9061 20.1483 15.9061 20.2129 15.9061C20.2129 15.9061 20.2129 15.9061 20.2774 15.9061C20.3419 15.9061 20.4064 15.9061 20.4709 15.9718C20.5354 15.9718 20.5354 15.9718 20.5354 15.9718C20.5354 15.9718 20.5999 15.9718 20.6645 15.9718C20.729 15.9718 20.729 15.9718 20.7935 15.9718C20.858 15.9718 20.9225 15.9718 20.987 15.9718C21.0516 15.9718 21.1161 15.9718 21.1806 15.9718C21.2451 15.9718 21.3741 15.9718 21.4387 15.9061C21.4387 15.9061 21.5032 15.9061 21.5032 15.8403C21.5677 15.8403 21.6967 15.7746 21.7612 15.7089C21.7612 15.7089 21.8258 15.7089 21.8258 15.6432C21.8903 15.5774 21.9548 15.5774 22.0193 15.5117H21.3741V15.446ZM19.9548 15.446C19.9548 15.446 19.9548 15.5117 19.9548 15.446C19.9548 15.5117 19.9548 15.446 19.9548 15.446Z" fill="#0F47AF"/>
<path d="M22.4064 13.014C22.4064 13.014 22.4064 13.0798 22.4064 13.1455C22.4064 13.0798 22.4064 13.014 22.4064 13.014C22.3419 13.014 22.2774 13.014 22.2774 13.014V13.0798C22.3419 13.0798 22.3419 13.0798 22.3419 13.0798L21.7613 13.4741V13.4084C21.7613 13.3427 21.7613 13.3427 21.7613 13.2769C21.7613 13.014 21.7613 12.8826 21.7613 12.6854C21.7613 12.4882 21.6967 12.291 21.6967 12.0938V12.0281H21.7613V11.9624C21.7613 11.9624 21.7613 11.8967 21.6967 11.8967C21.6967 11.8967 21.6967 11.9624 21.7613 11.9624H21.8258V11.8967H21.7613C21.7613 11.8967 21.8258 11.8967 21.8903 11.8967C21.8903 11.8967 21.8903 11.7652 21.9548 11.6995C21.9548 11.6995 21.8258 11.7652 21.7613 11.7652C21.7613 11.7652 21.7613 11.8309 21.7613 11.8967C21.7613 11.8309 21.7613 11.8309 21.6967 11.8309H21.6322V11.8967C21.6967 11.8967 21.6967 11.8967 21.6967 11.8967L20.729 12.9483L20.858 13.2112L21.1161 13.6713L21.1806 13.8028L21.5677 13.5399L21.1806 13.8028V13.8685V13.9342L21.3096 14.1971L21.6322 14.723L21.9548 15.3145C21.9548 15.3145 22.0193 15.2488 22.0193 15.183C22.0193 15.1173 22.0193 15.1173 22.0838 14.9859C22.0838 14.9201 22.0838 14.9201 22.0838 14.8544C22.0838 14.8544 22.0838 14.8544 22.0838 14.7887C22.0838 14.723 22.1484 14.5915 22.1484 14.5258C22.1484 14.3286 22.2129 14.1971 22.2129 13.9342C22.2129 13.737 22.1484 13.5399 22.1484 13.3427C22.1484 13.3427 22.1484 13.3427 22.2129 13.3427V13.2769V13.2112C22.2129 13.2112 22.2129 13.2112 22.2129 13.1455V13.2112C22.2129 13.2112 22.2774 13.2769 22.2774 13.2112V13.1455L22.2129 13.0798C22.2129 13.0798 22.2774 13.0798 22.3419 13.0798C22.3419 13.0798 22.4064 12.9483 22.4709 12.9483C22.6645 12.9483 22.5355 13.014 22.4064 13.014ZM21.5677 13.737L21.9548 13.4741L21.5677 13.737ZM21.6967 11.8967L21.3742 12.291L21.6967 11.8967ZM21.8258 11.8967C21.8258 11.9624 21.8258 11.9624 21.8258 11.9624C21.7613 11.9624 21.7613 11.9624 21.7613 11.8967C21.7613 11.8309 21.8258 11.8309 21.8258 11.8967ZM21.6322 11.8309C21.5677 11.8309 21.5677 11.8309 21.5677 11.7652H21.6322C21.6967 11.7652 21.6967 11.7652 21.6322 11.8309C21.6967 11.8309 21.6967 11.8309 21.6322 11.8309C21.6967 11.8309 21.6322 11.8309 21.6322 11.8309ZM21.2451 12.3568L21.1161 12.4882L20.7935 12.8826L21.2451 12.3568ZM22.4064 13.2112L22.0838 13.3427L22.4064 13.2112C22.4064 13.1455 22.4064 13.1455 22.4064 13.2112ZM22.2774 13.014C22.3419 13.014 22.3419 13.014 22.3419 13.014L22.4064 13.0798C22.3419 13.0798 22.2774 13.0798 22.2774 13.014ZM22.4709 13.2112C22.4709 13.2112 22.5355 13.2112 22.4709 13.2112C22.4709 13.2769 22.4709 13.2769 22.4709 13.2769C22.4064 13.2769 22.4064 13.2112 22.4064 13.2112C22.4709 13.1455 22.4709 13.1455 22.4709 13.2112Z" fill="#0F47AF"/>
<path d="M19.9548 11.568L17.6967 15.4459H22.2128L19.9548 11.568Z" fill="#FFCC00"/>
<path d="M18.1483 17.3521L18.2129 17.615C18.1483 17.615 18.0838 17.615 18.0838 17.6807C18.0193 17.7464 18.0838 17.8779 18.1483 17.8779L18.2774 17.9436L18.4709 17.4835L18.4064 17.4178L18.3419 17.615V17.3521H18.1483ZM18.2129 17.6807V17.8122C18.1483 17.8122 18.1483 17.8122 18.2129 17.6807C18.1483 17.6807 18.2129 17.6807 18.2129 17.6807Z" fill="#FFCC00"/>
<path d="M17.7612 17.3521L17.8903 17.4178L17.9548 17.3521L17.8258 17.2206L17.8903 17.1549L18.0838 17.2864L17.8258 17.7465L17.6322 17.5493V17.4835L17.7612 17.615L17.8258 17.4835L17.6967 17.4178L17.7612 17.3521Z" fill="#FFCC00"/>
<path d="M17.6967 17.0234L17.5677 17.1549H17.5032C17.4386 17.0892 17.3741 17.0892 17.3096 17.1549C17.2451 17.2206 17.2451 17.2863 17.3741 17.4178L17.5032 17.4835L17.8257 17.0892L17.6967 17.0234ZM17.4386 17.1549C17.4386 17.1549 17.5032 17.1549 17.4386 17.1549L17.5032 17.2206L17.4386 17.3521C17.3741 17.2863 17.3741 17.2206 17.4386 17.1549Z" fill="#FFCC00"/>
<path d="M17.1161 17.1549L17.0516 17.0892L17.2451 16.892C17.3096 16.8263 17.3741 16.7605 17.3096 16.6948C17.2451 16.6291 17.1806 16.6948 17.1161 16.6948L16.9225 16.892L16.858 16.8263L17.0516 16.6291C17.1161 16.5633 17.2451 16.4976 17.3096 16.6291C17.3741 16.7605 17.3741 16.8263 17.3096 16.892L17.1161 17.1549Z" fill="#FFCC00"/>
<path d="M16.9226 16.169H16.858C16.7935 16.2347 16.7935 16.2347 16.7935 16.3005C16.729 16.3005 16.729 16.3005 16.6645 16.3005C16.6 16.3662 16.6 16.4319 16.6645 16.4976L16.729 16.6291L17.1161 16.3662L17.0516 16.2347C16.9871 16.2347 16.9871 16.169 16.9226 16.169ZM16.9226 16.3005C16.9226 16.3005 16.9871 16.3005 16.9871 16.3662L16.858 16.4319C16.858 16.3662 16.858 16.3662 16.9226 16.3005ZM16.7935 16.4319L16.729 16.5634C16.729 16.4976 16.6645 16.4976 16.7935 16.4319C16.729 16.4319 16.729 16.4319 16.7935 16.4319Z" fill="#FFCC00"/>
<path d="M16.6645 15.8404H16.7935L16.858 16.0375L16.4709 16.2347L16.4064 16.169L16.7935 15.9718L16.6645 15.8404Z" fill="#FFCC00"/>
<path d="M16.6645 15.6432L16.729 15.7089L16.2774 15.9061L16.2128 15.8404L16.6645 15.6432Z" fill="#FFCC00"/>
<path d="M16.2129 15.2488C16.2129 15.3145 16.2129 15.3145 16.2129 15.3802C16.2129 15.446 16.3419 15.5117 16.4064 15.446C16.4709 15.446 16.5354 15.3145 16.5354 15.2488C16.5354 15.1831 16.4709 15.1831 16.4709 15.1831L16.6 15.1173C16.6 15.1173 16.6645 15.1831 16.6645 15.2488C16.729 15.3803 16.6 15.5117 16.4709 15.5774C16.3419 15.6432 16.2129 15.5774 16.1483 15.446C16.1483 15.3803 16.1483 15.3803 16.1483 15.3145L16.2129 15.2488Z" fill="#FFCC00"/>
<path d="M16.4064 14.5915L15.9548 14.8544V14.9201L16.4709 15.0516V14.9201H16.3419V14.7229L16.4064 14.6572V14.5915ZM16.2774 14.7887V14.9201H16.0838L16.2774 14.7887Z" fill="#FFCC00"/>
<path d="M16.1484 13.6713C16.0193 13.6713 15.8903 13.7371 15.8903 13.9342V14.0657L16.4064 14.1314V14C16.4064 13.8028 16.3419 13.6713 16.1484 13.6713ZM16.1484 13.8028C16.2774 13.8028 16.3419 13.8685 16.3419 14H16.0193C16.0193 13.8685 16.0838 13.8028 16.1484 13.8028Z" fill="#FFCC00"/>
<path d="M16.2774 13.277V13.4084L16.4064 13.4742V13.277L16.5354 13.3427L16.4709 13.6056L15.9548 13.4742L16.0193 13.2113H16.0838V13.4084H16.1484L16.2129 13.277H16.2774Z" fill="#FFCC00"/>
<path d="M16.4709 12.6854L16.4064 12.8169L16.5354 12.8826L16.6 12.6854L16.729 12.7512L16.6 13.0141L16.1483 12.8169L16.2129 12.554H16.3419L16.2774 12.7512H16.3419L16.4064 12.6197L16.4709 12.6854Z" fill="#FFCC00"/>
<path d="M16.7935 12.3568L16.858 12.4225L16.729 12.6197L16.3419 12.3568V12.291L16.729 12.4882L16.7935 12.3568Z" fill="#FFCC00"/>
<path d="M16.8581 11.6995C16.8581 11.6995 16.7935 11.6995 16.7935 11.7652V11.8309C16.8581 11.8967 16.9226 11.6995 17.1161 11.7652C17.1806 11.8309 17.1806 11.8967 17.1806 12.0281C17.1161 12.0939 17.0516 12.0939 16.9871 12.0939V12.0281C17.0516 12.0281 17.0516 12.0281 17.1161 12.0281V11.9624C17.0516 11.9624 17.0516 11.9624 16.9871 11.9624C16.9226 12.0281 16.8581 12.0281 16.7935 11.9624C16.729 11.8967 16.729 11.8309 16.7935 11.7652C16.7935 11.6995 16.8581 11.6995 16.9226 11.6995H16.8581Z" fill="#FFCC00"/>
<path d="M17.0516 11.2394L17.2451 11.7652L17.3096 11.6995L17.2451 11.568L17.3742 11.4366L17.5032 11.5023L17.5677 11.4366L17.0516 11.2394ZM17.1806 11.3708L17.3096 11.4366L17.2451 11.5023L17.1806 11.3708Z" fill="#FFCC00"/>
<path d="M17.7613 11.1737L17.8258 11.2394L17.6322 11.4366L17.3742 11.0423L17.4387 10.9765L17.6967 11.3052L17.7613 11.1737Z" fill="#FFCC00"/>
<path d="M17.8903 10.6479L18.0193 10.5822L18.0838 11.108H18.0193L17.6322 10.7793H17.6967L17.9548 10.9765H18.0193L17.8903 10.6479Z" fill="#FFCC00"/>
<path d="M18.3419 10.3849L18.2774 10.4507V10.9765L18.3419 10.9108V10.7793L18.4709 10.7136L18.5354 10.7793L18.6645 10.7136L18.3419 10.3849ZM18.3419 10.5164L18.4709 10.6479L18.4064 10.7136L18.3419 10.5164Z" fill="#FFCC00"/>
<path d="M18.9225 10.1878H18.858L18.729 10.2535L18.7935 10.7136L18.9225 10.6479C19.0516 10.5822 19.1161 10.4507 19.1161 10.3192C19.1161 10.2535 18.987 10.1878 18.9225 10.1878ZM18.9225 10.3192C18.987 10.3192 19.0516 10.385 19.0516 10.4507C19.0516 10.5164 19.0516 10.5822 18.9225 10.6479L18.7935 10.3192C18.858 10.3192 18.858 10.3192 18.9225 10.3192Z" fill="#FFCC00"/>
<path d="M19.5032 10.0563C19.5032 10.0563 19.4387 10.0563 19.5032 10.0563C19.3096 10.0563 19.2451 10.1878 19.2451 10.3849C19.2451 10.5164 19.3742 10.6479 19.5032 10.5821C19.6322 10.5821 19.7612 10.4507 19.6967 10.3192C19.6967 10.1878 19.6322 10.0563 19.5032 10.0563ZM19.5032 10.1878C19.5677 10.1878 19.6322 10.2535 19.6322 10.3192C19.6322 10.3849 19.5677 10.4507 19.5032 10.5164C19.4387 10.5164 19.3742 10.4507 19.3742 10.3849C19.3742 10.2535 19.3742 10.1878 19.5032 10.1878Z" fill="#FFCC00"/>
<path d="M19.8903 10.0563V10.5821H20.0193V10.3849L20.1484 10.5821H20.2774L20.0839 10.3192C20.1484 10.3192 20.2129 10.2535 20.2129 10.1878C20.2129 10.0563 20.1484 10.0563 20.0193 10.0563H19.8903ZM20.0193 10.122C20.0839 10.122 20.1484 10.122 20.0839 10.1878C20.0839 10.2535 20.0193 10.2535 20.0193 10.2535V10.122Z" fill="#FFCC00"/>
<path d="M21.0516 10.4507H20.858V10.5821H20.9871V10.6479L20.729 10.5821L20.858 10.122L21.1161 10.1878V10.2535H20.9226V10.3192L21.0516 10.385V10.4507Z" fill="#FFCC00"/>
<path d="M21.5032 10.7136L21.6322 10.385H21.6967L21.5032 10.9108L21.4387 10.8451L21.3096 10.4507L21.1806 10.7793L21.1161 10.7136L21.3096 10.2535H21.3742L21.5032 10.7136Z" fill="#FFCC00"/>
<path d="M22.0838 11.108L22.0193 11.1737L21.8258 11.0423L22.0838 10.6479H22.1484L21.9548 11.0423L22.0838 11.108Z" fill="#FFCC00"/>
<path d="M22.5354 10.9108L22.0838 11.1737L22.1483 11.2394L22.2774 11.1737L22.4064 11.3052L22.3419 11.4366L22.4064 11.5023L22.5354 10.9108ZM22.4709 11.108L22.4064 11.3052L22.3419 11.2394L22.4709 11.108Z" fill="#FFCC00"/>
<path d="M23.3096 11.6995L22.7935 11.8309L22.858 11.8967H22.987L23.1161 12.0281L23.0516 12.0939L23.1161 12.1596L23.3096 11.6995ZM23.1806 11.8309L23.0516 11.9624L22.987 11.8967L23.1806 11.8309Z" fill="#FFCC00"/>
<path d="M23.3097 12.8169V12.6854L23.5032 12.554H23.1806L23.4387 12.2911L23.1161 12.3568L23.0516 12.2911L23.5677 12.1596V12.2253L23.3742 12.4882L23.6968 12.4225L23.7613 12.4882L23.3097 12.8169Z" fill="#FFCC00"/>
<path d="M23.6322 13.0798L23.5677 12.9483H23.4387L23.5032 13.1455H23.4387L23.3742 12.8826L23.8258 12.7511L23.8903 13.0141H23.8258L23.7613 12.8826H23.6967V13.0798H23.6322Z" fill="#FFCC00"/>
<path d="M23.9548 13.2113L23.5032 13.3427V13.4084L23.6967 13.3427L23.5032 13.5399V13.6714L23.6967 13.4742C23.6967 13.5399 23.7613 13.5399 23.8258 13.5399C23.9548 13.5399 23.9548 13.4084 23.9548 13.3427V13.2113ZM23.8903 13.277C23.8903 13.3427 23.8903 13.4084 23.8258 13.4084C23.7613 13.4084 23.7613 13.4084 23.7613 13.3427L23.8903 13.277Z" fill="#FFCC00"/>
<path d="M23.5677 13.8028V13.7371L24.0193 13.6713L24.0838 13.8028H23.5677Z" fill="#FFCC00"/>
<path d="M23.9548 14.3286C23.9548 14.3286 24.0193 14.2629 24.0193 14.1972C24.0193 14.1315 23.9548 14.0657 23.8258 14.0657C23.7613 14.0657 23.6322 14.1315 23.6322 14.1972C23.6322 14.2629 23.6322 14.2629 23.6967 14.3286H23.5677C23.5677 14.2629 23.5677 14.2629 23.5677 14.1972C23.5677 14.0657 23.6967 13.9343 23.8258 13.9343C23.9548 13.9343 24.0838 14.0657 24.0838 14.1972C24.0838 14.2629 24.0838 14.2629 24.0838 14.3286H23.9548Z" fill="#FFCC00"/>
<path d="M23.5677 14.3943V14.5258L23.6967 14.5915V14.7887H23.5677V14.9202L24.0838 14.7887V14.723L23.5677 14.3943ZM23.7613 14.5915L23.8903 14.6572L23.6967 14.723L23.7613 14.5915Z" fill="#FFCC00"/>
<path d="M23.6322 15.8403C23.6967 15.8403 23.6967 15.7746 23.6967 15.7746C23.7612 15.7089 23.6967 15.5774 23.5677 15.5774C23.5032 15.5774 23.3741 15.5774 23.3741 15.6431C23.3741 15.7089 23.3741 15.7089 23.3741 15.7746L23.3096 15.7089C23.3096 15.6431 23.3096 15.6431 23.3096 15.5774C23.3741 15.446 23.5032 15.3802 23.6322 15.446C23.7612 15.5117 23.8258 15.6431 23.7612 15.7746C23.7612 15.8403 23.6967 15.8403 23.6967 15.8403H23.6322Z" fill="#FFCC00"/>
<path d="M23.3096 16.169L23.3742 16.0375L23.2451 15.9718L23.1806 16.1033L23.1161 16.0375L23.2451 15.8404L23.6322 16.0375L23.5032 16.3005L23.4387 16.2347L23.5032 16.1033L23.4387 16.0375L23.3742 16.169H23.3096Z" fill="#FFCC00"/>
<path d="M22.9226 16.5634L23.2451 16.7606L23.1806 16.8263L22.729 16.5634L22.7935 16.4976L23.2451 16.4319L22.9871 16.2347L23.0516 16.169L23.4387 16.4976L23.3742 16.5634H22.9226Z" fill="#FFCC00"/>
<path d="M22.9225 16.9577L22.987 16.892L23.0515 16.9577L22.858 17.1549H22.7935L22.858 17.0234L22.5354 16.7605L22.5999 16.6948L22.9225 16.9577Z" fill="#FFCC00"/>
<path d="M22.4064 16.892L22.3419 16.9577L22.4709 17.0892L22.2774 17.0235L22.2129 17.0892L22.4709 17.1549C22.4064 17.2207 22.4064 17.2864 22.4709 17.3521C22.5354 17.4178 22.6 17.4178 22.6645 17.3521L22.7935 17.2864L22.4064 16.892ZM22.5354 17.2207L22.6 17.3521C22.5354 17.3521 22.5354 17.4178 22.4709 17.3521C22.4709 17.2864 22.4709 17.2207 22.5354 17.2207Z" fill="#FFCC00"/>
<path d="M22.0838 17.1549L22.0193 17.2206V17.3521L21.8903 17.4178L21.8257 17.3521L21.7612 17.4178L22.2128 17.7465L22.2774 17.6807L22.0838 17.1549ZM22.0193 17.4178L22.0838 17.615L21.9548 17.4835L22.0193 17.4178Z" fill="#FFCC00"/>
<path d="M21.4386 17.615L21.3741 17.5493L21.6322 17.4836L21.8257 17.9436H21.7612L21.5677 17.615H21.4386Z" fill="#FFCC00"/>
</svg>
