<svg width="40" height="28" viewBox="0 0 40 28" fill="none" xmlns="http://www.w3.org/2000/svg">
<path d="M26.8387 0H13.0968V28H26.8387V0Z" fill="white"/>
<path d="M26.9032 19.9812V0H13.0968V8.01882L26.9032 19.9812Z" fill="#DDE7ED"/>
<path d="M26.8387 23.9906H13.0967V28H26.8387V23.9906Z" fill="#C9DAE2"/>
<path d="M26.9032 7.16432V0H13.0968V2.89206L26.9032 7.16432Z" fill="#C9DAE2"/>
<path d="M13.0968 0H3.87093C1.74195 0 0 1.77466 0 4.00937V23.9905C0 26.2253 1.74195 27.9999 3.87093 27.9999H13.1612V0H13.0968Z" fill="#4997D0"/>
<path d="M36.129 0H26.9033V28H36.129C38.2581 28 40 26.2253 40 23.9906V4.00937C40 1.77466 38.258 0 36.129 0Z" fill="#4997D0"/>
<path d="M36.1291 0H26.9033V19.9812L36.1291 27.9999C38.2581 27.9999 40 26.2253 40 23.9905V4.00937C40 1.77466 38.258 0 36.1291 0Z" fill="#3789BC"/>
<path d="M13.0968 0H3.87093L13.0968 8.01882V0Z" fill="#3789BC"/>
<path d="M26.9032 28H36.129C38.258 28 39.9999 26.2253 39.9999 23.9906H26.9032V28Z" fill="#257AA5"/>
<path d="M0 23.9906C0 26.2253 1.74195 28 3.87093 28H13.1612V23.9906H0Z" fill="#257AA5"/>
<path d="M36.129 0H26.9033V7.16432L40 11.2394V4.00937C40 1.77466 38.258 0 36.129 0Z" fill="#257AA5"/>
<path d="M13.0968 0H3.87093L13.0968 2.89206V0Z" fill="#257AA5"/>
<path d="M20.3226 18.9953C20.258 18.9295 20.1935 18.8638 20.1291 18.8638C19.7419 18.6666 19.4194 18.5351 18.9677 18.4694C18.9677 18.4037 18.9032 18.3379 18.8387 18.2723C18.9032 18.2065 18.9032 18.0094 18.8387 17.8779C18.7096 17.5492 18.4516 17.1549 17.9355 16.8262C17.9355 16.892 18.0645 17.2206 18.1935 17.5492C18.0644 17.3521 17.8064 17.2206 17.5484 17.0891C17.5484 17.2206 18.0644 18.2065 18.4516 18.4037L18.5161 18.3379L18.6452 18.5351C18.5161 18.4693 18.4516 18.4036 18.3226 18.3379C18.1291 18.2722 17.9355 18.2064 17.8065 18.1408C17.8065 18.1408 17.8065 18.1408 17.742 18.1408C17.6129 18.075 17.5484 18.075 17.4194 18.0093C17.4194 18.0093 17.4194 18.0093 17.3548 18.0093C17.4194 18.0093 17.4194 18.075 17.4839 18.0093C17.5484 17.5492 17.1613 16.5633 17.0323 16.4975C16.9032 17.1548 17.0323 17.6149 17.2258 17.8778C17.2258 17.8778 17.2258 17.8778 17.2258 17.9435C17.0967 17.8121 16.9032 17.812 16.8387 17.6806C16.6452 17.4835 16.5161 17.352 16.3226 17.1549C16.3871 17.1549 16.3871 17.0891 16.3871 17.0891C16.4516 16.9576 16.3871 16.629 16.1291 16.3004C16.1291 16.1032 16.1291 15.7746 15.9355 15.3802C15.871 15.5117 15.8065 16.3004 15.9355 16.629C16.0001 16.629 16.0001 16.629 16.0646 16.5633C16.1291 16.7604 16.1937 17.0234 16.3227 17.1548C16.0646 16.8919 15.8066 16.5633 15.613 16.2346C15.613 16.1689 15.613 16.1031 15.613 16.0375C15.6775 16.0375 15.742 15.9717 15.742 15.906C15.8711 15.7088 15.8711 15.183 15.5485 14.6572C15.5485 14.7229 15.484 14.9201 15.484 15.183C15.484 15.0515 15.4195 14.8543 15.3549 14.6572C15.484 14.46 15.5484 14.1971 15.613 13.8684C15.5484 13.8684 15.3549 14.1313 15.2259 14.3285C15.2259 14.3285 15.2259 14.3285 15.2259 14.2628C15.2259 14.2628 15.2259 14.3285 15.2259 14.3943C15.1613 14.46 15.1613 14.5914 15.0968 14.6572C15.0323 14.5257 15.0323 14.3943 15.0323 14.2628C15.2258 14.3285 15.5484 13.9342 15.6129 13.2112C15.6129 13.0797 15.6129 13.014 15.6129 12.8825C15.5484 12.8825 15.4838 13.0797 15.3548 13.2112C15.4194 13.014 15.4194 12.8168 15.4194 12.4881C15.6129 12.3567 15.8065 12.2252 16 11.9624C15.8709 11.9624 15.3548 12.1595 15.0323 12.3567C15.0323 12.291 15.0323 12.1596 15.0968 12.0938C15.1613 12.0281 15.2259 12.0281 15.2903 11.9624C15.4194 12.0281 15.6129 11.9624 15.8064 11.8309C15.9999 11.6994 16.258 11.3707 16.4516 10.9764C16.387 10.9764 16.129 11.1079 15.8709 11.3051C16 11.1079 16.1935 10.7793 16.258 10.4507C16.129 10.5164 15.3548 11.1737 15.2903 11.6338C15.2903 11.6338 15.2258 11.6995 15.1612 11.6995C15.2258 11.3709 15.3548 11.108 15.4838 10.7794H15.5484C15.5484 10.7794 15.5484 10.7794 15.6129 10.7794C15.6774 10.7794 15.6774 10.7794 15.6774 10.7136C15.6774 10.6479 15.6774 10.6479 15.6129 10.6479C15.5484 10.6479 15.5484 10.6479 15.5484 10.7136H15.4838C15.4838 10.6479 15.5484 10.5821 15.6129 10.5165C15.6774 10.4507 15.8064 10.385 15.8709 10.3193L15.6129 10.5165C15.742 10.3193 15.8064 10.1221 15.9355 9.92496C16.1935 9.72781 16.4516 9.00479 16.4516 8.87331C16.387 8.93905 16.3225 8.93905 16.3225 9.00479C15.9354 9.33343 15.8064 9.79355 15.9354 9.85921C15.8063 10.0564 15.6773 10.2536 15.5483 10.4507V10.2536C15.5483 10.3193 15.5483 10.3851 15.5483 10.5165C15.5483 10.5822 15.4837 10.648 15.4837 10.648V10.5822C15.4837 10.5822 15.5483 10.5822 15.5483 10.5165C15.5483 10.4507 15.5483 10.4507 15.4837 10.4507C15.4192 10.4507 15.4192 10.4507 15.4192 10.5165C15.4192 10.5822 15.4192 10.5822 15.4837 10.5822V10.648C15.4192 10.7795 15.3547 10.9766 15.2902 11.1081V10.7137H15.3548C15.4838 10.3193 15.4193 9.39917 15.3548 9.26769C15.0322 9.9907 15.0967 10.5822 15.2902 10.648C15.2902 10.7795 15.2902 10.9766 15.2902 11.1081V11.1738L15.2257 11.1081C15.2257 11.1081 15.2257 11.1081 15.2257 11.0423C15.2257 10.9766 15.2257 10.9766 15.1612 10.9766C15.0966 10.9766 15.0966 10.9766 15.0966 11.0423C15.0966 11.1081 15.0966 11.1081 15.1612 11.1081C15.1612 11.1081 15.1612 11.1081 15.2257 11.1081C15.2257 11.1738 15.2902 11.1738 15.2902 11.1738C15.2257 11.371 15.1612 11.5682 15.0967 11.7654C15.0967 11.6996 15.0322 11.6339 15.0322 11.5682C15.0322 11.5682 15.0322 11.5682 15.0967 11.5682C15.1612 11.1081 14.7741 10.1879 14.6451 10.1222C14.516 10.8452 14.7096 11.4367 14.9031 11.5682C14.9677 11.5682 14.9677 11.634 15.0322 11.634L15.0967 11.8311C15.0967 11.8968 15.0322 11.9626 15.0322 12.0283C15.0322 12.094 14.9677 12.2254 14.9677 12.2911C14.9031 12.094 14.7741 11.7654 14.4516 11.371C14.4516 11.4367 14.4516 11.5025 14.4516 11.5681C14.4516 11.8968 14.5806 12.1597 14.7096 12.2911C14.6451 12.6198 14.6451 12.8827 14.7096 13.1456C14.5161 12.8169 14.258 12.4883 14.129 12.4226C14.1935 13.277 14.5806 13.8028 14.8387 13.8686C14.9032 13.8686 14.9032 13.8686 14.9677 13.8686C14.9677 14.1315 15.0323 14.3944 15.0968 14.6573L14.9033 14.3944C14.7098 14.0658 14.0646 13.6057 13.9355 13.6057C14.0646 13.9343 14.2581 14.1315 14.4516 14.3287C14.6452 14.5259 14.8387 14.5259 14.9033 14.4602C14.9678 14.5917 15.0323 14.6573 15.0968 14.7231C15.0968 14.7888 15.0968 14.7888 15.0968 14.8546L14.9677 14.7888C14.9677 14.7231 14.9032 14.7231 14.9032 14.7231C14.8387 14.7231 14.8387 14.7888 14.8387 14.7888C14.8387 14.8546 14.9032 14.8546 14.9032 14.8546C14.9032 14.8546 14.9677 14.8546 14.9677 14.7888C15.0323 14.7888 15.0323 14.8546 15.0968 14.8546C15.2259 15.1832 15.3548 15.4461 15.4839 15.7747C15.4194 15.709 15.3548 15.6432 15.2904 15.5776C15.2904 15.5118 15.2259 15.4461 15.1613 15.3147H15.2259C15.2904 15.1832 15.0968 14.9861 14.7742 14.9203C14.5807 14.7888 14.3871 14.6574 14.3226 14.6574C14.3226 14.7232 14.3871 14.8546 14.4516 14.9203C14.3226 14.9203 14.1291 14.9203 13.9355 14.9861C14.0001 15.0518 14.3227 15.1832 14.6452 15.3147C14.8387 15.5776 15.0323 15.7091 15.2259 15.7091C15.2904 15.7091 15.2904 15.7091 15.2904 15.6433L15.4839 15.8405C15.5484 15.9062 15.5484 15.972 15.613 16.1034C15.613 15.9719 15.5484 15.9719 15.4839 15.9719C15.2259 15.7747 14.3871 15.6432 14.2581 15.709C14.7742 16.1034 15.2259 16.1691 15.4195 16.0376L15.484 15.9719L15.613 16.0376V16.1034C15.7421 16.3663 15.9356 16.6292 16.1291 16.8264C15.742 16.5635 15.2259 16.3663 15.0969 16.3663C15.5485 16.9578 16.0646 17.2207 16.2582 17.0893C16.2582 17.0893 16.3227 17.0893 16.3227 17.0235C16.4518 17.155 16.6453 17.3522 16.8388 17.4837C16.4517 17.2208 15.5485 17.155 15.4195 17.155C16.0001 17.6808 16.5808 17.7465 16.8388 17.6151C16.9034 17.6151 16.9034 17.5494 16.9034 17.4837C17.0324 17.5494 17.2259 17.6151 17.2905 17.7465C16.8388 17.5494 15.7421 17.6808 15.613 17.8123C16.3873 18.2067 16.9679 18.1409 17.2259 17.9438C17.2905 17.878 17.2905 17.8123 17.2905 17.7466C17.355 17.8124 17.4195 17.8124 17.4195 17.8124C17.4841 17.8124 17.5486 17.8781 17.5486 17.8781C17.3551 17.8781 17.0325 18.0096 16.7744 18.2725C16.8389 18.2725 17.2905 18.2725 17.613 18.141C17.1614 18.3382 16.6453 18.7325 16.5808 18.7983C17.484 18.7983 18.0647 18.4039 18.1291 18.141C18.1291 18.0753 18.1291 18.0753 18.1291 18.0095C18.1937 18.0095 18.3227 18.0753 18.3872 18.0753C18.5162 18.141 18.6452 18.2724 18.7098 18.2724L18.3872 18.3382C18.0001 18.3382 17.2259 18.8639 17.0969 18.9954C17.2904 18.9954 17.484 18.9954 17.613 18.9297C18.1291 18.7982 18.4516 18.5353 18.3872 18.3382C18.5162 18.3382 18.5807 18.2724 18.7098 18.2724C19.2259 18.3382 19.613 18.4696 20.0646 18.6668C20.1291 18.7325 20.1937 18.7325 20.2581 18.7983L20.3226 18.9953ZM15.1613 12.0282C15.1613 11.8967 15.2259 11.831 15.2259 11.6995L15.3549 11.6338H15.4195C15.4195 11.6338 15.484 11.6338 15.5485 11.6338C15.4195 11.7653 15.355 11.8309 15.2905 11.8967C15.2905 11.8967 15.2905 11.8967 15.355 11.9624L15.1613 12.0282C15.1613 12.0939 15.1613 12.0939 15.1613 12.0282ZM14.9677 13.6714C14.9677 13.7371 14.9677 13.7371 14.9677 13.8028C14.9677 13.7371 14.9032 13.6714 14.9032 13.6057C14.9032 13.6056 14.9677 13.6056 14.9677 13.6714ZM15.0968 12.554C15.1613 12.554 15.2259 12.554 15.2903 12.554C15.2258 12.6854 15.1612 12.8826 15.0968 13.0141C15.0968 12.9483 15.0968 12.9483 15.0968 12.8826C15.0968 12.7512 15.0968 12.6854 15.0968 12.554ZM15.0323 13.6056C15.0968 13.6056 15.0968 13.5399 15.1613 13.5399C15.1613 13.5399 15.1613 13.5399 15.2259 13.4741C15.1613 13.5399 15.1613 13.6713 15.0968 13.737C15.0968 13.737 15.0968 13.737 15.0323 13.737H14.9677C15.0323 13.7371 15.0323 13.6714 15.0323 13.6056ZM15.0323 13.8685C15.0968 13.8685 15.0968 13.9342 15.0323 13.8685C15.0323 13.9342 15.0323 13.9342 15.0323 14C15.0323 14 15.0323 13.9342 15.0323 13.8685ZM15.2258 14.723H15.2903C15.2903 14.8545 15.2903 14.9859 15.3548 15.1174C15.2903 14.9859 15.2258 14.8544 15.2258 14.723ZM15.742 15.9718C15.6774 15.8403 15.6129 15.6432 15.5484 15.5117C15.613 15.5117 15.6775 15.4459 15.6775 15.3145C15.6775 15.5117 15.742 15.7089 15.742 15.8403L15.742 15.9718C15.742 16.0375 15.742 16.0375 15.742 15.9718ZM17.8065 18.2066C17.871 18.2066 17.9355 18.1408 17.9355 18.1408C18.0001 18.1408 18.0001 18.1408 18.0646 18.1408C18 18.1408 17.9355 18.2066 17.8065 18.2066ZM18.7742 18.4037C18.7097 18.338 18.6452 18.2723 18.5807 18.2066C18.5807 18.1408 18.5807 18.0751 18.5807 18.0094C18.6452 18.0752 18.7098 18.2066 18.7742 18.2723C18.7742 18.2723 18.8387 18.2723 18.8387 18.2066L18.9678 18.4037C18.9677 18.4695 18.8387 18.4037 18.7742 18.4037Z" fill="#67923D"/>
<path d="M16.9032 17.4178C16.9677 17.4178 16.9677 17.3521 17.0322 17.3521C17.1613 17.155 17.0322 16.4977 16.5161 15.9061C16.4516 16.0376 16.6451 17.0892 16.9032 17.4178Z" fill="#67923D"/>
<path d="M15.6129 10.3193C15.8709 10.0564 15.9355 9.33338 15.8709 9.2019C15.4839 9.72776 15.4194 10.1878 15.6129 10.3193Z" fill="#67923D"/>
<path d="M15.8709 15.9718C15.8064 15.9718 15.8064 16.0376 15.8064 16.0376C15.8064 16.1033 15.8709 16.1033 15.8709 16.1033C15.8709 16.1033 15.9354 16.1033 15.9354 16.0376C15.9354 15.9718 15.8709 15.9718 15.8709 15.9718Z" fill="#67923D"/>
<path d="M15.6129 16.1691C15.6129 16.1033 15.5483 16.1033 15.5483 16.1033C15.4838 16.1033 15.4838 16.1691 15.4838 16.1691C15.4838 16.1691 15.4838 16.2348 15.5483 16.2348C15.5483 16.2347 15.6129 16.1691 15.6129 16.1691Z" fill="#67923D"/>
<path d="M18.129 17.9436C18.129 17.8779 18.0645 17.8779 18.0645 17.8779L18 17.9436C18 18.0094 18.0645 18.0094 18.0645 18.0094C18.0645 18.0094 18.129 18.0094 18.129 17.9436Z" fill="#67923D"/>
<path d="M18.3226 18.4038C18.3226 18.338 18.258 18.338 18.258 18.338C18.258 18.338 18.1935 18.338 18.1935 18.4038C18.1935 18.4695 18.258 18.4695 18.258 18.4695L18.3226 18.4038Z" fill="#67923D"/>
<path d="M24.1935 14.4601C24.129 14.4601 24.129 14.4601 24.1935 14.4601C23.9355 15.1174 23.9355 15.6433 24.0644 15.9062C24.129 16.0376 24.1935 16.0376 24.258 16.0376C24.3871 15.5774 24.258 14.5915 24.1935 14.4601Z" fill="#67923D"/>
<path d="M25.0322 12.0282C25.0322 12.0939 25.0322 12.0939 25.0968 12.0939C25.1613 12.0939 25.1613 12.0939 25.1613 12.0282C25.1613 12.0282 25.1613 11.9624 25.0968 11.9624C25.2903 11.831 25.5484 11.3052 25.4839 10.5822C25.3548 10.6479 24.9032 11.5681 24.9032 12.0282C24.9677 12.0282 25.0322 12.0282 25.0322 12.0282Z" fill="#67923D"/>
<path d="M24.7097 11.6338C24.5806 11.3052 24 10.7137 23.871 10.6479C24 11.3052 24.3871 11.6996 24.6452 11.6338H24.7097Z" fill="#67923D"/>
<path d="M26 14.9202C25.8065 14.8544 25.6774 14.8544 25.4839 14.8544V14.7887C25.4839 14.7887 25.4194 14.7887 25.3548 14.8544C24.9677 14.9202 24.7742 15.0516 24.7742 15.1831C24.7097 15.2488 24.6452 15.3146 24.5807 15.3802C24.6452 15.1831 24.7098 15.0516 24.7742 14.8544C24.8388 14.7887 24.9033 14.723 24.9677 14.6573C25.0323 14.723 25.2258 14.6573 25.4838 14.5258C25.6773 14.3943 25.8709 14.1314 25.9999 13.8028C25.8709 13.8028 25.1613 14.3286 24.9677 14.6572L24.7741 14.8544C24.8387 14.5915 24.9032 14.3286 24.9677 14.0656C25.0322 13.9999 25.0322 13.9341 25.0967 13.8685H25.1613C25.3548 13.8027 25.6773 13.4083 25.7419 12.7511C25.6773 12.8168 25.4838 13.014 25.3548 13.2769C25.4193 13.0797 25.4193 12.7511 25.4193 12.4881C25.4193 12.4224 25.4193 12.3566 25.4193 12.2909C25.5484 12.1595 25.6773 11.9623 25.7419 11.6337C25.7419 11.5679 25.7419 11.5679 25.8064 11.5022C25.3548 11.8308 25.0967 12.2252 25.0322 12.3566C25.0322 12.2909 25.0322 12.2251 24.9677 12.0937C24.9031 11.8308 24.8386 11.6336 24.7741 11.3707C24.7741 11.2392 24.8387 11.1736 24.8387 11.0421C25.0322 10.9763 25.0967 10.4505 24.8387 9.79327C24.8387 9.85901 24.7741 9.92476 24.7741 10.1219C24.7741 9.92476 24.7096 9.59612 24.5806 9.33315C24.5161 9.39889 24.4516 10.1876 24.5806 10.5163L24.5161 10.7792C24.5161 10.7134 24.4516 10.6477 24.4516 10.582C24.4516 10.5163 24.387 10.3849 24.387 10.3191L24.4516 10.582C24.387 10.5163 24.387 10.4505 24.3225 10.3849C24.3225 10.3849 24.3225 10.3849 24.387 10.3191C24.5161 10.122 24.3225 9.53038 23.7419 9.07034C23.7419 9.13608 23.8709 9.59612 24.0645 9.92476C24.0645 9.92476 24.0645 9.92475 24.0645 9.9905C24.129 10.122 24.1935 10.2534 24.258 10.3191C24.387 10.5163 24.516 10.7793 24.5806 11.0421L24.3225 10.845C24.387 10.9107 24.516 11.0421 24.5806 11.0421C24.6451 11.2393 24.7096 11.5023 24.8386 11.7652L24.7741 11.6994L24.8386 11.7652C24.9031 11.8966 24.9031 12.0281 24.9677 12.1595C24.9677 12.2253 24.9677 12.291 25.0322 12.3567C24.9677 12.2909 24.9677 12.2252 24.9031 12.2252C24.7096 11.8966 23.9354 11.3708 23.8063 11.3708C23.9998 11.7652 24.1934 12.0281 24.387 12.1595C24.5805 12.291 24.7741 12.3567 24.903 12.291L25.0321 12.4225C25.0321 12.4883 25.0321 12.554 25.0321 12.6197C24.9676 12.5539 24.8386 12.4882 24.7095 12.4225L24.645 12.3568C24.645 12.3568 24.645 12.3568 24.645 12.4225C24.387 12.291 24.1934 12.2254 24.1289 12.2254C24.3224 12.4225 24.4515 12.6197 24.645 12.6855C24.645 13.2113 24.7741 13.6056 24.9676 13.7371C25.0321 13.8029 25.0321 13.8029 25.0966 13.8029C25.0966 14 25.0966 14.263 25.0321 14.4601L24.903 14.263C24.903 14.1973 24.903 14.1315 24.903 14.0658L24.9676 14.1316C25.0321 14.1316 25.0321 14.0658 25.0321 14.0658C25.0321 14.0001 24.9676 14.0001 24.9676 14.0001C24.903 14.0001 24.903 14.0001 24.903 14.0658C24.774 13.6057 24.4514 13.0142 24.3224 12.9485C24.3224 13.0799 24.3224 13.2113 24.3224 13.2771C24.387 14.0001 24.7095 14.3945 24.903 14.3287C24.9676 14.3945 24.9676 14.4602 25.0321 14.5259C25.0321 14.6574 24.9676 14.8545 24.903 14.986C24.903 14.9203 24.8385 14.8545 24.8385 14.7231C24.8385 14.5917 24.8385 14.4602 24.8385 14.3945C24.8385 14.4602 24.774 14.4602 24.774 14.526C24.6449 14.3288 24.5159 14.0658 24.5159 14.0658C24.5159 14.3945 24.5805 14.6574 24.645 14.8546C24.4515 15.3147 24.5159 15.709 24.645 15.7748C24.5805 15.9063 24.5159 16.1034 24.4515 16.2349C24.3224 16.4978 24.1289 16.7607 23.9354 16.9579V16.6293C23.9354 16.6293 23.9354 16.6293 23.9999 16.6293C24.129 16.3006 24.0645 15.5119 23.9999 15.3805C23.8709 15.7091 23.8064 15.972 23.8064 16.2349C23.4193 16.695 23.4193 17.2208 23.4838 17.3523C23.4838 17.3523 23.4838 17.3523 23.5484 17.418C23.4193 17.5495 23.3548 17.6152 23.2258 17.7467C23.2258 17.7467 23.2258 17.7467 23.1613 17.8124C23.4193 17.418 23.4838 16.3664 23.4193 16.235C23.2258 16.4979 23.0967 16.7608 23.0322 16.958C23.0322 16.8265 23.0322 16.6951 22.9677 16.5636C22.8386 16.6951 22.4516 17.6153 22.516 18.0754C22.5806 18.0754 22.5806 18.0754 22.6451 18.0754H22.5806C22.3225 18.2069 21.9999 18.2725 21.6773 18.404C21.5483 18.4698 21.4838 18.5355 21.3548 18.6012L21.4838 18.404C21.5484 18.404 21.6129 18.404 21.7419 18.3383C21.9999 18.2068 22.3225 17.7467 22.5161 17.0895C22.4516 17.0895 22.2581 17.221 22.0645 17.4181C22.129 17.2866 22.129 17.1552 22.1935 17.0237C22.0645 17.0895 21.2903 17.8781 21.1613 18.3383C21.1613 18.3383 21.2258 18.3383 21.2258 18.404C21.0967 18.4698 21.0967 18.6012 21.0323 18.6669C20.6452 18.7326 20.2581 18.8641 19.8709 19.0613C19.8064 19.127 19.7419 19.127 19.6774 19.1928L19.742 19.2585C19.8065 19.1928 19.871 19.127 19.9355 19.127C20.2581 18.9955 20.5806 18.8641 20.9032 18.7984C20.9677 18.8641 21.0967 18.8641 21.1613 18.9299C21.0967 19.127 21.4193 19.39 21.9355 19.5214C22.0645 19.5871 22.2581 19.5871 22.4516 19.5871C22.387 19.4557 21.6128 18.9299 21.1613 18.9299C21.1613 18.9299 21.1613 18.9299 21.1613 18.9956L20.9032 18.8641C21.0323 18.8641 21.1613 18.7984 21.3549 18.7984C21.4194 18.7984 21.4194 18.7984 21.4839 18.7326L21.8065 18.7984C22.0645 19.127 22.9678 19.4557 23.0968 19.4557C22.9677 19.2585 22.8388 19.127 22.7097 18.9955C23.0323 19.0613 23.2903 19.127 23.4194 19.127C22.9033 18.6012 22.3226 18.4698 22.1291 18.6012L22.0645 18.667C21.871 18.667 21.742 18.667 21.5484 18.667C21.613 18.6012 21.6775 18.6012 21.6775 18.6012C21.871 18.4698 22.1291 18.4698 22.3872 18.3383L22.5163 18.4041C22.5163 18.4698 22.5808 18.5356 22.6453 18.6012C22.9034 18.7984 23.4841 18.7984 24.1937 18.4698C24.0646 18.404 22.9679 18.2069 22.5163 18.404C22.4517 18.404 22.4517 18.404 22.3872 18.3383C22.4517 18.3383 22.5163 18.2725 22.5807 18.2725C22.5807 18.2725 22.6452 18.2068 22.7098 18.2068C22.7743 18.141 22.8388 18.141 22.8388 18.0753C22.9034 18.0753 22.9679 18.0753 23.0323 18.0753L23.0969 18.141C23.3549 18.2725 24.0001 18.2068 24.7098 17.6153C24.5807 17.5495 23.4195 17.681 23.0323 18.0096V18.0754H22.8388C22.9034 18.0096 23.0323 18.0096 23.0969 17.8782C23.2904 17.6811 23.4195 17.5496 23.613 17.3524L23.6775 17.4182C23.871 17.5497 24.3872 17.2867 24.8388 16.6952C24.7098 16.6952 24.1937 16.8923 23.8066 17.1553C24.0001 16.9581 24.1291 16.7609 24.2582 16.498H24.3873C24.3873 16.5638 24.3873 16.5638 24.4518 16.5638C24.6453 16.6953 25.226 16.6295 25.8066 16.1694C25.6776 16.1036 24.7098 16.2351 24.3873 16.498C24.3227 16.498 24.3227 16.498 24.2582 16.498C24.2582 16.498 24.2582 16.4323 24.3227 16.4323C24.3873 16.3008 24.3873 16.2351 24.4518 16.1036L24.5163 16.0379C24.5163 16.1036 24.5809 16.1036 24.6454 16.1036C24.8389 16.1036 25.097 15.9065 25.3551 15.5121C25.6774 15.0517 25.9355 14.9202 26 14.9202ZM25.0968 13.8685C25.1613 13.8685 25.1613 13.9343 25.0968 13.8685L25.0323 14.0657C25.0323 13.9342 25.0323 13.8028 25.0323 13.6713C25.0968 13.6713 25.1613 13.6713 25.2258 13.6056C25.1613 13.7371 25.1613 13.8029 25.0968 13.8685ZM25.0323 12.4226C25.0968 12.4883 25.1613 12.4226 25.2903 12.3568C25.2258 12.554 25.0968 12.817 25.0323 13.0799C25.0323 12.8826 25.0323 12.6197 25.0323 12.4226ZM24.5161 10.7793C24.5806 10.7136 24.5806 10.5822 24.5806 10.5164C24.5806 10.5164 24.5806 10.5164 24.6452 10.5164C24.7097 10.5164 24.7097 10.4507 24.7742 10.3193C24.7742 10.5822 24.7097 10.9108 24.7742 11.108C24.7742 11.108 24.7742 11.108 24.8388 11.108L24.7742 11.3709C24.7097 11.1737 24.6452 10.9766 24.5161 10.7793ZM24.9677 13.0799C24.9032 12.9484 24.8387 12.7512 24.7742 12.6197C24.8388 12.6197 24.9033 12.6197 24.9677 12.554C24.9677 12.6855 24.9677 12.8826 24.9677 13.0799ZM24.7097 14.9202C24.7742 14.9202 24.7742 14.9202 24.7097 14.9202C24.7742 14.9202 24.7742 14.9202 24.7097 14.9202C24.7742 14.9202 24.7742 14.9202 24.7097 14.9202C24.7097 14.9859 24.7097 15.0517 24.6452 15.1831C24.7097 15.0517 24.7097 14.9859 24.7097 14.9202ZM21.2258 18.4038C21.1613 18.4038 21.0967 18.4038 21.0323 18.4695L21.2258 18.2066C21.2903 18.2066 21.3549 18.2066 21.3549 18.2066C21.3549 18.2066 21.4194 18.2066 21.4194 18.2724C21.4194 18.2066 21.3548 18.338 21.2258 18.4038C21.2903 18.4038 21.2903 18.4038 21.2258 18.4038ZM22 18.4038C21.9355 18.4038 21.8709 18.4038 21.8709 18.4695C21.8709 18.4695 21.8064 18.4695 21.8064 18.5353C21.6773 18.4695 21.5484 18.4695 21.4193 18.4695H21.4838L22 18.4038ZM22.6452 17.7465C22.7097 17.615 22.7742 17.4836 22.8387 17.3521C22.8387 17.4179 22.8387 17.4179 22.9032 17.4836C22.9032 17.5494 22.9677 17.5494 23.0323 17.5494C22.8387 17.615 22.7097 17.6808 22.6452 17.7465ZM23.4839 17.0892C23.613 16.8263 23.613 16.3662 23.613 16.1691C23.613 16.3006 23.6775 16.3662 23.742 16.432C23.742 16.432 23.8066 16.432 23.8066 16.4977C23.8066 16.6292 23.8066 16.6949 23.8066 16.8263C23.6774 16.892 23.6129 16.9577 23.4839 17.0892ZM24.5806 15.7089C24.5806 15.7089 24.5161 15.7089 24.5806 15.7089C24.5806 15.6432 24.6452 15.5775 24.6452 15.4461L24.8387 15.2489C24.8387 15.2489 24.9032 15.2489 24.9677 15.2489C24.7742 15.3803 24.6452 15.5118 24.5806 15.7089Z" fill="#67923D"/>
<path d="M24.8387 11.3709C24.8387 11.3709 24.8387 11.4367 24.8387 11.3709C24.9032 11.4367 24.9677 11.4367 24.9677 11.3709C24.9677 11.3052 24.9032 11.3052 24.8387 11.3709C24.8387 11.3052 24.8387 11.3052 24.8387 11.3709Z" fill="#67923D"/>
<path d="M25.1613 14.3287C25.197 14.3287 25.2258 14.2992 25.2258 14.2629C25.2258 14.2266 25.197 14.1972 25.1613 14.1972C25.1257 14.1972 25.0968 14.2266 25.0968 14.2629C25.0968 14.2992 25.1257 14.3287 25.1613 14.3287Z" fill="#67923D"/>
<path d="M24 16.2348C24.0356 16.2348 24.0645 16.2054 24.0645 16.1691C24.0645 16.1328 24.0356 16.1033 24 16.1033C23.9643 16.1033 23.9354 16.1328 23.9354 16.1691C23.9354 16.2054 23.9643 16.2348 24 16.2348Z" fill="#67923D"/>
<path d="M24.3871 16.4319C24.4227 16.4319 24.4516 16.4025 24.4516 16.3662C24.4516 16.3299 24.4227 16.3005 24.3871 16.3005C24.3515 16.3005 24.3226 16.3299 24.3226 16.3662C24.3226 16.4025 24.3515 16.4319 24.3871 16.4319Z" fill="#67923D"/>
<path d="M21.9355 18.338C21.9711 18.338 22 18.3086 22 18.2723C22 18.236 21.9711 18.2065 21.9355 18.2065C21.8998 18.2065 21.8709 18.236 21.8709 18.2723C21.8709 18.3086 21.8998 18.338 21.9355 18.338Z" fill="#67923D"/>
<path d="M21.5483 18.601C21.584 18.601 21.6129 18.5715 21.6129 18.5352C21.6129 18.4989 21.584 18.4695 21.5483 18.4695C21.5127 18.4695 21.4838 18.4989 21.4838 18.5352C21.4838 18.5715 21.5127 18.601 21.5483 18.601Z" fill="#67923D"/>
<path d="M24.5161 11.0423C24.5161 10.9765 24.4516 10.9765 24.5161 11.0423C24.387 10.9765 24.387 10.9765 24.387 11.0423C24.3871 11.0423 24.3871 11.108 24.5161 11.0423C24.4516 11.108 24.5161 11.0423 24.5161 11.0423Z" fill="#67923D"/>
<path d="M22.5806 10.8451L22.3871 10.7136L22.4516 10.6478C22.4516 10.6478 22.4516 10.6478 22.3871 10.5821C22.3871 10.5821 22.3871 10.5821 22.3226 10.5821L22.258 10.6478C22.1935 10.6478 22.1935 10.7136 22.1935 10.7136C21.8709 11.0422 21.6129 11.3051 21.2903 11.6337V11.568C20.5161 12.291 19.8064 13.014 19.0322 13.8027L17.7419 15.0515C17.6774 15.1172 17.4839 15.2486 17.3548 15.3144C17.2903 15.3144 17.2903 15.3801 17.2258 15.3801L17.1612 15.5116C17.0967 15.5116 17.0322 15.5116 16.9677 15.5116C17.0322 15.5774 17.0322 15.5774 17.0968 15.5774L17.0322 15.7088C17.0322 15.7746 16.9032 15.906 16.9032 15.9717C16.7741 16.1032 16.7097 16.2346 16.5161 16.3661C16.5161 16.4319 16.4515 16.3661 16.387 16.4319C16.258 16.4976 16.1935 16.629 16.0644 16.6948L15.3547 17.4835C15.2902 17.5493 15.2902 17.5493 15.3547 17.615L15.7419 18.1408C15.8064 18.2065 15.8709 18.2723 15.9354 18.2065C16.1289 17.8779 16.5805 17.4178 16.7096 17.0234C16.8387 16.8262 16.9676 16.3661 17.0322 16.3004L17.0967 16.3661C17.0967 16.3661 17.0967 16.3661 17.1612 16.3661H17.2258C17.2903 16.3661 17.2903 16.3661 17.2903 16.3661L17.3548 16.3004L17.4194 16.2346C17.4194 16.2346 17.4194 16.1689 17.4194 16.1031V16.0376C17.4194 16.0376 17.4194 16.0376 17.4194 15.9718L17.3548 15.9061C17.4839 15.7746 17.6129 15.6432 17.7419 15.5117C17.7419 15.5117 17.7419 15.5117 17.8065 15.446C17.8065 15.446 17.8065 15.446 17.871 15.3802L17.9355 15.3145C19.0323 14.1313 20.3226 12.8168 21.3549 11.6995L21.4194 11.6337L21.3549 11.568C21.5484 11.3708 21.742 11.1079 21.9355 10.9107C21.871 10.845 21.9355 10.9107 21.871 10.845C21.9355 10.7792 22.0645 10.6478 22.129 10.5821C22.129 10.5821 22.129 10.5821 22.1936 10.5821L22.3226 10.7792C22.3872 10.845 22.3872 10.845 22.4517 10.7792L24.2582 9.07032L22.5806 10.8451ZM17.4839 16.0376H17.5484L17.6129 16.1033V16.1691C17.6129 16.1691 17.6129 16.2348 17.5484 16.2348L17.4839 16.3005H17.4194C17.4194 16.3005 17.4194 16.3005 17.3548 16.3005C17.3548 16.3005 17.3548 16.3005 17.3548 16.2348C17.3548 16.2348 17.3548 16.2348 17.3548 16.1691L17.4194 16.1033C17.4194 16.1691 17.4839 16.2348 17.5484 16.2348C17.5484 16.2348 17.6129 16.1691 17.5484 16.2348H17.4839C17.4194 16.1691 17.3548 16.1033 17.4839 16.0376C17.4194 16.1033 17.4194 16.0376 17.4839 16.0376Z" fill="#8C959D"/>
<path d="M24.1935 17.7465L23.5484 16.892C23.4838 16.8262 23.3548 16.6948 23.2903 16.6291C23.2258 16.6291 23.2258 16.6291 23.1613 16.5633C23.0322 16.4319 22.9032 16.3005 22.8387 16.169C22.8387 16.169 22.7096 15.9718 22.7096 15.9061L22.6451 15.7746C22.7096 15.7746 22.7741 15.7088 22.7741 15.7088C22.7096 15.7088 22.6451 15.7746 22.5806 15.7088L22.5161 15.5774C22.5161 15.5774 22.4516 15.5116 22.387 15.5116C22.258 15.4459 22.0645 15.3145 21.9999 15.2487L20.7741 13.9342C19.9999 13.1454 19.3548 12.3567 18.6451 11.568L18.5806 11.5022C18.3225 11.1736 17.9999 10.9107 17.7419 10.5821C17.7419 10.5163 17.7419 10.5163 17.6774 10.5163L17.6128 10.4506C17.6128 10.4506 17.6128 10.4506 17.5483 10.4506C17.5483 10.4506 17.5483 10.4506 17.4838 10.5163L17.5483 10.5821V10.7136H17.4838L15.7418 9.07039L17.4838 10.8451C17.4838 10.8451 17.5483 10.8451 17.6128 10.8451L17.8063 10.6479C17.8063 10.6479 17.8063 10.6479 17.8709 10.6479C17.9354 10.7136 17.9999 10.8451 18.1289 10.9108C18.0644 10.9765 18.1289 10.9108 18.0644 10.9765C18.2579 11.1737 18.4515 11.4367 18.645 11.6338L18.7095 11.6996C19.6773 12.8827 20.9031 14.2629 21.9353 15.5118L21.9998 15.5775C21.9998 15.5775 21.9998 15.6433 22.0644 15.6433C22.0644 15.6433 22.0644 15.6433 22.1289 15.709C22.1934 15.7747 22.3224 15.9062 22.387 15.9719C22.4515 16.0376 22.4515 16.0376 22.516 16.1034C22.516 16.1034 22.4515 16.1034 22.4515 16.1691C22.4515 16.1691 22.4515 16.1691 22.387 16.2349C22.387 16.2349 22.387 16.2349 22.387 16.3006C22.387 16.3664 22.387 16.3664 22.387 16.4321C22.387 16.4321 22.387 16.4978 22.4515 16.4978L22.516 16.5636C22.516 16.5636 22.5806 16.5636 22.5806 16.6293H22.6451C22.6451 16.6293 22.6451 16.6293 22.7096 16.6293L22.7741 16.5636C22.8387 16.6951 22.9677 17.0894 23.0322 17.3523C23.1613 17.7467 23.6128 18.2725 23.8064 18.6011C23.8064 18.6669 23.9355 18.6011 23.9999 18.5354L24.387 18.0096C24.258 17.8122 24.2581 17.7465 24.1935 17.7465ZM22.2581 16.2347V16.169C22.2581 16.169 22.2581 16.1032 22.3226 16.1032H22.3871L22.4516 16.169C22.4516 16.169 22.4516 16.2347 22.3871 16.2347H22.3226C22.3871 16.2347 22.4516 16.169 22.4516 16.1032C22.4516 16.1032 22.4516 16.169 22.5162 16.169C22.5162 16.169 22.5162 16.169 22.5162 16.2347C22.5162 16.2347 22.5162 16.2347 22.5162 16.3005C22.5162 16.3005 22.5162 16.3005 22.4516 16.3005H22.3871L22.3226 16.2347C22.3226 16.2347 22.2581 16.3005 22.2581 16.2347Z" fill="#8C959D"/>
<path d="M22.6452 17.6807C22.6452 17.6807 22.6452 17.615 22.6452 17.6807C22.6452 17.615 22.6452 17.615 22.6452 17.6807C22.6452 17.615 22.6452 17.5492 22.5806 17.5492C22.5806 17.5492 22.5806 17.4835 22.5161 17.4835C22.5161 17.4835 22.5161 17.4178 22.4516 17.4178C22.4516 17.4178 22.4516 17.352 22.387 17.352C22.387 17.352 22.387 17.352 22.3225 17.352C22.258 17.2863 22.129 17.2205 22.0645 17.2205C21.9354 17.2205 21.8709 17.2863 21.7419 17.352C20.5161 15.9717 19.3548 14.7887 17.9999 13.8684C17.8064 13.7369 17.3548 13.5398 17.1613 13.5398C17.3548 13.6713 17.6129 13.8027 17.8064 13.9342C17.9999 14.0657 18.1935 14.1971 18.387 14.3943C18.7741 14.7229 19.1613 15.0516 19.5484 15.3802C19.9355 15.7088 20.258 16.1032 20.5806 16.4318C20.9032 16.7605 21.2258 17.1549 21.4838 17.4835C21.4838 17.4835 21.4838 17.4835 21.4193 17.4835C21.3548 17.4835 21.3548 17.4835 21.3548 17.5492C21.3548 17.615 21.3548 17.6807 21.4193 17.7464C21.4838 17.8121 21.4838 17.8121 21.5484 17.8121C21.6129 17.8121 21.6129 17.7464 21.6774 17.7464C21.6774 17.8121 21.742 17.8121 21.742 17.8779L21.8065 17.9436C21.871 18.0094 21.9355 18.0751 22 18.1408L22.0645 18.2065C22.1291 18.2723 22.1936 18.338 22.258 18.4037C22.3871 18.4037 22.4516 18.3379 22.3871 18.2722L22.3226 18.2064C22.6452 18.0094 22.7097 17.878 22.6452 17.6807ZM21.6129 17.5493C21.6129 17.5493 21.6774 17.5493 21.6129 17.5493C21.6774 17.5493 21.6774 17.5493 21.6129 17.5493ZM22.4516 18.0751C22.4516 18.0094 22.3871 17.9436 22.3871 18.0094C22.3871 17.9436 22.3226 17.8779 22.3226 17.8779C22.3226 17.8121 22.3226 17.7464 22.258 17.8121C22.258 17.7464 22.258 17.6806 22.1935 17.6806C22.1935 17.6149 22.1935 17.5492 22.129 17.6149C22.129 17.5492 22.129 17.5492 22.129 17.5492C22.1935 17.4834 22.258 17.4177 22.3225 17.4177C22.387 17.3519 22.4516 17.4177 22.516 17.4177C22.516 17.4177 22.516 17.4834 22.5805 17.4834C22.5805 17.4834 22.5805 17.5492 22.6451 17.5492C22.6451 17.5492 22.6451 17.6149 22.7096 17.6149V17.6806C22.7096 17.6806 22.7096 17.7464 22.7741 17.7464C22.6452 17.878 22.5806 18.0094 22.4516 18.0751Z" fill="#FAB81C"/>
<path d="M15.9355 10.4507C16.3226 10.3192 17.0323 9.5305 17.0323 9.39902C16.129 9.66199 15.7419 10.2535 15.9355 10.4507Z" fill="#406325"/>
<path d="M15.9355 10.4507C15.7419 10.2535 16.129 9.66191 17.0323 9.39902C16.3871 9.92488 15.9355 10.385 15.9355 10.4507Z" fill="#67923D"/>
<path d="M24.3226 10.7793C24.1935 10.3849 23.5483 9.66192 23.4194 9.59618C23.6129 10.4507 24.129 10.9108 24.3226 10.7793Z" fill="#406325"/>
<path d="M24.3226 10.7793C24.129 10.9765 23.6129 10.5164 23.4194 9.59618C23.8709 10.2535 24.258 10.7136 24.3226 10.7793Z" fill="#67923D"/>
<path d="M22.9032 13.6714C22.6451 13.6714 22.1935 13.8685 22.0645 14C20.6451 14.7888 19.4194 15.9061 18.129 17.2207C18.0645 17.1549 17.9355 17.0892 17.8065 17.0892C17.7419 17.0892 17.613 17.0892 17.5484 17.2207C17.5484 17.2207 17.5484 17.2207 17.4839 17.2207C17.4839 17.2207 17.4194 17.2207 17.4194 17.2864L17.3548 17.3522L17.2903 17.4179L17.2258 17.4837V17.5494C17.1612 17.7466 17.2258 17.878 17.2903 18.0095H17.2258C17.1612 18.0753 17.2258 18.2067 17.3548 18.2067C17.4194 18.1409 17.4839 18.0752 17.5483 18.0752C17.6129 18.0752 17.6129 18.0094 17.6774 18.0094C17.7419 17.9437 17.8065 17.878 17.8709 17.878L17.9355 17.8122L18 17.7465C18 17.7465 18.0645 17.8122 18.129 17.8122C18.1936 17.8122 18.1936 17.8122 18.2581 17.7465C18.3226 17.6807 18.3872 17.615 18.3226 17.5493C18.3226 17.4836 18.2581 17.4836 18.2581 17.4836C18.5807 17.1549 18.9033 16.7606 19.2258 16.4319C19.613 16.1033 19.9355 15.7747 20.3226 15.446C20.7097 15.1174 21.0969 14.7888 21.5484 14.5259C21.7419 14.3944 21.9355 14.263 22.1936 14.1315C22.4516 13.8685 22.6451 13.7371 22.9032 13.6714ZM17.7419 17.615C17.6774 17.615 17.6129 17.6807 17.6774 17.6807C17.6129 17.6807 17.5483 17.7465 17.6129 17.7465C17.5483 17.7465 17.4838 17.8122 17.5483 17.8122C17.4193 17.7465 17.3548 17.5493 17.4193 17.4178L17.4838 17.3521V17.2864L17.5483 17.2206C17.5483 17.2206 17.6129 17.2206 17.6129 17.1549L17.6774 17.0891C17.7419 17.0891 17.8065 17.0234 17.8709 17.0891C17.9355 17.1549 18 17.2206 18.0644 17.2863L17.9999 17.352C17.9354 17.352 17.9354 17.4178 17.9354 17.4178C17.7419 17.4836 17.6774 17.5493 17.7419 17.615Z" fill="#FAB81C"/>
<path d="M22.0645 14.0657C22.0645 13.9342 22.0645 13.7371 22 13.6056C22 13.4741 21.9355 13.3427 21.8709 13.2112C21.8709 13.2112 21.8709 13.2112 21.8709 13.1455C21.8064 12.9483 21.6774 12.6854 21.6129 12.4882C21.5483 12.2911 21.4194 12.0938 21.2903 11.8967C21.1612 11.6995 21.0323 11.5023 20.9032 11.3052C21.2903 11.2394 21.2903 10.7136 21.0323 10.5164C20.258 10.5164 19.2903 10.5164 18.5162 10.5164C18.4516 10.5164 18.3871 10.5164 18.3226 10.5164H18.1291H18.0646H18C17.9355 10.5164 17.8709 10.5821 17.8709 10.5821C17.8064 10.6479 17.8064 10.6479 17.7419 10.7136C17.7419 10.7794 17.6773 10.8451 17.6773 10.8451C17.6773 10.9766 17.6773 11.0423 17.6773 11.1738C17.6773 11.3052 17.7419 11.3709 17.8064 11.5024L17.9355 11.7653C18.0645 11.9624 18.129 12.1597 18.1935 12.3568C18.387 12.6854 18.5161 13.1456 18.6451 13.5399V13.6057C18.6451 13.7372 18.7097 13.8028 18.7097 13.9343C18.5806 13.9343 18.258 13.9343 18.1291 14.0001C18.1291 14.0001 17.8065 14.0658 17.8065 14.4602C17.8065 14.5259 17.8065 14.5917 17.8065 14.5917C17.871 15.0518 18.2581 15.0518 18.2581 15.0518L19.0968 14.9861L19.9355 14.9203C20.1935 14.9203 20.5161 14.8546 20.7741 14.8546C20.9032 14.8546 21.0322 14.8546 21.1612 14.8546C21.2258 14.8546 21.2903 14.8546 21.3548 14.8546C21.4193 14.8546 21.4838 14.8546 21.5483 14.8546C21.6128 14.7888 21.6773 14.7888 21.7418 14.7231C21.8063 14.6573 21.8063 14.5916 21.8708 14.5259C21.8708 14.4602 21.9354 14.3944 21.9354 14.263C22.0645 14.1971 22.0645 14.1315 22.0645 14.0657ZM18.258 12.3568C18.258 12.4226 18.258 12.4226 18.258 12.4226V12.3568Z" fill="#F2DC70"/>
<path d="M20.4517 19.2582C20.7742 18.601 21.0968 18.0094 21.4839 17.3522C21.4194 17.2864 21.4194 17.2207 21.3549 17.2207C20.9678 17.9436 20.4517 18.7981 20.4517 19.2582Z" fill="#34541F"/>
<path d="M22.9032 12.554C22.8387 12.2911 22.7741 12.0282 22.6452 11.7652C22.5161 11.4366 22.2581 11.1079 21.9355 10.7793C21.4194 10.1878 20.8387 9.59617 20.0645 9.20187H20.1291H20.1936H20.1291H20.1936H20.1291H20.1936H20.1291V9.13613H20.0645V9.07038H20H19.9355V9.00464H19.8709V8.9389H19.8064V8.87316H19.7419V8.80741V8.74167V8.80741V8.74167V8.67593V8.74167V8.67593V8.74167V8.67593V8.74167V8.67593V8.74167V8.67593V8.74167V8.67593V8.74167V8.67593V8.74167V8.67593V8.74167V8.67593V8.74167V8.80741V8.87316V8.9389V9.00464C19.7419 9.07038 19.7419 9.07038 19.7419 9.13613C19.6774 9.13613 19.6774 9.20187 19.6128 9.20187C19.6774 9.20187 19.6774 9.20187 19.7419 9.20187C19.7419 9.20187 19.7419 9.20187 19.8064 9.20187V9.26761C19.7419 9.3991 19.6129 9.53051 19.6129 9.72773C19.6129 9.72773 19.6129 9.66199 19.6774 9.66199C19.6129 9.92488 19.8065 10.1878 20.1291 10.385C20.2581 10.4507 20.3871 10.5165 20.5162 10.5165C20.5162 10.5165 20.5807 10.5165 20.6452 10.5165H20.7098C20.7098 10.5822 20.7098 10.5822 20.6452 10.648C20.7098 10.648 20.7743 10.5822 20.8388 10.5165C20.8388 10.5822 20.7742 10.648 20.7742 10.7794C20.7742 10.7136 20.8388 10.6479 20.9033 10.6479C20.9033 10.7136 20.9033 10.7794 20.8388 10.845C20.9678 10.845 21.0323 10.7793 21.0968 10.7136C21.0968 10.7793 21.0968 10.845 21.1613 10.9765C21.1613 10.845 21.1613 10.845 21.2259 10.7793C21.2259 10.9108 21.2904 11.0422 21.4194 11.1079C21.2903 10.7793 21.2259 10.7136 21.2903 10.6478C21.2903 10.7136 21.4194 10.845 21.4194 10.9107C21.4194 10.845 21.4194 10.7136 21.4839 10.6478C21.5484 10.7793 21.5484 10.845 21.5484 10.9765C21.5484 10.9107 21.613 10.845 21.613 10.7793C22.7743 11.9624 23.0324 13.5399 21.742 15.1831C22.1937 14.8544 22.3227 14.3943 22.5807 13.9999C22.3227 14.5257 22.2581 15.1831 21.8065 15.6431C22.1936 15.2487 22.3226 14.9201 22.5807 14.5914C22.3227 15.3145 21.9356 16.1032 21.4194 16.8919C21.4839 17.0234 21.6129 17.089 21.6774 17.2205C21.742 17.089 21.8065 16.9576 21.9355 16.8261C22.4516 15.8404 23.3549 14.5258 22.9032 12.554Z" fill="#34541F"/>
<path d="M19.3548 18.7324C20.1935 18.4695 20.7742 17.8122 21.3548 17.2206L21.2903 17.1549L21.2258 17.0891C20.7742 17.6807 20.1291 18.338 19.3548 18.7324Z" fill="#34541F"/>
</svg>
