<svg width="40" height="28" viewBox="0 0 40 28" fill="none" xmlns="http://www.w3.org/2000/svg">
<path d="M0 18.6667V24.1333C0 26.4 1.74194 28 3.87097 28H36.129C38.2581 28 40 26.4 40 24.1333V18.6667H0Z" fill="#3D91CF"/>
<path d="M36.129 0H3.87097C1.74194 0 0 1.6 0 3.86667V9.33333H40V3.86667C40 1.6 38.2581 0 36.129 0Z" fill="#3D91CF"/>
<path d="M40 9.33334H0V18.6667H40V9.33334Z" fill="#D3ECEF"/>
<path d="M36 28C38.129 28 40 26.4 40 24.1333V18.6667H25.4193L36 28Z" fill="#2586C1"/>
<path d="M36.129 0H3.87096L14.5806 9.33333H40V3.86667C40 1.6 38.2581 0 36.129 0Z" fill="#2586C1"/>
<path d="M25.4839 18.6667H40V9.33334H14.5161L25.4839 18.6667Z" fill="#B5DEE2"/>
<path d="M36.129 0H3.87096L33.7419 9.33333H40V3.86667C40 1.6 38.2581 0 36.129 0Z" fill="#0F73A5"/>
<path d="M40 11.2V9.33334H33.4193L40 11.2Z" fill="#8CD0D3"/>
<path d="M40 24.0667C40 26.4667 38.2581 28 36.129 28H3.87097C1.74194 28 0 26.2667 0 24" fill="#0F73A5"/>
<path d="M13.3549 10L13.8065 11.3333H15.1614L14.0646 12.1333L14.4517 13.4L13.3549 12.6L12.2582 13.4L12.7098 12.1333L11.613 11.3333H12.9678L13.3549 10Z" fill="#3D91CF"/>
<path d="M13.3548 14.6667L13.8064 16H15.1613L14.0645 16.8L14.4516 18.0667L13.3548 17.2667L12.258 18.0667L12.7096 16.8L11.6129 16H12.9677L13.3548 14.6667Z" fill="#3D91CF"/>
<path d="M20.0644 12L20.4515 13.3334H21.8064L20.7096 14.2667L21.1612 15.6667L20.0644 14.8667L18.9677 15.7334L19.4193 14.2667L18.3225 13.3334H19.6773L20.0644 12Z" fill="#3D91CF"/>
<path d="M20.4516 13.3334L20.0645 12L19.6774 13.3334H19.4839L20.8387 14.6L20.7097 14.2L21.8064 13.3334H20.4516Z" fill="#0F73A5"/>
<path d="M25.9355 12.0667L25.5484 13.4L25.6774 13.3333L26.6451 12.6L27.7419 13.4L27.3548 12.1333L28.3871 11.3333H27.0322L26.6451 10L26.2581 11.3333H24.9032C24.9032 11.3333 25.9355 12.0667 25.9355 12.0667Z" fill="#0F73A5"/>
<path d="M27.0323 16L26.6452 14.6667L26.2581 16H24.9677L26 16.7333L25.6129 18.0667L26.7097 17.2667L27.8065 18.0667L27.4194 16.8L28.3871 16H27.0323Z" fill="#0F73A5"/>
</svg>
