<svg width="48" height="48" viewBox="0 0 48 48" fill="none" xmlns="http://www.w3.org/2000/svg">
<path d="M13.1033 16.8397C15.067 16.8397 16.6589 15.2478 16.6589 13.2841C16.6589 11.3204 15.067 9.72852 13.1033 9.72852C11.1396 9.72852 9.54773 11.3204 9.54773 13.2841C9.54773 15.2478 11.1396 16.8397 13.1033 16.8397Z" fill="#061022"/>
<path d="M19.9152 19.4674H25.808V22.1669C25.808 22.1669 27.4071 18.9688 31.758 18.9688C35.6391 18.9688 38.8543 20.8807 38.8543 26.7085V38.9977H32.7477V28.1976C32.7477 24.7598 30.9123 24.3817 29.5137 24.3817C26.6112 24.3817 26.1143 26.8853 26.1143 28.6461V38.9977H19.9152V19.4674Z" fill="#061022"/>
<path d="M10.0038 19.4673H16.2028V38.9976H10.0038V19.4673Z" fill="#061022"/>
</svg>
