<svg width="48" height="48" viewBox="0 0 48 48" fill="none" xmlns="http://www.w3.org/2000/svg">
<path d="M24.0007 6.5459C19.2605 6.5459 18.6656 6.56663 16.8039 6.65135C14.9457 6.73644 13.6774 7.03063 12.5676 7.46226C11.4197 7.90808 10.4459 8.50444 9.47571 9.47499C8.50483 10.4452 7.90849 11.419 7.46123 12.5666C7.02852 13.6768 6.73398 14.9455 6.65035 16.803C6.56707 18.6648 6.54526 19.2601 6.54526 24.0004C6.54526 28.7408 6.56635 29.3339 6.65071 31.1957C6.73616 33.0539 7.03033 34.3223 7.46159 35.4321C7.90776 36.5801 8.50411 37.5539 9.47462 38.5241C10.4444 39.495 11.4182 40.0928 12.5654 40.5386C13.676 40.9703 14.9446 41.2644 16.8024 41.3495C18.6642 41.4343 19.2587 41.455 23.9985 41.455C28.7391 41.455 29.3322 41.4343 31.194 41.3495C33.0521 41.2644 34.3219 40.9703 35.4324 40.5386C36.58 40.0928 37.5523 39.495 38.5221 38.5241C39.493 37.5539 40.0893 36.5801 40.5366 35.4324C40.9657 34.3223 41.2602 33.0535 41.3475 31.1961C41.4311 29.3343 41.4529 28.7408 41.4529 24.0004C41.4529 19.2601 41.4311 18.6652 41.3475 16.8034C41.2602 14.9452 40.9657 13.6768 40.5366 12.567C40.0893 11.419 39.493 10.4452 38.5221 9.47499C37.5512 8.50408 36.5803 7.90772 35.4313 7.46226C34.3186 7.03063 33.0495 6.73644 31.1914 6.65135C29.3297 6.56663 28.7369 6.5459 23.9953 6.5459H24.0007ZM22.435 9.69135C22.8997 9.69063 23.4182 9.69135 24.0007 9.69135C28.661 9.69135 29.2133 9.70808 31.0536 9.79172C32.7554 9.86953 33.679 10.1539 34.2942 10.3928C35.1088 10.7092 35.6895 11.0874 36.3 11.6983C36.9109 12.3092 37.2891 12.891 37.6061 13.7055C37.845 14.3201 38.1298 15.2437 38.2072 16.9455C38.2908 18.7855 38.309 19.3383 38.309 23.9964C38.309 28.6546 38.2908 29.2074 38.2072 31.0474C38.1294 32.7492 37.845 33.6728 37.6061 34.2874C37.2898 35.1019 36.9109 35.6819 36.3 36.2924C35.6891 36.9034 35.1091 37.2815 34.2942 37.5979C33.6797 37.8379 32.7554 38.1215 31.0536 38.1994C29.2137 38.283 28.661 38.3012 24.0007 38.3012C19.3401 38.3012 18.7878 38.283 16.9479 38.1994C15.2461 38.1208 14.3225 37.8364 13.7069 37.5975C12.8923 37.2812 12.3105 36.903 11.6996 36.2921C11.0888 35.6812 10.7106 35.1008 10.3935 34.2859C10.1546 33.6714 9.86988 32.7477 9.79243 31.0459C9.7088 29.2059 9.69207 28.6532 9.69207 23.9921C9.69207 19.331 9.7088 18.7812 9.79243 16.9412C9.87025 15.2394 10.1546 14.3157 10.3935 13.7004C10.7099 12.8859 11.0888 12.3041 11.6996 11.6932C12.3105 11.0823 12.8923 10.7041 13.7069 10.387C14.3221 10.147 15.2461 9.86335 16.9479 9.78517C18.558 9.71244 19.182 9.69063 22.435 9.68699V9.69135ZM33.3175 12.5895C32.1612 12.5895 31.2231 13.5266 31.2231 14.6834C31.2231 15.8397 32.1612 16.7779 33.3175 16.7779C34.4739 16.7779 35.412 15.8397 35.412 14.6834C35.412 13.527 34.4739 12.5888 33.3175 12.5888V12.5895ZM24.0007 15.0368C19.0507 15.0368 15.0374 19.0503 15.0374 24.0004C15.0374 28.9506 19.0507 32.9623 24.0007 32.9623C28.9508 32.9623 32.9626 28.9506 32.9626 24.0004C32.9626 19.0503 28.9504 15.0368 24.0004 15.0368H24.0007ZM24.0007 18.1823C27.2137 18.1823 29.8187 20.787 29.8187 24.0004C29.8187 27.2135 27.2137 29.8186 24.0007 29.8186C20.7874 29.8186 18.1827 27.2135 18.1827 24.0004C18.1827 20.787 20.7874 18.1823 24.0007 18.1823V18.1823Z" fill="#061022"/>
</svg>
