<svg width="164" height="32" viewBox="0 0 164 32" fill="none" xmlns="http://www.w3.org/2000/svg">
<path d="M25.323 18.2535C26.2633 19.4769 26.7497 20.9899 26.7497 22.7928C26.7497 25.336 25.7446 27.2676 23.7667 28.6519C21.7888 30.004 18.9031 30.7123 15.0771 30.7123H0V1.73843H14.2341C17.8007 1.73843 20.5243 2.41449 22.4049 3.7666C24.3179 5.11872 25.2582 6.95373 25.2582 9.27163C25.2582 10.6881 24.934 11.9437 24.2531 13.0382C23.5722 14.1328 22.6319 15.002 21.3998 15.6459C23.0534 16.161 24.3503 17.0302 25.323 18.2535ZM6.71174 6.79276V13.6177H13.4235C15.0771 13.6177 16.3416 13.328 17.2171 12.7485C18.0925 12.169 18.514 11.332 18.514 10.173C18.514 9.04628 18.0925 8.20926 17.2171 7.62978C16.3416 7.05031 15.1095 6.79276 13.4235 6.79276H6.71174ZM18.5789 24.7565C19.4868 24.1771 19.9407 23.2757 19.9407 22.0845C19.9407 19.7022 18.1574 18.4789 14.5583 18.4789H6.71174V25.6258H14.5907C16.3416 25.6258 17.671 25.336 18.5789 24.7565Z" fill="#112A56"/>
<path d="M46.3337 10.5593C48.1819 12.2012 49.1222 14.6801 49.1222 17.9638V30.6479H43.0589V27.8793C41.8268 29.9396 39.5571 30.9698 36.2175 30.9698C34.499 30.9698 33.0075 30.6801 31.743 30.1006C30.4784 29.5533 29.5057 28.7485 28.8573 27.7183C28.1764 26.6881 27.8521 25.5292 27.8521 24.2414C27.8521 22.1811 28.6303 20.5392 30.2191 19.3803C31.7754 18.1891 34.2072 17.6096 37.482 17.6096H42.6374C42.6374 16.1931 42.2159 15.1308 41.3404 14.3581C40.465 13.5855 39.2005 13.2314 37.482 13.2314C36.2823 13.2314 35.1151 13.4245 33.9802 13.7787C32.813 14.165 31.8402 14.6479 31.0296 15.2917L28.6951 10.7847C29.9272 9.91548 31.3863 9.27162 33.0724 8.78872C34.7908 8.30583 36.5417 8.08047 38.325 8.08047C41.7944 8.11267 44.4856 8.9175 46.3337 10.5593ZM40.7892 25.8833C41.6647 25.3682 42.2483 24.6278 42.605 23.6298V21.3441H38.1629C35.5041 21.3441 34.1748 22.2133 34.1748 23.9517C34.1748 24.7887 34.499 25.4326 35.1475 25.9155C35.796 26.3984 36.7038 26.6237 37.8387 26.6237C38.9411 26.6559 39.9462 26.3984 40.7892 25.8833Z" fill="#112A56"/>
<path d="M62.2538 8.9175C63.5832 8.37021 65.0747 8.08047 66.8256 8.08047V14.0362C66.1123 13.9718 65.6259 13.9396 65.3665 13.9396C63.5184 13.9396 62.0593 14.4547 60.9893 15.4849C59.9193 16.5151 59.4005 18.0604 59.4005 20.1207V30.6157H52.9158V8.4346H59.1087V11.3642C59.8869 10.3018 60.9245 9.46478 62.2538 8.9175Z" fill="#112A56"/>
<path d="M68.6089 0H75.0937V30.6801H68.6089V0Z" fill="#112A56"/>
<path d="M79.0494 0H85.5342V30.6801H79.0494V0Z" fill="#112A56"/>
<path d="M111.311 21.3762H94.3535C94.6453 22.7606 95.3911 23.8551 96.5259 24.6278C97.6607 25.4326 99.0874 25.8189 100.773 25.8189C101.941 25.8189 102.978 25.6579 103.886 25.3038C104.794 24.9497 105.637 24.4024 106.415 23.662L109.885 27.3964C107.777 29.7787 104.697 31.002 100.644 31.002C98.1147 31.002 95.8774 30.5191 93.932 29.5211C91.9866 28.5553 90.4951 27.171 89.4251 25.4648C88.3551 23.7263 87.8363 21.7626 87.8363 19.5412C87.8363 17.3521 88.3551 15.3883 89.3927 13.6499C90.4302 11.9115 91.8569 10.5272 93.6726 9.56136C95.4883 8.59557 97.531 8.08047 99.7683 8.08047C101.973 8.08047 103.951 8.56337 105.734 9.49697C107.518 10.4306 108.912 11.7827 109.917 13.5211C110.922 15.2595 111.441 17.2877 111.441 19.6056C111.441 19.7022 111.376 20.2817 111.311 21.3762ZM96.1044 14.2294C95.0993 15.0664 94.4832 16.1931 94.2887 17.6096H105.313C105.086 16.1931 104.47 15.0664 103.497 14.2294C102.492 13.3923 101.292 12.9738 99.8331 12.9738C98.3416 12.9738 97.1095 13.3923 96.1044 14.2294Z" fill="#112A56"/>
<path d="M134.008 10.5915C135.726 12.2334 136.569 14.7123 136.569 17.9638V30.6801H130.085V18.9296C130.085 17.1589 129.696 15.839 128.917 14.9698C128.139 14.1006 127.004 13.6821 125.545 13.6821C123.892 13.6821 122.595 14.1972 121.622 15.1952C120.649 16.1932 120.163 17.7062 120.163 19.67V30.6479H113.678V8.4346H119.871V11.0422C120.747 10.1086 121.784 9.3682 123.081 8.88531C124.346 8.37022 125.772 8.11267 127.296 8.11267C130.052 8.11267 132.322 8.9175 134.008 10.5915Z" fill="#112A56"/>
<path d="M147.756 30.4225C147.756 29.5855 147.788 28.7485 147.788 27.8793C147.82 26.0443 147.756 24.1771 147.853 22.3421C147.885 21.8914 147.95 21.4728 148.015 21.0221C148.015 20.8934 148.047 20.7968 148.08 20.668C148.112 20.4427 148.145 20.2173 148.21 20.0241C148.274 19.7666 148.339 19.5413 148.404 19.2837C148.501 18.9618 148.599 18.6398 148.728 18.3179C148.826 18.0282 148.923 17.7384 149.02 17.4487C149.117 17.0946 149.247 16.7404 149.344 16.3863C149.409 16.1932 149.474 16.0322 149.539 15.839C149.604 15.6137 149.669 15.3561 149.734 15.1308C149.798 14.8089 149.896 14.5191 149.928 14.1972C149.993 13.8753 150.025 13.5211 150.058 13.1992C150.09 12.9095 150.123 12.6197 150.155 12.33C150.187 11.7183 150.187 11.1388 150.22 10.5272C150.22 10.3662 150.252 10.2052 150.252 10.0121C150.285 9.8833 150.22 9.78672 150.123 9.69015C150.09 9.65795 150.025 9.59357 150.025 9.52918C150.025 9.33602 150.025 9.11067 150.025 8.91751C150.025 8.65996 150.058 8.40242 150.09 8.14487C150.123 7.95171 150.123 7.72636 150.123 7.5332C143.768 8.17707 138.774 13.5211 138.774 19.992C138.774 25.658 142.568 30.4225 147.756 32C147.723 31.4849 147.723 30.9376 147.756 30.4225Z" fill="#112A56"/>
<path d="M152.717 7.5332C152.717 7.5654 152.717 7.5654 152.717 7.59759C152.717 7.72636 152.717 7.85513 152.717 8.0161C152.781 8.33803 152.717 8.65996 152.814 8.9497C152.781 9.17505 152.911 9.40041 152.749 9.59357C152.717 9.65795 152.717 9.72234 152.684 9.75453C152.652 9.94769 152.619 10.173 152.619 10.3662C152.619 10.5916 152.619 10.8169 152.652 11.0423C152.684 11.4286 152.684 11.7827 152.717 12.169C152.749 12.7163 152.814 13.2636 152.879 13.8109C152.911 14.004 152.943 14.1972 152.976 14.3903C153.008 14.6157 153.073 14.8089 153.138 15.0342C153.203 15.3561 153.3 15.6781 153.397 16C153.462 16.1932 153.527 16.3863 153.592 16.5795C153.689 16.9014 153.787 17.2555 153.884 17.5775C154.013 17.996 154.143 18.4145 154.273 18.8652C154.403 19.2837 154.532 19.7344 154.63 20.1851C154.727 20.6358 154.824 21.0865 154.857 21.5372C154.921 22.0523 154.954 22.5674 154.986 23.0825C155.019 23.7586 154.986 24.4346 154.986 25.0785C154.986 26.4628 154.986 27.8471 154.986 29.2314C154.986 30.165 154.986 31.0664 154.986 32C160.174 30.4547 163.968 25.658 163.968 19.992C164 13.5211 159.039 8.20926 152.717 7.5332Z" fill="#112A56"/>
</svg>
