<svg width="32" height="32" viewBox="0 0 32 32" fill="none" xmlns="http://www.w3.org/2000/svg">
<path fill-rule="evenodd" clip-rule="evenodd" d="M9 26C9 24.8954 9.89543 24 11 24C12.1046 24 13 24.8954 13 26C13 27.1046 12.1046 28 11 28C9.89543 28 9 27.1046 9 26Z" fill="#112A56"/>
<path fill-rule="evenodd" clip-rule="evenodd" d="M23 26C23 24.8954 23.8954 24 25 24C26.1046 24 27 24.8954 27 26C27 27.1046 26.1046 28 25 28C23.8954 28 23 27.1046 23 26Z" fill="#112A56"/>
<path fill-rule="evenodd" clip-rule="evenodd" d="M2 5C2 4.44772 2.44772 4 3 4H7C7.48524 4 7.90046 4.34836 7.98478 4.82621L10.839 21H26C26.5523 21 27 21.4477 27 22C27 22.5523 26.5523 23 26 23H10C9.51476 23 9.09954 22.6516 9.01522 22.1738L6.16102 6H3C2.44772 6 2 5.55228 2 5Z" fill="#112A56"/>
<path fill-rule="evenodd" clip-rule="evenodd" d="M27.39 7C27.6118 6.99995 27.8308 7.04908 28.0314 7.14387C28.2321 7.23876 28.4093 7.37703 28.5501 7.54869C28.6909 7.72036 28.7919 7.92114 28.8457 8.13657C28.8994 8.35194 28.9048 8.57657 28.8612 8.79424C28.8612 8.79429 28.8612 8.79433 28.8612 8.79438L27.0612 17.7944C26.9931 18.1345 26.8092 18.4406 26.5408 18.6604C26.2725 18.8802 25.9362 19.0002 25.5893 19L25.59 18V19H25.5893H10C9.44772 19 9 18.5523 9 18C9 17.4477 9.44772 17 10 17H25.1804L25.1001 17.4019L25.1 17.402L25.5903 17.5001L25.5904 17.5001L26.0806 17.5981L25.5903 17.5L25.59 17.4999L25.1001 17.4019C25.1228 17.2885 25.1841 17.1865 25.2735 17.1132C25.3628 17.0401 25.4746 17.0001 25.59 17H25.1804L26.7804 9H27.39C27.3162 8.99995 27.2434 8.98357 27.1767 8.95204C27.1098 8.92041 27.0507 8.87432 27.0038 8.8171C26.9568 8.75988 26.9232 8.69296 26.9052 8.62114C26.8873 8.54948 26.8856 8.47474 26.9 8.4023L26.7804 9H8C7.44772 9 7 8.55228 7 8C7 7.44772 7.44772 7 8 7H27.3897C27.3896 7 27.3894 7 27.3893 7L27.39 8V7Z" fill="#112A56"/>
</svg>
