<svg width="24" height="25" viewBox="0 0 24 25" fill="none" xmlns="http://www.w3.org/2000/svg">
<rect y="0.5" width="24" height="24" rx="4" fill="#008EF0"/>
<path fill-rule="evenodd" clip-rule="evenodd" d="M13.3333 5.83333C13.3333 5.09695 12.7363 4.5 11.9999 4.5C11.2635 4.5 10.6666 5.09695 10.6666 5.83333V11.1667H5.33333C4.59695 11.1667 4 11.7636 4 12.5C4 13.2364 4.59695 13.8333 5.33333 13.8333H10.6666V19.1667C10.6666 19.903 11.2635 20.5 11.9999 20.5C12.7363 20.5 13.3333 19.903 13.3333 19.1667V13.8333H18.6667C19.403 13.8333 20 13.2364 20 12.5C20 11.7636 19.403 11.1667 18.6667 11.1667H13.3333V5.83333Z" fill="white"/>
</svg>
