<svg width="28" height="28" viewBox="0 0 28 28" fill="none" xmlns="http://www.w3.org/2000/svg">
<path fill-rule="evenodd" clip-rule="evenodd" d="M4.32502 13.04C3.8591 13.1042 3.5 13.5095 3.5 13.9999C3.5 14.5349 3.92736 14.9686 4.45455 14.9686H21.2333L15.1721 21.0949L15.0795 21.2034C14.8015 21.582 14.8312 22.1202 15.1693 22.4649C15.5413 22.8439 16.1457 22.8452 16.5193 22.4677L24.2057 14.6995C24.2515 14.655 24.2929 14.6059 24.3292 14.553C24.5894 14.1747 24.5528 13.6499 24.2192 13.3129L16.5192 5.53226L16.412 5.43869C16.0377 5.15813 15.5074 5.19055 15.1693 5.53521C14.7973 5.91432 14.7986 6.52767 15.1722 6.90516L21.2348 13.0312L4.45455 13.0312L4.32502 13.04Z" fill="#112A56"/>
</svg>
