<svg width="28" height="28" viewBox="0 0 28 28" fill="none" xmlns="http://www.w3.org/2000/svg">
<path fill-rule="evenodd" clip-rule="evenodd" d="M2.33337 19.0563L2.33337 8.9425C2.33337 4.9716 5.16757 2.33333 9.23537 2.33333H18.7647C22.8283 2.33333 25.6667 4.97945 25.6667 8.9425V19.0563C25.6667 23.0274 22.8323 25.6667 18.7647 25.6667H9.23537C5.1678 25.6667 2.33337 23.0274 2.33337 19.0563ZM4.08337 8.9425L4.08337 19.0563C4.08337 22.0319 6.1075 23.9167 9.23537 23.9167H18.7647C21.8926 23.9167 23.9167 22.0319 23.9167 19.0563V8.9425C23.9167 5.97445 21.8881 4.08333 18.7647 4.08333H9.23537C6.10717 4.08333 4.08337 5.96722 4.08337 8.9425ZM8.35804 14C8.35804 13.557 8.68722 13.1909 9.11431 13.133L9.23304 13.125L16.6474 13.125L13.7587 10.2474C13.4474 9.93739 13.4181 9.45134 13.6715 9.10825L13.756 9.00994C14.066 8.69863 14.5521 8.66935 14.8951 8.92279L14.9935 9.0073L19.3848 13.38C19.697 13.6909 19.7254 14.1787 19.4699 14.5218L19.4668 14.5254C19.4424 14.5579 19.4157 14.5886 19.3871 14.6174L19.3848 14.62L14.9935 18.9927C14.651 19.3337 14.097 19.3325 13.756 18.9901C13.446 18.6788 13.4188 18.1926 13.6737 17.8506L13.7587 17.7526L16.649 14.875L9.23304 14.875C8.74979 14.875 8.35804 14.4832 8.35804 14Z" fill="white"/>
</svg>
