<svg width="28" height="28" viewBox="0 0 28 28" fill="none" xmlns="http://www.w3.org/2000/svg">
<path fill-rule="evenodd" clip-rule="evenodd" d="M25.6667 8.94355L25.6667 19.0574C25.6667 23.0283 22.8326 25.6666 18.7647 25.6666L9.23541 25.6666C5.17187 25.6666 2.33341 23.0204 2.33341 19.0574L2.33341 8.94355C2.33341 4.97247 5.16784 2.33322 9.23541 2.33322L18.7647 2.33322C22.8323 2.33322 25.6667 4.97247 25.6667 8.94355ZM23.9167 19.0574L23.9167 8.94355C23.9167 5.96797 21.8926 4.08322 18.7647 4.08322L9.23541 4.08322C6.10754 4.08322 4.08341 5.96797 4.08341 8.94355L4.08341 19.0574C4.08341 22.0254 6.11199 23.9166 9.23541 23.9166L18.7647 23.9166C21.893 23.9166 23.9167 22.0327 23.9167 19.0574ZM19.6421 13.9999C19.6421 14.4429 19.3129 14.809 18.8858 14.8669L18.7671 14.8749H11.3527L14.2415 17.7525C14.5528 18.0625 14.582 18.5485 14.3286 18.8916L14.2441 18.99C13.9341 19.3013 13.4481 19.3305 13.105 19.0771L13.0067 18.9926L8.61533 14.6199C8.30309 14.309 8.2747 13.8212 8.53017 13.4781L8.53332 13.4745C8.55776 13.442 8.58442 13.4112 8.61306 13.3825L8.61533 13.3799L13.0067 9.00719C13.3491 8.66621 13.9031 8.66739 14.2441 9.00982C14.5541 9.32113 14.5813 9.80729 14.3264 10.1493L14.2415 10.2473L11.3511 13.1249H18.7671C19.2503 13.1249 19.6421 13.5166 19.6421 13.9999Z" fill="#112A56"/>
</svg>
