<svg width="28" height="28" viewBox="0 0 28 28" fill="none" xmlns="http://www.w3.org/2000/svg">
<path fill-rule="evenodd" clip-rule="evenodd" d="M25.6666 14.0002C25.6666 7.55688 20.4429 2.33357 14 2.33357C7.55699 2.33357 2.33329 7.55688 2.33329 14.0002C2.33329 20.4428 7.55737 25.6669 14 25.6669C20.4425 25.6669 25.6666 20.4428 25.6666 14.0002ZM23.9166 14.0002C23.9166 19.4763 19.476 23.9169 14 23.9169C8.52387 23.9169 4.08329 19.4763 4.08329 14.0002C4.08329 8.52341 8.52346 4.08357 14 4.08357C19.4765 4.08357 23.9166 8.52341 23.9166 14.0002ZM16.385 10.4726C16.6399 10.1306 16.6127 9.64444 16.3027 9.33312C15.9617 8.99068 15.4077 8.98948 15.0653 9.33045L10.9983 13.38L10.9131 13.4782C10.6576 13.8213 10.686 14.3091 10.9983 14.6201L15.0653 18.6696L15.1636 18.7541C15.5067 19.0075 15.9927 18.9782 16.3027 18.6669L16.3872 18.5686C16.6406 18.2255 16.6113 17.7394 16.3 17.4295L12.8566 13.9988L16.3 10.5706L16.385 10.4726Z" fill="#112A56"/>
</svg>
