<svg width="28" height="28" viewBox="0 0 28 28" fill="none" xmlns="http://www.w3.org/2000/svg">
<path fill-rule="evenodd" clip-rule="evenodd" d="M23.7596 14.829C24.1777 14.7736 24.5 14.4236 24.5 14C24.5 13.5379 24.1165 13.1634 23.6434 13.1634L14.2781 13.1634L14.2781 8.42132C14.2781 7.76282 13.5353 7.36244 12.9649 7.71348L3.89995 13.2922C3.36668 13.6203 3.36668 14.3797 3.89995 14.7078L12.9649 20.2865C13.5353 20.6376 14.2781 20.2372 14.2781 19.5787V14.8366L23.6434 14.8366L23.7596 14.829ZM12.5659 13.961C12.5652 13.9739 12.5649 13.9869 12.5649 14C12.5649 14.0131 12.5652 14.0261 12.5659 14.039V18.0613L5.96445 13.9997L12.5659 9.93697L12.5659 13.961Z" fill="white"/>
</svg>
