<svg width="28" height="28" viewBox="0 0 28 28" fill="none" xmlns="http://www.w3.org/2000/svg">
<path fill-rule="evenodd" clip-rule="evenodd" d="M23.675 14.96C24.1409 14.8958 24.5 14.4905 24.5 14.0001C24.5 13.4651 24.0726 13.0314 23.5455 13.0314L6.76674 13.0314L12.8279 6.9051L12.9205 6.79665C13.1985 6.418 13.1688 5.87977 12.8307 5.53515C12.4587 5.15606 11.8543 5.15479 11.4807 5.53231L3.79428 13.3005C3.74854 13.345 3.70714 13.3941 3.67082 13.447C3.41059 13.8253 3.44725 14.3501 3.78078 14.6871L11.4808 22.4677L11.588 22.5613C11.9623 22.8419 12.4926 22.8094 12.8307 22.4648C13.2027 22.0857 13.2014 21.4723 12.8278 21.0948L6.76523 14.9688L23.5455 14.9688L23.675 14.96Z" fill="#112A56"/>
</svg>
