<svg width="28" height="28" viewBox="0 0 28 28" fill="none" xmlns="http://www.w3.org/2000/svg">
<path fill-rule="evenodd" clip-rule="evenodd" d="M14.0003 2.33334C7.55692 2.33334 2.33362 7.55703 2.33362 14C2.33362 20.443 7.55692 25.6667 14.0003 25.6667C20.4429 25.6667 25.667 20.4426 25.667 14C25.667 7.55742 20.4429 2.33334 14.0003 2.33334ZM14.0003 4.08334C19.4764 4.08334 23.917 8.52392 23.917 14C23.917 19.4761 19.4764 23.9167 14.0003 23.9167C8.52345 23.9167 4.08362 19.4765 4.08362 14C4.08362 8.5235 8.52345 4.08334 14.0003 4.08334ZM10.4726 11.615C10.1306 11.3601 9.64448 11.3873 9.33317 11.6973C8.99072 12.0382 8.98953 12.5923 9.3305 12.9347L13.38 17.0017L13.4783 17.0869C13.8213 17.3424 14.3092 17.314 14.6201 17.0017L18.6696 12.9347L18.7541 12.8364C19.0075 12.4933 18.9782 12.0072 18.6669 11.6973L18.5686 11.6128C18.2255 11.3593 17.7395 11.3886 17.4295 11.6999L13.9989 15.1433L10.5706 11.6999L10.4726 11.615Z" fill="white"/>
</svg>
