<svg width="28" height="28" viewBox="0 0 28 28" fill="none" xmlns="http://www.w3.org/2000/svg">
<path fill-rule="evenodd" clip-rule="evenodd" d="M19.0564 25.6667L8.94258 25.6667C4.97168 25.6667 2.33341 22.8325 2.33341 18.7647L2.33341 9.23533C2.33341 5.17179 4.97953 2.33333 8.94258 2.33333L19.0564 2.33333C23.0275 2.33333 25.6667 5.16776 25.6667 9.23533L25.6667 18.7647C25.6667 22.8322 23.0275 25.6667 19.0564 25.6667ZM8.94258 23.9167L19.0564 23.9167C22.032 23.9167 23.9167 21.8925 23.9167 18.7647L23.9167 9.23533C23.9167 6.10746 22.032 4.08333 19.0564 4.08333L8.94258 4.08333C5.97453 4.08333 4.08341 6.11191 4.08341 9.23533L4.08341 18.7647C4.08341 21.8929 5.9673 23.9167 8.94258 23.9167ZM14.0001 19.642C13.5571 19.642 13.191 19.3128 13.1331 18.8857L13.1251 18.767L13.1251 11.3526L10.2474 14.2414C9.93747 14.5527 9.45142 14.582 9.10833 14.3285L9.01002 14.244C8.69871 13.934 8.66943 13.448 8.92287 13.1049L9.00738 13.0066L13.38 8.61525C13.691 8.30301 14.1788 8.27462 14.5219 8.53009L14.5255 8.53323C14.558 8.55768 14.5887 8.58434 14.6175 8.61299L14.6201 8.61525L18.9928 13.0066C19.3338 13.349 19.3326 13.903 18.9901 14.244C18.6788 14.554 18.1927 14.5812 17.8507 14.3263L17.7527 14.2414L14.8751 11.351L14.8751 18.767C14.8751 19.2502 14.4833 19.642 14.0001 19.642Z" fill="white"/>
</svg>
