<svg width="28" height="28" viewBox="0 0 28 28" fill="none" xmlns="http://www.w3.org/2000/svg">
<path fill-rule="evenodd" clip-rule="evenodd" d="M14.8292 4.24035C14.7738 3.82225 14.4237 3.5 14.0002 3.5C13.5381 3.5 13.1635 3.88351 13.1635 4.35658L13.1635 13.7219L8.42148 13.7219C7.76298 13.7219 7.3626 14.4647 7.71364 15.0351L13.2923 24.1001C13.6205 24.6333 14.3798 24.6333 14.708 24.1001L20.2867 15.0351C20.6377 14.4647 20.2373 13.7219 19.5788 13.7219L14.8368 13.7219L14.8368 4.35658L14.8292 4.24035ZM13.9612 15.4341C13.9741 15.4348 13.9871 15.4351 14.0002 15.4351C14.0132 15.4351 14.0262 15.4348 14.0391 15.4341H18.0614L13.9998 22.0356L9.93713 15.4341L13.9612 15.4341Z" fill="#112A56"/>
</svg>
