<svg width="28" height="28" viewBox="0 0 28 28" fill="none" xmlns="http://www.w3.org/2000/svg">
<path fill-rule="evenodd" clip-rule="evenodd" d="M13.04 23.675C13.1042 24.1409 13.5095 24.5 13.9999 24.5C14.5349 24.5 14.9686 24.0726 14.9686 23.5455L14.9686 6.76674L21.0949 12.8279L21.2034 12.9205C21.582 13.1985 22.1202 13.1688 22.4649 12.8307C22.8439 12.4587 22.8452 11.8543 22.4677 11.4807L14.6995 3.79428C14.655 3.74854 14.6059 3.70714 14.553 3.67082C14.1747 3.41059 13.6499 3.44725 13.3129 3.78078L5.53226 11.4808L5.43869 11.588C5.15813 11.9623 5.19055 12.4926 5.53521 12.8307C5.91432 13.2027 6.52767 13.2014 6.90516 12.8278L13.0312 6.76523L13.0312 23.5455L13.04 23.675Z" fill="#112A56"/>
</svg>
