<svg width="28" height="28" viewBox="0 0 28 28" fill="none" xmlns="http://www.w3.org/2000/svg">
<path fill-rule="evenodd" clip-rule="evenodd" d="M13.9997 25.6667C20.4431 25.6667 25.6664 20.443 25.6664 14C25.6664 7.55703 20.4431 2.33334 13.9997 2.33334C7.55713 2.33334 2.33305 7.55742 2.33305 14C2.33305 20.4426 7.55713 25.6667 13.9997 25.6667ZM13.9997 23.9167C8.52363 23.9167 4.08305 19.4761 4.08305 14C4.08305 8.52392 8.52363 4.08334 13.9997 4.08334C19.4765 4.08334 23.9164 8.5235 23.9164 14C23.9164 19.4765 19.4765 23.9167 13.9997 23.9167ZM17.5274 16.385C17.8693 16.6399 18.3555 16.6127 18.6668 16.3027C19.0093 15.9618 19.0105 15.4077 18.6695 15.0653L14.62 10.9983L14.5217 10.9131C14.1787 10.6577 13.6908 10.686 13.3799 10.9983L9.33039 15.0653L9.24589 15.1636C8.99246 15.5067 9.02175 15.9928 9.33306 16.3027L9.43139 16.3872C9.77448 16.6407 10.2605 16.6114 10.5705 16.3001L14.0011 12.8567L17.4294 16.3001L17.5274 16.385Z" fill="#112A56"/>
</svg>
