<svg width="28" height="28" viewBox="0 0 28 28" fill="none" xmlns="http://www.w3.org/2000/svg">
<path fill-rule="evenodd" clip-rule="evenodd" d="M4.24035 13.171C3.82225 13.2264 3.5 13.5764 3.5 14C3.5 14.4621 3.88351 14.8366 4.35658 14.8366L13.7219 14.8366L13.7219 19.5787C13.7219 20.2372 14.4647 20.6376 15.0351 20.2865L24.1001 14.7078C24.6333 14.3797 24.6333 13.6203 24.1001 13.2922L15.0351 7.71348C14.4647 7.36244 13.7219 7.76283 13.7219 8.42132L13.7219 13.1634L4.35658 13.1634L4.24035 13.171ZM15.4341 14.039C15.4348 14.0261 15.4351 14.0131 15.4351 14C15.4351 13.9869 15.4348 13.974 15.4341 13.961L15.4341 9.93876L22.0356 14.0003L15.4341 18.063L15.4341 14.039Z" fill="#112A56"/>
</svg>
