<svg width="28" height="28" viewBox="0 0 28 28" fill="none" xmlns="http://www.w3.org/2000/svg">
<path fill-rule="evenodd" clip-rule="evenodd" d="M8.94358 2.33334H19.0574C23.0283 2.33334 25.6666 5.16754 25.6666 9.23534V18.7647C25.6666 22.8282 23.0205 25.6667 19.0574 25.6667H8.94358C4.9725 25.6667 2.33325 22.8323 2.33325 18.7647V9.23534C2.33325 5.16776 4.9725 2.33334 8.94358 2.33334ZM19.0574 4.08334H8.94358C5.968 4.08334 4.08325 6.10747 4.08325 9.23534V18.7647C4.08325 21.8926 5.968 23.9167 8.94358 23.9167H19.0574C22.0255 23.9167 23.9166 21.8881 23.9166 18.7647V9.23534C23.9166 6.10714 22.0327 4.08334 19.0574 4.08334ZM13.9999 8.35801C14.4429 8.35801 14.809 8.68719 14.8669 9.11428L14.8749 9.23301V16.6474L17.7526 13.7586C18.0625 13.4473 18.5486 13.418 18.8917 13.6715L18.99 13.756C19.3013 14.066 19.3306 14.552 19.0771 14.8951L18.9926 14.9934L14.62 19.3848C14.309 19.697 13.8212 19.7254 13.4781 19.4699L13.4745 19.4668C13.442 19.4423 13.4113 19.4157 13.3825 19.387L13.3799 19.3848L9.00722 14.9934C8.66624 14.651 8.66742 14.097 9.00985 13.756C9.32116 13.446 9.80732 13.4188 10.1493 13.6737L10.2473 13.7586L13.1249 16.649V9.23301C13.1249 8.74976 13.5167 8.35801 13.9999 8.35801Z" fill="#112A56"/>
</svg>
