<svg width="28" height="28" viewBox="0 0 28 28" fill="none" xmlns="http://www.w3.org/2000/svg">
<path fill-rule="evenodd" clip-rule="evenodd" d="M13.1708 23.7596C13.2262 24.1777 13.5763 24.5 13.9998 24.5C14.4619 24.5 14.8365 24.1165 14.8365 23.6434V14.2781H19.5785C20.237 14.2781 20.6374 13.5353 20.2864 12.9649L14.7077 3.89995C14.3795 3.36668 13.6202 3.36668 13.292 3.89995L7.71331 12.9649C7.36227 13.5353 7.76266 14.2781 8.42115 14.2781H13.1632V23.6434L13.1708 23.7596ZM14.0388 12.5659C14.0259 12.5652 14.0129 12.5649 13.9998 12.5649C13.9868 12.5649 13.9738 12.5652 13.9608 12.5659L9.93859 12.5659L14.0002 5.96445L18.0629 12.5659H14.0388Z" fill="#112A56"/>
</svg>
