<svg width="28" height="28" viewBox="0 0 28 28" fill="none" xmlns="http://www.w3.org/2000/svg">
<path fill-rule="evenodd" clip-rule="evenodd" d="M2.33337 13.9998C2.33337 20.4431 7.55707 25.6664 14 25.6664C20.443 25.6664 25.6667 20.4431 25.6667 13.9998C25.6667 7.55718 20.4426 2.33309 14 2.33309C7.55746 2.33309 2.33337 7.55718 2.33337 13.9998ZM4.08337 13.9998C4.08337 8.52368 8.52396 4.08309 14 4.08309C19.4761 4.08309 23.9167 8.52368 23.9167 13.9998C23.9167 19.4766 19.4765 23.9164 14 23.9164C8.52354 23.9164 4.08337 19.4766 4.08337 13.9998ZM11.615 17.5274C11.3601 17.8694 11.3873 18.3556 11.6973 18.6669C12.0383 19.0093 12.5923 19.0105 12.9347 18.6695L17.0017 14.62L17.0869 14.5218C17.3424 14.1787 17.314 13.6909 17.0017 13.3799L12.9347 9.33044L12.8364 9.24593C12.4933 8.99251 12.0073 9.0218 11.6973 9.33311L11.6128 9.43143C11.3594 9.77452 11.3887 10.2606 11.7 10.5705L15.1434 14.0012L11.7 17.4294L11.615 17.5274Z" fill="#112A56"/>
</svg>
