<svg width="28" height="28" viewBox="0 0 28 28" fill="none" xmlns="http://www.w3.org/2000/svg">
<path fill-rule="evenodd" clip-rule="evenodd" d="M14.96 4.32502C14.8958 3.8591 14.4905 3.5 14.0001 3.5C13.4651 3.5 13.0314 3.92736 13.0314 4.45455V21.2333L6.9051 15.1721L6.79665 15.0795C6.418 14.8015 5.87977 14.8312 5.53515 15.1693C5.15606 15.5413 5.15479 16.1457 5.53231 16.5193L13.3005 24.2057C13.345 24.2515 13.3941 24.2929 13.447 24.3292C13.8253 24.5894 14.3501 24.5528 14.6871 24.2192L22.4677 16.5192L22.5613 16.412C22.8419 16.0377 22.8094 15.5074 22.4648 15.1693C22.0857 14.7973 21.4723 14.7986 21.0948 15.1722L14.9688 21.2348V4.45455L14.96 4.32502Z" fill="#112A56"/>
</svg>
