<svg width="243" height="72" viewBox="0 0 243 72" fill="none" xmlns="http://www.w3.org/2000/svg">
<path d="M0 5C0 2.23857 2.23858 0 5 0H238C240.761 0 243 2.23858 243 5V67C243 69.7614 240.761 72 238 72H5C2.23857 72 0 69.7614 0 67V5Z" fill="#061022"/>
<path d="M122.645 39.152C118.411 39.152 114.961 42.3722 114.961 46.8074C114.961 51.2156 118.411 54.4628 122.645 54.4628C126.88 54.4628 130.331 51.2156 130.331 46.8074C130.329 42.3722 126.878 39.152 122.645 39.152ZM122.645 51.4496C120.325 51.4496 118.325 49.5362 118.325 46.8092C118.325 44.0534 120.326 42.1688 122.645 42.1688C124.965 42.1688 126.965 44.0534 126.965 46.8092C126.965 49.5344 124.965 51.4496 122.645 51.4496ZM105.88 39.152C101.646 39.152 98.1954 42.3722 98.1954 46.8074C98.1954 51.2156 101.646 54.4628 105.88 54.4628C110.115 54.4628 113.566 51.2156 113.566 46.8074C113.566 42.3722 110.115 39.152 105.88 39.152ZM105.88 51.4496C103.559 51.4496 101.56 49.5362 101.56 46.8092C101.56 44.0534 103.561 42.1688 105.88 42.1688C108.2 42.1688 110.2 44.0534 110.2 46.8092C110.201 49.5344 108.2 51.4496 105.88 51.4496ZM85.9392 41.5028V44.75H93.7116C93.4794 46.577 92.871 47.9108 91.9422 48.8378C90.8118 49.9682 89.0424 51.2156 85.9392 51.2156C81.1548 51.2156 77.4144 47.3582 77.4144 42.5738C77.4144 37.7894 81.1548 33.932 85.9392 33.932C88.5204 33.932 90.405 34.9472 91.7964 36.2522L94.0878 33.9608C92.1438 32.105 89.5644 30.6848 85.9392 30.6848C79.3854 30.6848 73.8756 36.02 73.8756 42.5738C73.8756 49.1276 79.3854 54.4628 85.9392 54.4628C89.4762 54.4628 92.1456 53.3018 94.2318 51.1274C96.3774 48.9818 97.0452 45.965 97.0452 43.5296C97.0452 42.7772 96.9876 42.0806 96.8706 41.501H85.9392V41.5028ZM167.494 44.0246C166.856 42.3146 164.912 39.152 160.94 39.152C156.996 39.152 153.718 42.2552 153.718 46.8074C153.718 51.0986 156.967 54.4628 161.316 54.4628C164.824 54.4628 166.855 52.3172 167.697 51.0698L165.087 49.3292C164.218 50.6054 163.028 51.446 161.316 51.446C159.606 51.446 158.387 50.663 157.604 49.1258L167.841 44.8922L167.494 44.0246ZM157.054 46.577C156.967 43.6178 159.345 42.1112 161.057 42.1112C162.391 42.1112 163.521 42.779 163.899 43.7348L157.054 46.577ZM148.732 54.0002H152.095V31.4984H148.732V54.0002ZM143.221 40.8638H143.105C142.351 39.9638 140.9 39.152 139.075 39.152C135.247 39.152 131.738 42.5162 131.738 46.838C131.738 51.1292 135.247 54.4646 139.075 54.4646C140.902 54.4646 142.351 53.6528 143.105 52.7258H143.221V53.8274C143.221 56.756 141.655 58.322 139.133 58.322C137.074 58.322 135.797 56.8442 135.275 55.5968L132.347 56.8154C133.187 58.844 135.419 61.3388 139.133 61.3388C143.077 61.3388 146.412 59.0186 146.412 53.363V39.6182H143.222V40.8638H143.221ZM139.365 51.4496C137.045 51.4496 135.103 49.5056 135.103 46.838C135.103 44.1398 137.045 42.1688 139.365 42.1688C141.655 42.1688 143.453 44.1398 143.453 46.838C143.453 49.5056 141.655 51.4496 139.365 51.4496ZM183.251 31.4984H175.203V54.0002H178.56V45.4754H183.249C186.971 45.4754 190.633 42.7808 190.633 38.4878C190.633 34.1948 186.973 31.4984 183.251 31.4984ZM183.337 42.3434H178.56V34.6304H183.337C185.848 34.6304 187.274 36.7094 187.274 38.4878C187.274 40.2302 185.848 42.3434 183.337 42.3434ZM204.095 39.1124C201.663 39.1124 199.145 40.1834 198.103 42.5576L201.083 43.8014C201.721 42.5576 202.909 42.1508 204.152 42.1508C205.889 42.1508 207.655 43.193 207.684 45.0452V45.2774C207.076 44.93 205.772 44.4098 204.181 44.4098C200.968 44.4098 197.696 46.1756 197.696 49.475C197.696 52.4864 200.331 54.425 203.283 54.425C205.54 54.425 206.786 53.4116 207.567 52.2236H207.682V53.9606H210.926V45.3332C210.928 41.3408 207.943 39.1124 204.095 39.1124ZM203.688 51.4442C202.59 51.4442 201.055 50.8934 201.055 49.5326C201.055 47.7956 202.966 47.1296 204.617 47.1296C206.091 47.1296 206.788 47.4482 207.684 47.882C207.423 49.9682 205.628 51.4442 203.688 51.4442ZM222.737 39.6038L218.887 49.3598H218.772L214.776 39.6038H211.158L217.15 53.2388L213.734 60.824H217.237L226.472 39.6038H222.737ZM192.487 54.0002H195.844V31.4984H192.487V54.0002Z" fill="white"/>
<path d="M85.3525 18.4373C85.3525 19.9457 84.9061 21.1463 84.0115 22.0427C82.9963 23.1083 81.6715 23.6411 80.0443 23.6411C78.4855 23.6411 77.1589 23.1011 76.0699 22.0211C74.9791 20.9393 74.4337 19.6001 74.4337 18.0017C74.4337 16.4015 74.9791 15.0623 76.0699 13.9823C77.1589 12.9005 78.4855 12.3605 80.0443 12.3605C80.8183 12.3605 81.5581 12.5117 82.2601 12.8123C82.9639 13.1147 83.5273 13.5161 83.9485 14.0183L82.9999 14.9687C82.2853 14.1137 81.3007 13.6871 80.0425 13.6871C78.9049 13.6871 77.9221 14.0867 77.0923 14.8859C76.2625 15.6851 75.8485 16.7237 75.8485 17.9999C75.8485 19.2761 76.2625 20.3147 77.0923 21.1139C77.9221 21.9131 78.9049 22.3127 80.0425 22.3127C81.2485 22.3127 82.2547 21.9113 83.0593 21.1067C83.5813 20.5829 83.8837 19.8539 83.9647 18.9197H80.0425V17.6219H85.2751C85.3291 17.9045 85.3525 18.1763 85.3525 18.4373Z" fill="white"/>
<path d="M93.6507 13.9266H88.7331V17.3502H93.1683V18.648H88.7331V22.0716H93.6507V23.4H87.3453V12.6H93.6507V13.9266Z" fill="white"/>
<path d="M99.5023 23.4H98.1145V13.9266H95.0977V12.6H102.519V13.9266H99.5023V23.4Z" fill="white"/>
<path d="M107.888 23.4V12.6H109.276V23.4H107.888Z" fill="white"/>
<path d="M115.431 23.4H114.043V13.9266H111.026V12.6H118.447V13.9266H115.431V23.4Z" fill="white"/>
<path d="M132.496 22.005C131.434 23.0958 130.115 23.6412 128.536 23.6412C126.957 23.6412 125.638 23.0958 124.578 22.005C123.516 20.9142 122.987 19.5786 122.987 18C122.987 16.4214 123.516 15.0858 124.578 13.995C125.638 12.9042 126.957 12.357 128.536 12.357C130.106 12.357 131.423 12.906 132.489 14.0022C133.555 15.0984 134.087 16.4304 134.087 18C134.087 19.5786 133.556 20.9142 132.496 22.005ZM125.602 21.0996C126.401 21.9096 127.379 22.3128 128.536 22.3128C129.693 22.3128 130.673 21.9078 131.47 21.0996C132.269 20.2896 132.671 19.2564 132.671 18C132.671 16.7436 132.269 15.7104 131.47 14.9004C130.673 14.0904 129.693 13.6872 128.536 13.6872C127.379 13.6872 126.401 14.0922 125.602 14.9004C124.805 15.7104 124.403 16.7436 124.403 18C124.403 19.2564 124.805 20.2896 125.602 21.0996Z" fill="white"/>
<path d="M136.035 23.4V12.6H137.723L142.972 21.0006H143.032L142.972 18.9198V12.6H144.36V23.4H142.911L137.419 14.5908H137.36L137.419 16.6716V23.4H136.035Z" fill="white"/>
<path d="M85.3525 18.4373C85.3525 19.9457 84.9061 21.1463 84.0115 22.0427C82.9963 23.1083 81.6715 23.6411 80.0443 23.6411C78.4855 23.6411 77.1589 23.1011 76.0699 22.0211C74.9791 20.9393 74.4337 19.6001 74.4337 18.0017C74.4337 16.4015 74.9791 15.0623 76.0699 13.9823C77.1589 12.9005 78.4855 12.3605 80.0443 12.3605C80.8183 12.3605 81.5581 12.5117 82.2601 12.8123C82.9639 13.1147 83.5273 13.5161 83.9485 14.0183L82.9999 14.9687C82.2853 14.1137 81.3007 13.6871 80.0425 13.6871C78.9049 13.6871 77.9221 14.0867 77.0923 14.8859C76.2625 15.6851 75.8485 16.7237 75.8485 17.9999C75.8485 19.2761 76.2625 20.3147 77.0923 21.1139C77.9221 21.9131 78.9049 22.3127 80.0425 22.3127C81.2485 22.3127 82.2547 21.9113 83.0593 21.1067C83.5813 20.5829 83.8837 19.8539 83.9647 18.9197H80.0425V17.6219H85.2751C85.3291 17.9045 85.3525 18.1763 85.3525 18.4373Z" stroke="white" stroke-width="0.2" stroke-miterlimit="10"/>
<path d="M93.6507 13.9266H88.7331V17.3502H93.1683V18.648H88.7331V22.0716H93.6507V23.4H87.3453V12.6H93.6507V13.9266Z" stroke="white" stroke-width="0.2" stroke-miterlimit="10"/>
<path d="M99.5023 23.4H98.1145V13.9266H95.0977V12.6H102.519V13.9266H99.5023V23.4Z" stroke="white" stroke-width="0.2" stroke-miterlimit="10"/>
<path d="M107.888 23.4V12.6H109.276V23.4H107.888Z" stroke="white" stroke-width="0.2" stroke-miterlimit="10"/>
<path d="M115.431 23.4H114.043V13.9266H111.026V12.6H118.447V13.9266H115.431V23.4Z" stroke="white" stroke-width="0.2" stroke-miterlimit="10"/>
<path d="M132.496 22.005C131.434 23.0958 130.115 23.6412 128.536 23.6412C126.957 23.6412 125.638 23.0958 124.578 22.005C123.516 20.9142 122.987 19.5786 122.987 18C122.987 16.4214 123.516 15.0858 124.578 13.995C125.638 12.9042 126.957 12.357 128.536 12.357C130.106 12.357 131.423 12.906 132.489 14.0022C133.555 15.0984 134.087 16.4304 134.087 18C134.087 19.5786 133.556 20.9142 132.496 22.005ZM125.602 21.0996C126.401 21.9096 127.379 22.3128 128.536 22.3128C129.693 22.3128 130.673 21.9078 131.47 21.0996C132.269 20.2896 132.671 19.2564 132.671 18C132.671 16.7436 132.269 15.7104 131.47 14.9004C130.673 14.0904 129.693 13.6872 128.536 13.6872C127.379 13.6872 126.401 14.0922 125.602 14.9004C124.805 15.7104 124.403 16.7436 124.403 18C124.403 19.2564 124.805 20.2896 125.602 21.0996Z" stroke="white" stroke-width="0.2" stroke-miterlimit="10"/>
<path d="M136.035 23.4V12.6H137.723L142.972 21.0006H143.032L142.972 18.9198V12.6H144.36V23.4H142.911L137.419 14.5908H137.36L137.419 16.6716V23.4H136.035Z" stroke="white" stroke-width="0.2" stroke-miterlimit="10"/>
<g filter="url(#filter0_ii_10_168)">
<path d="M18.7848 13.5684C18.261 14.1228 17.9514 14.9832 17.9514 16.0974V55.9062C17.9514 57.0222 18.261 57.8808 18.7848 58.4352L18.918 58.5648L41.2182 36.2646V36.0018V35.739L18.918 13.437L18.7848 13.5684Z" fill="url(#paint0_linear_10_168)"/>
<path d="M48.6504 43.7004L41.2182 36.2646V36.0018V35.739L48.6522 28.305L48.8196 28.4004L57.627 33.4044C60.1416 34.8336 60.1416 37.1718 57.627 38.6028L48.8196 43.6068L48.6504 43.7004Z" fill="url(#paint1_linear_10_168)"/>
<g filter="url(#filter1_i_10_168)">
<path d="M48.8196 43.605L41.2164 36.0018L18.7848 58.4352C19.6128 59.3136 20.9826 59.4216 22.5252 58.5468L48.8196 43.605Z" fill="url(#paint2_linear_10_168)"/>
</g>
<path d="M48.8196 28.3986L22.5252 13.4586C20.9826 12.582 19.6128 12.6918 18.7848 13.5702L41.2182 36.0036L48.8196 28.3986Z" fill="url(#paint3_linear_10_168)"/>
</g>
<path d="M5 1H238V-1H5V1ZM242 5V67H244V5H242ZM238 71H5V73H238V71ZM1 67V5H-1V67H1ZM5 71C2.79086 71 1 69.2091 1 67H-1C-1 70.3137 1.68629 73 5 73V71ZM242 67C242 69.2091 240.209 71 238 71V73C241.314 73 244 70.3137 244 67H242ZM238 1C240.209 1 242 2.79086 242 5H244C244 1.68629 241.314 -1 238 -1V1ZM5 -1C1.68629 -1 -1 1.68629 -1 5H1C1 2.79086 2.79086 1 5 1V-1Z" fill="white"/>
<defs>
<filter id="filter0_ii_10_168" x="17.9514" y="12.8537" width="41.5615" height="46.2974" filterUnits="userSpaceOnUse" color-interpolation-filters="sRGB">
<feFlood flood-opacity="0" result="BackgroundImageFix"/>
<feBlend mode="normal" in="SourceGraphic" in2="BackgroundImageFix" result="shape"/>
<feColorMatrix in="SourceAlpha" type="matrix" values="0 0 0 0 0 0 0 0 0 0 0 0 0 0 0 0 0 0 127 0" result="hardAlpha"/>
<feOffset dy="-0.15"/>
<feComposite in2="hardAlpha" operator="arithmetic" k2="-1" k3="1"/>
<feColorMatrix type="matrix" values="0 0 0 0 0 0 0 0 0 0 0 0 0 0 0 0 0 0 0.12 0"/>
<feBlend mode="normal" in2="shape" result="effect1_innerShadow_10_168"/>
<feColorMatrix in="SourceAlpha" type="matrix" values="0 0 0 0 0 0 0 0 0 0 0 0 0 0 0 0 0 0 127 0" result="hardAlpha"/>
<feOffset dy="0.15"/>
<feComposite in2="hardAlpha" operator="arithmetic" k2="-1" k3="1"/>
<feColorMatrix type="matrix" values="0 0 0 0 1 0 0 0 0 1 0 0 0 0 1 0 0 0 0.25 0"/>
<feBlend mode="normal" in2="effect1_innerShadow_10_168" result="effect2_innerShadow_10_168"/>
</filter>
<filter id="filter1_i_10_168" x="18.7848" y="36.0018" width="30.0348" height="23.1492" filterUnits="userSpaceOnUse" color-interpolation-filters="sRGB">
<feFlood flood-opacity="0" result="BackgroundImageFix"/>
<feBlend mode="normal" in="SourceGraphic" in2="BackgroundImageFix" result="shape"/>
<feColorMatrix in="SourceAlpha" type="matrix" values="0 0 0 0 0 0 0 0 0 0 0 0 0 0 0 0 0 0 127 0" result="hardAlpha"/>
<feOffset dy="-0.15"/>
<feComposite in2="hardAlpha" operator="arithmetic" k2="-1" k3="1"/>
<feColorMatrix type="matrix" values="0 0 0 0 0 0 0 0 0 0 0 0 0 0 0 0 0 0 0.08 0"/>
<feBlend mode="normal" in2="shape" result="effect1_innerShadow_10_168"/>
</filter>
<linearGradient id="paint0_linear_10_168" x1="39.2415" y1="15.6762" x2="9.03386" y2="45.8838" gradientUnits="userSpaceOnUse">
<stop stop-color="#00A0FF"/>
<stop offset="0.0066" stop-color="#00A1FF"/>
<stop offset="0.2601" stop-color="#00BEFF"/>
<stop offset="0.5122" stop-color="#00D2FF"/>
<stop offset="0.7604" stop-color="#00DFFF"/>
<stop offset="1" stop-color="#00E3FF"/>
</linearGradient>
<linearGradient id="paint1_linear_10_168" x1="60.9003" y1="36.0018" x2="17.3477" y2="36.0018" gradientUnits="userSpaceOnUse">
<stop stop-color="#FFE000"/>
<stop offset="0.4087" stop-color="#FFBD00"/>
<stop offset="0.7754" stop-color="#FFA500"/>
<stop offset="1" stop-color="#FF9C00"/>
</linearGradient>
<linearGradient id="paint2_linear_10_168" x1="44.6906" y1="40.1308" x2="3.72527" y2="81.0961" gradientUnits="userSpaceOnUse">
<stop stop-color="#FF3A44"/>
<stop offset="1" stop-color="#C31162"/>
</linearGradient>
<linearGradient id="paint3_linear_10_168" x1="13.1353" y1="0.318245" x2="31.4274" y2="18.6104" gradientUnits="userSpaceOnUse">
<stop stop-color="#32A071"/>
<stop offset="0.0685" stop-color="#2DA771"/>
<stop offset="0.4762" stop-color="#15CF74"/>
<stop offset="0.8009" stop-color="#06E775"/>
<stop offset="1" stop-color="#00F076"/>
</linearGradient>
</defs>
</svg>
