<svg width="44" height="44" viewBox="0 0 44 44" fill="none" xmlns="http://www.w3.org/2000/svg">
<circle cx="22" cy="22" r="22" fill="#008EF0"/>
<g clip-path="url(#clip0_244_641)">
<path d="M28.7606 20.1667V8.25H15.2397V20.1667C15.2397 23.4896 17.646 26.2396 20.8543 26.8125V33.5729H17.0731C16.5002 33.5729 15.9272 34.0312 15.9272 34.7187C15.9272 35.4062 16.3856 35.8646 17.0731 35.8646H26.9272C27.5002 35.8646 28.0731 35.4062 28.0731 34.7187C28.0731 34.0312 27.6147 33.5729 26.9272 33.5729H23.146V26.8125C26.2397 26.3542 28.7606 23.6042 28.7606 20.1667ZM17.4168 20.1667V10.4271H26.5835V20.1667C26.5835 22.6875 24.521 24.75 22.0002 24.75C19.4793 24.75 17.4168 22.6875 17.4168 20.1667Z" fill="white"/>
</g>
<defs>
<clipPath id="clip0_244_641">
<rect width="27.5" height="27.5" fill="white" transform="translate(8.25 8.25)"/>
</clipPath>
</defs>
</svg>
