<svg width="44" height="44" viewBox="0 0 44 44" fill="none" xmlns="http://www.w3.org/2000/svg">
<circle cx="22" cy="22" r="22" fill="#008EF0"/>
<g clip-path="url(#clip0_244_165)">
<path d="M22 35.75C20.8542 35.75 19.7083 35.6354 18.5625 35.2917C18.4479 35.2917 18.3333 35.2917 18.2188 35.2917C17.875 35.1771 17.5312 35.0625 17.0729 34.9479L16.8438 34.8333C11.6875 32.7708 8.25 27.7292 8.25 22.1146C8.25 21.0833 8.36458 20.2812 8.47917 19.3646C8.47917 19.25 8.59375 19.1354 8.59375 18.9063C10.0833 12.8333 15.5833 8.25 22.2292 8.25C22.3438 8.25 25.6667 8.59375 27.1562 9.16667C27.8438 9.39583 29.4479 10.4271 29.4479 10.4271C34.375 13.6354 36.7813 19.7083 35.2917 25.3229C35.2917 25.4375 34.2604 28.3021 33.5729 29.4479C33.5729 29.4479 33.5729 29.5625 33.4583 29.5625C31.2812 32.8854 27.7292 35.0625 23.9479 35.5208C23.8333 35.5208 23.7188 35.5208 23.6042 35.5208C23.1458 35.6354 22.5729 35.75 22 35.75ZM19.7083 33.2292C20.8542 33.4583 22 33.5729 23.2604 33.4583C23.2604 32.6562 23.7188 32.0833 24.0625 31.7396C26.9271 29.7917 27.3854 28.7604 27.2708 28.5313C27.0417 27.6146 24.75 26.6979 24.0625 26.6979C23.2604 26.5833 21.7708 25.7812 20.0521 24.0625C18.5625 22.5729 17.7604 23.1458 17.4167 23.375C16.7292 23.9479 15.6979 23.7188 15.5833 23.7188C15.4688 23.7188 15.3542 23.6042 15.125 23.6042C15.3542 23.7188 15.5833 23.9479 15.6979 24.1771C16.6146 25.0938 16.2708 26.5833 15.8125 27.9583C16.0417 28.4167 16.9583 28.875 17.875 28.9896C18.4479 29.1042 19.25 29.5625 19.5938 30.4792C19.9375 31.1667 19.9375 31.9688 19.5938 32.8854C19.7083 33 19.7083 33.1146 19.7083 33.2292ZM10.7708 23.6042C11.3438 27.6146 13.9792 30.9375 17.5313 32.4271C17.5313 32.3125 17.6458 32.1979 17.6458 32.0833C17.7604 31.7396 17.7604 31.5104 17.7604 31.3958L17.5313 31.1667C16.7292 30.9375 14.6667 30.4792 13.9792 29.1042C13.75 28.7604 13.5208 28.0729 13.75 27.2708C14.0938 25.7813 13.9792 25.4375 13.9792 25.4375C12.6042 24.8646 11.4583 24.2917 10.7708 23.6042ZM24.1771 24.4063C25.3229 24.5208 28.7604 25.5521 29.3333 27.8438C29.6771 29.2188 28.875 30.7083 26.9271 32.3125C29.9062 30.9375 32.0833 28.1875 33 24.9792C33.1146 23.375 33.1146 22.2292 33 21.7708C32.8854 21.3125 32.7708 21.0833 32.7708 21.0833C31.9688 21.6562 30.3646 22.8021 29.4479 21.8854C25.8958 18.4479 26.8125 15.8125 27.1562 15.0104C27.1562 14.8958 27.2708 14.7812 27.3854 14.6667C27.9583 14.0938 28.0729 13.75 28.0729 13.6354C27.6146 13.0625 27.5 12.375 27.5 11.8021C26.2396 11.1146 24.8646 10.6562 23.375 10.4271C23.2604 10.8854 22.9167 11.3438 22.6875 11.8021C22.2292 12.375 21.5417 12.8333 20.8542 13.0625C20.625 13.6354 20.0521 14.2083 19.1354 14.6667C19.0208 15.0104 18.7917 15.2396 18.7917 15.5833C18.6771 15.8125 18.5625 16.1563 18.4479 16.2708C18.1042 16.6146 17.6458 16.9583 17.0729 17.1875C16.8438 18.1042 16.5 19.1354 15.8125 19.7083C15.2396 20.0521 14.7812 20.1667 14.2083 20.0521C14.2083 20.2813 14.2083 20.5104 14.2083 20.7396C14.6667 20.9688 15.3542 21.1979 16.2708 21.5417C16.7292 21.0833 19.0208 19.8229 21.6562 22.4583C23.0312 23.8333 24.0625 24.2917 24.1771 24.4063ZM10.7708 19.8229C10.8854 20.2813 11.2292 21.0833 12.0312 21.7708C11.9167 21.5417 11.9167 21.3125 11.9167 21.0833C12.0313 20.625 11.9167 20.0521 11.8021 19.8229C11.5729 19.25 11.2292 18.7917 11.2292 18.4479C11 18.9062 10.8854 19.3646 10.7708 19.8229ZM29.2188 16.2708C29.1042 16.6146 28.7604 17.9896 30.5938 19.8229C30.8229 19.7083 31.0521 19.5938 31.3958 19.25C31.8542 18.9063 32.5417 18.7917 33 18.7917C32.5417 17.0729 31.625 15.4688 30.3646 14.0938C30.25 15.0104 29.6771 15.6979 29.2188 16.2708ZM12.6042 16.1563C12.9479 16.1563 13.2917 16.2708 13.75 16.5C13.9792 16.6146 14.2083 16.8438 14.3229 17.1875C14.3229 17.3021 14.4375 17.5312 14.5521 17.6458C14.6667 17.4167 14.8958 16.8438 14.8958 16.0417C14.8958 15.9271 14.8958 15.9271 14.8958 15.8125C15.0104 15.125 15.6979 14.6667 16.2708 14.8958C16.3854 14.8958 16.5 14.8958 16.5 14.7812C16.8438 13.9792 17.3021 13.4063 17.5313 13.1771C17.6458 13.0625 17.7604 12.9479 17.875 12.8333C18.5625 12.6042 18.7917 12.375 18.7917 12.2604C18.7917 11.6875 19.1354 11.2292 19.7083 11.1146C20.1667 11 20.5104 10.8854 20.8542 10.6562C17.0729 11 13.8646 13.1771 12.1458 16.2708H12.2604C12.375 16.2708 12.4896 16.1563 12.6042 16.1563Z" fill="white"/>
</g>
<defs>
<clipPath id="clip0_244_165">
<rect width="27.5" height="27.5" fill="white" transform="translate(8.25 8.25)"/>
</clipPath>
</defs>
</svg>
