<svg width="44" height="44" viewBox="0 0 44 44" fill="none" xmlns="http://www.w3.org/2000/svg">
<circle cx="22" cy="22" r="22" fill="#008EF0"/>
<g clip-path="url(#clip0_244_629)">
<path d="M16.6147 35.75C15.6981 35.75 14.7814 35.4063 14.0939 34.7188C13.4064 34.0313 13.1772 33.1146 13.1772 32.1979L14.0939 20.7396L11.8022 18.2188V9.39583C11.8022 8.70833 12.2606 8.25 12.9481 8.25C13.6356 8.25 14.0939 8.70833 14.0939 9.39583V17.3021L16.6147 19.7083L15.5835 32.3125C15.5835 32.6562 15.6981 32.8854 15.8127 33.1146C16.271 33.5729 16.9585 33.5729 17.4168 33.1146C17.646 32.8854 17.7606 32.6562 17.646 32.3125L16.6147 19.7083L19.021 17.3021V9.39583C19.021 8.70833 19.4793 8.25 20.1668 8.25C20.8543 8.25 21.3127 8.70833 21.3127 9.39583V18.2188L18.9064 20.625L19.8231 32.0833C19.9377 33 19.5939 33.9167 18.9064 34.6042C18.4481 35.4062 17.5314 35.75 16.6147 35.75Z" fill="white"/>
<path d="M15.3543 16.9583C14.896 16.9583 14.5522 16.6146 14.5522 16.1562V9.05208C14.6668 8.59375 15.0106 8.25 15.3543 8.25C15.6981 8.25 16.1564 8.59375 16.1564 9.05208V16.2708C16.1564 16.6146 15.8127 16.9583 15.3543 16.9583Z" fill="white"/>
<path d="M17.7607 16.9583C17.417 16.9583 17.0732 16.6146 17.0732 16.1562V9.05208C17.0732 8.59375 17.417 8.25 17.7607 8.25C18.2191 8.25 18.5628 8.59375 18.5628 9.05208V16.2708C18.5628 16.6146 18.2191 16.9583 17.7607 16.9583Z" fill="white"/>
<path d="M27.3857 35.75C26.4691 35.75 25.5524 35.4062 24.8649 34.7187C24.1774 34.0312 23.9482 33.1146 23.9482 32.1979L24.8649 21.6562C23.4899 20.3958 22.5732 18.1041 22.5732 15.4687C22.5732 11.4583 24.6357 8.36456 27.2712 8.36456C29.9066 8.36456 31.9691 11.4583 31.9691 15.4687C31.9691 17.9896 31.0524 20.3958 29.6774 21.6562C30.5941 32.4271 30.5941 32.4271 30.5941 32.5416C30.7087 34.2604 29.2191 35.75 27.3857 35.75ZM27.3857 10.5416C26.2399 10.5416 24.9795 12.6041 24.9795 15.3541C24.9795 17.7604 25.8962 19.4791 26.8128 20.0521L27.3857 20.3958L26.3545 32.3125C26.3545 32.6562 26.4691 32.8854 26.5837 33.1146C27.1566 33.8021 28.417 33.3437 28.417 32.4271C28.3024 31.625 27.5003 21.0833 27.5003 21.0833L27.3857 20.3958L27.9587 20.0521C28.8753 19.4791 29.792 17.875 29.792 15.3541C29.9066 12.6041 28.5316 10.5416 27.3857 10.5416Z" fill="white"/>
</g>
<defs>
<clipPath id="clip0_244_629">
<rect width="27.5" height="27.5" fill="white" transform="translate(8.25 8.25)"/>
</clipPath>
</defs>
</svg>
