<svg width="44" height="44" viewBox="0 0 44 44" fill="none" xmlns="http://www.w3.org/2000/svg">
<circle cx="22" cy="22" r="22" fill="#008EF0"/>
<g clip-path="url(#clip0_244_603)">
<path d="M29.104 10.5417H26.4686C26.2394 9.16667 25.0936 8.25 23.604 8.25H20.2811C18.9061 8.25 17.7603 9.28125 17.5311 10.5417H14.8957C13.6353 10.5417 12.604 11.5729 12.604 12.9479V33.4583C12.604 34.7188 13.6353 35.75 14.8957 35.75H28.9894C30.2498 35.75 31.2811 34.7188 31.2811 33.4583V12.9479C31.3957 11.6875 30.3644 10.5417 29.104 10.5417ZM19.479 11.1146C19.479 10.8854 19.5936 10.7708 19.7082 10.5417C19.8228 10.3125 20.0519 10.1979 20.3957 10.1979H23.7186C23.9478 10.1979 24.2915 10.3125 24.4061 10.5417C24.5207 10.6562 24.6353 10.8854 24.6353 11.1146V12.9479H19.479V11.1146ZM29.3332 33.4583C29.3332 33.6875 29.2186 33.8021 28.9894 33.8021H14.8957C14.6665 33.8021 14.5519 33.6875 14.5519 33.4583V12.9479C14.5519 12.7188 14.6665 12.6042 14.8957 12.6042H17.4165V13.1771C17.4165 14.0938 18.2186 14.8958 19.1353 14.8958H24.7498C25.6665 14.8958 26.4686 14.0938 26.4686 13.1771V12.6042H28.9894C29.2186 12.6042 29.3332 12.7188 29.3332 12.9479V33.4583Z" fill="white"/>
<path d="M26.6978 22.6875H17.3019C16.8436 22.6875 16.3853 22.3438 16.3853 21.7709C16.3853 21.3125 16.729 20.8542 17.3019 20.8542H26.6978C27.1561 20.8542 27.6144 21.1979 27.6144 21.7709C27.6144 22.3438 27.1561 22.6875 26.6978 22.6875Z" fill="white"/>
<path d="M26.6978 26.0104H17.3019C16.8436 26.0104 16.3853 25.6666 16.3853 25.0937C16.3853 24.6354 16.729 24.1771 17.3019 24.1771H26.6978C27.1561 24.1771 27.6144 24.5208 27.6144 25.0937C27.6144 25.5521 27.1561 26.0104 26.6978 26.0104Z" fill="white"/>
<path d="M23.1457 29.2188H17.3019C16.8436 29.2188 16.3853 28.875 16.3853 28.3021C16.3853 27.8438 16.729 27.3854 17.3019 27.3854H23.1457C23.604 27.3854 24.0623 27.7292 24.0623 28.3021C24.0623 28.7604 23.604 29.2188 23.1457 29.2188Z" fill="white"/>
<path d="M26.6978 19.4791H17.3019C16.8436 19.4791 16.3853 19.1354 16.3853 18.5625C16.3853 18.1041 16.729 17.6458 17.3019 17.6458H26.6978C27.1561 17.6458 27.6144 17.9896 27.6144 18.5625C27.6144 19.1354 27.1561 19.4791 26.6978 19.4791Z" fill="white"/>
</g>
<defs>
<clipPath id="clip0_244_603">
<rect width="27.5" height="27.5" fill="white" transform="translate(8.25 8.25)"/>
</clipPath>
</defs>
</svg>
