<svg width="44" height="44" viewBox="0 0 44 44" fill="none" xmlns="http://www.w3.org/2000/svg">
<circle cx="22" cy="22" r="22" fill="#008EF0"/>
<g clip-path="url(#clip0_244_442)">
<path d="M29.3333 35.1771C28.9896 35.1771 28.5312 35.0625 28.3021 34.8334L22 30.25L15.6979 34.8334C15.0104 35.2917 14.2083 35.2917 13.5208 34.8334C12.8333 34.375 12.6042 33.5729 12.8333 32.7709L15.2396 25.3229L8.9375 20.7396C8.25 20.2813 8.02083 19.4792 8.25 18.6771C8.47917 17.875 9.16667 17.4167 9.96875 17.4167H17.7604L20.1667 10.0834C20.5104 9.39585 21.1979 8.82294 22 8.82294C22.8021 8.82294 23.4896 9.28127 23.7187 10.0834L26.125 17.4167H33.9167C34.7187 17.4167 35.4062 17.875 35.6354 18.6771C35.8646 19.4792 35.6354 20.2813 34.9479 20.7396L28.6458 25.3229L31.0521 32.7709C31.2812 33.5729 31.0521 34.375 30.3646 34.8334C30.1354 35.0625 29.7917 35.1771 29.3333 35.1771ZM11.4583 19.8229L16.8437 23.7188C17.5312 24.1771 17.7604 24.9792 17.5312 25.7813L15.4687 32.1979L20.8542 28.3021C21.5417 27.8438 22.3437 27.8438 23.0312 28.3021L28.4167 32.1979L26.3542 25.7813C26.125 24.9792 26.3542 24.1771 27.0417 23.7188L32.4271 19.8229H25.6667C24.8646 19.8229 24.1771 19.3646 23.9479 18.5625L22 12.1459L19.9375 18.5625C19.7083 19.3646 19.0208 19.8229 18.2187 19.8229H11.4583Z" fill="white"/>
</g>
<defs>
<clipPath id="clip0_244_442">
<rect width="27.5" height="27.5" fill="white" transform="translate(8.25 8.25)"/>
</clipPath>
</defs>
</svg>
