<svg width="44" height="44" viewBox="0 0 44 44" fill="none" xmlns="http://www.w3.org/2000/svg">
<circle cx="22" cy="22" r="22" fill="#008EF0"/>
<g clip-path="url(#clip0_244_552)">
<path d="M30.9376 16.1562C26.4689 16.1562 26.5835 9.28125 30.9376 9.28125C35.4064 9.28125 35.4064 16.1562 30.9376 16.1562ZM30.9376 11.5729C29.4481 11.5729 29.4481 13.8646 30.9376 13.8646C32.4272 13.8646 32.4272 11.5729 30.9376 11.5729Z" fill="white"/>
<path d="M26.0103 23.1458V12.1458C26.0103 6.98956 17.9895 6.98956 17.9895 12.1458V23.1458C12.8332 26.9271 15.4687 35.5208 21.9999 35.5208C28.5312 35.5208 31.1666 26.9271 26.0103 23.1458ZM21.9999 33.2291C18.4478 33.2291 16.1562 28.9896 18.3332 26.0104C18.9062 25.2083 19.5937 24.6354 20.5103 24.2916V12.1458C20.5103 10.1979 23.6041 10.1979 23.6041 12.1458V24.4062C24.5207 24.75 25.3228 25.3229 25.7812 26.125C27.8437 28.9896 25.552 33.2291 21.9999 33.2291Z" fill="white"/>
<path d="M24.2914 28.6458C24.2914 32.0833 18.7914 31.1666 19.8226 27.9583C20.0518 27.2708 20.5101 26.6979 21.1976 26.4687V15.6979C21.1976 14.7812 22.6872 14.7812 22.6872 15.6979V26.4687C23.3747 26.6979 23.9476 27.2708 24.0622 27.9583C24.1768 28.1875 24.2914 28.4166 24.2914 28.6458Z" fill="white"/>
</g>
<defs>
<clipPath id="clip0_244_552">
<rect width="27.5" height="27.5" fill="white" transform="translate(8.25 8.25)"/>
</clipPath>
</defs>
</svg>
